<?xml version="1.0" encoding="utf-8"?>
<!-- Generator: Adobe Illustrator 26.3.1, SVG Export Plug-In . SVG Version: 6.00 Build 0)  -->
<svg version="1.1" id="Слой_1" xmlns="http://www.w3.org/2000/svg" xmlns:xlink="http://www.w3.org/1999/xlink" x="0px" y="0px"
	 viewBox="0 0 35 46" style="enable-background:new 0 0 35 46;" xml:space="preserve">
<style type="text/css">
	.st0{fill:#222426;}
	.st1{fill:#797647;}
</style>
<g>
	<g>
		<path class="st0" d="M30,38.2c-3.5-1.7-5.9-1.6-7.5-2.9c-0.2-0.2-0.4-1-0.5-1.6c1.5-1.1,2.8-2.6,3.4-4.5c0.2-0.7,0.4-1.2,0.5-1.6
			c0.5-0.1,1.1-0.5,2-1.3c1.1-1,2.6-4.2,1.9-6.2c-0.2-0.5-0.6-1-1.1-1.2C30.1,10,25.1,7.5,17.5,7.5c-5.8,0-12,1.5-10.9,11.3
			c-0.7,0.2-1.2,0.7-1.4,1.3c-0.8,2,0.8,5.2,1.9,6.2c0.9,0.8,1.5,1.2,2,1.3c0.1,0.3,0.2,0.9,0.5,1.6c0.7,1.9,2,3.4,3.4,4.5
			c-0.2,0.8-0.5,1.6-0.5,1.6c-1.6,1.3-4,1.2-7.5,2.9C1.5,39.9,0.2,46,0.2,46h17.3h17.3C34.8,46,33.5,39.9,30,38.2z M17.5,37.9
			c-3.1,0-3.8-1.9-3.9-2.5c0.1-0.2,0.2-0.7,0.3-1.1c1.2,0.7,2.5,1,3.6,1c1.1,0,2.3-0.4,3.5-1c0.1,0.6,0.3,1,0.4,1.2
			C21.2,36.1,20.4,37.9,17.5,37.9z M21,33.1c-0.8,0.5-1.5,0.8-2.2,1c-0.5,0.1-0.9,0.2-1.3,0.2c-0.4,0-0.8-0.1-1.3-0.2
			c-0.7-0.2-1.5-0.5-2.2-1c-1.4-0.9-2.7-2.3-3.4-4.2c-0.4-1.1-0.5-1.8-0.5-1.8L10,26.5l-0.6,0.1c-0.1,0-0.6-0.1-1.6-1
			C7,24.8,5.6,22,6.2,20.5c0.2-0.5,0.6-0.8,1.3-0.9L8,19.6v-0.1c0.3,0.3,0.6,1.2,1,3.9h0.7v-7.1c0,0,10.1,1.3,13.5-2.7
			c0.4,0.2,0.7,0.4,1,0.6c1.5,3,1.3,9.2,1.3,9.2h0.8c0,0,0.3-2.9,0.8-3.8l0.4,0c0.7,0.1,1.1,0.3,1.3,0.9c0.6,1.5-0.7,4.3-1.6,5.1
			c-1,0.9-1.5,1-1.6,1L25,26.5l-0.1,0.6c0,0-0.1,0.8-0.5,1.8C23.7,30.8,22.4,32.2,21,33.1z"/>
		<path class="st1" d="M30,38.2c-3.4-1.7-5.8-1.6-7.4-2.8h-1.3c0,0.1,0,0.1,0.1,0.1c-0.2,0.5-1.1,2.4-3.9,2.4
			c-3.1,0-3.8-1.9-3.9-2.5h-1.3c-1.6,1.2-4,1.2-7.4,2.8C1.5,39.9,0.2,46,0.2,46h17.3h17.3C34.8,46,33.5,39.9,30,38.2z"/>
	</g>
	<g>
		<g>
			<g>
				<path class="st0" d="M3,2.9L3.9,3v4.3C3.7,7.4,3.5,7.6,3.5,7.8c0,0.1,0.1,0.2,0.2,0.3C3.4,8.2,3.2,8.4,3.2,8.8v1.4h2V8.8
					c0-0.3-0.2-0.6-0.6-0.7C4.8,8,4.9,7.9,4.9,7.8c0-0.2-0.2-0.3-0.4-0.4V3.1l1,0.2V2.9H3z"/>
			</g>
		</g>
		<polygon class="st1" points="32.6,2.7 17.5,0 2.4,2.7 3.9,3 4.5,3.1 8.5,4 8.5,4 17.5,5.8 26.5,4 26.5,4 		"/>
		<path class="st0" d="M17.5,6.3l-0.3-0.1L8.5,4.5v6.9c0,1.1,4,2,9,2s9-0.9,9-2V4.5l-8.7,1.8L17.5,6.3z"/>
	</g>
</g>
</svg>
