<?xml version="1.0" encoding="utf-8"?>
<!-- Generator: Adobe Illustrator 26.3.1, SVG Export Plug-In . SVG Version: 6.00 Build 0)  -->
<svg version="1.1" id="Слой_1" xmlns="http://www.w3.org/2000/svg" xmlns:xlink="http://www.w3.org/1999/xlink" x="0px" y="0px"
	 viewBox="0 0 60 51" style="enable-background:new 0 0 60 51;" xml:space="preserve">
<style type="text/css">
	.st0{fill:#797647;}
	.st1{fill:#222426;}
</style>
<g>
	<path class="st0" d="M8.7,1.9v18.5l3.7-4.3l3.4,4.3V1.9c1.2,0.2,2.4,0.5,3.6,0.9V1.6c-2.3-0.7-4.7-1.1-7.1-1.1
		c-2.5,0-4.7,0.4-6.5,0.8v1.2C6.6,2.2,7.6,2,8.7,1.9z"/>
	<path class="st1" d="M59,6.5V2.8l-0.3-0.2c-0.2-0.1-4.5-2.2-10.5-2.2c-7,0-13.2,3-18,8.6c-4.8-5.6-11-8.6-18-8.6
		C6.3,0.5,1.9,2.6,1.8,2.6L1.4,2.8v3.7H0v0.7v38.1V46c0,0,15.4-8.5,29.8,0.1c0,0,0.2,0.2,0.2,0.1c0.1,0,0.2-0.1,0.2-0.1
		c1.8-1.1,3.6-1.9,5.4-2.5c1.7,4.5,5.7,6.9,5.7,6.9h11c0,0,1.8-2.8,2.7-6.6c3.1,1,4.9,2,4.9,2v-0.7V7.1V6.5H59z M30.8,10.1
		c4.7-5.7,10.5-8.5,17.5-8.5c4.8,0,8.6,1.4,9.7,1.9v35.6c-0.8-0.4-1.6-0.7-2.4-1c-0.3-4.7-2.2-5.1-2.9-5.1c0,0.6-0.1,1.3-0.1,1.8
		c0,0.7-0.1,1.2-0.1,1.6c0,0.4-0.1,0.6-0.1,0.6s0-0.2-0.1-0.6c0-0.4-0.1-1-0.1-1.6c-0.1-1.3-0.1-2.9-0.2-4.6
		c-0.9-2.2-2.8-1.7-3.5-1.5c0,2-0.1,4-0.2,5.5c0,0.8-0.1,1.6-0.1,2c0,0.1,0,0.1,0,0.2c0,0-0.1,0-0.1,0c0,0,0-0.1,0-0.1
		c0-0.5-0.1-1.2-0.1-2c-0.1-1.7-0.2-4-0.2-6.2c0-0.6,0-1.1,0-1.7c-0.9-1.8-2.7-1.6-3.5-1.4c0,0.6,0,1.2,0,1.8c0,1.3,0,2.6,0,3.8
		c0,1.2-0.1,2.3-0.1,3.3c0,1-0.1,1.8-0.1,2.3c0,0.1,0,0.2,0,0.2c0,0-0.1,0-0.1,0c0-0.1,0-0.2,0-0.3c0-0.6-0.1-1.4-0.1-2.3
		c0-1-0.1-2.1-0.1-3.3c0-1.2,0-2.5,0-3.8c0-1.3,0-2.6,0-3.8c0-1.2,0.1-2.3,0.1-3.3c0-0.3,0-0.7,0-1c0-0.1,0-0.1,0-0.2
		c2.8-0.7,6.2-1,10-0.2l0.2-1.1c-4-0.8-7.6-0.5-10.6,0.2c-0.4-0.8-1-1.3-1.9-1.3c-0.9,0-1.5,1.1-1.9,2.6C35.4,20.5,33,23,33,23
		l0.8,0.8c0,0,2-2,5.4-3.7C38.8,23.3,39,27.5,39,29c0.1,2,0.1,6.7,0.1,8.3c0,0-0.1,0-0.1,0l-1.2-6.6c-0.6,0-2.9,2-3,8.1
		c-1.8,0.8-3.2,1.6-4.1,2.2V11.6v-1.3V10.1z M2.6,3.5c0.8-0.3,3-1.2,6.2-1.7c1.7-0.2,5.3-0.3,7.1,0c5.4,0.9,10.1,3.6,13.9,8.3v0.7
		v0.8v29.3c-2.1-1.4-7.6-4.5-15.1-4.5c-4,0-8.1,0.9-12,2.7V3.5z M30.2,44.3c0,0-10-8.7-28.2-2v-1.7l0.2-0.1c4-2,8.2-3,12.3-3
		c9.1,0,15.3,4.9,15.3,4.9l0.3,0.4l0.3-0.4c0,0,1.6-1.3,4.3-2.5c0,0.7,0.1,1.3,0.3,1.9C32,43,30.2,44.3,30.2,44.3z M55.5,41.3
		c0.1-0.5,0.1-1.1,0.1-1.7c0-0.1,0-0.2,0-0.3c0.9,0.3,1.8,0.7,2.6,1.1l0.2,0.1v1.7C57.5,41.9,56.5,41.6,55.5,41.3z"/>
	<path class="st1" d="M53.6,7.8l0.2-1.1C41.1,4.1,33.1,12.4,33,12.5l0.8,0.8C33.9,13.2,41.5,5.4,53.6,7.8z"/>
	<path class="st1" d="M53.6,13l0.2-1.1C41.1,9.4,33.1,17.7,33,17.7l0.8,0.8C33.9,18.4,41.5,10.6,53.6,13z"/>
</g>
</svg>
