<?xml version="1.0" encoding="utf-8"?>
<!-- Generator: Adobe Illustrator 26.3.1, SVG Export Plug-In . SVG Version: 6.00 Build 0)  -->
<svg version="1.1" xmlns="http://www.w3.org/2000/svg" xmlns:xlink="http://www.w3.org/1999/xlink" x="0px" y="0px"
	 viewBox="0 0 100 100" style="enable-background:new 0 0 100 100;" xml:space="preserve">
<style type="text/css">
	.st0{fill:#F80505;}
	.st1{fill:#1131A9;}
	.st2{fill:#FCFDFC;}
</style>
<g id="Слой_2">
</g>
<g id="Слой_1">
	<path class="st0" d="M98.8,62.6c0,0-0.1,0.1-0.1,0.1c-0.6,3.8-2.1,7.3-4,10.6c-1.4,2.4-2.9,4.7-4.8,6.8c-1.2,1.3-2.5,2.6-3.8,3.8
		c-3,2.8-6.4,5.1-10.1,6.9c-3.4,1.6-6.9,3-10.5,4c-2.2,0.6-4.5,1.1-6.7,1.3c-3.1,0.4-6.3,0.5-9.5,0.4c-3.2-0.1-6.4-0.4-9.6-1.1
		c-5.3-1-10.3-2.8-15-5.3c-3.9-2.1-7.7-4.6-10.9-7.7C10.6,79.3,7.7,76,5.6,72c-1.5-2.8-2.9-5.8-3.8-8.9c-0.2-0.5-0.3-1.1-0.4-1.6
		c0-0.1-0.1-0.3-0.1-0.4c0-0.3,0-0.7,0-1c0,0,0,0,0,0c0.4-0.6,1-0.6,1.6-0.6c3.5,0,7.1-0.1,10.6-0.1c0.4,0,0.8,0.1,1.1,0.3
		c0.7,0.6,1.5,1.1,2.2,1.6c0.1,0.1,0.2,0.3,0.2,0.5c-0.2,0-0.3,0.1-0.5,0.1c-3.7,0.1-7.4,0.1-11.1,0.2c-0.1,0-0.2,0-0.4,0
		c0.1,0.6,0.2,1.2,0.4,1.7c1,2.9,2.3,5.5,4,8.1c1.7,2.5,3.5,5,5.7,7.2c2.6,2.6,5.5,4.9,8.7,6.7c1.8,1,3.5,2,5.4,2.9
		c2.3,1.1,4.6,1.9,7,2.6c1.8,0.5,3.6,0.9,5.4,1.3c1.5,0.3,3.1,0.4,4.7,0.6c2.7,0.2,5.4,0.4,8.1,0.2c3.4-0.3,6.7-0.7,10-1.6
		c4-1.1,8-2.6,11.6-4.8c1.4-0.8,2.9-1.6,4.2-2.7c2.1-1.7,4.2-3.3,6-5.3c3.1-3.4,5.7-7.2,7.4-11.5c0.6-1.4,1.2-2.8,1.5-4.4
		c0-0.1,0-0.3,0.1-0.5c-0.2,0-0.3,0-0.5,0c-1.9,0-3.8,0-5.7,0c-2.2,0-4.3,0-6.5,0c-0.2,0-0.4-0.2-0.6-0.3c0.7-1,1.5-1.8,2.5-2.3
		c0.1-0.1,0.3-0.1,0.4-0.1c4.2,0,8.4,0,12.6,0c0.5,0,0.8,0.2,0.9,0.6c0,0.1,0.1,0.2,0.2,0.3C98.8,61.4,98.8,62,98.8,62.6z"/>
	<path class="st1" d="M43.5,3.4c0,0.4,0.1,0.8,0.1,1.3c-0.5,0.1-1,0.1-1.6,0.2C42,4.5,42,4.1,41.9,3.7c0.5-0.1,0.9-0.2,1.3-0.3
		C43.3,3.4,43.4,3.4,43.5,3.4z"/>
	<path class="st1" d="M79,61.2c-1.5-0.1-3-0.2-4.4-0.2c-6.7,0-13.3,0-20,0c-8.2,0-16.3-0.1-24.5-0.1c-1,0-1.9-0.1-2.9-0.5
		c-1.6-0.7-2.2-2.1-1.5-3.7c0.5-1.1,1.2-2.1,1.8-3.1c1.8-2.7,3.6-5.4,5.5-8.2c2-3,4-6,6-9c3.3-4.9,6.5-9.8,9.8-14.7
		c1.1-1.7,2.3-3.4,3.5-5c0.4-0.5,0.8-0.9,1.2-1.3c1.9-1.7,3.9-1.6,5.4,0.5c0.8,1.2,1.5,2.5,2.3,3.7c4.1,6.9,8.2,13.9,12.3,20.8
		c2.8,4.8,5.7,9.5,8.6,14.3c0.7,1.1,1.1,2.3,1.1,3.7c0.1,1.3-0.4,2.1-1.7,2.5c-0.8,0.2-1.7,0.3-2.5,0.5C79.1,61.2,79.1,61.2,79,61.2
		z M52.8,27.4c-1,0.2-1.5,0.9-1.5,2c0,2.3,0.1,4.7,0.1,7c0,4.1,0,8.2,0,12.3c0,0.2,0,0.3,0.1,0.5c0.4,0,0.8,0,1.2,0
		C52.6,41.9,52.7,34.7,52.8,27.4z M54.8,49.2c0-0.1,0-0.1,0-0.1c0-6.9,0-13.8,0-20.7c0-0.1,0-0.2,0-0.3c-0.4-0.3-0.7-0.6-1.2-0.7
		c0,7.3,0,14.5,0,21.8C53.9,49.2,54.3,49.2,54.8,49.2z M57,49.3c0-0.3,0-0.5,0-0.8c0-6.2,0-12.4,0-18.6c0-0.2,0-0.4-0.1-0.5
		c-0.4-0.3-0.8-0.5-1.2-0.8c0,1-0.1,1.9-0.1,2.8c0,3.1,0.1,6.3,0.1,9.4c0,2.3-0.1,4.7-0.1,7c0,0.5,0.1,0.9,0.1,1.4
		c0.1,0,0.1,0,0.2,0C56.2,49.3,56.5,49.3,57,49.3z M50.5,28.8c-0.2,0-0.3,0.1-0.4,0.1c-0.7,0.2-0.9,0.5-0.9,1.2c0,6.1,0,12.2,0,18.3
		c0,0.2,0,0.4,0,0.6c0,0.1,0.1,0.3,0.2,0.3c0.4,0,0.7,0,1.1-0.1C50.5,42.4,50.5,35.7,50.5,28.8z M48.4,49.2c0-6.4,0-12.7,0-19
		c-0.8,0.2-1.3,0.7-1.3,1.6c0,5.7,0,11.3,0,17c0,0.1,0,0.3,0,0.4C47.5,49.2,47.9,49.2,48.4,49.2z M57.7,30.1
		c0.1,6.5,0.1,12.8,0.2,19.1c0.4,0,0.8,0,1.1,0c0-0.1,0-0.2,0-0.3c0-2.4,0-4.7,0-7.1c0-3.5,0.1-6.9,0.1-10.4c0-0.1,0-0.3-0.1-0.4
		C58.6,30.7,58.2,30.4,57.7,30.1z M70,46.9c0-0.6-0.1-1.1-0.1-1.6c0-0.1-0.1-0.2-0.2-0.3c-0.6-0.4-1.3-0.8-1.9-1.2
		c-0.5-0.3-1-0.3-1.5-0.2c-2.2,0.5-4.3,1-6.5,1.5c-0.1,0-0.2,0.1-0.2,0.2c0,0.5,0,1.1,0,1.6c0.3,0,0.6,0,0.8,0
		c1.7-0.2,3.4-0.5,5-0.7c1.1-0.2,2.2-0.2,3.3,0.4C69.1,46.6,69.5,46.7,70,46.9z M69.8,49.2c0-0.5,0.1-1,0.1-1.4c0-0.3,0-0.4-0.3-0.5
		c-1.1-0.5-2.3-0.6-3.5-0.5c-1.7,0.1-3.4,0.3-5,0.4c-0.5,0-1,0.1-1.5,0.2c0,0.6,0,1.2,0,1.7C63,49.2,66.4,49.2,69.8,49.2z
		 M59.6,39.6c0.2-0.1,0.4-0.1,0.6-0.2c1.1-0.6,2.1-1.1,3.2-1.7c1.2-0.6,2.3-1.3,3.5-1.9c0.1-0.1,0.4-0.1,0.4,0
		c0.6,0.8,1.1,1.5,1.6,2.3c0.2,0.3,0.3,0.5,0.5,0.8c0.1,0.1,0.2,0.2,0.4,0.4c0-0.6,0-1.1,0-1.6c0-0.1,0-0.2-0.1-0.2
		c-0.5-0.9-1-1.7-1.6-2.6c-0.3-0.6-0.6-1.1-1-1.7c-2.5,1.5-5,3-7.4,4.5c-0.1,0.1-0.2,0.2-0.2,0.3C59.6,38.5,59.6,39,59.6,39.6z
		 M69.7,44.3c0,0,0.1-0.1,0.1-0.1c0-0.3,0-0.6,0-0.9c0-0.6-0.1-1.1-0.7-1.4c-0.1-0.1-0.3-0.2-0.4-0.4c-0.4-0.4-0.8-0.9-1.2-1.2
		c-0.1-0.1-0.4-0.2-0.5-0.1c-2.4,0.8-4.8,1.6-7.2,2.5c-0.1,0-0.2,0.1-0.2,0.2c0,0.5,0,1.1,0,1.6c0.5-0.1,1-0.2,1.5-0.4
		c1.7-0.5,3.5-0.9,5.2-1.4c0.7-0.2,1.3-0.1,1.9,0.5C68.6,43.6,69.2,43.9,69.7,44.3z M69.8,41.9c0-0.6,0-1.1,0-1.5
		c0-0.2-0.1-0.3-0.2-0.5c-0.5-0.7-1-1.3-1.5-2c-0.2-0.3-0.5-0.6-0.7-1c-0.1-0.2-0.3-0.2-0.5-0.1c-1.5,0.7-3.1,1.5-4.6,2.2
		c-0.8,0.4-1.6,0.8-2.4,1.2c-0.1,0.1-0.2,0.2-0.3,0.3c0,0.5,0,0.9,0,1.4c0.1,0,0.2,0,0.3,0c1.4-0.5,2.8-1.1,4.3-1.6
		c0.9-0.3,1.8-0.7,2.7-1c0.1,0,0.4,0,0.5,0.1c0.6,0.7,1.3,1.3,1.9,2C69.4,41.6,69.6,41.7,69.8,41.9z M37.9,47.1
		c0.4-0.1,0.8-0.1,1.2-0.2c0.9-0.3,1.8-0.6,2.8-0.4c0.7,0.1,1.5,0.3,2.2,0.4c0.8,0.1,1.7,0.2,2.5,0.4c0-0.5,0-1,0-1.5
		c-0.1,0-0.2-0.1-0.3-0.1c-1.7-0.4-3.4-0.9-5.1-1.3c-0.2,0-0.4-0.1-0.6,0c-0.9,0.4-1.7,0.8-2.6,1.2c-0.1,0-0.2,0.2-0.2,0.2
		C37.9,46.2,37.9,46.6,37.9,47.1z M38.1,42.9c0.2-0.1,0.3-0.2,0.5-0.3c0.6-0.6,1.3-1.1,1.9-1.7c0.3-0.3,0.5-0.3,0.8-0.1
		c1.7,0.7,3.3,1.4,5,2.1c0.1,0.1,0.2,0.1,0.4,0.1c0-0.4,0-0.8,0-1.2c0-0.1-0.1-0.3-0.2-0.3c-0.9-0.5-1.9-1.1-2.8-1.6
		c-0.8-0.4-1.6-0.9-2.4-1.3c-0.1-0.1-0.4-0.1-0.5,0c-0.8,0.8-1.5,1.6-2.3,2.4C37.9,41.7,37.7,42.3,38.1,42.9z M46.6,45.2
		c0-0.4,0-0.8,0-1.1c0-0.2-0.1-0.4-0.3-0.5c-1.6-0.6-3.2-1.3-4.8-1.9c-0.5-0.2-0.9-0.1-1.4,0.3c-0.5,0.4-0.9,0.9-1.4,1.2
		c-0.8,0.4-0.8,1.1-0.8,1.9c0.2,0,0.3,0,0.4-0.1c0.5-0.3,1-0.5,1.5-0.8c0.6-0.4,1.2-0.7,2-0.3c1.1,0.4,2.2,0.7,3.3,1.1
		C45.6,44.9,46.1,45,46.6,45.2z M46.6,49.2c0-0.5,0-1,0-1.4c-0.2,0-0.3-0.1-0.5-0.1c-1-0.1-2-0.3-3-0.4c-1.6-0.2-3.3-0.3-4.8,0.4
		c-0.2,0.1-0.3,0.3-0.4,0.5c0,0.3,0.1,0.6,0.1,0.9C40.9,49.1,43.8,49.2,46.6,49.2z M64.9,55.8c0.1-0.2,0.3-0.5,0.4-0.7
		c0.2-0.5,0.3-1,0.9-0.8c0-0.2,0-0.4,0-0.6c-0.9-0.1-1.1,0.1-1.5,0.9c-0.1,0.2-0.2,0.5-0.3,0.7c-0.1,0.1-0.2,0.2-0.4,0.4
		c0,0-0.1,0-0.1-0.1c0-0.6,0-1.2,0-1.8c-0.3,0-0.6,0-0.9,0c0,0.6,0,1.2,0,1.9c0,0-0.1,0-0.1,0c-0.1-0.1-0.3-0.3-0.3-0.4
		c-0.1-0.2-0.2-0.5-0.3-0.7c-0.3-0.7-0.8-0.9-1.6-0.8c0,0.2,0.1,0.5,0.1,0.7c0.6-0.1,0.8,0.2,0.9,0.6c0.1,0.3,0.3,0.5,0.4,0.8
		c-0.7,0.5-0.9,1.5-1.4,2.3c0.3,0,0.5,0,0.7,0c0.3,0,0.4-0.1,0.5-0.3c0.2-0.4,0.4-0.9,0.6-1.3c0.1-0.1,0.2-0.3,0.4-0.4
		c0,0,0.1,0,0.1,0.1c0,0.5,0,1.1,0,1.6c0,0.1,0.1,0.3,0.2,0.4c0.5,0.2,0.7,0,0.7-0.5c0-0.5,0-1,0-1.5c0,0,0.1,0,0.1,0
		c0.1,0.1,0.3,0.3,0.3,0.4c0.2,0.4,0.4,0.9,0.7,1.3c0,0.1,0.2,0.2,0.2,0.2c0.3,0,0.6,0,0.9,0C65.9,56.9,65.3,56,64.9,55.8z M60.6,59
		c0-0.6,0-1.1,0-1.6c-0.1,0-0.2-0.1-0.4-0.1c0-1.2,0-2.4,0-3.6c-1,0-2,0-3.1,0c0,0.1,0,0.3,0,0.4c-0.1,0.9-0.2,1.9-0.3,2.8
		c0,0.3-0.2,0.6-0.5,0.5c0,0.6,0,1.1,0,1.6c0.2,0,0.5,0,0.7,0c0-0.3,0-0.6,0-0.9c0.9,0,1.8,0,2.8,0c0,0.3,0,0.6,0,0.9
		C60.2,59,60.4,59,60.6,59z M51.8,58c0-1.5,0-3,0-4.4c-1,0-2,0-3.1,0c0,0.1,0,0.2,0,0.2c0,1,0,2.1,0,3.1c0,0.3-0.1,0.4-0.4,0.4
		c-0.1,0-0.2,0-0.3,0c0,0.2,0,0.4,0,0.7c0.2,0,0.3,0,0.5,0c0.7,0,1-0.2,1-1c0-0.5,0-1.1,0-1.6c0-0.4,0-0.7,0-1.1c0.5,0,0.9,0,1.3,0
		c0,1.2,0,2.4,0,3.6C51.2,58,51.5,58,51.8,58z M56.1,57.3c-0.8,0-1.6,0-2.4,0c0-0.4,0-0.8,0-1.2c0.7,0,1.4,0,2.2,0
		c0-0.3,0-0.5,0-0.8c-0.7,0-1.4,0-2.2,0c0-0.3,0-0.6,0-1c0.8,0,1.6,0,2.3,0c0-0.3,0-0.5,0-0.7c-1.1,0-2.2,0-3.2,0c0,1.5,0,2.9,0,4.4
		c1.1,0,2.2,0,3.3,0C56.1,57.8,56.1,57.6,56.1,57.3z M43.4,58c0.3,0,0.5,0,0.7,0c0.2,0,0.3-0.1,0.4-0.3c0.3-0.8,0.3-0.8,1.1-0.8
		c0.1,0,0.1,0,0.2,0c0.8,0,0.8,0,1.1,0.7c0,0.1,0.2,0.2,0.3,0.3c0.2,0,0.5,0,0.8,0c-0.5-1.3-1-2.5-1.5-3.8c-0.1-0.2-0.2-0.6-0.3-0.7
		c-0.2-0.1-0.5,0-0.8,0c0,0,0,0-0.1,0C44.6,55.1,44,56.5,43.4,58z M43.3,53.6c-0.9-0.1-1.2,0.1-1.5,0.8c-0.1,0.2-0.2,0.5-0.3,0.7
		c-0.1,0.2-0.3,0.3-0.4,0.4C41,55.1,41,54.8,41,54.5c0.2-1.1,0-0.9-0.8-0.9c0,0,0,0-0.1,0c0,1.3,0,2.7,0,4c0,0.4,0.1,0.4,0.5,0.5
		c0.4,0,0.5-0.1,0.4-0.5c0-0.5,0-1,0-1.5c0,0,0.1,0,0.1-0.1c0.1,0.1,0.3,0.3,0.4,0.4c0.2,0.4,0.4,0.9,0.7,1.3c0,0.1,0.2,0.2,0.2,0.2
		c0.3,0,0.6,0,0.9,0c-0.5-0.8-0.7-1.7-1.4-2.3c0.1-0.3,0.3-0.5,0.4-0.7c0.2-0.5,0.3-0.9,0.9-0.8C43.3,54,43.3,53.8,43.3,53.6z"/>
	<path class="st1" d="M56.5,76.2c-0.7,0.1-1.4,0.1-2.1,0.2c-2.1,0.3-4.1,0.5-6.2,0.3c-5-0.4-9.7-1.8-14.1-4.1
		c-3.9-2.1-7.4-4.8-10.3-8.2c-0.5-0.6-0.9-1.3-1.3-1.9c-0.3-0.6,0-1.2,0.6-1.3c0.1,0,0.1,0,0.2,0c0.7-0.1,0.6,0,1,0.5
		c0.6,0.9,1.3,1.8,2.1,2.6c2.7,2.7,5.6,5.1,9,6.9c2.8,1.5,5.8,2.5,8.8,3.2c2.2,0.5,4.5,0.8,6.7,0.7c1.4-0.1,2.9-0.2,4.3-0.4
		c0.1,0,0.2,0,0.3-0.1c0.9-0.2,1-0.3,1-1.2c0-3,0-6.1,0.1-9.1c0-0.2,0-0.3,0-0.5c0.1-0.5,0.3-0.7,0.8-0.7c0.8,0,1.6,0,2.4,0
		c0.6,0,0.9,0.3,0.9,0.9c0,0.3,0,0.7,0,1c0,2.6,0,5.3,0,7.9c0,0.1,0,0.3,0,0.5c1-0.3,2-0.6,2.9-1c4-1.7,7.5-4,10.4-7.3
		c0.4-0.4,0.7-0.9,1-1.3c0.2-0.2,0.5-0.5,0.7-0.7c0.4-0.3,0.8-0.2,1.1,0.2c0.4,0.4,0.5,0.9,0.2,1.2c-0.6,0.8-1.3,1.5-2,2.3
		c-3.4,3.5-7.4,6-11.9,7.6c-0.7,0.2-1.3,0.5-2,0.8c-0.2,0.1-0.3,0.4-0.5,0.6c0.5,0.3,0.9,0.1,1.3,0c2.3-0.8,4.5-1.6,6.6-2.9
		c2.8-1.7,5.5-3.6,7.8-6c1-1.1,2-2.3,2.8-3.5c0.4-0.6,0.7-0.7,1.3-0.7c0.7,0,1.3,0,2.1,0c-0.1,0.4-0.2,0.7-0.4,1
		c-0.6,0.8-1.1,1.7-1.8,2.5c-2,2.1-4,4.1-6.1,6.1c-0.7,0.7-1.6,1.2-2.5,1.7c-2.9,1.8-6,3.3-9.4,4.2c-0.1,0-0.3,0.1-0.4,0.1
		c-0.7,0.2-1.1,0.6-1.2,1.4c-0.1,0.8-0.3,0.9-1.1,0.9c-0.5,0-1.1,0.1-1.6,0c-0.8-0.1-1-0.3-1.3-1c-0.9,0.1-1.7,0.2-2.6,0.2
		C52.7,79.9,51.4,80,50,80c-2.7,0-5.3-0.4-8-0.9c-3.1-0.6-6-1.6-8.8-3.1c-2-1.1-4.1-2-5.9-3.5c-4.8-3.8-8.8-8.2-11.3-13.9
		c-1-2.3-1.7-4.7-2.1-7.2c-0.4-2.6-0.6-5.2-0.5-7.8c0-2.1,0.5-4,1-6c0.8-3.1,2.1-6.1,3.9-8.8c1-1.4,2.2-2.7,3.3-4.1
		c1.3-1.5,2.6-2.8,4.2-4c2.6-2,5.5-3.5,8.6-4.6c2.6-1,5.3-1.7,8.1-2.3c2.6-0.5,5.3-0.9,7.9-0.8c0.6,0,1.1-0.1,1.7-0.1
		c0.1,0.5,0,0.9-0.2,1.2c-2.6,3.8-5.2,7.6-7.8,11.5c-1.9,2.8-3.8,5.7-5.8,8.5c-3.3,4.8-6.6,9.5-9.9,14.3c-2.6,3.9-5.3,7.8-7.9,11.7
		c-0.2,0.3-0.2,0.4,0,0.7c1.3,2.1,2.9,4,4.6,5.8c2.4,2.5,5.2,4.5,8.2,6.2c3.1,1.7,6.4,2.9,9.8,3.6c1.3,0.2,2.7,0.4,4,0.6
		c2.7,0.3,5.4,0,8.1,0c0.2,0,0.5-0.1,0.7-0.1C56.4,77,56.5,76.7,56.5,76.2z M36.9,17.8C36.8,17.7,36.8,17.7,36.9,17.8
		c-0.2-0.1-0.2-0.1-0.3,0c-1.7,0.5-3.2,1.4-4.8,2.3c-3.7,2.2-7,4.7-9.6,8.2c-1.7,2.3-3.4,4.7-4.4,7.4c-0.9,2.5-1.6,5.1-1.8,7.8
		c-0.1,1.3-0.1,2.6-0.2,4c0.5,0,0.6-0.3,0.8-0.6c2.4-3.4,4.8-6.9,7.2-10.3c3.9-5.6,7.8-11.1,11.7-16.7
		C36.1,19.1,36.5,18.4,36.9,17.8z M40.5,27.4c1.5-2.2,3.2-4.2,4.5-6.5c-1.9-1-3.7-1.9-5.5-2.8c0,0-0.1,0.1-0.1,0.1
		C39.7,21.2,40.1,24.2,40.5,27.4z M23.5,51.9c1.1-1.5,2.3-3.1,3.4-4.6c0.2-0.2,0.2-0.5,0.4-0.8c-0.4,0.1-0.8,0.1-1.1,0.2
		c-2.3,0.7-4.6,1.4-6.9,2.1c-0.3,0.1-0.5,0.3-0.8,0.4C20.3,50.2,21.9,51,23.5,51.9z M16.6,50.9c0,0-0.1,0.1-0.1,0.1
		c0.3,2.6,1.4,4.9,2.4,7.4c0.2-0.2,0.4-0.3,0.5-0.5c0.8-1.1,1.6-2.2,2.4-3.3c0.2-0.2,0.2-0.5,0.3-0.7c-1.4-0.8-2.8-1.6-4.2-2.4
		C17.5,51.3,17.1,51.1,16.6,50.9z M29.4,43.7c1.1-1.7,2.2-3.3,3.4-5c-2.6,0.8-5.2,1.6-7.9,2.4C26.5,42.1,27.9,42.9,29.4,43.7z
		 M49,15.3c-2.7-0.2-5.2,0.5-7.8,1c1.1,0.6,2.2,1.2,3.2,1.8c0.6,0.3,1.2,0.6,1.7,0.9c0.2,0.1,0.3,0.1,0.5-0.1
		c0.7-1.1,1.5-2.2,2.3-3.3C48.9,15.4,48.9,15.4,49,15.3z M38.9,29.7c-1.4-0.7-2.7-1.3-4.1-2c0.2,2.3,0.4,4.5,0.9,6.7
		C36.8,32.8,38,31.4,38.9,29.7z M28.1,34.4c-1,1.4-2,2.8-3,4.2c0,0,0.1,0.1,0.1,0.1c2.3-0.7,4.7-1.4,7-2.1
		C31,35.7,29.5,35.2,28.1,34.4z M33.2,34.5c0,0,0.1,0,0.1,0c-0.2-2.1-0.5-4.3-0.7-6.4c-0.1,0-0.1,0.1-0.2,0.2
		c-0.9,1.2-1.8,2.5-2.7,3.7c-0.3,0.5-0.3,0.6,0.2,0.8c0.1,0.1,0.2,0.1,0.3,0.2C31.2,33.5,32.2,34,33.2,34.5z M34.7,24.9
		c1.1,0.6,2.2,1.1,3.3,1.7c0,0,0.1-0.1,0.1-0.1c-0.2-1.8-0.5-3.6-0.7-5.5C36.3,22.3,35.4,23.6,34.7,24.9z M19.8,46.3
		C19.8,46.3,19.8,46.3,19.8,46.3c2-0.5,4-1.1,6.1-1.8c-1.2-0.7-2.4-1.3-3.5-2C21.4,43.8,20.6,45.1,19.8,46.3z"/>
	<path class="st1" d="M13.6,33.3c0.4,0.2,0.8,0.4,1.2,0.6c-0.2,0.4-0.4,0.7-0.6,1.1c-0.7-0.4-1.5-0.8-2.2-1.2
		c0.5-0.6,0.2-1.1-0.2-1.5c-0.6-0.6-1.4-1-2.1-1.5c-0.2-0.1-0.3-0.2-0.6-0.3c0.7-1.4,1.5-2.9,2.2-4.3c1.2,0.6,2.4,1.2,3.6,1.9
		c0.1-0.2,0.2-0.4,0.3-0.6c0.7,0.4,1.4,0.7,2.2,1.1c-0.2,0.4-0.4,0.7-0.6,1.1c-0.4-0.2-0.8-0.4-1.2-0.6C14.9,30.7,14.3,32,13.6,33.3
		z M13,32c0.4-0.8,0.8-1.6,1.2-2.4c-0.9-0.5-1.7-0.9-2.6-1.3c-0.3,0.6-0.6,1.1-0.9,1.7C11.6,30.5,12.5,31,13,32z"/>
	<path class="st1" d="M57.4,11.1c-1.5-0.3-3-0.5-4.5-0.8c-0.1,0.4-0.2,0.9-0.2,1.3c-0.4-0.1-0.8-0.1-1.3-0.2
		c0.1-0.8,0.3-1.6,0.4-2.4c0.1,0,0.1,0,0.1,0c0.7,0.3,1-0.2,1.3-0.7c0.3-0.8,0.6-1.6,0.9-2.5c0.1-0.2,0.1-0.4,0.1-0.6
		c1.6,0.3,3.1,0.5,4.8,0.8c-0.2,1.3-0.5,2.6-0.7,4c0.2,0.1,0.4,0.1,0.6,0.2c-0.1,0.8-0.3,1.6-0.4,2.4c-0.4-0.1-0.7-0.1-1-0.2
		c-0.1,0-0.2-0.2-0.2-0.3C57.3,11.8,57.3,11.5,57.4,11.1z M54,9.4c0.9,0.2,1.8,0.3,2.6,0.5c0.2-1,0.3-1.9,0.5-2.9
		c-0.7-0.1-1.3-0.2-1.9-0.3C55,7.6,54.8,8.6,54,9.4z"/>
	<path class="st0" d="M67.1,83.7c-0.3-0.7-0.6-1.3-0.9-1.9c0,0,0,0,0-0.1c0.8-0.5,0.8-0.5,1.3,0.3c0.6,1.3,1.2,2.5,1.8,3.8
		c0.1,0.1,0.1,0.2,0.1,0.3c0,0,0,0.1-0.1,0.1c-0.8,0.4-0.8,0.4-1.2-0.4c-0.2-0.4-0.4-0.8-0.6-1.2c0,0,0,0-0.1-0.1
		c-0.6,0.3-1.1,0.5-1.8,0.8c0.3,0.6,0.5,1.1,0.8,1.7c0.2,0.5,0.2,0.5-0.2,0.7c-0.2,0.1-0.3,0.1-0.5,0.2c-0.8-1.6-1.5-3.2-2.4-4.9
		c-0.1,0.6-0.3,1-0.4,1.5c-0.1,0.4-0.2,0.7-0.3,1.1c-0.1,0.3,0,0.4,0.2,0.6c0.7,0.5,1.3,1.1,2,1.6c0.1,0.1,0.2,0.2,0.3,0.3
		c-0.4,0.1-0.7,0.3-1,0.3c-0.1,0-0.3-0.1-0.4-0.1c-0.5-0.4-0.9-0.7-1.4-1.2c-0.1,0.6-0.3,1.1-0.4,1.6c-0.1,0.4-0.2,0.6-0.6,0.7
		c-0.2,0-0.4,0.1-0.7,0.2c0.1-0.5,0.2-1,0.3-1.4c0.1-0.5,0.2-1,0.4-1.4c0.1-0.2,0.1-0.4-0.2-0.6c-0.7-0.5-1.4-1.1-2.1-1.7
		c0.4-0.1,0.7-0.3,1.1-0.3c0.1,0,0.2,0.1,0.3,0.2c0.4,0.3,0.8,0.6,1.2,1c0.1-0.6,0.3-1.1,0.4-1.6c0-0.1,0.2-0.3,0.3-0.3
		c0.6-0.2,1.2-0.4,1.9-0.7c0.3,0.6,0.6,1.2,0.9,1.9C65.8,84.3,66.4,84,67.1,83.7z"/>
	<path class="st1" d="M81,23c-0.6,0.5-1.1,0.9-1.7,1.4c-0.4-0.4-0.7-0.8-1-1.2c0.6-0.5,1.1-1,1.6-1.4c-0.2-0.4-0.6-0.3-0.9-0.2
		c-0.5,0.1-1.1,0.3-1.6,0.4c-0.1,0-0.3,0-0.4-0.1c-0.3-0.3-0.6-0.7-0.9-1.1c0.7-0.3,2.4-0.5,3.2-0.3c0.1-0.4,0.2-0.8,0.4-1.2
		c0.3-0.5,0-0.9-0.3-1.2c0.2-0.2,0.4-0.4,0.7-0.6c0.9,0.9,1.2,1.3,0.6,2.4c-0.1,0.2-0.2,0.5-0.3,0.7c0,0.2,0,0.4,0,0.6
		c0,0,0.1,0,0.1,0c0.3-0.2,0.5-0.5,0.8-0.7c0.3-0.2,0.5-0.4,0.8-0.7c0.3,0.4,0.7,0.8,1,1.2c-0.5,0.5-1.1,0.9-1.7,1.4
		c0.2,0.1,0.4,0.2,0.6,0.2c0.2,0,0.4-0.1,0.6-0.1c1.3-0.4,1.7-0.2,2.5,0.9c-0.2,0.2-0.4,0.4-0.7,0.6c-0.1-0.1-0.2-0.2-0.2-0.3
		c-0.2-0.3-0.5-0.3-0.9-0.2c-0.4,0.1-0.9,0.2-1.3,0.2c0,0.2,0.1,0.5,0,0.7C82,25.2,81.8,26,81.5,27c-0.4-0.5-0.8-0.9-1.1-1.3
		c0-0.1,0-0.2,0-0.3c0.2-0.5,0.4-1,0.6-1.6C81.2,23.5,81.2,23.3,81,23z"/>
	<path class="st1" d="M75.6,13.7c-0.1,0.2-0.3,0.3-0.3,0.4c0.5,0.2,1.1,0.2,1.6,0.5c1.7,1.1,1.7,3.2-0.2,4.6
		c-1.2,0.8-2.8,0.4-3.5-0.9c-0.1-0.3-0.2-0.6-0.3-0.9c-0.5,0.7-1,1.3-1.6,2c-0.4-0.3-0.8-0.6-1.3-1c1.5-1.9,2.9-3.7,4.4-5.6
		C74.8,13.1,75.2,13.4,75.6,13.7z M76.6,16.4c0-0.7-0.6-1.2-1.2-1.3c-0.9,0-1.8,1-1.8,2c0,0.8,0.9,1.4,1.6,1.2
		C75.9,18,76.6,17,76.6,16.4z"/>
	<path class="st1" d="M5,46.7c0.1-0.5,0.1-1,0.2-1.4c0.2,0,0.4,0,0.6,0c-0.1-0.4-0.3-0.8-0.4-1.1c-0.3-1.5,0.7-2.8,2.3-2.9
		c1.3-0.1,2.4,0.4,2.9,1.4c0.5,0.9,0.3,2.1-0.4,2.8c-0.1,0.1-0.2,0.1-0.3,0.2c0,0,0,0.1,0,0.1c0.4,0,0.8,0.1,1.2,0.1
		c0.4,0.1,0.8,0.1,1.3,0.2c-0.1,0.5-0.1,1-0.2,1.6C9.7,47.3,7.4,47,5,46.7z M7.7,42.8c-0.6,0-1,0.2-1.3,0.7c-0.2,0.5-0.2,1,0.1,1.4
		c0.3,0.4,1.3,0.7,2,0.5c0.6-0.2,1-0.6,1-1.2c0-0.6-0.3-1-0.9-1.3C8.3,42.9,8,42.9,7.7,42.8z"/>
	<path class="st0" d="M52.9,86.3c-0.5,0-1,0-1.5,0c0-0.3,0-0.6-0.1-0.9c0.8,0,1.6-0.1,2.4-0.1c0.3,0,0.7,0,1,0
		c0.3,0,0.7-0.2,0.8,0.4c0.5-0.6,1-0.9,1.7-1c0.9-0.1,1.6,0.1,2.1,0.8c0.8,1.1,1,2.2,0.5,3.5c-0.4,0.9-1.2,1.3-2.1,1.3
		c-0.8,0-1.4-0.4-1.8-1.1c-0.1-0.2-0.1-0.3,0.1-0.4c0.2-0.1,0.4-0.2,0.7-0.3c0.2,0.4,0.4,0.9,1,0.9c0.2,0,0.5,0,0.7-0.1
		c0.5-0.2,0.7-0.8,0.6-1.5c-0.5,0.1-1,0.2-1.5,0.3c-0.1-0.3-0.1-0.6-0.2-0.9c0.5-0.1,1-0.2,1.5-0.3c0-0.6-0.5-1.1-1.1-1.2
		c-0.5-0.1-1,0.3-1.2,0.8c-0.1,0.2-0.1,0.3-0.4,0.3c-0.2,0-0.5,0-0.7-0.1c0-0.1,0-0.2,0-0.3c0.1-0.3-0.2-0.3-0.3-0.3
		c-0.3,0-0.5,0.1-0.8,0.1c-0.3,0-0.4,0.1-0.4,0.4c0.1,1.2,0.1,2.5,0.1,3.7c0,0.1,0,0.2,0,0.4c-0.3,0-0.7,0-1,0
		C53.1,89.3,53,87.9,52.9,86.3z"/>
	<path class="st1" d="M72.3,11.4c-0.8,1.5-1.6,3.1-2.4,4.6c-0.5-0.2-0.9-0.5-1.4-0.7c0.3-0.6,0.6-1.3,1-1.9
		c-0.4-0.3-0.8-0.4-1.3-0.2c-0.6,0.3-1.1,0.6-1.7,0.8c-0.1,0.1-0.3,0.1-0.4,0c-0.5-0.2-1-0.5-1.5-0.8c0.9-0.4,1.8-0.8,2.7-1.2
		C67.1,12,67,12,67,11.9c-0.5-0.5-0.6-1.2-0.2-1.8c0.3-0.6,1-0.8,1.6-0.6c1,0.4,1.9,0.9,2.8,1.4C71.6,11,71.9,11.2,72.3,11.4z
		 M70.5,11.4c-0.5-0.3-1-0.5-1.5-0.7c-0.4-0.2-0.6,0-0.8,0.3c-0.2,0.3-0.1,0.6,0.2,0.8c0.5,0.3,1,0.6,1.5,0.8
		C70,12.2,70.2,11.9,70.5,11.4z"/>
	<path class="st1" d="M87.3,35.1c1.2,0,2.4,0,3.5,0c0.2,0,0.4,0.1,0.4,0.3c0.1,0.4,0.3,0.8,0.5,1.2c-0.8,0-1.6,0-2.4,0
		c-1.4,0-2.8-0.1-4.3-0.1c-0.7,0-1.2-0.3-1.5-0.9c-0.3-0.5-0.4-1-0.7-1.5c0.4-0.2,0.7-0.4,1-0.6c0.1,0.2,0.1,0.4,0.2,0.6
		c0.2,0.5,0.6,0.8,1.1,0.8c0.2,0,0.4-0.1,0.5-0.2c1.2-1.2,2.4-2.4,3.6-3.6c0.1-0.1,0.1-0.2,0.2-0.3c0.2,0.6,0.4,1,0.6,1.5
		c0,0.1-0.1,0.2-0.1,0.3c-0.7,0.7-1.5,1.4-2.2,2.1C87.6,34.9,87.5,35,87.3,35.1z"/>
	<path class="st1" d="M84.5,32.2c-0.2-0.3-0.5-0.7-0.6-1.1c-0.1-0.1,0.1-0.4,0.2-0.6c-0.6-0.2-1.1-0.6-1.4-1.2
		c-0.3-0.5-0.5-1-0.3-1.7c0.2-0.9,1.3-1.4,2.1-0.8c0.4,0.3,0.7,0.6,1,1c0.4,0.4,0.7,0.8,1.1,1.2c0.6-0.3,0.7-0.5,0.4-1
		c-0.2-0.5-0.4-1-1.1-0.9c-0.1,0-0.2-0.1-0.2-0.2c-0.2-0.4-0.3-0.8-0.5-1.2c0.6-0.2,1.1-0.1,1.6,0.3c0.9,0.7,1.4,1.7,1.6,2.8
		c0.1,0.6-0.2,1-0.7,1.3c-0.6,0.4-1.3,0.7-1.9,1.1C85.3,31.5,84.9,31.9,84.5,32.2z M85.7,29.5c-0.4-0.4-0.7-0.8-1.1-1.2
		c-0.2-0.2-0.5-0.3-0.8-0.2c-0.3,0.2-0.4,0.5-0.3,0.8c0.2,0.8,1,1.2,1.7,0.8C85.4,29.6,85.5,29.6,85.7,29.5z"/>
	<path class="st1" d="M12.3,36.7c-0.1,0.9-0.4,1.8-0.9,2.5c-1.2,1.5-3.6,1-4.4-0.6c-0.6-1.4,0-3.4,1.2-4.2c1.5-1,3.4-0.2,3.9,1.4
		C12.2,36.1,12.2,36.4,12.3,36.7z M11.1,37c0-0.9-0.7-1.5-1.7-1.5c-0.8,0-1.4,0.6-1.5,1.5c0,0.9,0.7,1.5,1.7,1.5
		C10.4,38.5,11,37.9,11.1,37z"/>
	<path class="st1" d="M22.4,14c0.5-0.3,0.9-0.6,1.3-0.9c0.4,0.5,0.7,1.1,1,1.6c0.5-0.4,1.1-0.7,1.6-1.1c0.2-0.1,0.2-0.3,0.1-0.5
		c-0.3-0.4-0.5-0.8-0.7-1.3c0.4-0.3,0.8-0.5,1.3-0.9c0.9,1.5,1.9,2.9,2.8,4.4c-0.5,0.3-0.9,0.6-1.3,0.9c-0.4-0.6-0.8-1.2-1.2-1.8
		c-0.6,0.4-1.3,0.8-1.9,1.2c0.4,0.6,0.8,1.2,1.2,1.8c-0.4,0.3-0.9,0.6-1.3,0.9C24.2,16.9,23.3,15.5,22.4,14z"/>
	<path class="st1" d="M92.9,42.5c0.1,0.5,0.2,1,0.3,1.6c-1.7,0.3-3.4,0.6-5.1,0.9c-0.1-0.5-0.2-1-0.3-1.6c0.7-0.1,1.4-0.3,2.1-0.4
		c-0.1-0.8-0.3-1.5-0.4-2.3c-0.7,0.1-1.4,0.2-2.1,0.4c-0.1-0.5-0.2-1-0.3-1.6c1.7-0.3,3.4-0.6,5.1-0.9c0.1,0.5,0.2,1,0.3,1.6
		c-0.6,0.1-1.2,0.2-1.9,0.3c0.1,0.7,0.3,1.5,0.4,2.3C91.7,42.7,92.3,42.6,92.9,42.5z"/>
	<path class="st1" d="M22.8,17.5c-1.1,1-2,1.9-2.9,2.8c0.4,0.5,1,0.6,1.5,0.3c0.6-0.3,0.8-0.8,0.6-1.5c0.2-0.1,0.4-0.2,0.6-0.4
		c0.2-0.1,0.4-0.3,0.6-0.4c0.5,0.6,0.3,1.2,0,1.8c-0.6,1-1.4,1.8-2.6,2c-1.3,0.1-2.1-0.6-2.6-1.7c-0.5-1-0.3-1.9,0.3-2.8
		c0.8-1.1,2-1.5,3.1-1.1C21.8,16.8,22.3,17.2,22.8,17.5z M21,18.1c-0.3-0.5-1.1-0.6-1.7-0.1c-0.5,0.5-0.5,1.2,0.1,1.6
		C19.9,19.2,20.4,18.6,21,18.1z"/>
	<path class="st0" d="M44.1,90.3c-0.4-0.1-0.7-0.2-1-0.3c0.2-1,0.5-1.9,0.7-2.8c0.2-0.7,0.4-1.4,0.5-2.1c0.1-0.2,0.1-0.3,0.4-0.2
		c0.6,0.1,1.2,0.2,1.8,0.3c0.1,0,0.2,0.1,0.3,0.2c0.2,0.5,0.5,0.9,0.7,1.5c0.3-0.4,0.6-0.7,0.9-1.1c0.2-0.3,0.4-0.4,0.7-0.3
		c0.2,0.1,0.4,0,0.8,0.1c-0.3,0.4-0.6,0.8-0.9,1.2c-0.3,0.3-0.5,0.7-0.8,1C48,87.8,48,88,48.1,88.2c0.4,0.8,0.8,1.6,1.2,2.4
		c0,0.1,0.1,0.2,0.1,0.3c-0.4,0-0.7-0.1-1.1-0.1c-0.1,0-0.2-0.2-0.3-0.3c-0.3-0.5-0.5-1.1-0.8-1.7c-0.4,0.5-0.7,0.9-1.1,1.4
		c-0.2,0.3-0.4,0.4-0.7,0.3c-0.2-0.1-0.5-0.1-0.8-0.1c0.5-0.7,1-1.3,1.5-1.9c0.4-0.5,0.6-0.9,0.2-1.5c-0.4-0.6-0.6-1.2-0.9-1.8
		c0,0-0.1,0-0.1,0C45,86.9,44.5,88.5,44.1,90.3z"/>
	<path class="st0" d="M22.3,72.7c-0.9,1-1.8,2-2.7,3c-0.2,0.2-0.3,0.4,0,0.7c-0.5,0.5-0.9,1-1.4,1.6c-0.2-0.2-0.4-0.4-0.7-0.6
		c0.3-0.3,0.5-0.6,0.8-0.9c-0.8-0.7-1.6-1.4-2.4-2.1c-0.3,0.3-0.5,0.6-0.8,0.9c-0.2-0.1-0.4-0.3-0.5-0.4c-0.1-0.1-0.1-0.3,0-0.3
		c0.4-0.5,0.8-0.9,1.2-1.4c0.3,0.4,0.6,0.2,0.9,0c0.9-0.6,1.6-1.3,2.3-2.1c0.2-0.2,0.4-0.4,0.6-0.7C20.5,71.1,21.4,71.9,22.3,72.7z
		 M18.5,75.4c0.8-0.9,1.6-1.8,2.4-2.7c-0.4-0.3-0.7-0.7-1.1-1c-0.9,0.8-1.8,1.6-2.7,2.4C17.6,74.6,18.1,75,18.5,75.4z"/>
	<path class="st1" d="M10.3,51.7c0,0.6,0,1.1,0,1.7c-2.3,0.1-4.7,0.1-7.1,0.2c0-1.9-0.1-3.7-0.1-5.6c0.4,0,0.8,0,1.3,0
		c0,1.3,0,2.6,0,3.9C6.3,51.8,8.3,51.8,10.3,51.7z"/>
	<path class="st1" d="M38,9.6c0.2,0.7,0.4,1.4,0.6,2.1c-0.5,0.1-1,0.3-1.5,0.4c-0.5-1.7-0.9-3.3-1.4-5c0.5-0.1,1-0.3,1.5-0.4
		c0.2,0.7,0.4,1.3,0.6,2.1c0.2-0.2,0.4-0.4,0.5-0.6c0.1-0.3,0.1-0.6,0.2-0.9c0.1-0.7,0.4-1.1,1.1-1.3C39.8,6,40,5.9,40.3,5.8
		c0.1,0.3,0.2,0.6,0.3,0.8c0,0-0.1,0.1-0.1,0.1c-0.6,0.1-0.8,0.5-0.9,1.1c0,0.3-0.2,0.7-0.3,1c1.2,0.2,1.7,1.3,2.7,2
		c-0.6,0.2-1,0.3-1.5,0.4c-0.1,0-0.3-0.1-0.3-0.2c-0.4-0.4-0.7-0.8-1.1-1.1C38.7,9.6,38.5,9.4,38,9.6z"/>
	<path class="st1" d="M88.3,46.5c1.8,0,3.5,0.1,5.2,0.1c0,0.5,0,1,0,1.6c-0.7,0-1.4,0-2.2,0c0,0.1,0,0.3,0,0.4
		c-0.1,0.8,0,1.7-0.2,2.5c-0.1,0.8-0.7,1.3-1.5,1.2c-0.7,0-1.2-0.5-1.3-1.4c-0.1-0.6-0.1-1.3-0.1-1.9C88.3,48.3,88.3,47.4,88.3,46.5
		z M89.2,48.2c0,0.7,0,1.3,0,1.9c0,0.4,0.3,0.6,0.6,0.6c0.4,0,0.6-0.2,0.6-0.6c0.1-0.7,0.1-1.3,0.1-2C90,48.2,89.6,48.2,89.2,48.2z"
		/>
	<path class="st1" d="M34.5,9.1C34,9.4,33.6,9.7,33.2,10c-0.5-0.6-1-0.5-1.6-0.1c-0.4,0.3-0.6,0.8-0.5,1.2c0.1,0.4,0.3,0.8,0.5,1.1
		c0.3,0.5,0.9,0.7,1.4,0.5c0.6-0.2,0.9-0.5,0.9-1.2c0-0.1,0-0.1,0-0.2c0.5-0.1,1-0.3,1.5-0.4c0.1,0.7,0,1.4-0.5,1.9
		C34.1,13.6,33.2,14,32,14c-1.1,0-2.1-0.9-2.4-2.1c-0.3-1.1,0-2,0.9-2.7c0.8-0.6,1.6-0.9,2.6-0.8C33.7,8.5,34.1,8.7,34.5,9.1z"/>
	<path class="st0" d="M9.3,67.7c1.4-1.3,2.7-2.5,4-3.7c0.5,0.6,1.1,1.2,1.6,1.7c0.3,0.3,0.6,0.6,0.9,1c0,0.1,0,0.2,0,0.3
		c-0.1,0.2-0.3,0.3-0.5,0.5c-0.6-0.7-1.2-1.3-1.9-2c-0.3,0.3-0.6,0.6-0.9,0.8c0.4,0.4,0.8,0.8,1.1,1.2c0.8,1,0.5,2.2-0.7,2.6
		c-0.5,0.2-1,0.2-1.5-0.2C10.7,69.2,10.1,68.5,9.3,67.7z M10.7,67.9c0.4,0.4,0.8,0.8,1.2,1.1c0.3,0.2,0.6,0.2,0.9,0
		c0.2-0.2,0.3-0.5,0.1-0.8c-0.3-0.4-0.7-0.8-1-1.3C11.4,67.2,11.1,67.5,10.7,67.9z"/>
	<path class="st0" d="M86.8,69.9c-0.3-1.1-0.7-2.2-1.1-3.2c-0.1-0.4-0.1-0.6,0.2-0.9c0.1-0.1,0.2-0.2,0.4-0.4c0.6,0.5,1.1,1,1.7,1.5
		c0.7,0.6,1.3,1.2,2,1.8c0.2,0.2,0.2,0.4-0.1,0.8c-0.2,0.3-0.4,0.1-0.5-0.1c-0.7-0.7-1.5-1.3-2.3-1.9c0.1,0.4,0.2,0.8,0.3,1.1
		c0.2,0.7,0.4,1.5,0.7,2.2c0.1,0.3,0.1,0.6-0.2,0.8c-0.1,0.1-0.2,0.3-0.4,0.4c-1.1-1-2.1-1.9-3.1-2.9c-0.2-0.2-0.4-0.4-0.6-0.5
		c-0.3-0.2-0.3-0.4-0.1-0.6c0.1-0.1,0.3-0.3,0.4-0.4c0.6,0.5,1.1,1,1.6,1.5c0.2,0.2,0.5,0.4,0.7,0.7C86.6,69.8,86.7,69.8,86.8,69.9
		C86.7,69.9,86.7,69.9,86.8,69.9C86.7,69.9,86.7,69.9,86.8,69.9z"/>
	<path class="st1" d="M16.9,23c0.2-0.1,0.4-0.2,0.7-0.3c0.7-0.3,1.4,0.1,1.5,0.9c0,0.3,0,0.6-0.1,0.8c-0.3,1-1,1.8-1.9,2.4
		c-0.5,0.3-1,0.4-1.6,0.1c0.2-0.4,0.4-0.8,0.7-1.2c0-0.1,0.2-0.1,0.3-0.1c0.6,0,1-0.3,1.3-0.8c0.2-0.4,0.1-0.7-0.2-0.9
		c-0.3-0.2-0.7,0-0.9,0.2c-0.1,0.1-0.2,0.2-0.3,0.4c-0.2-0.2-0.5-0.4-0.7-0.5c0.1-0.2,0.2-0.3,0.3-0.5c0.1-0.3,0.1-0.6-0.1-0.8
		c-0.3-0.2-0.6-0.2-0.8,0c-0.4,0.3-0.5,0.7-0.4,1.2c0,0.1,0,0.2,0,0.3c-0.3,0.3-0.6,0.5-0.9,0.8c-0.4-0.6-0.4-1.1-0.1-1.7
		c0.4-1,0.9-1.8,2-2.1c1-0.3,1.7,0.3,1.5,1.4C17,22.7,17,22.8,16.9,23z"/>
	<path class="st1" d="M62.1,10.1c0.1-0.2,0.2-0.5,0.3-0.8c0.2,0,0.4,0.1,0.6,0.1c0.3,0,0.6-0.1,0.7-0.5c0.1-0.3-0.1-0.6-0.3-0.8
		C62.8,8,62.4,8,61.9,8.5C61.6,8.3,61.3,8.2,61,8c-0.3-0.2-0.3-0.4,0-0.5c0.3-0.2,0.6-0.3,0.9-0.3c0.9-0.1,1.8,0.1,2.6,0.7
		c0.3,0.2,0.5,0.6,0.6,0.9c0.2,0.6-0.1,1.2-0.7,1.4c-0.2,0.1-0.4,0.1-0.6,0.1c0.2,0.2,0.3,0.3,0.5,0.5c0.6,0.6,0.4,1.5-0.4,1.8
		c-0.4,0.2-1,0.2-1.4,0.1c-0.7-0.1-1.3-0.4-1.9-0.8c-0.6-0.3-0.9-0.9-0.9-1.7c0.5,0.1,0.9,0.1,1.4,0.2c0.1,0,0.1,0.2,0.1,0.2
		c0.2,0.6,0.8,1,1.4,0.9c0.2,0,0.4-0.2,0.5-0.4c0.1-0.2,0-0.5-0.2-0.7C62.6,10.4,62.4,10.3,62.1,10.1z"/>
	<path class="st0" d="M76.2,76.1c0-1.1,0.6-1.8,1.5-2.2c0.9-0.4,1.7-0.3,2.5,0.3c0.7,0.5,1.2,1.1,1.4,1.9c0.3,1.1-0.1,2-1.1,2.7
		c-0.8,0.6-1.9,0.6-2.7-0.1C76.9,78.1,76.2,77.3,76.2,76.1z M80.6,76.7c-0.1-0.7-0.6-1.4-1.4-1.8c-0.4-0.3-0.9-0.3-1.4,0
		c-0.5,0.3-0.7,0.7-0.7,1.3c0.1,0.8,1,1.8,1.7,2C79.8,78.4,80.6,77.7,80.6,76.7z"/>
	<path class="st0" d="M27.4,83.3c1-1.6,1.9-3.1,2.8-4.7c0.3,0.2,0.6,0.3,0.9,0.5c-0.4,0.6-0.7,1.2-1.1,1.8c0.6,0.3,1.1,0.7,1.7,1
		c0.4-0.6,0.7-1.2,1.1-1.8c0.3,0.2,0.6,0.3,0.9,0.5c-0.9,1.6-1.9,3.1-2.8,4.7c-0.3-0.2-0.6-0.4-0.9-0.5c0.4-0.7,0.8-1.3,1.2-2
		c-0.6-0.4-1.1-0.7-1.7-1c-0.4,0.7-0.8,1.3-1.2,2C28,83.6,27.7,83.5,27.4,83.3z"/>
	<path class="st0" d="M72.1,78.3c1-0.7,1.9-1.4,2.9-2.1c0.1,0.2,0.3,0.4,0.4,0.5c0.9,1.2,1.7,2.4,2.6,3.6c0.1,0.2,0.2,0.3-0.1,0.5
		c-0.2,0.1-0.4,0.3-0.6,0.4c-0.9-1.2-1.7-2.4-2.6-3.7c-0.4,0.3-0.8,0.6-1.2,0.9c0.5,0.7,0.9,1.3,1.3,1.9c0.3,0.4,0.5,0.7,0.7,1.1
		c0.4,0.7-0.1,1.5-0.9,1.5c-0.2,0-0.4-0.3-0.5-0.4c0-0.1,0-0.1,0.1-0.1c0.5-0.4,0.5-0.5,0.1-1c-0.7-1-1.4-2-2.1-2.9
		C72.1,78.5,72.1,78.4,72.1,78.3z"/>
	<path class="st0" d="M23.2,80.4C23.1,80.4,23.1,80.4,23.2,80.4c-0.9-0.6-0.9-0.6-0.6-1.5c0.1-0.3,0.1-0.4-0.2-0.6
		c-0.4-0.3-0.7-0.6-1.1-0.9c-0.2-0.1-0.3-0.2-0.5,0c0,0-0.1,0.1-0.2,0.1C20,78,20,78,19.2,77.2c0.6-0.4,1.3-0.8,1.9-1.1
		c0.9-0.5,1.8-1.1,2.7-1.6c0.2-0.2,0.4-0.1,0.6,0c0.5,0.5,0.6,0.5,0.3,1.1c-0.5,1.5-1,3.1-1.5,4.6C23.3,80.3,23.2,80.3,23.2,80.4z
		 M23.7,75.7c-0.6,0.3-1.1,0.7-1.7,1c0.4,0.3,0.7,0.6,1.1,0.9C23.3,76.9,23.5,76.3,23.7,75.7L23.7,75.7L23.7,75.7z"/>
	<path class="st0" d="M74.4,83.3c-0.3,0.2-0.5,0.4-0.8,0.5c-0.1,0-0.2,0-0.3-0.1c-0.3-0.2-0.6-0.4-0.9-0.7c-0.5,0.3-1,0.6-1.5,1
		c-0.1,0.1-0.1,0.2-0.2,0.4c0,0.1,0,0.2,0.1,0.3c0.2,0.8,0.1,1-0.8,1.3c-0.2-1.1-0.5-2.1-0.7-3.2c-0.1-0.7-0.3-1.4-0.4-2
		c-0.1-0.3,0-0.5,0.3-0.6c0.1,0,0.2-0.1,0.3-0.2c0.2-0.2,0.4-0.2,0.6,0c1.1,0.9,2.3,1.7,3.4,2.6C73.7,82.8,74,83.1,74.4,83.3z
		 M71.6,82.5c-0.6-0.4-1.1-0.8-1.6-1.2c0,0-0.1,0-0.1,0.1c0.1,0.6,0.3,1.2,0.5,1.9C70.8,83,71.2,82.8,71.6,82.5z"/>
	<path class="st0" d="M39.7,83.5c0.3,0.1,0.6,0.2,1,0.2c-0.2,0.7-0.3,1.4-0.5,2.1c0.6,0.2,1.1,0.3,1.6,0.4c0.7,0.2,1.1,0.6,1.2,1.3
		c0.1,0.7-0.1,1.3-0.7,1.6c-0.2,0.1-0.6,0.3-0.8,0.2c-1-0.2-2-0.4-3.1-0.7C38.8,87,39.2,85.3,39.7,83.5z M40,86.8
		c-0.1,0.4-0.2,0.8-0.3,1.2c0,0.1,0.1,0.2,0.2,0.3c0.4,0.1,0.8,0.2,1.2,0.3c0.1,0,0.2,0,0.3,0c0.3-0.1,0.5-0.3,0.5-0.6
		c0-0.2-0.2-0.5-0.3-0.6C41.1,87.1,40.5,86.9,40,86.8z"/>
	<path class="st0" d="M39.4,83.2c-0.7,1.7-1.3,3.4-2,5c-1-0.3-1-0.3-0.7-1.2c0.2-0.4,0.3-0.8,0.4-1.1c-0.5-0.1-0.9-0.2-1.4-0.4
		c-1-0.4-1.3-1.1-0.9-2.1c0.2-0.6,0.4-1.1,0.7-1.7c0.3,0.1,0.6,0.2,1,0.4c-0.2,0.6-0.4,1.1-0.6,1.7c-0.2,0.5-0.1,0.8,0.4,1
		c0.1,0.1,0.3,0.1,0.4,0.1c0.6,0.2,0.8,0.1,1-0.5c0.2-0.5,0.4-1.1,0.7-1.7C38.7,83,39,83.1,39.4,83.2z"/>
	<path class="st0" d="M16.1,67.1C16.2,67.1,16.2,67.1,16.1,67.1c0.9,0.7,0.9,0.7,0.5,1.7c-0.2,0.6-0.4,1.1-0.6,1.7c0,0,0,0,0,0.1
		c0.3-0.1,0.6-0.3,0.9-0.4c0.4-0.2,0.9-0.4,1.3-0.7c0.2-0.1,0.4-0.1,0.6,0.1c0.2,0.2,0.3,0.3,0.6,0.5c-0.7,0.3-1.3,0.6-1.9,0.8
		c-1,0.4-1.9,0.8-2.9,1.2c-0.8,0.3-1.3,0.1-1.8-0.7c0.2-0.2,0.4-0.3,0.6-0.5c0.1,0.1,0.2,0.2,0.4,0.3c0.4,0.3,1,0.2,1.1-0.3
		c0.4-1.2,0.7-2.4,1.1-3.5C16.1,67.2,16.1,67.1,16.1,67.1z"/>
	<path class="st0" d="M26.3,76c1,0.6,1,0.6,0.8,1.6c-0.1,0.6-0.2,1.2-0.3,1.9c0,0,0,0,0.1,0.1c0.4-0.3,0.8-0.6,1.2-0.9
		c0.1-0.1,0.3-0.2,0.4-0.3c0.8-0.6,0.8-0.5,1.5,0.1c-0.4,0.3-0.8,0.6-1.3,0.8c-0.8,0.5-1.7,1.1-2.5,1.6c-0.2,0.1-0.5,0.3-0.7,0.4
		c-0.6,0.3-1.1,0.2-1.6-0.3c-0.1-0.1-0.1-0.2,0-0.3c0.1-0.2,0.2-0.3,0.3-0.5c0.1,0.1,0.3,0.2,0.4,0.2c0.5,0.3,1,0.1,1.1-0.5
		c0.2-1.2,0.4-2.4,0.5-3.6C26.2,76.2,26.3,76.1,26.3,76z"/>
	<path class="st1" d="M42.1,5.6c0.5-0.1,1-0.1,1.6-0.2c0.2,1.7,0.4,3.4,0.7,5.2c-0.5,0.1-1,0.1-1.6,0.2C42.6,9.1,42.4,7.4,42.1,5.6z
		"/>
	<path class="st1" d="M93.3,54.9c-1.7,0-3.4,0-5.2,0c0-0.6,0-1.1,0-1.6c1.7,0,3.4,0.1,5.2,0.1C93.3,53.9,93.3,54.4,93.3,54.9z"/>
	<path class="st0" d="M79.5,72.3c0.9-0.8,1.7-1.6,2.5-2.4c0.2,0.2,0.4,0.4,0.6,0.7c-0.6,0.5-1.1,1.1-1.7,1.7c1,1.1,2.1,2.2,3.1,3.3
		c-0.2,0.2-0.5,0.5-0.8,0.7C82,75,80.8,73.7,79.5,72.3z"/>
	<path class="st0" d="M86.8,72.8c-0.3,0.2-0.5,0.5-0.8,0.7c-1.3-1.3-2.6-2.5-3.9-3.8c0.3-0.2,0.5-0.4,0.8-0.7
		C84.2,70.2,85.5,71.5,86.8,72.8z"/>
	<path class="st0" d="M34.4,81c0.3,0.2,0.6,0.3,0.9,0.5c-0.9,1.6-1.7,3.2-2.6,4.8c-0.3-0.2-0.6-0.3-0.9-0.5
		C32.7,84.2,33.6,82.6,34.4,81z"/>
	<path class="st1" d="M92,31.4c0.2,0.3,0.4,0.6,0,1c-0.4,0.4,0.1,1.5,0.6,1.5c0.4,0,0.5,0.2,0.6,0.6c0,0,0,0.1,0,0.1
		c-0.6,0.3-1.4,0-1.8-0.8C90.9,32.8,91.1,31.9,92,31.4z"/>
	<path class="st0" d="M28.2,75.4c0.2,0.1,0.4,0.2,0.3,0.5c-0.1,0.5,0.5,0.8,0.9,0.6c0.3-0.1,0.3-0.1,0.5,0.1
		c-0.3,0.5-0.8,0.7-1.3,0.4C28,76.6,27.8,76,28.2,75.4z"/>
	<path class="st0" d="M83,66.6c0.1-0.3,0.3-0.3,0.5-0.3c0.4,0.1,0.9-0.4,0.7-0.8c-0.1-0.3,0-0.4,0.2-0.5c0.5,0.4,0.5,1,0.1,1.4
		C84.2,67,83.6,67,83,66.6z"/>
	<path class="st2" d="M86.8,69.9C86.7,69.9,86.7,69.9,86.8,69.9C86.7,69.9,86.7,69.9,86.8,69.9C86.8,69.9,86.8,69.9,86.8,69.9z"/>
	<polygon class="st2" points="23.7,75.7 23.7,75.7 23.7,75.7 	"/>
	<path class="st1" d="M59.3,57.3c-0.5,0-1.1,0-1.6,0c0.1-1,0.2-1.9,0.3-2.9c0.4,0,0.8,0,1.2,0C59.3,55.3,59.3,56.3,59.3,57.3z"/>
	<path class="st1" d="M45.6,54.7c0.2,0.5,0.4,1,0.6,1.5c-0.4,0-0.8,0-1.2,0C45.2,55.7,45.4,55.2,45.6,54.7
		C45.6,54.7,45.6,54.7,45.6,54.7z"/>
</g>
</svg>
