<?xml version="1.0" encoding="utf-8"?>
<!-- Generator: Adobe Illustrator 26.3.1, SVG Export Plug-In . SVG Version: 6.00 Build 0)  -->
<svg version="1.1" id="Слой_1" xmlns="http://www.w3.org/2000/svg" xmlns:xlink="http://www.w3.org/1999/xlink" x="0px" y="0px"
	 viewBox="0 0 50 50" style="enable-background:new 0 0 50 50;" xml:space="preserve">
<path d="M17.3,12.9c0-0.2,0.1-0.3,0.1-0.5c0,0,0,0,0,0V8.3l8.1,4.9l8.2-4.9v3.9c0.1,0.5,0.1,0.6,0.1,0.8c0,1.5-3.7,2.7-8.3,2.7
	C21,15.6,17.3,14.4,17.3,12.9z M38.3,4.6l-12.6-4l-12.7,4l12.6,7.7L38.3,4.6z M17.3,20c0,4.4,3.7,8,8.3,8c4.6,0,8.3-3.6,8.3-8v-4.3
	c0,0-2.8,2-8.3,2c-5.5,0-8.3-2-8.3-2V20z M44.5,38v11.4h-6.9v-10l-2.2,0v10H14.6l0-9.9h-2.2v9.9H5.5V38c0,0-0.4-8.7,11.4-8.9h6.4
	l2.2,3.7l2.3-3.7h5.6C33.3,29.1,43.8,29,44.5,38z M27.5,36.6l-1.9-3.3l-2,3.2l2.1,9.7L27.5,36.6z M13.7,13.8L13,5.3l-0.8,8.5
	l0.8,2.4L13.7,13.8z"/>
</svg>
