<?xml version="1.0" encoding="utf-8"?>
<!-- Generator: Adobe Illustrator 26.3.1, SVG Export Plug-In . SVG Version: 6.00 Build 0)  -->
<svg version="1.1" id="Слой_1" xmlns="http://www.w3.org/2000/svg" xmlns:xlink="http://www.w3.org/1999/xlink" x="0px" y="0px"
	 viewBox="0 0 50 50" style="enable-background:new 0 0 50 50;" xml:space="preserve">
<path d="M40.5,3.9h-6.7c-0.5-0.6-1.3-1-2.2-1h-2.9V2.5c0-1.1-1.4-2.1-3.1-2.1c-1.7,0-3.1,0.9-3.1,2.1V3h-2.9c-0.9,0-1.6,0.4-2.2,1
	H9.5C8.7,3.9,8,4.6,8,5.4v42.8c0,0.8,0.6,1.5,1.5,1.5h31c0.8,0,1.5-0.7,1.5-1.5V5.4C42,4.6,41.3,3.9,40.5,3.9z M39.1,46.7H10.9V6.8
	h5.8c0.4,1.2,1.5,2,2.8,2h12.1c1.3,0,2.4-0.8,2.8-2h4.7V46.7L39.1,46.7L39.1,46.7z M14.9,15.8h21.4v1H14.9V15.8z M14.9,19.2h21.4v1
	H14.9V19.2z M14.9,22.9h21.4v1H14.9V22.9z M14.9,26.3h21.4v1H14.9V26.3z M33,33c-3.3,2.6-5.9,5.9-8.6,9c-0.4,0.5-1.5,1.2-2.1,0.6
	c-1.5-1.6-3.1-3.2-4-5.2c-0.6-1.5,2.1-3.9,2.8-2.3c0.6,1.5,1.6,2.7,2.7,3.8c2.5-2.9,5-5.8,8-8.2C33.6,29.2,34.6,31.8,33,33z"/>
</svg>
