<?xml version="1.0" encoding="utf-8"?>
<!-- Generator: Adobe Illustrator 26.3.1, SVG Export Plug-In . SVG Version: 6.00 Build 0)  -->
<svg version="1.1" id="Слой_1" xmlns="http://www.w3.org/2000/svg" xmlns:xlink="http://www.w3.org/1999/xlink" x="0px" y="0px"
	 viewBox="0 0 1000 820" style="enable-background:new 0 0 1000 820;" xml:space="preserve">
<style type="text/css">
	.st0{fill:#899D79;}
	.st1{fill:#F6F4F5;}
	.st2{fill:#E4E4E3;}
	.st3{fill:#FFFFFF;}
	.st4{fill:#596A5E;}
	.st5{fill:#538A5E;}
	.st6{fill:#FFFFFF;stroke:#718BC6;stroke-width:6;stroke-miterlimit:10;}
	.st7{fill:#EE7059;}
	.st8{fill:#44391C;}
	.st9{fill:#F8B486;}
	.st10{fill:#54511F;}
	.st11{fill:#E38B6D;}
	.st12{fill:#403D50;}
	.st13{fill:#49574B;}
	.st14{fill:#708474;}
	.st15{fill:#38381A;}
	.st16{fill:#888C74;}
	.st17{opacity:0.6;fill:#E38B6D;}
	.st18{fill:#703428;}
	.st19{fill:#DEC85A;}
	.st20{opacity:0.3;fill:none;stroke:#703428;stroke-width:8;stroke-miterlimit:10;}
	.st21{fill:#FBC342;}
	.st22{fill:#1D2545;}
	.st23{opacity:0.4;fill:#F1877A;}
	.st24{opacity:0.6;fill:#703428;}
</style>
<g>
	<path class="st0" d="M909.6,788.4H555.1c-41,0-74.3-33.3-74.3-74.3V172.6c0-41,33.3-74.3,74.3-74.3h354.4c41,0,74.3,33.3,74.3,74.3
		V714C983.9,755.1,950.6,788.4,909.6,788.4z"/>
	<g>
		<rect x="526.3" y="126" class="st1" width="414.1" height="601.5"/>
		<path class="st2" d="M940.4,126.1c0.1,234.6,7.7,517.4-18.6,580.1c-116,11.3-251.9,14.9-395.4,15.6l54.6-593.9L940.4,126.1z"/>
		<path class="st3" d="M903.2,687.2c-180.9,28.9-301.8,30.5-399.8,23.2c12.7-135.3,17.8-359.9,22.9-584.3l218,0.5l197.3,13
			C944.4,372.4,944.7,587.5,903.2,687.2z"/>
	</g>
	
		<rect x="621" y="184.1" transform="matrix(0.9997 2.352837e-02 -2.352837e-02 0.9997 4.9236 -17.1188)" class="st4" width="217.9" height="33.2"/>
	
		<rect x="684.6" y="265.5" transform="matrix(0.9997 2.352839e-02 -2.352839e-02 0.9997 6.6429 -18.3429)" class="st4" width="196.5" height="15.2"/>
	
		<rect x="683.8" y="297.9" transform="matrix(0.9997 2.352875e-02 -2.352875e-02 0.9997 7.3958 -17.5756)" class="st5" width="133.6" height="15.2"/>
	<g>
		
			<rect x="575.8" y="262.1" transform="matrix(0.9997 2.352853e-02 -2.352853e-02 0.9997 6.8801 -14.0156)" class="st6" width="46.5" height="46.5"/>
		<g>
			<path class="st7" d="M583.9,273.8c1.4,5.5,4.1,28.5,15.6,22.1c2.7-1.5,4.9-5.4,6.9-7.7c3.6-4.1,7.2-8.1,10.7-12.2
				c7.2-8.1,14.3-16.2,21.5-24.4c1.8-2.1-6.3-7.3-8.6-4.7c-6.4,7.2-12.7,14.4-19.1,21.7c-3.2,3.6-6.4,7.2-9.5,10.8
				c-2.2,2.5-7.3,10.6-10.6,11.3c1.8,0.6,3.6,1.1,5.3,1.7c1.3,1-1.1-6.3-1.1-6.5c-0.9-3.4-1.8-6.8-2.7-10.2
				C591.7,273,582.8,269.6,583.9,273.8L583.9,273.8z"/>
		</g>
	</g>
	
		<rect x="682.6" y="349.7" transform="matrix(0.9997 2.352835e-02 -2.352835e-02 0.9997 8.6176 -17.8648)" class="st4" width="161.8" height="15.2"/>
	
		<rect x="681.8" y="383.2" transform="matrix(0.9997 2.352838e-02 -2.352838e-02 0.9997 9.4109 -18.2452)" class="st5" width="196.5" height="15.2"/>
	<g>
		
			<rect x="573.8" y="346.7" transform="matrix(0.9997 2.352853e-02 -2.352853e-02 0.9997 8.8692 -13.9454)" class="st6" width="46.5" height="46.5"/>
		<g>
			<path class="st7" d="M581.9,359.7c1.4,5.5,4.1,28.5,15.6,22.1c2.7-1.5,4.9-5.4,6.9-7.7c3.6-4.1,7.2-8.1,10.7-12.2
				c7.2-8.1,14.3-16.2,21.5-24.4c1.8-2.1-6.3-7.3-8.6-4.7c-6.4,7.2-12.7,14.4-19.1,21.7c-3.2,3.6-6.4,7.2-9.5,10.8
				c-2.2,2.5-7.3,10.6-10.6,11.3c1.8,0.6,3.6,1.1,5.3,1.7c1.3,1-1.1-6.3-1.1-6.5c-0.9-3.4-1.8-6.8-2.7-10.2
				C589.7,358.9,580.8,355.5,581.9,359.7L581.9,359.7z"/>
		</g>
	</g>
	
		<rect x="680.6" y="434.7" transform="matrix(0.9997 2.352863e-02 -2.352863e-02 0.9997 10.6213 -18.2027)" class="st4" width="196.5" height="15.2"/>
	
		<rect x="679.8" y="466.5" transform="matrix(0.9997 2.352825e-02 -2.352825e-02 0.9997 11.3549 -16.8975)" class="st5" width="87.9" height="15.2"/>
	<g>
		
			<rect x="571.8" y="431.2" transform="matrix(0.9997 2.352853e-02 -2.352853e-02 0.9997 10.8584 -13.8751)" class="st6" width="46.5" height="46.5"/>
		<g>
			<path class="st7" d="M580.5,444.8c1.4,5.5,4.1,28.5,15.6,22.1c2.7-1.5,4.9-5.4,6.9-7.7c3.6-4.1,7.2-8.1,10.7-12.2
				c7.2-8.1,14.3-16.2,21.5-24.4c1.8-2.1-6.3-7.3-8.6-4.7c-6.4,7.2-12.7,14.4-19.1,21.7c-3.2,3.6-6.4,7.2-9.5,10.8
				c-2.2,2.5-7.3,10.6-10.6,11.3c1.8,0.6,3.6,1.1,5.3,1.7c1.3,1-1.1-6.3-1.1-6.5c-0.9-3.4-1.8-6.8-2.7-10.2
				C588.3,444.1,579.4,440.7,580.5,444.8L580.5,444.8z"/>
		</g>
	</g>
	
		<rect x="678.6" y="519.2" transform="matrix(0.9997 2.352838e-02 -2.352838e-02 0.9997 12.6103 -18.1322)" class="st4" width="196.5" height="15.2"/>
	
		<rect x="677.8" y="551.9" transform="matrix(0.9997 2.352849e-02 -2.352849e-02 0.9997 13.3721 -17.6194)" class="st5" width="155.3" height="15.2"/>
	<g>
		
			<rect x="569.8" y="515.8" transform="matrix(0.9997 2.352853e-02 -2.352853e-02 0.9997 12.8475 -13.8049)" class="st6" width="46.5" height="46.5"/>
		<g>
			<path class="st7" d="M578.6,528.9c1.4,5.5,4.1,28.5,15.6,22.1c2.7-1.5,4.9-5.4,6.9-7.7c3.6-4.1,7.2-8.1,10.7-12.2
				c7.2-8.1,14.3-16.2,21.5-24.4c1.8-2.1-6.3-7.3-8.6-4.7c-6.4,7.2-12.7,14.4-19.1,21.7c-3.2,3.6-6.4,7.2-9.5,10.8
				c-2.2,2.5-7.3,10.6-10.6,11.3c1.8,0.6,3.6,1.1,5.3,1.7c1.3,1-1.1-6.3-1.1-6.5c-0.9-3.4-1.8-6.8-2.7-10.2
				C586.3,528.1,577.5,524.7,578.6,528.9L578.6,528.9z"/>
		</g>
	</g>
	
		<rect x="676.6" y="601.8" transform="matrix(0.9997 2.352802e-02 -2.352802e-02 0.9997 14.5349 -16.6675)" class="st4" width="77.9" height="15.2"/>
	<path class="st5" d="M872.5,638.6L676,634l-0.4,15.2c76,1.8,172.8,5.3,192.6,2.3C871.2,648,872.8,643.9,872.5,638.6z"/>
	<g>
		
			<rect x="568.5" y="599.7" transform="matrix(0.9997 2.352850e-02 -2.352850e-02 0.9997 14.8222 -13.7505)" class="st6" width="46.5" height="46.5"/>
		<g>
			<path class="st7" d="M576.6,612.1c1.4,5.5,4.1,28.5,15.6,22.1c2.7-1.5,4.9-5.4,6.9-7.7c3.6-4.1,7.2-8.1,10.7-12.2
				c7.2-8.1,14.3-16.2,21.5-24.4c1.8-2.1-6.3-7.3-8.6-4.7c-6.4,7.2-12.7,14.4-19.1,21.7c-3.2,3.6-6.4,7.2-9.5,10.8
				c-2.2,2.5-7.3,10.6-10.6,11.3c1.8,0.6,3.6,1.1,5.3,1.7c1.3,1-1.1-6.3-1.1-6.5c-0.9-3.4-1.8-6.8-2.7-10.2
				C584.4,611.3,575.5,608,576.6,612.1L576.6,612.1z"/>
		</g>
	</g>
	<g>
		<g>
			<path class="st8" d="M825.6,102.4v46.4H639.1v-46.4c0-7.4,3-14.1,7.9-19c0.6-0.6,1.2-1.2,1.9-1.7c4.6-3.8,10.6-6.2,17.1-6.2
				c4.9,0,9.5-1.1,13.7-3.1c1.8-0.9,3.5-1.9,5.2-3.1c5.3-3.9,9.4-9.6,11.4-16.2c2.1-6.8,6.3-12.5,11.8-16.5c5.3-3.8,11.7-6,18.5-6
				h11.6c6.8,0,13.2,2.2,18.5,6c5.5,4,9.7,9.7,11.8,16.5c2,6.7,6.1,12.3,11.4,16.2c1.6,1.2,3.3,2.2,5.2,3.1c4.2,2,8.8,3.1,13.7,3.1
				c6.5,0,12.4,2.3,17.1,6.2C821.8,86.7,825.6,94.1,825.6,102.4z"/>
			<polygon class="st8" points="840.7,126 840.7,160.6 623.9,160.6 623.9,126 639.1,126 639.1,148.8 825.6,148.8 825.6,126 			"/>
			<ellipse class="st8" cx="732.3" cy="58.5" rx="16.5" ry="15.7"/>
		</g>
	</g>
	<g>
		<path class="st9" d="M374.9,275.9c-6.6-1.3-12.8-12.3-14.9-16.5c-0.5-1-0.7-2.2-0.5-3.4l2.6-14c0,0,6.1,1,5.6,9.1
			c0,0.8,0.1,1.7,0.4,2.5l2.3,6.1l6.9-5.3l-3.8-10.6c0,0-5,1.4-7.7,0.6c-5.3-1.7,1.7-5.9,3.9-6.3c2.2-0.4,7.1-2.2,9.3,1.6
			c2.2,3.8,3.5,6,3.5,6s2.4-8.4,0.8-27.3c-0.1-0.8,2.1-0.8,2.6-0.2c1.8,1.8,4.6,7.4,4.8,24.2c0,0,0.3-19.6,3.7-21.6
			c2.8-1.7,4.2,7.9,2.2,24.2c0,0,3.6-14.1,6.2-14.1c4.4,0,0.1,37.6-10.9,48.9L374.9,275.9z"/>
		<path class="st9" d="M395.6,270.1c-0.2,1.9-0.4,3.7-0.6,5.4v0c-0.8,6.2-1.8,11.8-2.9,16.6c-0.1,0.2-0.1,0.4-0.2,0.7
			c-3.3,13.7-3.9,20.4-15.4,18.6l-11.7-13.4l-0.1-0.1l-0.9-1l2.4-7l0.3-0.9l1.8-5.1l0.2-0.7l3-8.8l1.2-3.6L395.6,270.1z"/>
	</g>
	<path class="st10" d="M177.6,756.5l-3,9.3c-20.5,6.7-32.4,14.4-33.2,23.4h59.2l4.7-31.3C193.4,761,183.7,758.9,177.6,756.5z"/>
	<path class="st9" d="M185,733.3l-7.4,23.2c6.2,2.4,15.8,4.4,27.8,1.5l3.1-20.2L185,733.3z"/>
	<path class="st9" d="M286.3,755.5l1.7-23.6l-27.8,1.5l-1.5,21.8C270.4,758.9,280.2,757.4,286.3,755.5z"/>
	<path class="st10" d="M319.8,789.3c-0.8-9-11.2-21.3-34.2-24.3l0.7-9.6c-6.1,1.9-15.8,3.4-27.6-0.4l-2.4,34.2H319.8z"/>
	<polygon class="st9" points="263.7,281.9 230.1,282.2 230.1,231.4 262.7,231.4 262.7,234.5 262.9,250.6 263.1,276.4 	"/>
	<path class="st11" d="M262.9,253c-6,6.3-21.8-0.8-28.4-7.8l28.3-8.3L262.9,253z"/>
	<path class="st9" d="M270.7,219.7c0,3.7-0.3,7.7-0.9,11.4c-1.6,10.2-6,19.1-16,19.4c-23.6,0.7-30.4-12.8-34.8-23.9
		c-4.5-11.1,2.8-37.7,2.8-37.7l30.6-3l16.8,13.8C269.1,199.6,270.8,209,270.7,219.7z"/>
	<path class="st12" d="M219.9,220.2c0,0,6.7-0.3,7.9-17.7c12.1,4,20.9,0.4,27.8-7.7c6,7.9,22.6,10.3,28.3-5.8
		c4.1-11.6-7.2-29-23.5-18.5c-16-8.1-40.3-7.5-47.3,12.3c0,0-24.3,11.2,1.4,35.9C215,219.3,219.9,220.2,219.9,220.2z"/>
	<polygon class="st13" points="312.9,464.4 294.4,745.1 250.7,745.1 261.6,472.8 268.3,469.7 	"/>
	<polygon class="st14" points="199.3,426 168.7,745.1 216.2,745.1 261.5,480.1 312.9,464.5 315.2,407.8 200.6,405.2 	"/>
	<path class="st15" d="M206.1,426.7c26,9.3,86.9-1.3,99.5-14.3l-9-18l-100.2,13.3L206.1,426.7z"/>
	<path class="st3" d="M303.3,408.1c-0.8,0.4-1.7,0.7-2.6,1.1c-9.7,3.9-20.8,7.4-32.5,9.7c-7,1.4-14.4,2.3-21.8,2.7
		c-11.3,0.6-22.8-0.2-34.3-2.8l14.6-135.7l1.8-16.5c0,0,19,23.4,40-2.4L303.3,408.1z"/>
	<path class="st16" d="M246.4,421.5c-11.3,0.6-22.8-0.2-34.3-2.8l14.6-135.7l5.2-7.5C244.7,306.8,257.8,375.9,246.4,421.5z"/>
	<path class="st10" d="M230.2,261.2c14.5,61.4,20.4,124.6-0.9,194.8c-15.8,6-33,5.9-51.4,0.7l4.6-127.6L75.1,402.8l-6.5-40.2
		C109.8,323.1,181.1,263.6,230.2,261.2z"/>
	<path class="st16" d="M300.7,409.2c-9.7,3.9-20.8,7.4-32.5,9.7c-6.5-37.1-7.9-98-2.6-125.4L300.7,409.2z"/>
	<path class="st17" d="M392.1,292.2c-0.1,0.2-0.1,0.4-0.2,0.7c-3.3,13.7-3.9,20.4-15.4,18.6l-11.7-13.4l-0.1-0.1l1.5-8l0.3-0.9
		l1.8-5.1l0.2-0.7L392.1,292.2z"/>
	<path class="st10" d="M390.1,304.6c0,0-28.8,61-45.9,62.5c-16.6,1.4-24.4-14.6-24.4-14.6l11.7,89.2c-13.8,6.4-28.8,9.6-46.2,6.5
		c-15.5-50.3-21.3-115.3-22.5-187.7c12.5,0.8,37.4,1.9,46.3,7.6c16,10.3,35.6,46.9,35.6,46.9l22.9-31.2L390.1,304.6z"/>
	<path class="st18" d="M38.9,218.6c0,0,1.7-29.2,4.7-27.8c3,1.4,8.9,26.8,8.9,26.8l-6.4,10.3L38.9,218.6z"/>
	<path class="st7" d="M126.5,745.9l0.9,9.6c1.5,17-11,32-28,33.5l-2.5,0.2c-17,1.5-32-11-33.5-28l-0.9-9.6L126.5,745.9z"/>
	
		<rect x="41.6" y="282.5" transform="matrix(0.996 -8.948319e-02 8.948319e-02 0.996 -45.8849 8.6638)" class="st19" width="64.2" height="467.2"/>
	
		<rect x="58.9" y="273.3" transform="matrix(0.996 -8.948348e-02 8.948348e-02 0.996 -42.4934 8.2047)" class="st20" width="22.8" height="409.5"/>
	<polygon class="st10" points="126.5,745.9 62.6,751.6 61,732.9 59.8,719.8 56.2,679.8 120.1,674.1 123.7,714.1 124.8,727.1 	"/>
	
		<rect x="60.2" y="716.9" transform="matrix(0.996 -8.951984e-02 8.951984e-02 0.996 -64.395 11.1693)" class="st21" width="64.1" height="13.1"/>
	<path class="st7" d="M20.8,286.3l17.8-71.1c0,0,6.1,2.7,13.6-1.9l32.6,67.3L20.8,286.3z"/>
	<path class="st9" d="M223.5,217.3c-0.3-1-5.1-2.5-6.1-2.8c-1.6-0.4-3.4-0.7-5,0c-5.8,2.6-5,10.9-2,15.2c1.7,2.5,4.2,4.4,7.1,5.2
		c1,0.3,11,0.4,10.5-1.2C228,233.7,223.5,217.3,223.5,217.3z"/>
	<path class="st9" d="M41.9,383.2c-1.5-4.7-6.4-7.3-11.1-5.7c-7.3,2.5-13.6,6.8-14.6,14c-0.9,6.6,2.4,27.7,17.1,30.4l-1.2-10.8
		c0,0,9-2.1,10.8-6C44.3,402.3,44.4,390.9,41.9,383.2z"/>
	<path class="st15" d="M315.2,310.8c0.8,4.6,1.4,9.2,2.1,13.9c0.7,4.6,1.2,9.3,1.8,13.9l1.5,13.9c0.4,4.7,0.9,9.3,1.2,14l-0.8,0.1
		c-0.8-4.6-1.5-9.2-2.1-13.9l-1.7-13.9c-0.5-4.6-1.1-9.3-1.5-13.9c-0.5-4.6-0.9-9.3-1.2-14L315.2,310.8z"/>
	<path class="st15" d="M183.9,310c0,5.2-0.1,10.4-0.3,15.5c-0.1,5.2-0.4,10.3-0.6,15.5l-0.8,15.5c-0.3,5.2-0.7,10.3-1.2,15.5l-0.8,0
		c0-5.2,0.1-10.4,0.3-15.5l0.6-15.5c0.3-5.2,0.5-10.3,0.9-15.5c0.3-5.2,0.7-10.3,1.2-15.5L183.9,310z"/>
	<path class="st22" d="M247.2,216.8c0.4,1.8-0.3,3.6-1.7,3.9s-2.8-0.9-3.2-2.8c-0.4-1.8,0.3-3.6,1.7-3.9S246.8,215,247.2,216.8z"/>
	<path class="st22" d="M266.6,214.5c-0.1,1.9-1.3,3.4-2.6,3.3c-1.4-0.1-2.4-1.6-2.4-3.5c0.1-1.9,1.3-3.4,2.6-3.3
		C265.7,211.1,266.7,212.6,266.6,214.5z"/>
	<path class="st11" d="M255.8,216.1c0.7,1.6,0.6,3.4,1,4.7c0.2,0.7,0.5,1.3,0.9,1.6c0.4,0.4,1,0.6,1.8,0.9c0.8,0.3,1.7,0.9,2.3,1.7
		c0.6,0.8,0.8,2.3,0.2,3.2c-0.5,0.9-1.3,1.5-1.9,1.9c-0.7,0.5-1.3,0.9-2,1.4l-0.5-0.6c0.5-0.6,1.1-1.2,1.6-1.8
		c0.6-0.6,1.1-1.1,1.3-1.6c0.4-0.9-0.5-1.9-1.8-2.4c-0.7-0.3-1.6-0.6-2.4-1.4c-0.7-0.8-1.1-1.7-1.3-2.6c-0.3-1.8,0-3.4-0.1-4.9
		L255.8,216.1z"/>
	<path class="st22" d="M237.9,211.9c0.3-1.2,1-2.3,2-3c1-0.8,2.3-1.3,3.5-1.3c2.6-0.2,5.1,1.3,6.2,3.5l-0.6,0.5
		c-1.7-1.3-3.6-2.1-5.5-2c-1.9,0.1-3.6,1-4.9,2.8L237.9,211.9z"/>
	<path class="st22" d="M258,209.5c0.3-0.9,0.8-1.8,1.5-2.5c0.7-0.7,1.7-1.2,2.8-1.4c2.1-0.3,4.4,0.7,5.2,2.6l-0.6,0.5
		c-1.4-0.9-2.9-1.3-4.3-1.1c-0.7,0.1-1.4,0.4-2,0.7c-0.7,0.4-1.2,1-1.9,1.6L258,209.5z"/>
	<path class="st3" d="M247.2,235c3.4,5.3,8,5.9,11.5,0.3L247.2,235z"/>
	<path class="st23" d="M270.8,218.4c0,3.7-0.3,9-1,12.7c-2.4-0.8-4.1-3-4.1-5.6C265.7,222.5,268,218.8,270.8,218.4z"/>
	<circle class="st23" cx="238.9" cy="229" r="6.3"/>
	<path class="st11" d="M219.4,223.6c-1.2-0.8-2.4-1.8-3.5-2.3c-0.6-0.3-1.1-0.4-1.6-0.4c-0.5,0-1,0.3-1.6,0.7l-0.6-0.4
		c0.3-0.8,0.8-1.7,1.9-2c1-0.4,2.1-0.1,2.8,0.3c1.6,0.8,2.6,2.1,3.3,3.6L219.4,223.6z"/>
	<path class="st24" d="M43,405l-9.1,27.5l-1.9-21.5C37.7,409.8,40.8,407.6,43,405z"/>
</g>
</svg>
