<?xml version="1.0" encoding="utf-8"?>
<!-- Generator: Adobe Illustrator 26.3.1, SVG Export Plug-In . SVG Version: 6.00 Build 0)  -->
<svg version="1.1" id="Слой_1" xmlns="http://www.w3.org/2000/svg" xmlns:xlink="http://www.w3.org/1999/xlink" x="0px" y="0px"
	 viewBox="0 0 1190 595" style="enable-background:new 0 0 1190 595;" xml:space="preserve">
<style type="text/css">
	.st0{fill:#8EBE8E;}
	.st1{fill:#F9CF68;}
	.st2{fill:#1E2C24;}
	.st3{fill:#3B4F48;}
	.st4{fill:#3A4F44;}
	.st5{fill:#F0903D;}
	.st6{fill:#438B34;}
	.st7{fill:#214C22;}
	.st8{fill:#403D50;}
	.st9{fill:#EEA19D;}
	.st10{fill:#F4D3C7;}
	.st11{clip-path:url(#SVGID_00000151520690344953632030000002452587162591575962_);fill:#38381A;}
	.st12{fill:#FFFFFF;}
	.st13{fill:#49574B;}
	.st14{fill:#708474;}
	.st15{fill:#DDECFA;}
	.st16{fill:#21315D;}
	.st17{fill:#324E91;}
	.st18{clip-path:url(#XMLID_00000054231554797099968430000001415321603058655391_);fill:#21315D;}
	.st19{clip-path:url(#XMLID_00000111908300122491067570000012347501183552584370_);fill:#21315D;}
	.st20{clip-path:url(#XMLID_00000016038396313567287060000005480749392663851655_);fill:#F9CF68;}
	.st21{clip-path:url(#XMLID_00000095315969192242882870000000078315692317934526_);fill:#F9CF68;}
	.st22{opacity:0.67;clip-path:url(#XMLID_00000146500293795285363310000000763739574289047475_);fill:#DDECFA;}
	.st23{fill:#1F2042;}
	.st24{fill:#D38573;}
	.st25{opacity:0.4;fill:#EA5D57;}
</style>
<g>
	<path class="st0" d="M1179.2,586.3c0,0-1-99.2-7.5-132.7c0,0-33,32.7-31.5,73.6c0,0,6-56.2-46.4-91.2c0,0-15.4,26.9-9.5,81.4
		c0,0-26.4-30-71-32.2c0,0,2.6,47.9,30.1,77.2c0,0-8.9-16.9-65.7-18.6c0,0,17.8,29.1,34.1,42.5H1179.2z"/>
	<g>
		<path class="st1" d="M658.2,159.6c-27,0.1-48.4-22.8-47.1-49.7h94.3C706.7,136.8,685.2,159.6,658.2,159.6z"/>
		<g>
			<g>
				<path class="st2" d="M1057.3,541.9c-3,0-5.7-2.1-6.4-5.2L975.2,190L661.7,21.4c-3.2-1.7-4.4-5.7-2.7-8.9
					c1.7-3.2,5.7-4.4,8.9-2.7l318.8,171.5l76.9,352.7C1064.6,538,1061.4,542,1057.3,541.9z"/>
			</g>
			<path class="st3" d="M739.7,127.5H580.3C574.7,68.7,591,10.1,660,7.6C729,10.1,745.3,68.7,739.7,127.5z"/>
			<g>
				<path class="st3" d="M1001.8,190.5c-0.5,31.8-47.8,31.8-48.4,0C954,158.7,1001.3,158.7,1001.8,190.5z"/>
				<path class="st2" d="M990.9,190.5c-0.3,17.5-26.3,17.5-26.6,0C964.6,173,990.6,173,990.9,190.5z"/>
			</g>
			<path class="st3" d="M979.5,586.3c16.7-75.2,141.8-75.6,154,0H979.5z"/>
			<g>
				<path class="st2" d="M739.7,110H580.3c-1.1,0-1.9-0.9-1.9-1.9s0.9-1.9,1.9-1.9h159.4C742.1,106.1,742.2,110.1,739.7,110z"/>
				<path class="st2" d="M739.7,96.6H580.3c-1.1,0-1.9-0.9-1.9-1.9c0-1.1,0.9-1.9,1.9-1.9h159.4C742.1,92.7,742.2,96.6,739.7,96.6z"
					/>
			</g>
		</g>
	</g>
	<g>
		<g>
			<path class="st4" d="M406.3,586.3h-13.8c-6.4,0-11.5-5.2-11.5-11.5V420.1c0-6.4,5.2-11.5,11.5-11.5h13.8
				c6.4,0,11.5,5.2,11.5,11.5v154.6C417.9,581.1,412.7,586.3,406.3,586.3z"/>
			<g>
				<rect x="381" y="428.1" class="st2" width="36.9" height="11.6"/>
				<rect x="381" y="445.3" class="st2" width="36.9" height="11.6"/>
			</g>
			<g>
				<rect x="381" y="533.9" class="st2" width="36.9" height="11.6"/>
				<rect x="381" y="551.1" class="st2" width="36.9" height="11.6"/>
			</g>
		</g>
		<g>
			<path class="st4" d="M453.3,586.3H429c-6.1,0-11.1-5-11.1-11.1V472.4c0-6.1,5-11.1,11.1-11.1h24.3c6.1,0,11.1,5,11.1,11.1v102.8
				C464.4,581.3,459.4,586.3,453.3,586.3z"/>
			<rect x="417.9" y="479.4" class="st2" width="46.5" height="9.6"/>
			<rect x="417.9" y="556" class="st2" width="46.5" height="9.6"/>
			<path class="st2" d="M456.7,523.8c-0.3,20.4-30.7,20.4-31.1,0C425.9,503.4,456.3,503.4,456.7,523.8z"/>
		</g>
		<g>
			<path class="st1" d="M368.1,586.3h-20.8c-7.1,0-12.9-5.8-12.9-12.9V452.6c0-7.1,5.8-12.9,12.9-12.9h20.8
				c7.1,0,12.9,5.8,12.9,12.9v120.8C381,580.5,375.2,586.3,368.1,586.3z"/>
			<g>
				<path class="st5" d="M334.4,456.9c15.4-1.3,31.2-1.3,46.6,0C365.6,458.3,349.8,458.3,334.4,456.9L334.4,456.9z"/>
				<path class="st5" d="M334.4,470c15.4-1.3,31.2-1.3,46.6,0C365.6,471.4,349.8,471.4,334.4,470L334.4,470z"/>
			</g>
			<g>
				<path class="st5" d="M334.4,556.9c15.4-1.3,31.2-1.3,46.6,0C365.6,558.3,349.8,558.3,334.4,556.9L334.4,556.9z"/>
				<path class="st5" d="M334.4,570c15.4-1.3,31.2-1.3,46.6,0C365.6,571.3,349.8,571.3,334.4,570L334.4,570z"/>
			</g>
			<rect x="348.9" y="479.1" class="st5" width="20" height="67.8"/>
		</g>
		<g>
			<path class="st6" d="M298.4,586.1l-31.5-7.3c-3.7-0.8-6-4.5-5.1-8.2L297,418c0.8-3.7,4.5-6,8.2-5.1l31.5,7.3
				c3.7,0.8,6,4.5,5.1,8.2L306.7,581C305.8,584.7,302.1,587,298.4,586.1z"/>
			
				<rect x="301.9" y="430.5" transform="matrix(0.9745 0.2245 -0.2245 0.9745 105.6452 -60.0303)" class="st7" width="29.8" height="8.1"/>
			
				<rect x="299" y="443.2" transform="matrix(0.9745 0.2245 -0.2245 0.9745 108.422 -59.0497)" class="st7" width="29.8" height="8.1"/>
			
				<rect x="275.2" y="546.4" transform="matrix(0.9745 0.2245 -0.2245 0.9745 130.9794 -51.0789)" class="st7" width="29.8" height="8.1"/>
			
				<rect x="272.3" y="559.1" transform="matrix(0.9745 0.2245 -0.2245 0.9745 133.7553 -50.098)" class="st7" width="29.8" height="8.1"/>
			<g>
				<path class="st7" d="M323.2,459.3c-5.4,27.7-11.8,55.5-19.1,82.8C309.5,514.4,315.9,486.6,323.2,459.3L323.2,459.3z"/>
				<path class="st7" d="M311.5,457.4c-5.4,27.7-11.8,55.5-19.1,82.8C297.8,512.5,304.2,484.7,311.5,457.4L311.5,457.4z"/>
				<path class="st7" d="M299.9,455.5c-5.4,27.7-11.8,55.5-19.1,82.8C286.1,510.6,292.6,482.8,299.9,455.5L299.9,455.5z"/>
			</g>
		</g>
	</g>
	<g>
		<path class="st8" d="M656.5,298.3h-50.3l3.5-22.8l-14.1,22.8h-11.4c3.7-145.4,140.1-153.5,140.8,0h-11.3l-4.2-34.5l-5,34.5h-20.8
			v-34l-6.6,34L656.5,298.3z"/>
		<g>
			<g>
				<g>
					<path class="st9" d="M622,253.1c2.7,16.8-11.4,19.2-14.4,2.5C604.9,238.8,618.9,236.4,622,253.1z"/>
					<path class="st9" d="M691,253.1c-2.7,16.8,11.4,19.2,14.4,2.5C708.1,238.8,694,236.4,691,253.1z"/>
				</g>
				<g>
					<path class="st10" d="M677.7,267.2c-10.7,0-31.8,0-42.5,0c5.1,14.6-6.1,87.9-6.1,87.9c13.7,0,40.9,0,54.6,0
						C683.8,355.2,672.6,281.9,677.7,267.2z"/>
					<g>
						<defs>
							<path id="XMLID_00000114758168858081890430000002050320267334238097_" d="M697.5,255.2c-1,65.6-81,65.6-82,0
								C608.2,188,702.6,187.4,697.5,255.2z"/>
						</defs>
						<use xlink:href="#XMLID_00000114758168858081890430000002050320267334238097_"  style="overflow:visible;fill:#F4D3C7;"/>
						<clipPath id="XMLID_00000050663266458848023500000017639765638242098824_">
							<use xlink:href="#XMLID_00000114758168858081890430000002050320267334238097_"  style="overflow:visible;"/>
						</clipPath>
					</g>
				</g>
			</g>
			<path class="st9" d="M635.8,298.3c0,0,19.3,14.9,41.3,0l1.2,13.3c0,0-23.8,11.1-43.7,0.1L635.8,298.3z"/>
		</g>
		<path class="st8" d="M664.8,205.3v31.4c0,0-25.4,2.1-48.8,5.7C609.5,201.7,663.6,186.6,664.8,205.3z"/>
		<path class="st8" d="M664.5,202.9l6.7,32.4c0,0,12.5,1.7,25.5,7.2C696.7,242.4,708.2,196.1,664.5,202.9z"/>
	</g>
	<g>
		<defs>
			<path id="SVGID_1_" d="M740.5,376.9c-8.1-44.4-44.1-54.6-84-51.9v0c-0.3,0-0.9,0-1.2,0v0c-39.3-2.8-75.2,8.6-82.9,51.9
				c0,0-16.6,144.1-16.6,144.1c92.9,26.8,108.7,25.2,201.3,0L740.5,376.9z"/>
		</defs>
		<use xlink:href="#SVGID_1_"  style="overflow:visible;fill:#54511F;"/>
		<clipPath id="SVGID_00000145749539577306829710000012795222499281498786_">
			<use xlink:href="#SVGID_1_"  style="overflow:visible;"/>
		</clipPath>
		<path style="clip-path:url(#SVGID_00000145749539577306829710000012795222499281498786_);fill:#38381A;" d="M567.4,451.1
			c34.2,18.9,108.5,63.9,165.4,57.1c-84.9,44.1-79.5,44.5-168.5,9.7L567.4,451.1z"/>
	</g>
	<g>
		<path class="st10" d="M623.6,325.6c4,27,61.7,26.9,65.7,0C689.3,325.6,655.8,323.2,623.6,325.6z"/>
		<g>
			<path class="st12" d="M656.5,346l-20.7,20.6c0,0-21.1-13-17.7-40l5.5-1.1L656.5,346z"/>
			<path class="st12" d="M656.5,346l20.7,20.6c0,0,21.1-13,17.7-40l-5.5-1.1L656.5,346z"/>
		</g>
	</g>
	<path class="st9" d="M550,406.6c-1.5,31.1-24.5,84,24.6,89.1l-4-74.9L550,406.6z"/>
	<path class="st9" d="M760,408.6c2,32.3,23.7,83.2-24.7,91.3l4.1-77.1L760,408.6z"/>
	<g>
		<path class="st9" d="M617.3,558.2c0,0-16-9.9-24.4-7.3c-1.3,0.4-10,11.2-10,11.2L553,573.4c-5.5,1.9-8.4,7.3-9.2,12.8h75.6
			L617.3,558.2z"/>
		<path class="st13" d="M615.3,552c0,0,132.9-73.6,180.2-67.1c47.3,6.5,49.4,72.3,8.5,86.3c-40.9,14-186.1,15.1-186.1,15.1
			L615.3,552z"/>
		<path class="st14" d="M697.7,552c0,0-132.9-73.6-180.2-67.1c-47.3,6.5-49.4,72.3-8.5,86.3S695,586.3,695,586.3L697.7,552z"/>
		<path class="st10" d="M697.2,558.2c0,0,16-9.9,24.4-7.3c1.3,0.4,10,11.2,10,11.2l29.8,11.3c5.5,1.9,8.4,7.3,9.2,12.8H695
			L697.2,558.2z"/>
	</g>
	<g>
		<g>
			<g>
				<polygon class="st1" points="552.4,357.4 645.5,396.6 645.5,502.6 552.4,462 				"/>
				<polygon class="st1" points="756.9,357.4 663.8,396.6 663.8,502.6 756.9,462 				"/>
				<rect x="645.5" y="396.6" class="st5" width="18.4" height="106"/>
			</g>
			<polygon class="st12" points="558.7,360.1 580.1,355.2 654.2,386.8 645.5,396.6 			"/>
			<polygon class="st12" points="654.2,386.8 663.8,396.6 748.3,361.1 732.8,355.2 			"/>
			<polygon class="st15" points="654.2,386.8 645.5,396.6 663.8,396.6 			"/>
		</g>
		<path class="st10" d="M756.5,395.2c-6.7,4.1-20.2,8.2-20.8,17.7l0,0c-2.2,11.3,10.8,21,21.1,16.3c2.2-2.1,4.6-4.6,4.4-7.8
			c0,0,0-18.8,0-18.8C761.1,399.4,759.3,396.5,756.5,395.2L756.5,395.2z"/>
		<path class="st10" d="M552.4,395.2c6.7,4.1,20.2,8.2,20.8,17.7l0,0c2.2,11.3-10.8,21-21.1,16.3c-2.2-2.1-4.6-4.6-4.4-7.8
			c0,0,0-18.8,0-18.8C547.8,399.4,549.6,396.5,552.4,395.2z"/>
	</g>
	<g>
		<g>
			<g>
				<g>
					
						<rect x="860.7" y="479" transform="matrix(6.123234e-17 -1 1 6.123234e-17 423.1407 1384.6871)" class="st16" width="86.5" height="3.6"/>
					
						<rect x="864.2" y="479" transform="matrix(6.123234e-17 -1 1 6.123234e-17 426.6956 1388.2421)" class="st17" width="86.5" height="3.6"/>
					
						<rect x="857.1" y="479" transform="matrix(6.123234e-17 -1 1 6.123234e-17 419.5858 1381.1322)" class="st17" width="86.5" height="3.6"/>
				</g>
				<g>
					<defs>
						<polygon id="XMLID_00000178885166289879679750000005301302604877487745_" points="898.6,524 903.3,544.1 909.2,524 						"/>
					</defs>
					<use xlink:href="#XMLID_00000178885166289879679750000005301302604877487745_"  style="overflow:visible;fill:#FFFFFF;"/>
					<clipPath id="XMLID_00000147219181839934096040000014140977772474856836_">
						<use xlink:href="#XMLID_00000178885166289879679750000005301302604877487745_"  style="overflow:visible;"/>
					</clipPath>
					
						<rect x="898.7" y="537.3" transform="matrix(6.123234e-17 -1 1 6.123234e-17 362.703 1443.6577)" style="clip-path:url(#XMLID_00000147219181839934096040000014140977772474856836_);fill:#21315D;" width="8.9" height="6.3"/>
				</g>
				<g>
					
						<rect x="898.2" y="426.4" transform="matrix(6.123234e-17 -1 1 6.123234e-17 472.1461 1335.6816)" class="st1" width="11.5" height="10.7"/>
					
						<rect x="902.6" y="428.6" transform="matrix(6.123234e-17 -1 1 6.123234e-17 469.9747 1337.8531)" class="st5" width="2.6" height="10.7"/>
					
						<rect x="902.6" y="424.3" transform="matrix(6.123234e-17 -1 1 6.123234e-17 474.3262 1333.5016)" class="st5" width="2.6" height="10.7"/>
				</g>
				<path class="st12" d="M909.2,424.8v1.2h-10.7c-0.4-3.3,1.8-6.6,5.3-6.5C906.9,419.5,909.2,421.9,909.2,424.8z"/>
			</g>
			<g>
				<g>
					
						<rect x="880.3" y="479" transform="matrix(0.2475 -0.9689 0.9689 0.2475 229.1754 1256.6738)" class="st5" width="86.5" height="3.6"/>
					
						<rect x="883.8" y="479.9" transform="matrix(0.2475 -0.9689 0.9689 0.2475 230.9151 1260.6731)" class="st1" width="86.5" height="3.6"/>
					
						<rect x="876.9" y="478.1" transform="matrix(0.2475 -0.9689 0.9689 0.2475 227.4361 1252.675)" class="st1" width="86.5" height="3.6"/>
				</g>
				<g>
					<defs>
						<polygon id="XMLID_00000057150533644919181970000017799179194010463653_" points="907.7,521.4 907.3,542 918,524 						"/>
					</defs>
					<use xlink:href="#XMLID_00000057150533644919181970000017799179194010463653_"  style="overflow:visible;fill:#FFFFFF;"/>
					<clipPath id="XMLID_00000029042753907083581760000002040729480873376430_">
						<use xlink:href="#XMLID_00000057150533644919181970000017799179194010463653_"  style="overflow:visible;"/>
					</clipPath>
					
						<rect x="903.7" y="535.3" transform="matrix(0.2475 -0.9689 0.9689 0.2475 161.6529 1285.0692)" style="clip-path:url(#XMLID_00000029042753907083581760000002040729480873376430_);fill:#21315D;" width="8.9" height="6.3"/>
				</g>
				<g>
					
						<rect x="929.9" y="428" transform="matrix(0.2475 -0.9689 0.9689 0.2475 284.3061 1232.692)" class="st17" width="11.5" height="10.7"/>
					
						<rect x="933.9" y="430.1" transform="matrix(0.2475 -0.9689 0.9689 0.2475 281.8629 1233.7543)" class="st16" width="2.6" height="10.7"/>
					
						<rect x="935" y="425.9" transform="matrix(0.2475 -0.9689 0.9689 0.2475 286.7582 1231.6248)" class="st16" width="2.6" height="10.7"/>
				</g>
				<path class="st12" d="M942.6,427.9l-0.3,1.2l-10.3-2.6C932.8,418.7,944.1,420.2,942.6,427.9z"/>
			</g>
			<g>
				<defs>
					<path id="XMLID_00000132082042409870933040000000029182133593098650_" d="M923.5,586.3c-98.5,0.3-67,12.1-72.2-107.2h85.9v93.5
						C937.1,580.2,931,586.3,923.5,586.3z"/>
				</defs>
				<use xlink:href="#XMLID_00000132082042409870933040000000029182133593098650_"  style="overflow:visible;fill:#FFFFFF;"/>
				<clipPath id="XMLID_00000102543512203396303560000011024208860450618012_">
					<use xlink:href="#XMLID_00000132082042409870933040000000029182133593098650_"  style="overflow:visible;"/>
				</clipPath>
			</g>
			<g>
				<rect x="858.9" y="392.5" class="st0" width="28.4" height="86.6"/>
				<g>
					<rect x="858.9" y="403.8" class="st15" width="10.8" height="4.1"/>
					<rect x="858.9" y="413.2" class="st15" width="10.8" height="4.1"/>
					<rect x="858.9" y="422.5" class="st15" width="10.8" height="4.1"/>
					<rect x="858.9" y="431.9" class="st15" width="10.8" height="4.1"/>
					<rect x="858.9" y="441.2" class="st15" width="10.8" height="4.1"/>
					<rect x="858.9" y="450.6" class="st15" width="10.8" height="4.1"/>
					<rect x="858.9" y="460" class="st15" width="10.8" height="4.1"/>
					<rect x="858.9" y="469.3" class="st15" width="10.8" height="4.1"/>
				</g>
				<rect x="882.7" y="397.3" class="st12" width="4.5" height="81.8"/>
			</g>
		</g>
		<rect x="851.3" y="494" class="st0" width="85.9" height="10.3"/>
		<rect x="851.3" y="512.8" class="st0" width="85.9" height="10.3"/>
	</g>
	<g>
		<g>
			<path class="st12" d="M89.7,214.1c0,0,66.8,147,81.4,253.3h15.1C186.2,467.5,155.2,324.9,89.7,214.1z"/>
			<path class="st0" d="M98.8,233.1c0,0-17-11.8,0-39.7c22.7-69.6-125.4-27.3-79,88.4l28.4-26.5c-34.4,54-15.1,68.7,6.6,115.8
				l22.2-20.8c0,0-15.6,27.4-15.1,30.7c0.5,3.3,33.6,47.7,33.6,47.7s70-98.3,70.9-103.5c0.9-5.2-39.2-40.2-39.2-40.2l46.8,31.7
				c5.6-23,34.6-108.5-26-116.3c0,0,21.3,1.4,33.1,8.5c0,0-4.3-44-38.3-40.2s-28.4,24.6-29.3,38.3
				C112.6,220.8,98.8,233.1,98.8,233.1z"/>
			<path class="st0" d="M270.1,188.9c0,0-9.3-8.5-4.1-19.7c23.3-63.5-75.9-68-71.1,42.1l26.3-8.7c0,0-22,18-22.6,29.2
				c-0.6,11.2,32.6,81.5,32.6,81.5l14.7-17.6c0,0-8.3,22.8-7.5,26.1c0.8,3.3,28,34.4,28,34.4s32.6-45.4,32.8-48.9
				c0.2-3.5-19.5-27.6-19.5-27.6l27.8,19.1c0,0,35.7-47.1,35.5-55.4c-0.2-8.3-32.6-33.4-32.6-33.4l35.7,19.1c0,0,3.3-32.8-3.3-47.9
				l-30.9-12.4l29.2,6.8c0,0-12.6-44.8-27-47.3c-14.3-2.5-38.4,27.6-37.9,41.1C276.5,182.9,270.1,188.9,270.1,188.9z"/>
			<path class="st12" d="M171.1,467.5c0,0,13.9-167.1,98.9-278.6c0,0-76.6,157-83.9,278.6H171.1z"/>
		</g>
		<path class="st0" d="M178.9,467.5h-76.8l22.4,107.9c1.2,5.6,6.2,9.7,11.9,9.7h42.4h42.4c5.8,0,10.7-4,11.9-9.7l22.4-107.9H178.9z"
			/>
	</g>
	<g>
		<g>
			<polygon class="st5" points="986.8,587.4 977,587.4 1007.5,536.7 1017.3,536.7 			"/>
			<polygon class="st5" points="1076.2,587.4 1086,587.4 1055.5,536.7 1045.7,536.7 			"/>
		</g>
		<g>
			<path class="st17" d="M1006.7,422.2l-7.3,3.8l-18.2-34.8c-1.1-2-0.3-4.5,1.7-5.6c2-1.1,4.5-0.3,5.6,1.7L1006.7,422.2z"/>
			<g>
				<defs>
					<path id="XMLID_00000148650021076328230340000006876767110869146796_" d="M1013.7,398.9c-12.9-24.5-50.2-5-37.5,19.6
						L1013.7,398.9z"/>
				</defs>
				<use xlink:href="#XMLID_00000148650021076328230340000006876767110869146796_"  style="overflow:visible;fill:#F0903D;"/>
				<clipPath id="XMLID_00000101097767208519339240000014688978309607869872_">
					<use xlink:href="#XMLID_00000148650021076328230340000006876767110869146796_"  style="overflow:visible;"/>
				</clipPath>
				<path style="clip-path:url(#XMLID_00000101097767208519339240000014688978309607869872_);fill:#F9CF68;" d="M1003,386.5
					c0,0-11.2,21.5-30.2,31.1C958.4,393.9,986.8,382.3,1003,386.5z"/>
			</g>
		</g>
		<g>
			<path class="st17" d="M1072.4,423.2l-7.9-2.5l11.8-37.5c0.7-2.2,3-3.4,5.2-2.7s3.4,3,2.7,5.2L1072.4,423.2z"/>
			<g>
				<defs>
					<path id="XMLID_00000183940954319361294010000011166412058401735072_" d="M1093.9,411.6c8.2-26.5-32-39-40.4-12.7L1093.9,411.6
						z"/>
				</defs>
				<use xlink:href="#XMLID_00000183940954319361294010000011166412058401735072_"  style="overflow:visible;fill:#F0903D;"/>
				<clipPath id="XMLID_00000034800777064474261020000016016613329310045330_">
					<use xlink:href="#XMLID_00000183940954319361294010000011166412058401735072_"  style="overflow:visible;"/>
				</clipPath>
				<path style="clip-path:url(#XMLID_00000034800777064474261020000016016613329310045330_);fill:#F9CF68;" d="M1095.1,395.4
					c0,0-23.1,7.2-43.4,0.6C1058.4,369,1086.7,380.9,1095.1,395.4z"/>
			</g>
		</g>
		<g>
			<path class="st5" d="M1039.7,554.2c-96.4-1.7-96.4-144.9,0-146.7C1136,409.3,1136,552.5,1039.7,554.2z"/>
			<path class="st1" d="M1030.7,554.2c-96.4-1.7-96.4-144.9,0-146.7C1127,409.3,1127,552.5,1030.7,554.2z"/>
			<g>
				<defs>
					<path id="XMLID_00000178889797702159699540000009554610390113373598_" d="M1091.1,480.9c-1.4,79.4-119.5,79.4-120.8,0
						C971.6,401.5,1089.7,401.5,1091.1,480.9z"/>
				</defs>
				<use xlink:href="#XMLID_00000178889797702159699540000009554610390113373598_"  style="overflow:visible;fill:#FFFFFF;"/>
				<clipPath id="XMLID_00000026853397058920100630000016574827367748300479_">
					<use xlink:href="#XMLID_00000178889797702159699540000009554610390113373598_"  style="overflow:visible;"/>
				</clipPath>
				<path style="opacity:0.67;clip-path:url(#XMLID_00000026853397058920100630000016574827367748300479_);fill:#DDECFA;" d="
					M1064.5,420.5c33,75-52.2,119.3-105.5,79.2C1009,619.1,1173.6,510.8,1064.5,420.5z"/>
			</g>
			<polygon class="st17" points="1032.9,440 1028,468.5 1032.9,478.6 1037.8,468.5 			"/>
			<polygon class="st17" points="1059.9,491.6 1044.6,480.4 1036.8,482.7 1041,489.6 			"/>
			<path class="st16" d="M1040.9,480.4c-0.2,10.5-15.8,10.5-16,0C1025.1,469.9,1040.8,469.9,1040.9,480.4z"/>
			<g>
				<path class="st17" d="M1031.4,533.1c-0.9,0-1.9-0.1-2.8-0.2l0.4-4.7c0.8,0.1,1.7,0.1,2.5,0.1
					C1031.4,529.5,1031.4,532,1031.4,533.1z M1040.5,532.3l-0.8-4.7c0.8-0.1,1.6-0.3,2.4-0.5l1.1,4.6
					C1042.3,532,1041.4,532.2,1040.5,532.3z M1019.7,531.6c-0.9-0.2-1.8-0.4-2.6-0.6l1.2-4.6c0.8,0.2,1.6,0.4,2.4,0.6L1019.7,531.6z
					 M1051.8,529l-1.8-4.4c0.8-0.3,1.5-0.7,2.3-1l2.1,4.3C1053.5,528.3,1052.6,528.7,1051.8,529z M1008.6,527.9
					c-0.8-0.4-1.7-0.8-2.5-1.2l2.2-4.2c0.7,0.4,1.5,0.7,2.2,1.1L1008.6,527.9z M1062.1,523.3l-2.8-3.8c0.7-0.5,1.3-1,2-1.5l3,3.7
					C1063.6,522.2,1062.8,522.7,1062.1,523.3z M998.5,521.8c-0.7-0.6-1.4-1.1-2.1-1.7l3.1-3.6c0.6,0.5,1.3,1.1,1.9,1.6L998.5,521.8z
					 M1070.8,515.4l-3.5-3.1c0.5-0.6,1.1-1.3,1.6-1.9l3.7,3C1072,514,1071.4,514.7,1070.8,515.4z M990.1,513.5
					c-0.6-0.7-1.1-1.5-1.6-2.2l3.9-2.7c0.5,0.7,1,1.3,1.5,2L990.1,513.5z M1077.6,505.7l-4.2-2.3c0.4-0.7,0.8-1.5,1.1-2.2l4.3,2.1
					C1078.5,504.1,1078.1,504.9,1077.6,505.7z M984,503.4c-0.4-0.8-0.7-1.7-1.1-2.5l4.4-1.8c0.3,0.8,0.6,1.5,1,2.3L984,503.4z
					 M1082.1,494.8l-4.6-1.3c0.2-0.8,0.4-1.6,0.6-2.4l4.6,1C1082.6,493,1082.3,493.9,1082.1,494.8z M980.2,492.2
					c-0.2-0.9-0.4-1.8-0.5-2.7l4.7-0.8c0.1,0.8,0.3,1.6,0.5,2.4L980.2,492.2z M1084,483.2l-4.7-0.2c0-0.9,0.1-1.7,0.1-2.6h4.7
					C1084.1,481.3,1084.1,482.2,1084,483.2z M983.7,480.5H979c0-0.9,0-1.8,0.1-2.7l4.7,0.2C983.7,478.8,983.7,479.7,983.7,480.5z
					 M1078.6,472.1c-0.1-0.8-0.3-1.6-0.5-2.4l4.6-1.1c0.2,0.9,0.4,1.8,0.5,2.7L1078.6,472.1z M984.8,469.8l-4.6-1
					c0.2-0.9,0.4-1.8,0.6-2.6l4.6,1.2C985.2,468.1,985,469,984.8,469.8z M1075.6,461.8c-0.3-0.8-0.7-1.5-1-2.3l4.3-2.1
					c0.4,0.8,0.8,1.6,1.1,2.5L1075.6,461.8z M988.2,459.6l-4.3-2c0.4-0.8,0.8-1.6,1.2-2.4l4.2,2.2
					C988.9,458.1,988.6,458.8,988.2,459.6z M1070.3,452.4c-0.5-0.7-1-1.3-1.5-2l3.7-3c0.6,0.7,1.1,1.4,1.6,2.2L1070.3,452.4z
					 M993.8,450.4l-3.7-2.9c0.6-0.7,1.1-1.4,1.7-2.1l3.6,3.1C994.8,449.1,994.3,449.8,993.8,450.4z M1063.1,444.5
					c-0.6-0.5-1.3-1.1-1.9-1.6l2.9-3.7c0.7,0.6,1.4,1.2,2.1,1.8L1063.1,444.5z M1001.3,442.8l-2.9-3.7c0.7-0.6,1.5-1.1,2.2-1.6
					l2.7,3.9C1002.6,441.8,1001.9,442.3,1001.3,442.8z M1054.3,438.3c-0.7-0.4-1.5-0.8-2.2-1.1l2-4.3c0.8,0.4,1.6,0.8,2.4,1.2
					L1054.3,438.3z M1010.4,437.3l-2-4.3c0.8-0.4,1.7-0.7,2.5-1.1l1.8,4.4C1012,436.6,1011.2,436.9,1010.4,437.3z M1044.4,434.3
					c-0.8-0.2-1.6-0.4-2.4-0.6l1-4.6c0.9,0.2,1.8,0.4,2.6,0.7L1044.4,434.3z M1020.6,433.9l-1-4.6c0.9-0.2,1.8-0.4,2.7-0.5l0.8,4.7
					C1022.3,433.5,1021.5,433.7,1020.6,433.9z M1033.8,432.5c-0.8,0-1.6-0.1-2.4-0.1v0c0,0,0,0,0,0c0-0.1-0.2-4.6-0.2-4.7
					c0.9,0,1.9,0,2.8,0.1L1033.8,432.5z"/>
			</g>
		</g>
	</g>
	<path class="st23" d="M644.8,253.8c0,2.2-1.8,3.9-3.9,3.9c-2.2,0-3.9-1.8-3.9-3.9c0-2.2,1.8-3.9,3.9-3.9
		C643,249.9,644.8,251.6,644.8,253.8z"/>
	<path class="st23" d="M673.1,254.4c0,2.2-1.8,3.9-3.9,3.9c-2.2,0-3.9-1.8-3.9-3.9s1.8-3.9,3.9-3.9
		C671.3,250.5,673.1,252.2,673.1,254.4z"/>
	<path class="st24" d="M653.8,279.3c0,0-0.1,0-0.1,0c-0.2,0-5.1-0.5-8-2.9c-1.4-1.2-2.1-2.8-2.1-4.7c0.1-4.4,4.4-9.6,8.4-12.6
		c0.6-0.5,1.6-0.4,2.1,0.3c0.5,0.7,0.4,1.6-0.3,2.1c-4,3-7.1,7.5-7.2,10.3c0,1,0.3,1.7,1,2.3c2.2,1.8,6.4,2.2,6.4,2.2
		c0.8,0.1,1.4,0.8,1.3,1.6C655.2,278.7,654.5,279.3,653.8,279.3z"/>
	<path class="st23" d="M652.6,291.5c-0.7,0-1.4-0.6-1.5-1.3c-0.1-0.8,0.5-1.5,1.3-1.6c0.1,0,8.4-1,13.6-7.4c0.5-0.6,1.5-0.7,2.1-0.2
		c0.6,0.5,0.7,1.5,0.2,2.1c-6,7.3-15.1,8.4-15.5,8.4C652.8,291.5,652.7,291.5,652.6,291.5z"/>
	<path class="st23" d="M634.1,242.9c0.9-1.5,2.2-2.4,3.7-3.1c1.5-0.7,3.2-1,4.9-0.8c1.7,0.2,3.3,0.6,4.6,1.5
		c1.4,0.8,2.5,1.9,3.3,3.3c0.3,0.4,0.1,1-0.3,1.3c-0.2,0.1-0.5,0.2-0.7,0.1l-0.1,0c-1.4-0.3-2.6-0.8-3.8-1.1
		c-1.2-0.3-2.3-0.5-3.4-0.7c-1.1-0.1-2.2-0.1-3.4,0.1c-1.2,0.1-2.4,0.5-3.7,0.8l-0.2,0c-0.5,0.1-1-0.2-1.1-0.6
		C633.9,243.4,633.9,243.1,634.1,242.9z"/>
	<path class="st23" d="M679.4,245.9c-2.9-1.1-5.7-2.1-8.3-2.3c-1.3-0.1-2.6,0-3.9,0.3c-1.3,0.2-2.6,0.8-4.2,1.3l-0.1,0
		c-0.5,0.1-1-0.1-1.1-0.6c-0.1-0.3,0-0.5,0.1-0.7c0.9-1.5,2.3-2.9,4-3.6c1.7-0.9,3.7-1.2,5.6-1c1.9,0.2,3.7,0.8,5.2,1.7
		c1.5,0.9,2.9,2.1,3.8,3.7c0.3,0.4,0.1,1-0.3,1.2c-0.2,0.2-0.5,0.2-0.8,0.1L679.4,245.9z"/>
	<path class="st25" d="M687,269c0,3.3-2.7,6.1-6.1,6.1c-3.4,0-6.1-2.7-6.1-6.1c0-3.3,2.7-6.1,6.1-6.1C684.2,262.9,687,265.6,687,269
		z"/>
	<path class="st25" d="M635.5,271.1c0,3.3-2.7,6.1-6.1,6.1c-3.4,0-6.1-2.7-6.1-6.1c0-3.3,2.7-6.1,6.1-6.1
		C632.8,265,635.5,267.7,635.5,271.1z"/>
</g>
</svg>
