<?xml version="1.0" encoding="utf-8"?>
<!-- Generator: Adobe Illustrator 26.3.1, SVG Export Plug-In . SVG Version: 6.00 Build 0)  -->
<svg version="1.1" id="Illustration" xmlns="http://www.w3.org/2000/svg" xmlns:xlink="http://www.w3.org/1999/xlink" x="0px"
	 y="0px" viewBox="0 0 2500 2500" style="enable-background:new 0 0 2500 2500;" xml:space="preserve">
<style type="text/css">
	.st0{fill:none;stroke:#000000;stroke-width:6;stroke-miterlimit:10;}
	.st1{fill:none;}
</style>
<path d="M1752.4,1880.3c-2.5,31-40.4,64-92.7,78c-46.2,12.4-90.1,6.2-111.9-13.1c-1.2,1.1-2.6,2.3-4,3.6
	c15.2,13.6,40.3,21.3,69.4,21.3c15.2,0,31.4-2.1,48-6.6c55.5-14.8,95.5-50.9,96.8-84.8C1756.2,1879.3,1754.4,1879.8,1752.4,1880.3z"
	/>
<path d="M1185.1,2203.7c-140.1,0-365.6-153.3-368-154.9c-0.6-0.5-1.1-1.1-1.1-1.9c-0.1-0.7,0.1-1.5,0.6-2.1l185.1-223.9
	c0.6-0.7,1.5-1.1,2.3-1c0.9,0.1,1.7,0.6,2.1,1.4c0.6,1.1,63.3,109.4,133.3,177.9c61.8,60.5,363.9-127.1,367-129
	c33.5-19.9,50.2-36.6,63.7-50.1c16.6-16.6,28.4-28.6,60.1-35.7c77.6-17.6,129.5,24.2,146,48.8c8.4,12.5,10.6,24,6.1,30.7
	c-14.5,20.8-36.7,21.3-60.3,21.8c-17.6,0.4-35.7,0.9-52.7,9.3l-10.5,5.2c-44.9,22.3-50.6,25.2-76.4,28.6c-8.3,1.1-16.1,4.3-22.8,9.5
	c-12.7,11.7-284.9,261.9-366.7,265.5C1190.3,2203.6,1187.7,2203.7,1185.1,2203.7z M822.8,2046c25,16.7,231.8,152.2,362.3,152.2
	c2.6,0,5.1,0,7.5-0.1c80-3.3,360.6-261.4,363.4-264.1l0.1-0.1c7.4-5.8,16.2-9.5,25.5-10.6c24.9-3.2,29.6-5.6,74.7-27.9l10.5-5.2
	c18.1-9,36.8-9.4,55-9.8c23.1-0.5,43-1,56-19.4c3.2-4.6,0.9-14.2-6.1-24.5c-15.8-23.5-65.4-63.4-140.2-46.5
	c-30,6.8-41.5,18.3-57.5,34.2c-13.6,13.7-30.5,30.7-64.7,50.8c-10.6,6.7-228,141.5-331.7,141.5c-17.8,0-32.4-4-41.8-13.2
	c-63.6-62.1-120.9-156.7-132.2-175.7L822.8,2046z"/>
<path d="M544.3,1524.8c-58.2,0-120.6-14.1-161-59.4c-2.5-2.8-3.3-6.7-2.3-10.3c1-3.6,3.8-6.4,7.4-7.5c49.7-14.6,83.1-38.6,99.3-71.1
	c24.1-48.3,3.7-103.2-3-121.3c-2.3-6.3-2.8-7.7-2.1-9.1c0.4-0.7,1.1-1.2,1.9-1.5c3.3-0.9,16.3-12.5,28.8-23.7
	c21.3-19,47.9-42.9,67-52.7c10.6-5.4,21.9-4.8,32.8-4.3c12.2,0.6,23.9,1.2,32.6-7.2l54.4-63.7c0.6-0.6,1.4-1,2.2-1s1.6,0.5,2.1,1.2
	c1,1.6,25.7,38.8,27.3,70.6c0.2,5.1,2.6,32.3,23.7,62.3c2.7,4,2.1,9.3-1.5,12.5l-19.5,17.4c-0.7,0.7-1.2,1.6-1.2,2.6
	c-0.1,12.1-0.4,52.2-1.7,60c-1.6,9.4-9,18.1-13.6,20.4c-9.4,5.1-44.1,1.1-50.6,0.2c-1.9,1-11.9,8.2-29.7,56.5
	c-21.8,58.9,21.4,81,23.2,82c10.5,5.4,15.3,10.9,14.8,16.4c-0.5,5.4-5.8,9.8-16.3,13.1C631.7,1516.4,589.1,1524.8,544.3,1524.8z
	 M488.3,1249c0.4,1.1,1,2.8,1.6,4.5c6.9,18.5,27.9,75.2,2.7,125.6c-16.9,33.9-51.6,58.7-102.7,73.8c-1.9,0.5-3.2,1.9-3.7,3.7
	c-0.5,1.9-0.1,3.7,1.1,5.1c69.5,78,207.4,60.6,270.5,40.4c11-3.5,12.5-6.9,12.6-8.3c0.1-1.4-0.7-5.3-11.9-11.1
	c-0.5-0.2-49.3-25.2-25.8-88.8c20.2-54.8,31.4-59.8,34.4-60.2c0.2,0,0.4,0,0.6,0c15.2,2,41.8,3.7,48,0.4c3.1-1.6,9.4-8.8,10.8-16.6
	c1-5.8,1.5-34.4,1.7-59.1c0-2.5,1.1-4.9,3.1-6.7l19.5-17.4c1.6-1.4,1.9-3.6,0.6-5.3c-22-31.3-24.5-59.7-24.7-65.2
	c-1.2-25.1-18.5-55.1-24.5-64.8l-52.1,61c0,0.1-0.1,0.1-0.2,0.2c-10.6,10-24,9.4-36.8,8.7c-10.3-0.5-20.8-1.1-30,3.7
	c-18.5,9.5-44.8,33-65.9,51.9C502.2,1238.2,493.3,1246.2,488.3,1249z"/>
<path d="M751.7,1226c-1.4,0-2.6-1.1-2.7-2.6c-0.1-1.5,1-2.8,2.5-3c6.1-0.5,10.6-2.8,14.1-7.4c10.1-13.5,6.8-40.7,5.4-49.2
	l-138.1,21.6c-1.5,0.2-2.8-0.7-3.1-2.2c-0.2-1.5,0.7-2.8,2.2-3.1l140.7-22.1c1.5-0.2,2.8,0.7,3.1,2.1c0.4,1.6,7.5,38.2-6.1,56.1
	c-4.5,5.8-10.5,9-18.1,9.5C752,1226,751.9,1226,751.7,1226z"/>
<path d="M632.2,1242.5c-11.6,0-29.9-4.3-39.8-28.6c-6.1-15-4.1-28.2,5.3-35.5c9.8-7.5,24.9-6.7,36.6,2.2
	c4.5,3.3,10.3,12.6,10.9,13.6c0.7,1.2,0.4,3-0.9,3.7s-3,0.4-3.7-0.9c-1.6-2.6-6.4-9.8-9.5-12.1c-9.8-7.4-22.1-8.3-29.9-2.2
	c-7.4,5.7-8.8,16.3-3.6,29.1c13.4,32.6,42.5,24.5,43.8,24.1c1.5-0.4,3,0.4,3.3,1.9s-0.4,3-1.9,3.3
	C642.7,1241.3,638.4,1242.5,632.2,1242.5z"/>
<path d="M754.3,1001c-13-21.6-26.8-40.3-69.4-48.7c-29.1-5.7-76.5,15.7-99.9,40.6c-2,2.1-5.1,2.1-6.7,0.1
	c-5.1-6.3-16.9-20.6-27.4-21.9c-30.5-3.6-61.8,36-73,56.4c-8.2,14.8-21.9,48.5-28.7,87.5c-0.5,2.5-2.7,4.2-5.1,4.1
	c-9.1-0.9-27.7-0.9-44,11.3c-29.2,21.6-26.1,53.3-25.7,57.1c4,45.1,49.8,78.5,84.7,96.6c23.6,12.2,32.5,14,46.4,17.2
	c0.7,0.1,1.6,0.1,2.5-0.1c12.2,1.9,33.1,2.7,56.4-5.3c37-12.9,34.1-74.1,34.1-74.1l-4.7-11.5c-2.8-7-3.2-15-0.4-21.9
	c8.8-21.3,40.9-5.3,42-5.6c60.6-12.6,82-30.3,92.9-42.4C767.7,1097.1,785.6,1053.6,754.3,1001z"/>
<path class="st0" d="M580.6,2383.5c-200.2-39.9-285.4-87.9-346.7-123.9c-39.2-23-63.2-64.9-63.2-110.3V1851
	c0-31.5,34-51.3,61.5-35.7c10.1,5.7,19.8,11.7,29.1,17.8c101,66,217.1,105.2,337.3,114.7l132.8,10.5c56,11.1,96.4,60.3,96.4,117.5
	c0,0-1,328.4-5.1,331C804.5,2418.9,580.6,2383.5,580.6,2383.5z"/>
<path d="M733.9,2363.3c-0.2,0-0.4,0-0.6-0.1c-38.6-9.4-75.1-19.5-105.5-29.4c-27.7-9-49.3-17.3-62.6-24.1
	c-21.6-11.1-42.8-23.1-63.1-35.9c-129.8-81.9-232-199.8-303.7-350.7c-0.6-1.4-0.1-3,1.2-3.6c1.4-0.6,3-0.1,3.6,1.2
	c71.2,149.9,172.7,267.1,301.6,348.4c20,12.6,41.2,24.6,62.7,35.7c12.9,6.6,34.7,15,61.8,23.7c30.3,9.8,66.6,19.9,105.1,29.3
	c1.5,0.4,2.3,1.9,2,3.3C736.3,2362.5,735.2,2363.3,733.9,2363.3z"/>
<g>
	<path d="M1964.3,1242.5c-1.1,1.6,2.2,7.2,8.8,7.2c6.7,0,9.9-1.1,12.7,6.1c2.7,7.2-1.1,31.7,2.7,40.6c3.8,8.9,10.5,14.5,15.5,9.4
		c4.9-4.9,4.5-18.3,10.5-21.6s28.2-16.7,29.3-27.8c1.1-11.1-6.7-19.4-26-21.6C1998.5,1232.6,1972.6,1230.4,1964.3,1242.5z"/>
	<path d="M1893,1491.5c-2.6,1.5-4.1,4.2-4,7.2c0.4,9.3-3.1,32.5-10.5,39.9c-9.4,9.4-5.9,26.5-6.1,33.4c-0.2,14,1,20.2,16,26.8
		c14.8,6.7,20.8,7,21.9,20.4s2.8,64.8,7.3,78.1c4.5,13.4,13.8,35,18.8,39.9c4.9,4.9,16.6,7.8,9.4-11.1c-7.2-18.9-11.6-27.8-3.3-38.3
		c8.3-10.5,22.1-35,23.1-44.4c1.1-9.4,6.1-15,10.5-16.1c4.5-1.1,13.8-4.5,16.6-7.8c2.7-3.3-2.7-12.7-4.5-21.1
		c-1.6-8.3-1.6-13.4,12.1-20c13.8-6.7,7.2-25.6-11.6-30.5c-18.8-4.9-30.3-15.6-28.2-26.1c2.2-10.5-12.7-9.4-21.5-14.5
		c-8.8-4.9-8.5-12.9-18.4-16.6C1907.3,1485.7,1897.9,1488.7,1893,1491.5z"/>
	<path d="M2234.9,1479.8c-4.7-7-4.1-18.2,7.5-33.4c9.1-12-4-23.9-10-28.4c-1.1-0.9-0.6-2.6,0.7-2.7c7.5-0.9,24.9,1.7,32.5,40.6
		c9.9,50.3,14,32.8,19.2,27s-4.6-16.8,5.2-28.1c6.2-7.2,9.3-17.6,10.9-26c-19.7-79.9-73.9-145.9-146-180.9c0.1,8.8-2,39.3-37.5,26.7
		c0,0-22.1-10.5-16.8,32.1c5.2,42.7,23.2-3,26.7-4.7c3.5-1.7,12.7-4.1,8.8,24.6c0,0-0.6,9.9-18.5,8.2c-18.1-1.7-21.5,7-21.5,11.7
		s1.7,16.9-8.2,25.7c-9.9,8.8-6.9,31.7,6.4,24c13.4-7.7,22.6-31.7,34.9-33.9c12.2-2.3,23.2,13.5,34.9,9.4c11.6-4.1,6.4-24,12.2-24
		c5.8,0,18.1,11.7,16.3,20.5c-1.7,8.8-19.8,12.9-15.1,23.4c4.7,10.5,14.6,7,17.4,14.1c3,7-14.6,15.2-28.4,6.4
		c-14-8.8-16.3,4.1-23.2-1.7c-6.9-5.8-7.5-18.2-17.4-14.1c-9.9,4.1-15.7,12.2-28.4,18.2c-12.7,5.8-23.2,13.5-23.2,21.6
		s4.7,16.9,2.3,29.8c-2.3,12.9-6.4,48,35.5,40.9c41.8-7,36.6,14.6,36.6,16.9c0,2.3-0.6,32.8,3.5,38.1s13.4,20.5,0,40.4
		s-8.2,64.4,4.1,58.5c12.2-5.8,24.4-28.7,39.6-40.4c15.1-11.7,36-62.6,27.3-78.4c-8.8-15.8,12.2-28.7,15.1-39.2
		C2240.7,1492.2,2239.6,1486.9,2234.9,1479.8z"/>
	<path d="M1839.6,1305.1c0.2,9.8-1.5,20.4-7.2,30.3c-17.1,30-16.6,45-18.2,75.1c-1.6,30,36,82.8,45.4,88.4
		c9.4,5.6,10.9-7.7,10.9-18.2s-4-23.2-9.5-35.5c-5.6-12.2-5.6-20-3.8-25c1.6-4.9,8.3-6.7,12.7-1.6c4.5,4.9,15.1,9.4,20.2,6.3
		c6.3-3.8,3.8-18.9,6.1-23.9s14.3-8.3,19.3-18.9c4.9-10.5,13.2-15,23.1-20c9.9-4.9,18.8-7.2,20.4-10.5c1.6-3.3-0.5-11.1,2.2-20
		s9.4-19.4,6.7-23.9c-2.7-4.5-11-11.6-26.5-0.5c-15.5,11.1-19.3,11.1-23.7,2.7c-4.5-8.3,4.9-30,24.2-30c19.3,0,23.1-6.7,23.7-11.6
		c0.6-4.9-5.6-10.5-12.1-11.6c-6.7-1.1-7.7,2.7-35.4,13.8c-18.4,7.4-34.6,5.7-43.4,3.7C1862.1,1283.3,1850.3,1293.7,1839.6,1305.1z"
		/>
	<path d="M2261,1619.9c-0.5,12.5-11.9,24.4-18.8,28.6c-6.9,4.2-17.4,10.6-17.4,21.1c0,6.8-0.1,15.6,1.4,22.3
		c36.4-35.5,43.5-42.3,64.3-95.8C2289.4,1589.4,2261.3,1607.5,2261,1619.9z"/>
</g>
<path d="M2036.4,1772.1c-151.8,0-275.4-124.4-275.4-277.2s123.5-277.2,275.4-277.2s275.4,124.4,275.4,277.2
	S2188.3,1772.1,2036.4,1772.1z M2036.4,1223.2c-148.7,0-269.8,121.9-269.8,271.7c0,149.9,121,271.7,269.8,271.7
	c148.7,0,269.8-121.9,269.8-271.7S2185.2,1223.2,2036.4,1223.2z"/>
<g>
	<path d="M1858.4,1755.7c-6.1,9-3.5,21.3,5.8,26.8c50.2,30.5,109.2,48.1,172.1,48.1c184.1,0,333.5-150.4,333.5-335.7
		c0-108.2-50.8-204.3-129.7-265.7c-8.5-6.7-21-4.7-27.2,4.2c-5.7,8.3-4,19.5,4,25.7c70.1,54.4,115.1,139.8,115.1,235.8
		c0,164.4-132.4,297.7-295.8,297.7c-55.8,0-107.9-15.6-152.5-42.5C1875.3,1744.8,1864.1,1747.2,1858.4,1755.7z"/>
	<rect x="2018" y="1810.3" width="37.5" height="125.9"/>
	<ellipse cx="2036.7" cy="1926.2" rx="115.1" ry="34.4"/>
</g>
<path d="M2093.1,1124.4c-0.7,0-1.5-0.1-2.2-0.5c-157.8-69-186.3-214.4-190.5-243c-0.2-1.6,0.2-3.1,1.2-4.3c1-1.2,2.5-1.9,4.1-2
	c171.2-3.3,237.4-89.4,248.9-106.7c1-1.5,2.5-2.3,4.2-2.5c1.7-0.1,3.3,0.6,4.6,2c49.1,59.4,167.7,84.9,190.9,89.4
	c1.6,0.4,3,1.4,3.8,2.8c0.7,1.5,0.9,3.3,0.1,4.8c-94.7,208.5-246.7,254.8-263.6,259.4C2094,1124.4,2093.5,1124.4,2093.1,1124.4z
	 M2159.1,771.2c-11.7,17.6-79.4,105.7-253.4,109.1l0,0c1.7,11.9,9.4,54.2,36.1,102.3c34.2,61.6,85.1,107.6,151.1,136.4
	c16.7-4.6,166.4-50.2,260.2-256.3C2329.6,858,2209.4,832,2159.1,771.2z"/>
<g>
	<path d="M2298.2,885.1c-0.2,0-0.4,0-0.6-0.1c-75.1-16.6-144.2-68.5-144.8-69.1c-1.2-0.9-1.5-2.6-0.5-3.8c0.9-1.2,2.6-1.5,3.8-0.5
		c0.6,0.5,68.9,51.8,142.7,68.1c1.5,0.4,2.3,1.7,2.1,3.2C2300.7,884.2,2299.5,885.1,2298.2,885.1z"/>
	<path d="M2279.4,926.2c-0.2,0-0.5,0-0.7-0.1c-34.9-9-69.4-26.1-102.7-50.6c-1.2-0.9-1.5-2.6-0.6-3.8s2.6-1.5,3.8-0.6
		c32.9,24.1,66.8,40.8,100.9,49.7c1.5,0.4,2.3,1.9,2,3.3C2281.7,925.4,2280.6,926.2,2279.4,926.2z"/>
	<path d="M2155,858.2c-0.6,0-1.2-0.2-1.7-0.6c-15.2-13.1-23.6-22.5-24-22.9c-1-1.1-0.9-2.8,0.2-3.8c1.1-1,2.8-0.9,3.8,0.2
		c0.1,0.1,8.5,9.5,23.5,22.4c1.1,1,1.2,2.7,0.2,3.8C2156.6,858,2155.7,858.2,2155,858.2z"/>
	<path d="M2246.4,964.7c-0.4,0-0.7-0.1-1.1-0.2c-94.3-40.7-141.6-109.3-142.1-110c-0.9-1.2-0.5-3,0.7-3.8c1.2-0.9,3-0.5,3.8,0.7
		c0.5,0.6,46.9,68,139.7,108.1c1.4,0.6,2,2.2,1.5,3.6C2248.4,964.1,2247.4,964.7,2246.4,964.7z"/>
	<path d="M2216.1,999.2c-0.5,0-0.9-0.1-1.2-0.4c-97.9-52.1-140.5-129.7-140.8-130.6c-0.7-1.4-0.2-3,1.1-3.7c1.4-0.7,3-0.2,3.7,1.1
		c0.4,0.7,42.3,77,138.6,128.3c1.4,0.7,1.9,2.3,1.1,3.7C2218.1,998.6,2217.1,999.2,2216.1,999.2z"/>
	<path d="M2177.1,1031.1c-0.4,0-0.9-0.1-1.2-0.4c-17.6-9.1-34.5-20.8-50.4-34.6c-1.1-1-1.2-2.7-0.2-3.8c1-1.1,2.7-1.2,3.8-0.2
		c15.6,13.6,32.1,25,49.3,34c1.4,0.7,1.9,2.3,1.1,3.7C2179.1,1030.5,2178.1,1031.1,2177.1,1031.1z"/>
	<path d="M2102.8,972.9c-0.7,0-1.5-0.2-2-0.9c-40.1-43.6-59.4-88.8-59.6-89.1c-0.6-1.4,0.1-3,1.5-3.6c1.4-0.6,3,0.1,3.6,1.5
		c0.2,0.5,19.2,44.8,58.5,87.7c1,1.1,1,2.8-0.1,3.8C2104.2,972.6,2103.6,972.9,2102.8,972.9z"/>
	<path d="M2088.1,1058.9C2088,1058.9,2088,1058.9,2088.1,1058.9c-1.6,0-2.7-1.2-2.7-2.7l0.2-19.8c0-0.6-0.2-1.2-0.7-1.7
		c-0.5-0.5-1.1-0.6-1.7-0.6l-27.7,2.3c-2.6,0.2-5.2-0.9-6.8-3c-1.6-2.1-2.1-4.9-1.1-7.4l1.4-3.7c0.5-1.2-0.1-2.1-0.5-2.3
		c-0.2-0.2-1-1-2.2-0.7c-3.6,0.9-7.2-0.7-8.8-4.1c-1.7-3.3-0.9-7.2,2-9.6l5.4-4.5c1.2-1,0.9-2.3,0.7-2.7c-0.1-0.4-0.6-1.5-2.1-1.5
		l0,0l-28.9,0.4l0,0c-1.5,0-2.7-1.2-2.7-2.7s1.2-2.7,2.7-2.7l28.9-0.4h0.1c3.3,0,6.2,2,7.3,5.1c1.1,3.2,0.2,6.7-2.3,8.8l-5.4,4.5
		c-1.4,1.1-0.9,2.5-0.6,3c0.2,0.4,1,1.6,2.6,1.2c2.7-0.7,5.7,0.2,7.7,2.3c2,2.1,2.5,5.2,1.6,7.9l-1.4,3.7c-0.4,1.1,0.1,2,0.4,2.2
		c0.2,0.2,0.9,1,2,0.9l27.7-2.3c2.2-0.1,4.3,0.6,5.9,2.1c1.6,1.5,2.5,3.6,2.5,5.8l-0.2,19.8
		C2090.7,1057.7,2089.6,1058.9,2088.1,1058.9z"/>
</g>
<g>
	<g>
		<path d="M1941.1,662.6c-5.3,0-10.5-1.7-14.8-5.2l-44-28.4c-39.2-25.3-75.5-55-108.3-88.3l-29.7-30.3c-7.2-5.9-8.4-16.6-2.6-23.9
			l22.9-33.4c30.3-45.3,66-86.8,106.3-123.5c3.1-3.7,7.4-5.9,12.1-6.3c4.8-0.5,9.5,1,13.2,4.2l36.7,37.2
			c14.6,14.8,30.3,28.8,46.7,41.5l64.9,50.6c8.7,6.7,17.6,13.2,26.7,19.3l5.7,3.8c0.1,0,0.1,0.1,0.2,0.1c3.7,3.1,5.9,7.5,6.3,12.2
			c0.4,4.8-1.1,9.5-4.2,13.2l-31,36.6l18.8,14.2c5.3,4.9,7.9,11.6,7.3,18.7c-0.7,6.9-4.5,13.1-10.5,16.7c-0.1,0.1-0.2,0.1-0.4,0.2
			l-8,3.3c-37.3,15.3-71.6,36.7-101.6,63.8c-0.1,0.1-0.2,0.2-0.4,0.2C1949.6,661.5,1945.4,662.6,1941.1,662.6z M1884.7,328.5
			c-0.4,0-0.7,0-1.2,0c-3.3,0.4-6.4,2-8.5,4.6c-0.1,0.1-0.1,0.2-0.2,0.2c-40.1,36.5-75.5,77.6-105.7,122.7l-23,33.6
			c-4.1,5.2-3.2,12.5,1.7,16.6c0.1,0.1,0.1,0.1,0.2,0.2l29.8,30.3c32.4,33,68.5,62.4,107.3,87.5l44.1,28.6c0.1,0,0.1,0.1,0.2,0.1
			c5.9,4.8,14.2,5.4,20.8,1.6c30.4-27.3,65.2-49.1,103-64.5l7.9-3.2c4.5-2.7,7.2-7.3,7.7-12.5c0.5-5.3-1.4-10.4-5.3-14l-20.9-15.7
			c-0.6-0.5-1-1.1-1.1-1.9c-0.1-0.7,0.1-1.5,0.6-2.1l32.9-38.8c2.2-2.6,3.2-5.8,3-9.1c-0.2-3.3-1.9-6.3-4.3-8.5l-5.6-3.7
			c-9.1-6.2-18.3-12.7-27-19.5l-64.9-50.6c-16.6-13-32.5-27.1-47.4-42l-36.5-37.1C1890.4,329.6,1887.6,328.5,1884.7,328.5z"/>
	</g>
	<path d="M2044.3,545.2c-0.6,0-1.1-0.1-1.6-0.5l-23.6-17.8c-33-24.9-63.1-53.5-89.4-85.2l-16.9-20.3c-4.7-4.2-10-4.8-19.3-2.2
		l-19.9,6.4c-31.3,10.1-60.8,24.6-88.2,43l-42.4,30.9c-1.2,0.9-3,0.6-3.8-0.6c-0.9-1.2-0.6-3,0.6-3.8l42.4-30.9
		c27.7-18.7,57.9-33.4,89.5-43.8l20.2-6.6c8.4-2.3,17.1-3.5,24.7,3.6c0.1,0.1,0.1,0.1,0.2,0.2l17.1,20.4
		c26.1,31.4,55.9,59.7,88.5,84.3l23.6,17.8c1.2,0.9,1.5,2.6,0.5,3.8C2046.1,544.8,2045.2,545.2,2044.3,545.2z"/>
</g>
<g>
	<g>
		<path d="M1872.7,271.2c-0.7,2.3-2.1,4.5-4.1,6.2c-22.1,19.5-57.1,36.7-80.4,48c-6.6,3.2-12.1,5.9-15.8,7.9
			c-4.6,2.5-10.4,1.6-14-2.2l-26.6-28.2c-21.5-22.8-39.2-48.7-52.7-77l-8.9-18.8c-4.7-10-1.2-21.9,8.3-27.6l33.9-20.6
			c10.5-6.4,21-13.5,30.9-20.8l9.8-7.2c5.1-3.7,11.5-5.1,17.6-3.7c6.2,1.4,11.3,5.4,14.2,11l13.1,25.2c11.5,22.3,26,43,42.7,61.6
			l28.9,32c2.6,2.8,4,6.6,3.7,10.5C1873.3,268.7,1873.1,269.9,1872.7,271.2z M1674.5,192.8c-1.2,3.8-1,8,0.7,11.9l8.9,18.8
			c13.2,27.8,30.5,53.2,51.7,75.5l26.6,28.2c1.9,2,4.9,2.5,7.3,1.2c3.8-2.1,9.5-4.8,16.1-8c22.9-11.1,57.6-28.1,79.1-47.1
			c1.7-1.6,2.7-3.7,3-6.1c0.1-2.3-0.7-4.7-2.3-6.6l-28.9-32c-17.1-18.9-31.8-40.1-43.5-62.7l-13.1-25.2c-2.1-4.2-6.1-7.2-10.6-8.2
			c-4.6-1.1-9.4-0.1-13.1,2.7l-9.8,7.2c-10,7.4-20.6,14.6-31.3,21l-33.9,20.6C1678.1,186.1,1675.6,189.2,1674.5,192.8z"/>
	</g>
	<path d="M1798.2,165.4c-0.1,0.5-0.5,1-1,1.4l-23.9,16.8c-4.6,3.2-10.3,4.5-15.8,3.3s-10.3-4.3-13.4-9l-15-22.9
		c-0.9-1.2-0.5-3,0.7-3.8c1.2-0.9,3-0.5,3.8,0.7l15,22.9c2.2,3.5,5.8,5.8,9.9,6.7c4.1,0.7,8.2-0.1,11.6-2.5l23.9-16.8
		c1.2-0.9,3-0.6,3.8,0.6C1798.4,163.8,1798.5,164.7,1798.2,165.4z"/>
	<path d="M1789,198.3c-0.1,0.5-0.5,1-0.9,1.4c-22.8,17.8-71.6,37.6-73.7,38.3c-1.4,0.6-3-0.1-3.6-1.5c-0.6-1.4,0.1-3,1.5-3.6
		c0.5-0.2,50.3-20.2,72.3-37.6c1.2-1,3-0.7,3.8,0.5C1789.1,196.6,1789.3,197.5,1789,198.3z"/>
	<path d="M1804.3,225.9c-0.1,0.5-0.5,1.1-1.1,1.4c-40.4,27.8-68.1,36.7-69.4,37.1c-1.5,0.5-3-0.4-3.5-1.7c-0.5-1.5,0.4-3,1.7-3.5
		c0.2-0.1,28.2-9.1,67.9-36.4c1.2-0.9,3-0.5,3.8,0.7C1804.5,224.3,1804.6,225.2,1804.3,225.9z"/>
</g>
<path d="M237.4,1008.7c-30.2,0-57.7-8.8-79.8-25.8c-49.3-38.1-64.4-110-39.4-187.8c0.5-1.5,2-2.2,3.5-1.7c1.5,0.5,2.2,2,1.7,3.5
	c-24.2,75.5-9.9,145.2,37.6,181.8c29.7,22.9,69.7,30.2,112.9,20.5c42.9-9.6,86.1-35.4,121.4-72.3c6.9-7.3,44.4,5.8,66.8,14.7
	c-13.2-20.3-34-54.2-29.9-61.9c0,0,0.1-0.2,0.1-0.4c57.6-91.7,54.3-197-7.9-244.9c-31.2-24-73.2-30.8-118.6-19.2
	c-45.4,11.6-89.9,40.7-125.4,81.7c-1,1.1-2.7,1.2-3.8,0.2c-1.1-1-1.2-2.7-0.2-3.8c36.2-41.8,81.7-71.5,128.2-83.5
	c47-12.1,90.8-4.9,123.3,20c64.4,49.7,68.4,158,9.1,252.1c-1.7,4.9,16.6,37,34.5,63.7c0.6,1,0.6,2.3-0.1,3.2c-0.7,1-2,1.2-3.2,0.7
	c-34-13.8-65.5-22.8-69-19.3C363,968,319,994.2,275,1004.1C262.1,1007.2,249.5,1008.7,237.4,1008.7z"/>
<g>
	<path d="M242.7,856.3l-19.4,14.5c-2.7,2-6.6,1.5-8.7-1.1L110.1,739.9c-2.2-2.8-1.7-6.9,1.1-9l29.4-22c2.8-2.1,6.9-1.5,9,1.5
		l94.5,137.1C246,850.4,245.4,854.3,242.7,856.3z"/>
	<ellipse transform="matrix(0.8519 -0.5237 0.5237 0.8519 -436.6627 270.4153)" cx="259.8" cy="907.3" rx="19.4" ry="21"/>
</g>
<path d="M323.2,820.5l-3.6-8.4c-7.9-17.2-8.5-38.7,1.2-63.9c8.9-22.4,12.9-38,7.9-52.9c-5.7-16.9-20.2-21.9-40.9-15.3
	c-11.9,3.8-22.5,14.8-28.6,23.9l-16-23.7c8.2-11.5,25.2-23,42.7-28.7c37.8-12.4,62.8,5.4,71.3,30.7c7.5,22.5,0.5,42.8-9,66.9
	c-8.8,22-9.1,38.2-2.5,54.8l3.2,8.5L323.2,820.5z M331.5,869.2c-4.1-12.2,1.2-23.5,12.7-27.3c11.5-3.8,22.3,2.2,26.5,14.5
	c3.8,11.6-0.7,23-12.9,27C346.2,887.2,335.3,880.9,331.5,869.2z"/>
<g>
	<path d="M868,253.9c-34-71.1-112.8-106.1-186-87.3c66.8-7.9,134,27,164.9,91.3c38.8,80.9,5.1,177.9-75.4,216.6
		c-9.8,4.7-19.8,8.3-29.8,10.9c17.2-2,34.4-6.9,50.8-14.8C872.9,431.8,906.7,334.8,868,253.9z"/>
	<path d="M701.9,493.2c-18.3,0-36.6-3.1-54.4-9.3c-41.7-14.6-75.1-44.6-94.2-84.6c-39.3-82.1-4.9-180.9,76.7-220.2
		c39.4-18.9,83.8-21.4,125.1-6.9c41.7,14.6,75.1,44.6,94.2,84.6c39.3,82.1,4.9,180.9-76.7,220.2
		C750.3,487.8,726.1,493.2,701.9,493.2z M700.8,168.2c-23.4,0-46.7,5.3-68.4,15.7c-78.9,38-112.1,133.5-74.1,212.9
		c18.5,38.6,50.8,67.6,91.1,81.9c39.9,14,83,11.6,121-6.7c78.9-38,112.1-133.5,74.1-212.9c-18.5-38.6-50.8-67.6-91.1-81.9
		C736.2,171.1,718.5,168.2,700.8,168.2z"/>
	<path d="M784.8,386.2c-0.5,0-1-0.1-1.5-0.5l-83.5-55.4c-0.6-0.4-1-1-1.1-1.6L681.1,254c-0.4-1.5,0.6-3,2-3.3c1.5-0.4,3,0.6,3.3,2
		l17.3,73.6l82.6,54.9c1.2,0.9,1.6,2.6,0.7,3.8C786.5,385.7,785.6,386.2,784.8,386.2z"/>
	<g>
		<path d="M654.1,207.4c2.5,5.2,0.4,11.4-4.8,13.8c-5.2,2.5-11.3,0.2-13.7-4.8c-2.5-5.2-0.4-11.4,4.8-13.8
			C645.4,200.1,651.6,202.3,654.1,207.4z"/>
		<path d="M600.5,247.2c4.7,3.2,5.9,9.6,2.7,14.5c-3.2,4.7-9.6,5.9-14.3,2.7c-4.7-3.2-5.9-9.6-2.7-14.5
			C589.4,245.1,595.8,244,600.5,247.2z"/>
		<ellipse transform="matrix(0.966 -0.2586 0.2586 0.966 -62.6348 159.3293)" cx="574.3" cy="317.8" rx="10.3" ry="10.4"/>
		<path d="M581.5,375.1c5.2-2.5,11.3-0.2,13.7,4.8c2.5,5.2,0.4,11.4-4.8,13.8c-5.2,2.5-11.3,0.2-13.7-4.8
			C574.2,383.8,576.4,377.6,581.5,375.1z"/>
		<path d="M622.3,427.9c3.2-4.7,9.6-5.9,14.3-2.7c4.7,3.2,5.9,9.6,2.7,14.5c-3.2,4.7-9.6,5.9-14.3,2.7
			C620.3,439.2,619.2,432.6,622.3,427.9z"/>
		<path d="M683.5,454.8c0.4-5.7,5.3-10,11-9.5c5.7,0.5,9.9,5.4,9.5,11.1c-0.4,5.7-5.3,10-11,9.5
			C687.3,465.5,683.1,460.6,683.5,454.8z"/>
		<path d="M749.8,447.4c-2.5-5.2-0.4-11.4,4.8-13.8c5.2-2.5,11.3-0.2,13.7,4.8c2.5,5.2,0.4,11.4-4.8,13.8
			C758.4,454.8,752.2,452.6,749.8,447.4z"/>
		<path d="M803.3,407.7c-4.7-3.2-5.9-9.6-2.7-14.5c3.2-4.8,9.6-5.9,14.3-2.7c4.7,3.2,5.9,9.6,2.7,14.5
			C814.4,409.8,808,410.9,803.3,407.7z"/>
		<path d="M828.8,347.3c-5.7-0.5-9.9-5.4-9.5-11.1c0.4-5.7,5.3-10,11-9.5c5.7,0.5,9.9,5.4,9.5,11.1
			C839.4,343.5,834.5,347.8,828.8,347.3z"/>
		<path d="M821.1,280.8c-5.2,2.5-11.3,0.2-13.7-4.8c-2.5-5.1-0.4-11.4,4.8-13.8c5.2-2.5,11.3-0.2,13.7,4.8
			C828.4,272.2,826.3,278.3,821.1,280.8z"/>
		<path d="M781.4,226.8c-3.2,4.7-9.6,5.9-14.3,2.7c-4.7-3.2-5.9-9.6-2.7-14.5c3.2-4.7,9.6-5.9,14.3-2.7
			C783.4,215.6,784.6,222.1,781.4,226.8z"/>
		<path d="M720.3,199.9c-0.4,5.7-5.3,10-11,9.5c-5.7-0.5-9.9-5.4-9.5-11.1s5.3-10,11-9.5C716.5,189.3,720.7,194.3,720.3,199.9z"/>
	</g>
</g>
<g>
	<path d="M1629.1,2253.5c-0.7,0-1.4-0.2-1.9-0.7c-1.1-1-1.1-2.7-0.1-3.8l12.9-13.5c1-1.1,2.7-1.1,3.8-0.1c1.1,1,1.1,2.7,0.1,3.8
		l-12.9,13.5C1630.5,2253.1,1629.8,2253.5,1629.1,2253.5z"/>
	<path d="M1583.9,2300.7c-0.7,0-1.4-0.2-1.9-0.7c-1.1-1-1.1-2.7-0.1-3.8l12.9-13.5c1-1.1,2.7-1.1,3.8-0.1c1.1,1,1.1,2.7,0.1,3.8
		l-12.9,13.5C1585.4,2300.4,1584.6,2300.7,1583.9,2300.7z"/>
	<path d="M1596.5,2254.2c-0.7,0-1.4-0.2-2-0.7l-13.1-13c-1.1-1.1-1.1-2.8,0-3.8c1.1-1.1,2.8-1.1,3.8,0l13.1,13
		c1.1,1.1,1.1,2.8,0,3.8C1598,2253.8,1597.2,2254.2,1596.5,2254.2z"/>
	<path d="M1642.5,2299.3c-0.7,0-1.4-0.2-2-0.7l-13.1-13c-1.1-1.1-1.1-2.8,0-3.8c1.1-1.1,2.8-1.1,3.8,0l13.1,13
		c1.1,1.1,1.1,2.8,0,3.8C1643.8,2299.1,1643.1,2299.3,1642.5,2299.3z"/>
</g>
<g>
	<path d="M304.9,307.5c-1.5,0-2.7-1.2-2.7-2.7l-0.4-18.7c0-1.5,1.1-2.7,2.7-2.8c1.5,0,2.7,1.1,2.8,2.7l0.4,18.7
		C307.6,306.2,306.5,307.5,304.9,307.5L304.9,307.5z"/>
	<path d="M306.2,372.9c-1.5,0-2.7-1.2-2.7-2.7l-0.4-18.7c0-1.5,1.1-2.7,2.7-2.8c1.5,0,2.7,1.1,2.8,2.7l0.4,18.7
		C309.1,371.6,307.9,372.8,306.2,372.9C306.4,372.9,306.4,372.9,306.2,372.9z"/>
	<path d="M264,331.1c-1.5,0-2.7-1.2-2.7-2.7s1.2-2.7,2.7-2.7l18.4-0.1c1.5,0,2.7,1.2,2.7,2.7s-1.2,2.7-2.7,2.7L264,331.1L264,331.1z
		"/>
	<path d="M328.4,330.6c-1.5,0-2.7-1.2-2.7-2.7s1.2-2.7,2.7-2.7l18.4-0.1l0,0c1.5,0,2.7,1.2,2.7,2.7c0,1.5-1.2,2.7-2.7,2.7
		L328.4,330.6L328.4,330.6z"/>
</g>
<path d="M1821.5,2212.3c-13.4,0-24.1-10.9-24.1-24.1c0-13.4,10.9-24.1,24.1-24.1c13.2,0,24.1,10.9,24.1,24.1
	C1845.6,2201.4,1834.8,2212.3,1821.5,2212.3z M1821.5,2169.5c-10.3,0-18.7,8.4-18.7,18.7c0,10.3,8.4,18.7,18.7,18.7
	c10.3,0,18.7-8.4,18.7-18.7S1831.8,2169.5,1821.5,2169.5z"/>
<path d="M2245.9,662.6c-13.4,0-24.1-10.9-24.1-24.1c0-13.4,10.9-24.1,24.1-24.1c13.4,0,24.1,10.9,24.1,24.1
	C2270,651.9,2259.2,662.6,2245.9,662.6z M2245.9,619.8c-10.3,0-18.7,8.4-18.7,18.7c0,10.3,8.4,18.7,18.7,18.7s18.7-8.4,18.7-18.7
	C2264.6,628.3,2256.1,619.8,2245.9,619.8z"/>
<ellipse transform="matrix(0.8112 -0.5847 0.5847 0.8112 138.5171 1403.0004)" cx="2242.3" cy="487" rx="18.1" ry="18.1"/>
<g>
	<path class="st1" d="M1069.5,1696.6l-100.4,42.9c-1.6,0.7-2.5,2-2.2,3.5c0.2,1.4,1.5,2.8,4.1,2.8c0.1,0,0.4,0,0.5,0l275.7,50.2
		c11.9,0,23.9-2.5,34.6-6.9l111.3-46.9c26.5-11.1,43.5-35.1,43.5-61.1v-101.5c-106.8-18.9-213.7-37.7-320.5-56.6v107.6
		C1116,1658.6,1097.7,1684.6,1069.5,1696.6z"/>
	<path class="st1" d="M1475.1,1586.5v112.4c0,26.5-16.9,50.7-43.8,61.9l-148.9,62.7c-11.4,4.8-23.7,7.5-36.4,7.5l-270.8-50.3
		c0,0,0,0-0.1,0h-4.1c-6.1,0-10.9-4.8-10.8-10.3l0.2-29.1c0,0.1,0.4,0.1,0.7,0.1c0.2-3.1,2.2-5.8,5.4-7.2l100.4-42.9
		c26.2-11.3,43.2-35.1,43.2-61V1522c-24.4-4.3-48.7-8.7-73.1-12.9c-15.5,13.7-202.7,184.7-157.2,320.1
		c50.8,151.6,378.6,215.8,558.8,70.1c120.7-97.6,132.5-255.1,134.5-295.5C1540.7,1598.1,1508,1592.3,1475.1,1586.5z"/>
	<path d="M1395.1,1747.4l-111.3,46.9c-11.5,4.8-24.2,7.4-37,7.4c-0.1,0-0.4,0-0.5,0l-275.7-50.2c-4.6-0.1-8.3-3.1-9.1-7.2
		c-0.1-0.9-0.1-1.6-0.1-2.3c-0.4,0-0.7,0-0.7-0.1l-0.2,29.1c0,5.4,4.7,10.3,10.8,10.3h4.1c0,0,0,0,0.1,0l270.8,50.3
		c12.6,0,25-2.8,36.4-7.5l148.9-62.7c26.8-11.3,43.8-35.5,43.8-61.9v-112.4c-11-2-22.1-4-33.1-5.8v100.5
		C1442.1,1709.4,1423.6,1735.4,1395.1,1747.4z"/>
	<path d="M1067.3,1691.6l-100.4,42.9c-3.2,1.4-5.2,4.1-5.4,7.2c-0.1,0.7,0,1.6,0.1,2.3c0.9,4.2,4.6,7,9.1,7.2l275.7,50.2
		c0.1,0,0.4,0,0.5,0c12.7,0,25.5-2.6,37-7.4l111.3-46.9c28.4-12,46.9-38,46.9-66.2v-100.5c-1.9-0.4-3.7-0.6-5.4-1V1681
		c0,26-17.1,50-43.5,61.1l-111.3,46.9c-10.8,4.6-22.8,6.9-34.6,6.9l-275.7-50.2c-0.1,0-0.4,0-0.5,0c-2.6,0-3.8-1.5-4.1-2.8
		c-0.2-1.5,0.5-2.8,2.2-3.5l100.4-42.9c28.2-12,46.5-38,46.5-66v-107.6c-1.9-0.4-3.7-0.6-5.4-1v108.6
		C1110.6,1656.5,1093.6,1680.4,1067.3,1691.6z"/>
</g>
<g>
	<g id="XMLID_00000026841945574981537310000007926363511504245172_">
		<g>
			<path d="M1491.3,540.5l11.9,31.8l-201.7-33.1l7.3-19.4c15.8-0.1,31.7-0.2,47.5-0.2c40.8,0,81.4,5.7,120.4,16.8
				C1483.7,538.1,1488.8,539.6,1491.3,540.5z"/>
			<path d="M1268.3,519.1l-4.1,10.9l-167.4-67.3l-4.3-32.4c21.6,7.8,121.4,44.5,157.4,73.6L1268.3,519.1z"/>
			<path d="M1612.7,294.9c0.4,0.7,0.5,1.5,0.2,2.3l-102.9,279.2c0.1-0.5,0.1-1.1-0.1-1.7l-2.6-6.9l99.9-271.2l-12-20.8l1.5-4
				c0.5-1.2,0.5-2.7-0.1-4c0.4,0.4,0.7,0.7,1,1.2L1612.7,294.9z"/>
			<polygon points="1595.4,275.9 1607.4,296.5 1507.5,567.8 1496.7,539.1 			"/>
			<path d="M1596.7,267.8c0.5,1.2,0.6,2.7,0.1,4l-1.5,4L1496.7,539l-0.2-0.7c-0.5-1.4-2.1-2.1-3.5-1.6l-0.5-1.7l98.4-262.5l1-2.6
				c-1.7-0.5-4.3-1.2-7.7-2.2c-14-4-40.9-11.6-70.8-18.7c-30.8-7.3-63.4-7.7-94.5-1.1l-34.5,7.3c-2.5-1.1-4.7-2.5-6.6-3.8
				c0.4-0.2,0.7-0.5,1.2-0.6l1.4-0.2l37.3-7.9c31.9-6.7,65.3-6.3,96.8,1.1c37.1,8.8,69.7,18.3,78.9,21c1.5,0.4,2.6,1.4,3.3,2.7
				C1596.7,267.6,1596.7,267.7,1596.7,267.8z"/>
			<path d="M1591.7,269.9l-1,2.6c-14,1.6-56,5.7-74.8,0.7c-28.8-7.5-60.8-7.9-92.7-1.2l-23.5,4.9l-3.3,0.7l1.4-3.7
				c2.7-0.4,5.3-0.6,8-1c0-1-0.1-1.9-0.2-2.8l16.4-3.5c32.6-6.9,65.7-6.4,95.2,1.2c15.6,4.1,49.8,1.4,66.6-0.2
				C1587.3,268.7,1589.9,269.4,1591.7,269.9z"/>
			<path d="M1513.2,249c29.8,7,56.8,14.6,70.8,18.7c-16.8,1.7-51.1,4.3-66.6,0.2c-29.7-7.8-62.6-8.2-95.2-1.2l-16.4,3.5
				c-0.2-2.5-0.4-4.9-0.5-7.4l0.7-2.1c0.4-1,0.1-2.2-0.6-3c-0.1-0.1-0.4-0.2-0.5-0.4c0-0.7-0.1-1.4-0.1-2.1c-2.1,1-4.6,1.7-7.3,2.1
				c-4.8,0.6-9.3-0.5-13.1-2.2l34.5-7.3C1449.8,241.4,1482.5,241.7,1513.2,249z"/>
			<path d="M1545.2,295.3c1.5,0.4,2.3,2,1.9,3.3c-0.4,1.2-1.5,2-2.6,2c-0.2,0-0.5,0-0.7-0.1l-6.2-1.7c-11.4-3.3-19.7-5.7-42-11
				c-30.7-7.3-63.3-7.7-94.5-1.1c-1.5,0.4-3-0.6-3.2-2.1c-0.2-1.5,0.6-3,2.1-3.2c31.9-6.7,65.3-6.3,96.8,1.1
				c22.5,5.3,30.8,7.7,42.3,11L1545.2,295.3z"/>
			<path d="M1536.8,329.2c1.5,0.4,2.3,2,1.9,3.3c-0.4,1.2-1.5,2-2.6,2c-0.2,0-0.5,0-0.7-0.1c-14.6-4.2-25-6.9-51.6-13.2
				c-30.7-7.3-63.3-7.7-94.5-1.1c-1.5,0.2-3-0.6-3.2-2.1s0.6-3,2.1-3.2c31.9-6.7,65.3-6.3,96.8,1.1
				C1511.5,322.2,1522.1,324.9,1536.8,329.2z"/>
			<path d="M1519.7,360.4c1.5,0.4,2.2,2,1.9,3.3c-0.4,1.2-1.5,2-2.6,2c-0.2,0-0.5,0-0.7-0.1c-11.5-3.3-18.2-4.8-32.6-8.3
				c-4.3-1-9.3-2.2-15.2-3.6c-16.2-3.8-32.9-5.8-49.6-5.8c-1.6,0-2.8-1.2-2.8-2.7s1.2-2.7,2.8-2.7c17.2,0,34.2,2,50.9,5.9
				c5.9,1.4,11,2.6,15.2,3.6C1501.4,355.6,1508.1,357.1,1519.7,360.4z"/>
			<path d="M1511.4,395.7c1.5,0.4,2.2,2,1.9,3.3c-0.4,1.2-1.5,2-2.6,2c-0.2,0-0.5,0-0.7-0.1c-3.3-1-6.6-1.9-9.8-2.8
				c-11-3.2-22.4-6.6-42.7-11.4c-30.7-7.3-63.3-7.7-94.5-1.1c-1.5,0.2-2.8-0.6-3.2-2v-0.1c-0.2-1.1,0.2-2.2,1.1-2.8
				c0.2-0.2,0.6-0.4,1-0.4c31.9-6.7,65.3-6.3,96.8,1.1c20.5,4.8,31.9,8.3,43,11.5C1504.9,393.8,1508.1,394.7,1511.4,395.7z"/>
			<path d="M1510.1,574.7c0.2,0.6,0.2,1.2,0.1,1.7c0,0.1,0,0.1-0.1,0.2c-0.1,0.2-0.2,0.5-0.4,0.6c0,0-0.1,0-0.1,0.1
				c-0.1,0.1-0.2,0.2-0.5,0.4c0,0,0,0.1-0.1,0.1c-0.1,0.1-0.4,0.2-0.5,0.2h-0.1h-0.1c-0.2,0-0.5,0.1-0.7,0.1l0,0c-0.1,0-0.2,0-0.4,0
				c-1-0.1-1.7-0.7-2.1-1.7l-1.6-4.5l-11.9-31.8v-0.1c-0.5-1.4,0.1-3,1.6-3.5c1.4-0.5,3,0.2,3.5,1.6l0.2,0.7l10.8,28.7L1510.1,574.7
				z"/>
			<path d="M1507,578.3l-208.1-34.1h-0.2c-0.5-0.1-1-0.2-1.4-0.6l-2-1.7c0.9-0.2,1.6-0.6,2.5-0.9l1.2-3.2l1.4,1.2l1.2,0.2
				l201.7,33.1l1.6,4.5C1505.2,577.6,1506.1,578.2,1507,578.3z"/>
			<path d="M1492.4,535l0.5,1.7c-1.4,0.5-2.1,2.1-1.6,3.5v0.1c-2.6-0.7-7.7-2.2-14.6-4.2c-39.1-11.1-79.6-16.8-120.4-16.8h-32.4
				c-1.5,0-2.7-1.2-2.7-2.7s1.2-2.7,2.7-2.7h32.4c41.4,0,82.5,5.8,122,17.1C1484.8,532.8,1489.7,534.2,1492.4,535z"/>
			<path d="M1482.9,419.3c1.5,0.4,2.3,1.9,2,3.3c-0.4,1.2-1.5,2-2.6,2c-0.2,0-0.5,0-0.7-0.1c-12.6-3.3-24.9-6.4-36.6-9.1
				c-30.7-7.3-63.3-7.7-94.3-1.1c-0.7,0.1-1.5,0-2-0.4c-0.6-0.4-1.1-1-1.2-1.7c-0.1-0.5-0.1-1,0.1-1.5c0.2-0.9,1-1.5,2-1.7
				c0.4-0.1,0.7-0.1,1-0.2c31.5-6.4,64.5-6.1,95.7,1.4C1457.9,412.9,1470.2,416,1482.9,419.3z"/>
			<path d="M1467.9,486.1c1.5,0.4,2.3,2,1.9,3.3c-0.4,1.2-1.5,2-2.6,2c-0.2,0-0.5,0-0.7-0.1c-13.8-4-20.5-5.6-42.3-10.6l-5.3-1.2
				c-30.7-7.3-63.3-7.7-94.5-1.1c0,0,0,0-0.1,0c-1,0.1-2.1-0.2-2.7-1.1l1.6-4.3l0,0c1.1-0.2,2.2-0.4,3.3-0.6
				c30.9-5.9,63.1-5.4,93.5,1.9l5.3,1.2C1447.3,480.5,1453.9,482.1,1467.9,486.1z"/>
			<path d="M1431.4,439.9c1.5,0.2,2.5,1.7,2.1,3.2c-0.2,1.2-1.4,2.2-2.7,2.2c-0.1,0-0.4,0-0.6,0c-29.7-6.3-59.8-6.3-89.6,0
				c-1.4,0.2-2.8-0.6-3.2-2c0-0.1,0-0.1-0.1-0.1c-0.2-1.1,0.2-2.2,1.2-2.8c0.2-0.1,0.6-0.2,0.9-0.4
				C1370.1,433.4,1401,433.4,1431.4,439.9z"/>
			<path d="M1405.2,257.8c0.7,0.7,1,1.9,0.6,3l-0.7,2.1c-0.1-1.9-0.2-3.6-0.4-5.3C1405,257.4,1405.1,257.6,1405.2,257.8z"/>
			<path d="M1405.7,270.2c0,1,0.1,1.9,0.2,2.8c-2.7,0.4-5.3,0.6-8,1l0.9-2.3l3.3-0.7L1405.7,270.2z"/>
			<path d="M1405.1,262.8c0.1,2.5,0.4,4.9,0.5,7.4l-3.6,0.7L1405.1,262.8z"/>
			<path d="M1404.7,257.4c0.1,1.9,0.2,3.6,0.4,5.3l-3.1,8.2l-3.3,0.7l4.8-12.7c-7,3-15.7,1.9-22.4-2l0.4-1.1l1.1-0.2
				c5.8,3.3,13.5,4.3,19.7,1.7C1403.1,256.8,1404,256.9,1404.7,257.4z"/>
			<path d="M1404.6,255.3c0,0.7,0.1,1.4,0.1,2.1c-0.7-0.5-1.6-0.5-2.5-0.1c-6.2,2.6-13.7,1.6-19.7-1.7l1.6-0.4
				c3.7,1.7,8.2,2.7,13.1,2.2C1400,257.1,1402.5,256.2,1404.6,255.3z"/>
			<path d="M1403.5,258.8l-4.8,12.7l-0.9,2.3c-6.8,0.9-13.6,1.7-20.4,2.5c-3.7-3.8-7.4-7.7-11.1-11.5l0.2-0.6l2-5.1l3.3-8.8l0.9-2.3
				c1,2,2.3,3.7,4,5.3c1.4,1.4,2.8,2.5,4.6,3.5l0,0C1387.9,260.7,1396.6,261.8,1403.5,258.8z"/>
			<path d="M1399.8,277l-38.8,103.7c-0.9,0.6-1.4,1.7-1.1,2.8v0.1l-9.4,25.1c-0.4,0.1-0.7,0.1-1,0.2c-1,0.2-1.7,0.9-2,1.7l-0.6-0.2
				l49.8-132.8L1399.8,277z"/>
			<path d="M1384.2,255.2l-1.6,0.4l-1.1,0.2l0,0l-0.4,1c-1.6-1-3.2-2.1-4.6-3.5l0.4-0.9c0.1-0.5,0.4-0.9,0.7-1.1
				C1379.5,252.6,1381.7,254.1,1384.2,255.2z"/>
			<path d="M1381.6,255.7l-0.4,1.1l0,0L1381.6,255.7L1381.6,255.7z"/>
			<path d="M1380.2,250.4l-1.4,0.2c-0.5,0.1-0.9,0.2-1.2,0.6c-2.7-2.1-4.7-4-5.3-4.7c-0.9,0-2.1-0.1-3.5-0.5c-2.1-0.5-3.7-1.5-4.7-2
				l-0.1-0.1l-7-5.9l-0.6-0.5c-33.6-28.4-129.5-64.9-158-75.5c-3.8-1.4-8,0.5-9.5,4.3L1138.4,301l-46.2,123.5c0.1,0,0.1,0,0.2,0.1
				c16.8,6.1,123.2,44.5,161,75.2l17.1,13.8l2.1,1.7l-2,5.4l-2.1-1.7l-18.5-15.1c-35.9-29.2-135.8-65.9-157.4-73.6
				c-1.4-0.5-2.3-0.9-3.1-1.1c-1.1-0.4-2.1-1.2-2.6-2.3c-0.4-0.7-0.5-1.5-0.4-2.2c0-0.4,0.1-0.9,0.2-1.2l97.1-259
				c2.5-6.7,9.9-10,16.6-7.5c28.8,10.6,125.3,47.5,159.6,76.4L1380.2,250.4z"/>
			<path d="M1377.6,251.3c-0.4,0.2-0.6,0.6-0.7,1.1l-0.4,0.9c-1.6-1.5-3-3.3-4-5.3l-0.9,2.3l-2.1-1.7l-5.6-4.7l0.1,0.1
				c1,0.6,2.5,1.5,4.7,2c1.4,0.4,2.6,0.5,3.5,0.5C1373.1,247.3,1374.9,249.3,1377.6,251.3z"/>
			<polygon points="1371.8,250.4 1368.5,259.3 1366.1,258.3 1369.7,248.7 			"/>
			<path d="M1369.7,248.7l-3.6,9.6l-10-4l-158.5-86.1c-0.6-0.4-1.5-0.5-2.2-0.1c-0.7,0.2-1.4,0.9-1.6,1.5L1138.5,301l50.4-134.7
				c1.5-3.8,5.7-5.8,9.5-4.3c28.6,10.5,124.3,47.1,158,75.5l0.6,0.5c3,2.6,4.1,4.1,7,5.9L1369.7,248.7z"/>
			<path d="M1368.5,259.3l-2,5.1l-1.4-0.5c-3.1-3.2-6.2-6.3-9.3-9.5l10,4L1368.5,259.3z"/>
			<path d="M1366.5,264.4l-0.2,0.6c-0.4-0.4-0.7-0.7-1.1-1.1L1366.5,264.4z"/>
			<path d="M1366.4,265l-93.8,250.4l-2.1-1.7l93.7-250.3l1.1,0.4C1365.6,264.2,1366,264.6,1366.4,265z"/>
			<path d="M1365.3,263.9l-1.1-0.4l-10.3-4.1c-0.1,0-0.2-0.1-0.2-0.1l-156-84.7l-105.2,250c-0.1,0-0.1,0-0.2-0.1l46.2-123.5
				l55.3-131.3c0.2-0.7,0.9-1.2,1.6-1.5c0.7-0.2,1.5-0.1,2.2,0.1l158.5,86.1C1359.1,257.4,1362.2,260.7,1365.3,263.9z"/>
			<path d="M1356.2,513.9h-32.4c-1.5,0-2.7,1.2-2.7,2.7s1.2,2.7,2.7,2.7h32.4c-15.8,0.1-31.7,0.2-47.5,0.2l2.5-6.7
				C1326.3,513.3,1341.3,513.6,1356.2,513.9z"/>
			<path d="M1348.5,413.8l-9.9,26.3c-1,0.6-1.5,1.7-1.2,2.8c0,0,0,0.1,0.1,0.1l-10.9,28.9c-1.1,0.2-2.2,0.4-3.3,0.6l0,0l23.5-62.4
				l0.6,0.2c-0.1,0.5-0.2,1-0.1,1.5C1347.3,412.9,1347.8,413.5,1348.5,413.8z"/>
			<path d="M1324.3,478.3l-13,34.7c-0.1,0-0.2,0-0.4,0c-0.5,0.4-1.5,1-2.2,2.1c-0.2,0.4-0.4,0.6-0.5,1l-1-0.4l14.5-38.6
				C1322.2,478,1323.2,478.4,1324.3,478.3z"/>
			<path d="M1318.8,324.3c1,1.2,0.7,3-0.5,3.8c-0.5,0.4-1.1,0.6-1.7,0.6c-0.9,0-1.6-0.4-2.1-1c-19.5-24.6-52.2-41.9-81.1-56.1
				c-1.4-0.7-1.9-2.3-1.2-3.7c0.6-1.4,2.3-2,3.7-1.2C1265.4,281.2,1298.5,298.9,1318.8,324.3z"/>
			<path d="M1311.2,513l-2.5,6.7c-0.4,0-0.6,0-1,0c-0.1-0.5-0.2-2,0.4-3.6c0.1-0.4,0.2-0.6,0.5-1c0.7-1.1,1.6-1.9,2.2-2.1
				C1311,513,1311.1,513,1311.2,513z"/>
			<path d="M1308.8,519.7l-7.3,19.4l-1.2-0.2l-1.4-1.2l8.3-22l1,0.4c-0.6,1.6-0.5,3.1-0.4,3.6
				C1308.1,519.7,1308.4,519.7,1308.8,519.7z"/>
			<path d="M1302.5,370.1c1.1,1,1.1,2.7,0.1,3.8c-0.5,0.6-1.2,0.9-2,0.9c-0.7,0-1.4-0.2-1.9-0.7c-25.3-24.5-48.7-37-76.7-50.7
				c-18.8-9.3-29.7-14-40.2-18.4c-3.1-1.4-6.2-2.6-9.4-4.1c-1.4-0.6-2-2.2-1.4-3.6s2.2-2,3.6-1.4c3.2,1.4,6.3,2.7,9.3,4.1
				c10.6,4.6,21.5,9.3,40.4,18.5C1252.8,332.4,1276.5,345,1302.5,370.1z"/>
			<path d="M1298.9,544.2c0,0-0.1,0.1-0.2,0.1c-3.3,1.5-6.9,2.2-10.5,2.2c-8.4,0-16.9-3.7-22-10h0.1c0.6,0,1.2-0.2,1.7-0.6l1.2-1
				c6.2,6.9,17.2,9.8,26.1,6.9l2,1.7c0.4,0.4,0.9,0.5,1.4,0.6H1298.9z"/>
			<path d="M1292.7,403.1c1.1,1.1,1.1,2.8,0,3.8c-0.5,0.5-1.2,0.9-2,0.9s-1.4-0.2-2-0.7c-21.9-21.4-40.9-30.7-65.2-42.4
				c-3.5-1.7-7.2-3.5-10.9-5.3c-10.8-5.3-22.3-10.8-34-16.2c-1.4-0.6-2-2.2-1.4-3.6c0.6-1.4,2.2-2,3.6-1.4
				c11.9,5.4,23.4,10.9,34.1,16.3c3.7,1.9,7.3,3.6,10.8,5.2C1249.8,371.1,1270.2,381,1292.7,403.1z"/>
			<path d="M1279.8,237.3c1.4,0.7,1.7,2.5,1,3.7c-0.5,0.9-1.5,1.4-2.3,1.4c-0.5,0-1-0.1-1.4-0.4c-27.1-15.7-55-28.2-70.7-34
				c-1.4-0.5-2.1-2.1-1.6-3.6c0.5-1.4,2.1-2.1,3.6-1.6C1224.2,208.8,1252.4,221.5,1279.8,237.3z"/>
			<path d="M1280.7,434.3c1.1,1.1,1.1,2.8,0,3.8c-0.5,0.5-1.2,0.9-2,0.9s-1.4-0.2-2-0.9c-19-19-39.9-29.4-62.2-40.6
				c-4.9-2.5-9.9-4.9-14.8-7.5c-1.4-0.7-1.9-2.3-1.1-3.7s2.3-1.9,3.7-1.1c4.9,2.6,9.8,5.1,14.7,7.4
				C1239.6,404,1261,414.7,1280.7,434.3z"/>
			<path d="M1270.4,469.5c1,1.2,0.7,3-0.4,3.8c-0.5,0.4-1.1,0.6-1.7,0.6c-0.9,0-1.6-0.4-2.1-1c-20.4-25.6-92.9-56.4-125.3-66.4
				c-1.5-0.5-2.2-2-1.9-3.5c0.5-1.5,2-2.2,3.5-1.9C1175.5,411.4,1249.3,442.9,1270.4,469.5z"/>
			<polygon points="1270.4,520.8 1267.3,529.2 1265.7,530.6 1264.3,530 1268.3,519.1 			"/>
			<path d="M1269.2,534.8l-1.2,1c-0.5,0.4-1.1,0.6-1.7,0.6h-0.1c-0.2,0-0.6-0.1-0.9-0.1l-172-69.1c-0.9-0.4-1.6-1.2-1.7-2.2
				l-5.2-39.2c-0.1-0.4,0-0.7,0.1-1.1c-0.1,0.7,0,1.6,0.4,2.2c0.5,1.1,1.5,2,2.6,2.3c0.7,0.2,1.7,0.6,3.1,1.1l4.3,32.4l167.5,67.3
				l1.5,0.6l1.6-1.4l-0.7,1.9C1267.3,532.4,1268.2,533.7,1269.2,534.8z"/>
		</g>
	</g>
</g>
<path d="M261.2,1833.1c101,66,217.1,105.2,337.3,114.7l132.8,10.5c56,11.1,96.4,60.3,96.4,117.5c0,0-0.7,226.3-3.2,304.7
	c85.9,16.9,187,31.5,294.8,38.3c-120.4-126.2-158-228.5-167.5-260.9c-1.4-4.6,3-8.8,7.5-7.3l13.4,4.5c11.1,3.7,23.4-0.6,29.7-10.4
	c32.9-50.8,124.4-207.5,80.7-314.6c-13.6-33.4-203.4-289.8-385.7-348.8c-105.5-34.1-278.3-59.7-347.4-51.2
	c-72.8,9-154.7,86.6-114.4,387.3C244.5,1822.4,253.1,1827.7,261.2,1833.1z"/>
<g>
	<path class="st1" d="M2036.2,1219.9c-17.1,0-33.8,1.6-50,4.6c-24,4.5-47,12.1-68.4,22.5c-91.4,44.4-154.3,138.5-154.3,247.4
		c0,53.4,15.2,103.4,41.4,145.5c2.6,4.2,5.4,8.4,8.3,12.5c49.3,70.5,130.8,116.5,222.9,116.5c150.6,0,272.6-122.9,272.6-274.5
		C2308.8,1342.8,2186.8,1219.9,2036.2,1219.9z"/>
	<path class="st1" d="M1449.7,562.2v-60.7H151.6v1969.9h1298.2V2421h1540.4V562.2H1449.7z M625.9,1167c-6.3,0.2-12.9-0.4-19.4-0.6
		l9.5-571.9c0.1-10.3,5.8-19.5,14.8-24.5l28.6-15.3c7.9-4.2,17.1-5.7,26-4.1l1268,228.7c19,3.5,32.9,20,32.9,39.3V869
		c-20.5,4.1-43.2,6.9-68.3,8v-27.2c0-16.7-12-31-28.4-34l-1223-220.7c-10.1-1.9-20.4,0.9-28.3,7.5c-7.9,6.6-12.4,16.2-12.4,26.5
		L625.9,1167L625.9,1167z M2036.2,1768.8c-92.1,0-173.6-46-222.9-116.5L632.5,1448c-3.2-9-4.6-20-2.5-33.4
		c4.9,8.9,13.6,15.5,24.1,17.3L1805,1639.8c-26.2-42.2-41.4-92-41.4-145.5c0-108.9,63.1-203,154.3-247.4v-310
		c11.9,32.3,32.6,73.2,68.3,110.9v176.7c16.2-3,32.9-4.6,50-4.6c150.6,0,272.6,122.9,272.6,274.5
		C2308.8,1646,2186.8,1768.8,2036.2,1768.8z"/>
	<path d="M638.2,602.7c7.9-6.6,18.2-9.3,28.3-7.5l1223.1,220.8c16.4,3,28.4,17.3,28.4,34v27.2c25-1.1,47.7-4,68.3-8v-50.3
		c0-19.3-13.8-35.9-32.9-39.3l-1268-228.7c-8.9-1.6-17.9-0.1-26,4.1l-28.6,15.3c-9,4.8-14.7,14.2-14.8,24.5l-9.5,571.9
		c6.6,0.1,13.2,0.9,19.4,0.6V629.2C625.9,618.9,630.3,609.2,638.2,602.7z"/>
	<path d="M654.2,1432.1c-10.5-1.9-19.3-8.5-24.1-17.3c-2.1,13.4-0.6,24.4,2.5,33.4l1180.7,204.3c-2.8-4.1-5.6-8.3-8.3-12.5
		L654.2,1432.1z"/>
	<path d="M1986.2,1047.8c-35.7-37.8-56.4-78.8-68.3-110.9v310.2c21.4-10.4,44.3-18.1,68.4-22.5L1986.2,1047.8z"/>
</g>
</svg>
