<?xml version="1.0" encoding="utf-8"?>
<!-- Generator: Adobe Illustrator 26.3.1, SVG Export Plug-In . SVG Version: 6.00 Build 0)  -->
<svg version="1.1" id="Слой_1" xmlns="http://www.w3.org/2000/svg" xmlns:xlink="http://www.w3.org/1999/xlink" x="0px" y="0px"
	 viewBox="0 0 1000 820" style="enable-background:new 0 0 1000 820;" xml:space="preserve">
<style type="text/css">
	.st0{fill:#E8E4DD;}
	.st1{fill:#CBC9E6;}
	.st2{fill:#5B9276;}
	.st3{fill:#75A567;}
	.st4{fill:#89AF92;}
	.st5{fill:#B6B5DB;}
	.st6{fill:#FFFFFF;}
	.st7{fill:#E0DEF0;}
	.st8{fill:#899E77;}
	.st9{fill:#D0CBB3;}
	.st10{fill:#989785;}
	.st11{fill:#53511B;}
	.st12{opacity:0.6;fill:#899E77;}
	.st13{clip-path:url(#SVGID_00000119097091458460025070000003126651368733096108_);}
	.st14{fill:#F8BB98;}
	.st15{fill:#D38673;}
	.st16{fill:#2A2B17;}
	.st17{fill:#708474;}
	.st18{fill:#617364;}
	.st19{fill:#333F35;}
	.st20{opacity:0.2;fill:#201F42;}
	.st21{fill:#FFF5E9;}
	.st22{fill:#403D50;}
	.st23{fill:#201F42;}
	.st24{opacity:0.4;fill:#EB5D57;}
	.st25{fill:#453A18;}
	.st26{fill:#DEC95C;}
	.st27{fill:#B28C47;}
</style>
<g>
	<path class="st0" d="M771.8,603.8H223.3c-17,0-30.8-13.8-30.8-30.8V40c0-17,13.8-30.8,30.8-30.8h548.6c17,0,30.8,13.8,30.8,30.8
		v533C802.6,590,788.9,603.8,771.8,603.8z"/>
	<path class="st1" d="M782.1,604.6H213c-11.8,0-21.4-9.6-21.4-21.4V29.7c0-11.8,9.6-21.4,21.4-21.4h569.1c11.8,0,21.4,9.6,21.4,21.4
		v553.6C803.5,595.1,793.9,604.6,782.1,604.6z M213,10c-10.9,0-19.7,8.8-19.7,19.7v553.6c0,10.9,8.8,19.7,19.7,19.7h569.1
		c10.9,0,19.7-8.8,19.7-19.7V29.7c0-10.9-8.8-19.7-19.7-19.7H213z"/>
	<g>
		<rect x="602.6" y="78.4" class="st2" width="130" height="9.5"/>
		<rect x="561.7" y="119.3" class="st3" width="207.2" height="9.5"/>
		<rect x="561.7" y="147.3" class="st3" width="186.6" height="9.5"/>
		<rect x="561.7" y="175.4" class="st4" width="165.2" height="9.5"/>
		<rect x="561.7" y="203.5" class="st4" width="207.2" height="9.5"/>
		<rect x="561.7" y="231.5" class="st4" width="152.9" height="9.5"/>
	</g>
	<g>
		<rect x="236.5" y="385.5" class="st5" width="198.9" height="9.5"/>
		<rect x="237" y="411.3" class="st1" width="514.2" height="9.5"/>
	</g>
	<rect x="236.8" y="78.4" class="st6" width="239.5" height="253.4"/>
	<rect x="258.4" y="245.8" class="st2" width="16.6" height="58.3"/>
	<rect x="288.3" y="254.1" class="st7" width="16.6" height="50.1"/>
	<rect x="318.3" y="222.3" class="st2" width="16.6" height="81.8"/>
	<rect x="348.2" y="228.2" class="st7" width="16.6" height="76"/>
	<rect x="378.1" y="201.9" class="st2" width="16.6" height="102.2"/>
	<rect x="408" y="187.8" class="st7" width="16.6" height="116.3"/>
	<rect x="437.9" y="175.2" class="st2" width="16.6" height="129"/>
	<g>
		<g>
			<rect x="255.4" y="128.6" class="st2" width="34.2" height="14.2"/>
			<rect x="300.8" y="136.8" class="st2" width="32" height="1.7"/>
		</g>
	</g>
	<g>
		<circle class="st6" cx="710.4" cy="311.9" r="37.3"/>
		<g>
			<path class="st6" d="M604.1,349.2c-20.6,0-37.3-16.7-37.3-37.3c0-18.6,13.7-34.1,31.5-36.9c1.9-0.3,3.8-0.4,5.8-0.4
				c11,0,20.9,4.8,27.8,12.4c5.9,6.6,9.5,15.3,9.5,24.9C641.4,332.5,624.7,349.2,604.1,349.2z"/>
			<path class="st3" d="M604.1,311.9l-5.8-36.9c1.9-0.3,3.8-0.4,5.8-0.4c11,0,20.9,4.8,27.8,12.4L604.1,311.9z"/>
		</g>
	</g>
	<g>
		<g>
			<rect x="240.8" y="456.3" class="st6" width="511.7" height="98.4"/>
		</g>
		<g>
			<path class="st5" d="M754.1,556.1h-513v-99.6h513V556.1z M242.3,554.9h510.5v-97.1H242.3V554.9z"/>
			<rect x="241.7" y="535.2" class="st5" width="511.7" height="1.3"/>
			<rect x="241.7" y="515.6" class="st5" width="511.7" height="1.3"/>
			<rect x="241.7" y="495.9" class="st5" width="511.7" height="1.3"/>
			<rect x="241.7" y="476.2" class="st5" width="511.7" height="1.3"/>
			<rect x="667.5" y="457.2" class="st5" width="1.3" height="98.4"/>
			<rect x="582.2" y="457.2" class="st5" width="1.3" height="98.4"/>
			<rect x="496.9" y="457.2" class="st5" width="1.3" height="98.4"/>
			<rect x="411.7" y="457.2" class="st5" width="1.3" height="98.4"/>
			<rect x="326.4" y="457.2" class="st5" width="1.3" height="98.4"/>
		</g>
		<path class="st8" d="M255.8,539.9c7.4-10.4,9-23.7,15.7-34.6c3.2-5.3,7.5-10.6,13.5-13c10.2-4.1,12.8,9.1,13.1,16.4
			c0.3,10.8-1.5,22.5,7.4,30.6c3,2.7,6.9,4.3,10.9,3.2c4.8-1.3,7.8-5.7,10.2-9.7c6.8-11.6,11.2-24.9,15.9-37.4
			c2.4-6.3,5.4-14.5,11.7-18c8.9-5.1,9.9,6.1,9.9,12c0,6.5,0,12.9,0.1,19.4c0,3.1-0.6,9.6,3,11.3c2.2,1,3.9-0.9,5.1-2.5
			c1-1.4,1.8-3,2.8-4.3c1-1.3,1.9-2,3.6-2.2c1.6-0.1,2.4-0.2,3.5,1.4c0.6,0.8,0.9,2,1.2,3c1.3,4.9,0,10.4,2.7,14.8
			c1.5,2.5,4.8,5,7.9,4.5c6.2-1,7.8-11.2,8.6-16.1c1-6.5,1.9-13.1,3.7-19.4c1.8-6.4,4.2-14.1,9.1-18.9c1.9-1.8,4.4-3.7,7.2-3.4
			c4,0.5,5.3,5,6.3,8.3c2.2,7.4,3.6,15,3.5,22.7c0,5.3-1.5,12,2,16.6c1.9,2.5,5.1,3.9,8.2,3.1c4.5-1.1,5.6-5.5,6.5-9.5
			c0.2-0.8,0.3-1.6,0.6-2.4c0.9-2.2,1.2-2.5,3.6-2.6c2.7-0.1,2.8,0.5,3.2,2.7c0.4,2.2,0.2,4.5,0.9,6.7c0.8,2.8,2.8,5.3,6,4.4
			c3-0.9,4.5-4.1,5.5-6.7c2.8-7.7,2.6-16.2,3-24.3c0.3-5.3,0.7-11.1,3.2-15.9c1.6-3.2,6.3-8.3,10-4.9c4.8,4.3,4.3,14.9,4.4,20.7
			c0.2,12.5-1.9,25-0.1,37.5c0.7,4.7,2,11.6,7.1,13.4c7.2,2.4,12.4-5.4,14.3-11c1.5-4.5,1.9-9.3,2.9-13.9c0.6-2.4,1.4-6.9,4.8-5.5
			c2.9,1.2,4,5.2,6.6,7.1c8.1,5.9,13.1-5.6,14.1-11.9c1.4-9.1,0-19.2,3.4-27.9c0.9-2.2,2.2-4.5,4.2-5.9c5-3.3,9.9,1.3,11.3,5.9
			c1.1,3.5,0.9,7.4,1,11.1c0.1,4,0.2,7.9,0.3,11.9c0.1,6.5-0.5,13.2,0,19.7c0.3,4.5,2,8.6,5.9,11.2c9.8,6.4,21.3-3.6,27.5-10.6
			c7.1-8,11.9-17.4,15.6-27.4c1.9-5,3.7-10.2,6.6-14.7c1.6-2.5,6-8.5,9.7-6.8c2.4,1.1,3.2,5.4,3.7,7.6c0.9,3.7,1.3,7.6,1.6,11.4
			c0.6,7.3,0.6,14.5,0.8,21.8c0.1,6.2,0.6,15.4,7.5,17.9c10.7,3.9,15.8-11.4,18.7-18.5c2.5-5.9,5.4-13.8,11.1-17.3
			c4.8-3,8.2,1.6,10,5.7c1.7,3.9,2.6,8.2,2.7,12.5c0,3-0.2,6.7,3.1,8.1c7.1,3.1,13.5-8.6,16.3-13.2c2.5-4.2,4.4-8.6,6.5-13.1
			c2.6-5.6,11.3-16.2,14.9-5.5c1.4,4,0.9,8.4,0.6,12.5c-0.3,4.7-0.6,9.4-0.5,14.1c0.2,5.5,1.2,17.3,9.4,16.1
			c5-0.8,10.1-6.3,13.9-9.4c5.5-4.6,10.6-9.5,15.5-14.6c0.7-0.8-0.4-2-1.2-1.2c-4.9,5.2-10.1,10.1-15.5,14.6
			c-2.9,2.4-5.9,4.9-9.1,7.1c-4.1,2.8-8.1,1.5-9.8-2.7c-3.2-8.3-1.3-18.7-0.8-27.3c0.3-5.2-0.4-17-8.3-15.5c-4.7,0.9-8,6-10,9.9
			c-2.2,4.5-4.1,9.1-6.6,13.4c-2.5,4.3-5.4,9.4-9.6,12.3c-3.1,2.2-6.8,1.1-7.2-3.1c-0.2-1.9,0-3.8-0.2-5.8
			c-0.7-5.6-2.8-14.8-8.8-17.1c-8.4-3.1-14.5,11-16.9,16.5c-2.4,5.7-4.3,12.9-8.9,17.4c-3.2,3.1-8.4,4.2-11.6,0.6
			c-2.4-2.6-3-6.8-3.3-10.2c-1.3-13.2,0.7-26.8-3.1-39.7c-1.1-3.7-3.1-8.3-7.8-6.7c-7.7,2.7-11.2,12.8-13.9,19.7
			c-4.2,11.1-8.9,21.6-17.1,30.4c-4.7,5.1-11.6,11.3-19,11.2c-9.7-0.2-10.9-9.9-10.7-17.3c0.3-7.3,0-14.6-0.2-21.8
			c-0.1-5.9,0.7-12.8-2.2-18.2c-1.8-3.4-5.8-6.1-9.8-5.4c-3.4,0.6-6,3.8-7.4,6.8c-3.7,8-2.7,17.6-3.6,26.1
			c-0.5,4.9-1.3,13.2-7.1,14.9c-7.2,2.1-7.4-8.7-13.4-8.9c-6.4-0.2-6.5,15.2-7.6,19.2c-1.4,5-4,10.9-9.7,12
			c-3.5,0.7-5.9-1.5-7.2-4.6c-3.1-6.9-2.7-15.5-2.5-22.9c0.1-5.5,0.6-11,0.7-16.5c0.1-5.9,1.3-31.4-10-28.7
			c-7.8,1.9-9.8,12-10.5,18.7c-0.9,8.9-0.1,18.1-2.7,26.8c-0.7,2.3-1.5,4.9-3.4,6.4c-2,1.6-4.3,0.2-5.3-1.8
			c-0.7-1.4-0.6-3.2-0.8-4.7c-0.2-2.5-0.5-6.3-3.4-7.4c-3.3-1.2-5.9,2.1-6.9,4.8c-1.2,3.3-0.8,7.7-4.2,9.9c-3.4,2.2-7.4,0.1-9-3.1
			c-1.7-3.4-1.1-7.6-0.9-11.2c0.2-3.7,0-7.4-0.4-11.1c-0.7-6.3-1.9-13.2-4.5-19c-3.6-8-11.5-5.9-16.2-0.1c-8,9.8-10,24.6-11.8,36.7
			c-0.6,3.9-1.3,7.9-3,11.4c-0.9,1.8-2.2,4-4.3,4.3c-3.6,0.6-6.6-3.6-7.4-6.5c-1.3-4.8-0.1-21.9-10.1-16.6c-3.1,1.6-3.4,5.5-6.1,7.5
			c-4.1,3.1-4.4-3.7-4.4-6.3c0-3.9-0.1-7.8-0.1-11.8c0-5.3,0.4-10.7-0.3-16c-0.4-3.3-1.4-7.2-4.9-8.6c-9.3-3.7-16.3,11.3-18.8,17.7
			c-5.3,13.4-9.6,27.7-17,40.1c-4.1,6.8-11.1,11.9-18.1,5.5c-5-4.6-6.9-11.2-7-17.8c-0.2-8.5,2.4-25.7-7.8-30.1
			c-8.9-3.9-18.3,8.4-22.1,14.7c-6.4,10.8-8.1,23.9-15.4,34.1C253.7,540,255.1,540.8,255.8,539.9L255.8,539.9z"/>
	</g>
	<path class="st9" d="M748.5,812.3H631.3c-7.2,0-13.1-5.9-13.1-13.1v-74.2c0-7.2,5.9-13.1,13.1-13.1h117.2c7.2,0,13.1,5.9,13.1,13.1
		v74.2C761.6,806.4,755.8,812.3,748.5,812.3z"/>
	<rect x="621.3" y="755.3" class="st10" width="137.1" height="1.6"/>
	<path class="st10" d="M689.9,769.9c-6.4,0-11.5-5.2-11.5-11.5v-3h23v3C701.4,764.7,696.3,769.9,689.9,769.9z M680,756.9v1.5
		c0,5.5,4.5,9.9,9.9,9.9c5.5,0,9.9-4.5,9.9-9.9v-1.5H680z"/>
	<path class="st10" d="M717,717h-1.6v-20.6c0-2.8-2.3-5-5-5h-41c-2.8,0-5,2.3-5,5V717h-1.6v-20.6c0-3.7,3-6.6,6.6-6.6h41
		c3.7,0,6.6,3,6.6,6.6V717z"/>
	<rect x="659.7" y="711.8" class="st10" width="7.7" height="8.3"/>
	<rect x="712.4" y="711.8" class="st10" width="7.7" height="8.3"/>
	<path class="st11" d="M882.5,230.8l2.6-30.7c-17.4-12-27.8-31.8-27.8-52.9c0-35.4,28.8-64.2,64.2-64.2c35.4,0,64.2,28.8,64.2,64.2
		s-28.8,64.2-64.2,64.2c-4.7,0-9.4-0.5-14-1.5L882.5,230.8z M921.5,84.6c-34.5,0-62.6,28.1-62.6,62.6c0,20.8,10.3,40.1,27.5,51.8
		l0.4,0.3l-2.3,27.7l22.6-18.9l0.4,0.1c4.6,1.1,9.3,1.6,14,1.6c34.5,0,62.6-28.1,62.6-62.6S956,84.6,921.5,84.6z"/>
	<path class="st11" d="M933.1,180.9h-20.5v-21.2h20.5V180.9z M914.2,179.3h17.2v-17.9h-17.2V179.3z"/>
	<path class="st11" d="M933.1,172.4h-20.5v-4.3c0-4.4-1.3-8.8-3.7-13c-1.4-2.5-2.2-5.3-2.1-8.2c0.1-8.4,7-15.5,15.4-15.9
		c4.5-0.2,8.7,1.4,11.9,4.4c3.2,3.1,5,7.2,5,11.7c0,2.8-0.8,5.6-2.2,8.1c-2.5,4.2-3.7,8.5-3.7,12.9V172.4z M914.2,170.7h17.2v-2.8
		c0-4.6,1.3-9.2,3.9-13.7c1.3-2.2,1.9-4.7,1.9-7.2c0-4-1.6-7.7-4.5-10.5c-2.9-2.8-6.6-4.2-10.7-4c-7.5,0.3-13.7,6.7-13.8,14.3
		c0,2.6,0.6,5.1,1.9,7.4c2.6,4.5,3.9,9.2,3.9,13.9V170.7z"/>
	<g>
		<g>
			<path class="st11" d="M919.3,145.2c-1.2,1.7-3.2,2.3-4.4,1.4c-1.3-0.9-1.3-3-0.1-4.7c1.2-1.7,3.2-2.3,4.4-1.4
				C920.4,141.4,920.5,143.5,919.3,145.2z"/>
			<path class="st11" d="M916.2,147.9c-0.7,0-1.3-0.2-1.8-0.6c-0.8-0.6-1.3-1.5-1.3-2.7c0-1.1,0.3-2.2,1-3.1c0.7-1,1.6-1.7,2.6-2
				c1.1-0.4,2.2-0.2,3,0.4c0.8,0.6,1.3,1.6,1.3,2.7c0,1.1-0.3,2.2-1,3.1l0,0c-0.7,1-1.6,1.7-2.6,2
				C917,147.8,916.6,147.9,916.2,147.9z M917.9,141c-0.2,0-0.4,0-0.7,0.1c-0.7,0.2-1.3,0.7-1.8,1.4c-0.5,0.7-0.7,1.4-0.7,2.1
				c0,0.6,0.2,1.1,0.6,1.4c0.4,0.3,0.9,0.3,1.5,0.1c0.7-0.2,1.3-0.7,1.8-1.4l0,0c0.5-0.7,0.7-1.4,0.7-2.1c0-0.6-0.2-1.1-0.6-1.4
				C918.5,141.1,918.2,141,917.9,141z"/>
		</g>
	</g>
	<g>
		<g>
			
				<rect x="896.9" y="118.6" transform="matrix(0.6218 -0.7832 0.7832 0.6218 241.8815 750.1685)" class="st11" width="1.7" height="12.1"/>
			
				<rect x="920.8" y="104.3" transform="matrix(0.9995 -3.200236e-02 3.200236e-02 0.9995 -3.1268 29.5528)" class="st11" width="1.7" height="16.3"/>
			
				<rect x="939.1" y="121.5" transform="matrix(0.7168 -0.6973 0.6973 0.7168 182.5806 694.1899)" class="st11" width="13.7" height="1.7"/>
		</g>
	</g>
	<path class="st11" d="M105.1,235.8l-20.6-17.2c-4.7,1.2-9.6,1.9-14.4,1.9c-31.2,0-56.6-25.4-56.6-56.6c0-31.2,25.4-56.6,56.6-56.6
		c31.2,0,56.6,25.4,56.6,56.6c0,18.3-8.9,35.5-23.8,46.1L105.1,235.8z M84.9,216.8l18.2,15.2l-1.9-22.8l0.4-0.3
		c14.7-10.3,23.5-27.1,23.5-45c0-30.3-24.6-54.9-54.9-54.9c-30.3,0-54.9,24.6-54.9,54.9c0,30.3,24.6,54.9,54.9,54.9
		c4.9,0,9.7-0.6,14.4-1.9L84.9,216.8z"/>
	<polygon class="st11" points="69.4,181.3 53.6,165.5 54.7,164.3 68.8,178.4 85.1,141.2 86.7,141.9 	"/>
	<g>
		<g>
			<path class="st8" d="M373.3,236.9l-15,8.8l-159,93.1c-4.9,2.9-10.6,2.2-12.9-1.5l0,0c-2.3-3.7-0.3-9.1,4.5-12.2l155.2-98.7
				l14.9-9.5L373.3,236.9z"/>
			<path class="st12" d="M373.3,236.9l-15,8.8c-2.9-2.8-5.5-6-7.6-9.5c-1.9-3.1-3.4-6.3-4.5-9.7l14.9-9.5L373.3,236.9z"/>
		</g>
	</g>
	<path class="st6" d="M352.3,241.9c-2.4,1.4-5.4,0.7-6.9-1.7c-1.4-2.4-0.7-5.4,1.7-6.9c2.4-1.4,5.4-0.7,6.9,1.7
		C355.4,237.4,354.7,240.5,352.3,241.9z"/>
	<circle class="st8" cx="427.6" cy="190.1" r="79.1"/>
	<g>
		<defs>
			<circle id="SVGID_1_" cx="427.6" cy="190.1" r="64.2"/>
		</defs>
		<use xlink:href="#SVGID_1_"  style="overflow:visible;fill:#FFFFFF;"/>
		<clipPath id="SVGID_00000062182242009631639600000014899321617750609814_">
			<use xlink:href="#SVGID_1_"  style="overflow:visible;"/>
		</clipPath>
		<g style="clip-path:url(#SVGID_00000062182242009631639600000014899321617750609814_);">
			<rect x="381.4" y="211.8" class="st2" width="20.1" height="123.5"/>
			<rect x="417.6" y="195.5" class="st7" width="20.1" height="140.6"/>
			<rect x="453.7" y="178" class="st2" width="20.1" height="155.9"/>
		</g>
	</g>
	<path class="st14" d="M269.3,779.1c-10.1,0.2-24.5,0.4-33.8,0.5c0.1-4.5,0.3-9,0.5-13.1c0.5-10.3,1-18.2,1-18.2l28.9-0.2
		c0,0-0.1,2.9,0,7.2C266,761.6,266.8,771.1,269.3,779.1z"/>
	<path class="st11" d="M280.5,793.2c-5.5-1.7-9-7.4-11.2-14.1c-10.1,0.2-24.5,0.4-33.9,0.5c-0.3,10.6-0.2,21.3,0.9,27.3
		c0.4,2.6,2.7,4.5,5.3,4.5h49.6c4,0,7.5-3.4,7.1-7.4C297.8,799.3,292.2,796.8,280.5,793.2z"/>
	<path class="st15" d="M265.8,755.2l-29.9,11.2c0.5-10.3,1-18.2,1-18.2l28.9-0.2C265.8,748.1,265.7,750.9,265.8,755.2z"/>
	<path class="st16" d="M250.8,811c-1.1-5-3.2-8.5-6.3-10.4c-4-2.4-8.5-1.2-8.5-1.2l-0.5-1.6c0.2-0.1,5.2-1.4,9.8,1.4
		c3.5,2.1,5.9,6,7,11.5L250.8,811z"/>
	<path class="st14" d="M121.1,742.7c0,0-3.2,7.4-5.5,16.6c-1.1,4.4-2,9.1-2.2,13.7c-9.5-3.4-23.1-8.3-31.9-11.5
		c4.1-10,8.5-19.9,10.8-25l0.1-0.1c1-2.3,1.6-3.6,1.6-3.6L121.1,742.7z"/>
	<path class="st11" d="M118.8,790.1c-4.6-3.6-5.8-10.1-5.5-17.2c-9.5-3.4-23.1-8.3-31.8-11.5c-4,9.9-7.7,19.9-8.9,25.9
		c-0.5,2.6,0.9,5.2,3.4,6.1l46.4,17.6c3.8,1.4,8.2-0.5,9.3-4.4C132.9,801.9,128.5,797.6,118.8,790.1z"/>
	<path class="st15" d="M121.1,742.7c0,0-3.2,7.4-5.5,16.6l-24.2-20.4l0.9-2.5l0.1-0.1c1-2.3,1.6-3.6,1.6-3.6L121.1,742.7z"/>
	<path class="st16" d="M83.5,796l-1.5-0.8c6.2-11.9-4.7-17.8-5.2-18l0.8-1.5C77.7,775.8,90.4,782.6,83.5,796z"/>
	<path class="st17" d="M280,753.9l-53.1,4.2l-11.1-189.5l-16.4-62.3l-21.5-81.5l-1.1-4.3l-5.2-19.6l-0.8-2.9l10.2-0.9l54.9-4.9
		l3.3,15v0L272,555.8c1.1,4.8,1.7,9.8,1.9,14.7L280,753.9z"/>
	<path class="st17" d="M203.6,464.1l-4.2,42.2l-6.8,68.3c-0.8,7.9-2.5,15.6-5.2,23l-56.5,156.4l-47.5-18.3l44.2-160
		c11.4-65.9,9.5-116.5,12.4-148.5c0.2-2,0.4-3.9,0.6-5.8c1.2-9.8,3-17.6,6.1-23.3l24.9,2.9l17.6,2.1l3.8,16.2l0.8,3.3L203.6,464.1z"
		/>
	<path class="st18" d="M239.1,407.1l0.6,6.4c0,0-74.5,20-99.8,13.5c0.2-2,0.4-3.9,0.6-5.8c1.2-9.8,3-17.6,6.1-23.3l24.9,2.9
		l-0.8-2.9l10.2-0.9l54.9-4.9L239.1,407.1z"/>
	<polygon class="st19" points="215,569.5 190.1,471.2 169.7,464.6 170.2,463 191.5,469.8 191.6,470.3 216.6,569.1 	"/>
	<path class="st19" d="M253.2,573.8l-0.6-1.6c13.1-4.9,20.2-9.5,20.3-9.5l0.9,1.4C273.5,564.3,266.5,568.8,253.2,573.8z"/>
	<path class="st19" d="M189.5,590.5c-0.1,0-12.7-1.3-25.1-4.6l0.4-1.6c12.3,3.3,24.8,4.5,24.9,4.6L189.5,590.5z"/>
	
		<rect x="110.8" y="705.1" transform="matrix(0.3452 -0.9385 0.9385 0.3452 -612.8405 583.3016)" class="st19" width="1.7" height="51.5"/>
	
		<rect x="226.2" y="741.6" transform="matrix(0.9975 -7.028105e-02 7.028105e-02 0.9975 -51.5555 19.5956)" class="st19" width="53.1" height="1.7"/>
	<path class="st11" d="M167,277.4l-22.6,9.1c-6.6,2.6-11.8,7.8-14.5,14.3L111,346.1c-3.8,9.1-1.3,19.6,6.2,25.9l0,0
		c6.2,5.2,14.7,6.8,22.4,4l16-5.9L167,277.4z"/>
	<g>
		<path class="st14" d="M323,236.2c-4.2,2.1-9.1,10.9-7.2,14.1c1.5,2.6,5-0.9,6.2-2.1c2.1-2.2,7.6-8.2,4.6-11.6
			C325.6,235.6,324.3,235.6,323,236.2z"/>
		<path class="st14" d="M312.8,239.4c-3.5,3.1-5.8,13-3.2,15.6c2.2,2.1,4.6-2.2,5.4-3.7c1.5-2.7,5.2-9.9,1.3-12.4
			C315.1,238.1,313.9,238.4,312.8,239.4z"/>
		<path class="st14" d="M306,244.4c-3.5,3-6,12.3-3.5,14.7c2.1,1.9,4.6-2.2,5.4-3.6c1.5-2.6,5.3-9.5,1.6-11.7
			C308.4,243.1,307.1,243.4,306,244.4z"/>
		<path class="st14" d="M299.6,246.7c-3.5,3-6,12.3-3.5,14.7c2.1,1.9,4.6-2.2,5.4-3.6c1.5-2.6,5.3-9.5,1.6-11.7
			C301.9,245.4,300.7,245.7,299.6,246.7z"/>
	</g>
	<path class="st11" d="M167,277.7L143.6,318c0,0,6.1,66.7,1.7,74.9c-4.4,8.2-14.4,14.6-8.3,19.3c6.1,4.7,54.5,12.9,106.7,0.6
		c14.4-4.1,4.4-11.7,1.1-15.2c-3.3-3.5-7.8-91.8-7.8-91.8l-30-27.4l-22.2-6L167,277.7z"/>
	<path class="st20" d="M206.4,278.4c-4.2,7.3-53.2,14.8-39.4-1l14.2-3L206.4,278.4z"/>
	<path class="st11" d="M270,325.9l-19.4-28.7c-4.5-7.3-11.8-12.4-20.2-14.1l-23.5-4.7l13.9,52.1c0,0,21.7,30.4,41.3,37.5
		c17.6,6.4,40.9-4.1,53.8-72.8l-29.1-4L270,325.9z"/>
	<path class="st14" d="M331.8,254.3c-2.9-0.4-13.1,14.9-13.1,14.9l-16.3,5.6c-6,2-10.9,6.4-13.6,12.1l-2.1,4.3l29.1,4
		c0.5-2.6,0.9-5.2,1.4-7.9C327.2,278.2,338.3,255.2,331.8,254.3z"/>
	<path class="st15" d="M210.9,213.9l5.9,8.2c1,1.4,0.4,3.3-1.3,3.9l-6.3,2.4l-4.5-9.9L210.9,213.9z"/>
	<path class="st14" d="M172.7,258.9c1.5-15,0.9-30.1,0.9-30.1l26.9,2c-0.2,3-0.3,6.1-0.2,9.2c0.2,4.9,0.7,9.9,1.5,14.7
		c0.4,2.7,0.9,5.3,1.4,7.8L172.7,258.9z"/>
	<path class="st15" d="M201.9,254.7c-11.4-4.7-15.8-14.9-15.8-14.9l14.3,0.2C200.6,244.8,201.1,249.8,201.9,254.7z"/>
	<path class="st21" d="M172.7,258.9l-5.6,18.5c13,3.1,26.3,3.3,39.9,1l-3.6-16L172.7,258.9z"/>
	<path class="st14" d="M210.3,200.1l2.8,37.3c0.2,1.6-0.7,3.1-2.1,4.3c-2.4,2.2-5.6,3.2-8.8,3.1L183,244l-13.6-15.3l10.6-32.5
		l19.2-0.3L210.3,200.1z"/>
	<path class="st22" d="M178.9,222.3c0,0,5,15.6-5.6,23.5c-11.5-3.8-32.7-38.6-6.3-49.6c0,0,7.3-18.5,27.1-11.7
		c17.5,6.1,22.1,16.7,22.1,16.7s-12.3,9.2-26.7,0.6C189.6,201.9,191,220.4,178.9,222.3z"/>
	<path class="st14" d="M186,215.9c3.1,3.9,2.8,9.3-0.7,12.1c-3.5,2.8-8.8,2-12-1.9c-3.1-3.9-2.8-9.3,0.7-12.1
		C177.5,211.2,182.9,212.1,186,215.9z"/>
	<path class="st23" d="M182.1,224.9c-0.1-0.3-1.7-6.6-6.2-5.7l-0.3-1.2c4.5-1,7,3.9,7.7,6.6L182.1,224.9z"/>
	
		<ellipse transform="matrix(0.2298 -0.9732 0.9732 0.2298 -63.0484 367.2991)" class="st24" cx="200.5" cy="223.5" rx="5.6" ry="5.6"/>
	<path class="st25" d="M143,415.6c-5.1-1.2-7.9-3.1-8.7-5.7c-1.3-4.3,3.1-9.3,7.1-13.7c0.6-0.7,1.2-1.3,1.8-2
		c1.1-1.3,1.8-2.8,2.2-4.3c3.7-17.3-2.4-71.3-2.5-71.8l1.7-0.2c0.3,2.2,6.2,54.8,2.4,72.4c-0.4,1.8-1.3,3.6-2.5,5.1
		c-0.6,0.6-1.2,1.3-1.8,2c-3.5,3.8-7.8,8.6-6.7,12.1c0.6,2,3.2,3.6,7.5,4.6L143,415.6z"/>
	<path class="st25" d="M239.7,414.4l-0.1-1.7c5.7-0.3,9.2-1.6,10.1-3.9c0.9-2.3-0.7-5.8-4.5-9.6c-1-1-1.6-2.2-1.9-3.6
		c-3-13.5-6.2-58-6.2-58.5l1.7-0.1c0,0.4,3.2,44.9,6.2,58.2c0.2,1.1,0.8,2,1.5,2.7c4.3,4.3,6.1,8.3,4.9,11.3
		C250.1,412.4,246.2,414.1,239.7,414.4z"/>
	<polygon class="st25" points="267,333.3 265.5,332.6 286.2,290.3 315.9,294.3 315.7,296 287.2,292.1 	"/>
	<path class="st22" d="M768.5,229.3c-9.9-6-12.1-23.1-2.9-28.2c9.2-5.1,15-0.6,15-0.6s30.8-11.2,42.4,17.4
		c8.8,21.5,1.8,32.8,9.4,43.6c8.7,12.3,22.6,23.5,4.4,45.2l-42.5-10.4l-11.1-52.4L768.5,229.3z"/>
	<path class="st14" d="M915.6,709.4l-31.3,13.8c0,0,4.5,11.6,8.3,25.1l32.1-10.3L915.6,709.4z"/>
	<path class="st11" d="M924.8,738l-32.1,10.3c4.4,15.5,8,33.4,2.9,39.3c-6.5,7.6-12.2,13.9-13.6,19.2c-0.8,3.1,2.4,5.7,5.3,4.3
		l41.5-20.9c6.9-3.5,9.8-11.7,6.8-18.8L924.8,738z"/>
	
		<rect x="894.9" y="753.8" transform="matrix(0.9544 -0.2986 0.2986 0.9544 -183.7236 306.8106)" class="st16" width="34.4" height="1.7"/>
	<path class="st16" d="M889.5,795.9l-0.3-1.6c8-1.7,12.6-4.6,13.8-8.7c1.9-6.7-6-14.6-6.1-14.6l1.2-1.2c0.4,0.3,8.8,8.6,6.6,16.3
		C903.2,790.7,898.1,794,889.5,795.9z"/>
	<path class="st14" d="M794.9,739.7l-36.1,3.3c0,0,0.9,12.8-0.2,25.7l34.7-0.5L794.9,739.7z"/>
	<path class="st11" d="M758.6,768.8c-1,11.4-3.6,22.8-9.8,25.4c-13.3,5.6-23.9,9.4-22.8,17.2h51.3c7.7,0,14.1-6,14.5-13.7l1.6-29.4
		L758.6,768.8z"/>
	
		<rect x="774.6" y="761.1" transform="matrix(1.664769e-02 -0.9999 0.9999 1.664769e-02 -15.1946 1540.1724)" class="st16" width="1.7" height="33.3"/>
	<path class="st16" d="M747.9,800.5c-2.2,0-4.8-0.3-7.7-1l0.4-1.6c7.3,1.6,12.3,1.1,14.4-1.5c2.8-3.4-0.1-9.6-0.1-9.7l1.5-0.7
		c0.1,0.3,3.3,7.2-0.1,11.4C754.6,799.5,751.8,800.5,747.9,800.5z"/>
	<path class="st17" d="M794.4,748.3c-0.4,0.1-0.8,0.2-1.2,0.3c-7.2,1.7-31.1,0-31.1,0c-1.1-0.2-2.1-0.5-3.1-0.9
		c-22.3-8.1-20.8-47.2-17.5-81.4c3.1-31.3-10-191.2-1-245.5l56.5-12.4l0.3,9.5l0.7,19.4l1.2,34.4c0,0,2.1,33.3,5.1,75
		c4.4,62.5,10.5,144,13.8,160.7C823.5,734,803.4,745.7,794.4,748.3z"/>
	<path class="st17" d="M922.3,713.7c-1.3,1.5-2.6,2.7-4.1,3.9c-7.6,5.9-17.9,8-26.9,10.4c-1.6,0.4-3.2,0.8-4.9,1
		c-8.4,1-17.5-0.9-21.5-8c-20.1-36.6-42.7-109.2-60.6-174.1c-13.1-47.4-23.7-90.6-29-112.7c-2.3-9.8-3.6-15.4-3.6-15.4l25.6-0.8
		l43.6-1.3c1.2,5.9,2.5,12.1,4.1,18.5c14.9,63.5,44.2,150.7,55.6,184.1c6.9,20,17.3,37.8,21.9,58.8
		C925,689.2,930.7,704.1,922.3,713.7z"/>
	<path class="st18" d="M845,435.2c-17.8,2.9-33.5,3.3-46.9,2.3c-8.5-0.6-16.1-1.8-22.7-3.3c-22.8-5-34.9-13.3-34.9-13.3l56.5-12.4
		l0.3,9.5l43.6-1.3C842.2,422.6,843.5,428.8,845,435.2z"/>
	<polygon class="st19" points="803.6,547.1 786.1,485.3 768.2,478.8 768.8,477.2 787.5,484 787.6,484.4 805.2,546.6 	"/>
	<path class="st19" d="M910.6,721.3l-1.4-0.8c8.4-14.6-8.5-59.6-29.8-116.6c-20.7-55.3-46.5-124.2-55.9-185.7l1.6-0.3
		c9.3,61.3,35.1,130.1,55.8,185.4C902.4,660.6,919.4,706,910.6,721.3z"/>
	<path class="st14" d="M752.7,368.4c-2,14.1-5,32.5-5,32.5h-32.9l8-44.1l2-11c0,0,28.3,6.7,29.6,6.7
		C754.8,352.5,753.9,359.6,752.7,368.4z"/>
	<path class="st15" d="M752.7,368.4l-1.5,3.3l-28.4-14.9l2-11c0,0,28.3,6.7,29.6,6.7C754.8,352.5,753.9,359.6,752.7,368.4z"/>
	<path class="st26" d="M745.5,358.4c0,0,5.4,31.7-5,62.5c0,0,51.7,15.8,100.4-4.2l-11.3-71.3l3.8-36.3l-74.6,0.8l-25.4,8.3
		L745.5,358.4z"/>
	<path class="st26" d="M854.6,305.1c-3.3-9.4-10.9-16.7-20.4-19.6l-14-4.2c-5.6,8.2-15.7,18.7-30.4,18.7c-17.3,0-28.1-9.9-34.1-18
		l-9.7,2.4c-10.4,2.5-18.5,10.7-20.9,21.1l-10.8,46.9l31.3,6l0.8-35.8l81.3-3.8l2.1,26.7c0,0,23.5-10.3,39,0.3L854.6,305.1z"/>
	<path class="st14" d="M890.2,302.1c-4.5,8.8-10.6,47-13.3,76.7c-0.9,9.8-3.7,17.5-7.6,23.1c-5.7,8.3-13.7,12.1-21.5,11.2
		c-3-0.3-6-1.3-8.7-2.9c-13.4-8-11.7-41.9-10.2-57.2c0.5-4.6,0.9-7.5,0.9-7.5c7.9-4.4,20.4-5,20.4-5c0.2-1.7,0.4-3.5,0.6-5.2
		c1.7-15.4,4.3-32.8,6.5-44.4c2.5-12.9,7.5-8.1,7.5-8.1c2.5-4.6,6.3-0.6,6.3-0.6c3.3-7.3,7.5-0.4,7.5-0.4c5.2-7.5,8.1,3.8,8.1,3.8
		s16.2-13.3,18.9-9.5C906.8,277.9,896.6,289.6,890.2,302.1z"/>
	<rect x="692.2" y="392.5" class="st6" width="70" height="8.4"/>
	<path class="st8" d="M722.2,401H650c-3.5,0-6.6-2-8.1-5.2l-28.1-61.1c-0.9-2,0.5-4.3,2.8-4.3h67.7c3.3,0,6.3,1.9,7.7,4.9L722.2,401
		z"/>
	<path class="st14" d="M746,400.9c-0.9,3.3-2.1,6.3-3.7,9c-3.9,6.5-10.1,11-19.6,12.2c-3.3,0.4-6.9,0.5-11,0.1
		c-33.1-3.3-42.7-21.4-42.7-21.4s-3.7-7.7,4.1-5.9c0,0,1.5-4.9,7.5,0.2c0,0-0.7-6.1,5.2-0.5c0,0-0.8-6.2,5.6-0.8
		c6.5,5.3,11.5,6.9,19.3,7.2C718.6,401.2,746,400.9,746,400.9z"/>
	<g>
		<g>
			
				<rect x="743.7" y="322.5" transform="matrix(0.9983 -5.804152e-02 5.804152e-02 0.9983 -18.5057 43.7862)" class="st27" width="1.7" height="35.9"/>
			<path class="st27" d="M786.1,313c-3.9,0-7.4-0.5-10.3-1.1c-9.9-2.2-15.7-6.9-15.9-7.1l1.1-1.3c0.2,0.2,22.8,18.3,55.2-1.2
				l0.9,1.4C805.1,310.8,794.5,313,786.1,313z"/>
			
				<rect x="828.3" y="329" transform="matrix(0.9971 -7.604917e-02 7.604917e-02 0.9971 -23.2477 64.0301)" class="st27" width="1.7" height="16.4"/>
			<path class="st27" d="M803.8,353.7c-5.4,0-9.8-4-10.4-9.3l-1.3-11.9l22.9-1.5l-0.7,12.8c-0.3,5.5-4.8,9.8-10.3,9.9
				C803.9,353.7,803.8,353.7,803.8,353.7z M793.8,334l1.1,10.1c0.5,4.5,4.4,7.9,8.9,7.8c4.6-0.1,8.4-3.7,8.7-8.4l0.6-10.9L793.8,334
				z"/>
		</g>
	</g>
	
		<rect x="825.9" y="360.6" transform="matrix(0.1416 -0.9899 0.9899 0.1416 369.2989 1148.8107)" class="st15" width="42.3" height="1.7"/>
	<g>
		
			<rect x="878.5" y="281.6" transform="matrix(0.9839 -0.1789 0.1789 0.9839 -36.8256 161.8624)" class="st15" width="1.3" height="7"/>
		
			<rect x="871" y="281.8" transform="matrix(0.9839 -0.1789 0.1789 0.9839 -36.9838 160.5237)" class="st15" width="1.3" height="7"/>
		
			<rect x="864.7" y="282.3" transform="matrix(0.9839 -0.1789 0.1789 0.9839 -37.1592 159.4121)" class="st15" width="1.3" height="7"/>
		
			<rect x="886.1" y="280.6" transform="matrix(0.9369 -0.3497 0.3497 0.9369 -44.0977 328.1842)" class="st15" width="1.3" height="11.1"/>
	</g>
	<path class="st15" d="M850.1,340.5l-21.4,12.5c0.5-4.6,0.9-7.5,0.9-7.5C837.6,341,850.1,340.5,850.1,340.5z"/>
	<path class="st24" d="M869.3,401.9c-5.7,8.3-13.7,12.1-21.5,11.2c-0.1-0.6-0.1-1.1-0.1-1.7c0-7.1,5.8-12.9,12.9-12.9
		C863.9,398.5,867,399.8,869.3,401.9z"/>
	<path class="st24" d="M742.3,409.9c-3.9,6.5-10.1,11-19.6,12.2c0-0.4-0.1-0.8-0.1-1.2c0-7.1,5.8-12.9,12.9-12.9
		C738,408,740.3,408.7,742.3,409.9z"/>
	<path class="st15" d="M694.1,403.2c-3.3-0.6-7.4-5.7-8.8-8.4l1.1-0.6c1.4,2.8,5.3,7.3,7.9,7.8L694.1,403.2z"/>
	<path class="st15" d="M686.3,404.1c-2.8-2.9-5.4-6.5-6.4-8.9l1.2-0.5c1,2.3,3.5,5.8,6.2,8.5L686.3,404.1z"/>
	<path class="st15" d="M678.6,403.9c-2.8-2.9-5.4-6.5-6.4-8.9l1.2-0.5c1,2.3,3.5,5.8,6.2,8.5L678.6,403.9z"/>
	<path class="st14" d="M820.1,281.3c-5.7,8.2-15.7,18.7-30.4,18.7c-17.3,0-28.1-9.9-34.1-18l17.8-4.4c0.4-3.2,0.8-6.3,1.1-9.3
		c0.2-2.3,0.4-4.5,0.6-6.6c0.3-3.5,0.5-6.6,0.7-9.2c0.2-3.7,0.3-6.4,0.4-8c0-0.9,0-1.4,0-1.4l25-10c0,0-0.8,32.5,6.7,44.4
		L820.1,281.3z"/>
	<path class="st15" d="M796.1,255.3c0,0-6.7,7.8-21.5,13.1c0.2-2.3,0.4-4.5,0.6-6.6c0.3-3.5,0.5-6.6,0.7-9.2L796.1,255.3z"/>
	<path class="st14" d="M769.6,212.9c0,0-12.8,34.7-3.6,41.1c8.2,5.7,18.9,6.4,29.5,3.6l6.9-23.6l-4.2-23.1L769.6,212.9z"/>
	<path class="st22" d="M798.8,234.3c0,0-9,3.5-12.8-9.2c-3.1-10.3-16.4-12.2-16.4-12.2l5.4-5l25.7-0.7l9.4,11.5l-3.2,15L798.8,234.3
		z"/>
	<path class="st14" d="M810.4,241.5c-2.9,5.1-8.5,7.3-12.5,5c-4-2.3-4.9-8.3-1.9-13.3c2.9-5.1,8.5-7.3,12.5-5
		C812.5,230.5,813.3,236.5,810.4,241.5z"/>
	<path class="st23" d="M800.3,241.9l-1.3,0c0-0.1,0.2-7.9,7.9-8.7l0.1,1.2C800.4,235.1,800.3,241.6,800.3,241.9z"/>
	<g>
		<circle class="st23" cx="767.9" cy="229.8" r="1.4"/>
		<path class="st23" d="M779,231.7c0,1-0.8,1.7-1.7,1.7s-1.7-0.8-1.7-1.7c0-1,0.8-1.7,1.7-1.7S779,230.8,779,231.7z"/>
		<path class="st23" d="M771,226.5h-4.3c-0.6,0-1.1-0.5-1.1-1.1l0,0c0-0.6,0.5-1.1,1.1-1.1h4.3c0.6,0,1.1,0.5,1.1,1.1l0,0
			C772.1,226,771.6,226.5,771,226.5z"/>
		<path class="st23" d="M781.7,229.5l-4.7-2c-0.6-0.2-0.8-0.9-0.6-1.4l0,0c0.2-0.6,0.9-0.8,1.4-0.6l4.7,2c0.6,0.2,0.8,0.9,0.6,1.4
			l0,0C782.9,229.5,782.2,229.7,781.7,229.5z"/>
		<path class="st23" d="M767.2,240.6c-0.2,0-0.5-0.1-0.6-0.4c-0.8-2-0.9-3.6-0.1-4.6c0.8-1.1,2.3-1.3,3-1.3l1.6-3.1
			c0.2-0.3,0.5-0.4,0.8-0.3c0.3,0.2,0.4,0.5,0.3,0.8l-2,3.8l-0.4,0c0,0-1.7-0.2-2.3,0.7c-0.5,0.7-0.4,1.8,0.2,3.4
			c0.1,0.3,0,0.7-0.3,0.8C767.4,240.6,767.3,240.6,767.2,240.6z"/>
		<g>
			<path class="st23" d="M767.5,246c2.4,3.4,5.5,2,7.6,0.2C772.3,246.4,769.6,246.2,767.5,246z"/>
			<path class="st6" d="M775.1,246.2c1.2-1,2.1-2.1,2.3-2.4c0,0,0-0.1-0.1-0.1c-6.2,0.4-10.4-0.1-11-0.2c0,0-0.1,0,0,0.1
				c0.4,1,0.8,1.7,1.2,2.4C769.6,246.2,772.3,246.4,775.1,246.2z"/>
		</g>
		<path class="st24" d="M789.8,239.4c0,2.4-2,4.4-4.4,4.4s-4.4-2-4.4-4.4c0-2.4,2-4.4,4.4-4.4S789.8,237,789.8,239.4z"/>
	</g>
</g>
</svg>
