<?xml version="1.0" encoding="utf-8"?>
<!-- Generator: Adobe Illustrator 26.3.1, SVG Export Plug-In . SVG Version: 6.00 Build 0)  -->
<svg version="1.1" id="Illustration" xmlns="http://www.w3.org/2000/svg" xmlns:xlink="http://www.w3.org/1999/xlink" x="0px"
	 y="0px" viewBox="0 0 2500 2500" style="enable-background:new 0 0 2500 2500;" xml:space="preserve">
<style type="text/css">
	.st0{fill:none;}
	.st1{fill:#FFFFFF;}
</style>
<g>
	<path class="st0" d="M1729.6,1974.5h-12.4c0.8-5.4,1.5-10.9,2.1-16.4h22.2C1737.7,1963.1,1733.6,1968.6,1729.6,1974.5z"/>
	<path class="st0" d="M2116.6,2034.1v-50.3c0-17.2-14-31.1-31.1-31.1h-288.7c1-4.3,2-8.6,2.9-12.9h410.9c20.7,0,37.5,16.8,37.5,37.5
		v63.3c0,20.7-16.8,37.5-37.5,37.5h-462.4c2.2-4.2,4.4-8.5,6.6-12.9h330.6C2102.7,2065.2,2116.6,2051.2,2116.6,2034.1z"/>
	<path class="st0" d="M1719.8,1990h-4.9c0.5-3.3,1-6.7,1.5-10.1h9.6C1724,1983.2,1721.9,1986.5,1719.8,1990z"/>
	<path class="st0" d="M1896.5,1992.8c0-1.5-1.2-2.7-2.7-2.7H1786c3.4-10.4,6.6-21.1,9.4-32h290c14.2,0,25.7,11.5,25.7,25.7v50.3
		c0,14.2-11.5,25.7-25.7,25.7h-328c4.9-10,9.7-20.7,14.4-31.9h91.8c1.5,0,2.7-1.2,2.7-2.7c0-1.5-1.2-2.7-2.7-2.7h-89.6
		c3.5-8.7,6.9-17.7,10.1-27h109.6C1895.3,1995.5,1896.5,1994.3,1896.5,1992.8z"/>
	<path class="st0" d="M1712.9,2002.3c0.4-2.3,0.8-4.6,1.2-6.9h2.6C1715.4,1997.7,1714.2,2000,1712.9,2002.3z"/>
	<path class="st0" d="M1924.7,1915.6c19.1,0,34.7-15.6,34.7-34.7v-18c0-19.1-15.6-34.7-34.7-34.7h-199.4c-0.2-5.6-0.4-11.2-0.7-16.8
		h483.8c31.1,0,56.3,25.3,56.3,56.3v8.4c0,31.1-25.3,56.3-56.3,56.3h-407.3c1.1-5.6,2-11.2,2.9-16.8H1924.7z"/>
	<path class="st0" d="M2264.8,2094.2c0,5.4-4.4,9.8-9.8,9.8h-272.9c-21.4,0-38.9,17.4-38.9,38.9v20.3c0,21.4,17.4,38.9,38.9,38.9
		H2255c5.4,0,9.8,4.4,9.8,9.8c0,5.4-4.4,9.8-9.8,9.8h-593.5c-35.3,0-64-28.7-64-64v-9.5c0-3.7,0.3-7.2,0.9-10.7h10.2
		c1.4-1.8,2.7-3.7,4-5.6c1.1,8.5,2.3,17.2,3.6,26h53c0,0,1.5-3.4,4.1-9.8h32.5c0,0,18.2-24.6,39.3-64h510
		C2260.4,2084.3,2264.8,2088.8,2264.8,2094.2z"/>
	<path class="st0" d="M1722.1,1932.5c0.5-5.5,1-11.1,1.4-16.8h62.7c-6.1,4.1-13.2,9.5-21.1,16.8H1722.1z"/>
	<path class="st0" d="M1746,1952.7h-26c0.5-4.2,0.9-8.5,1.4-12.9h36.2C1753.9,1943.7,1750,1947.9,1746,1952.7z"/>
	<path class="st0" d="M1948.7,2163.3v-20.3c0-18.5,15-33.5,33.5-33.5h264.5c-5.7,12-9,24.2-9.8,36.6H2091c-1.5,0-2.7,1.2-2.7,2.7
		c0,1.5,1.2,2.7,2.7,2.7h145.6c-0.1,7.2,0.7,14.4,2.3,21.7c-0.1,0-0.3,0-0.4,0h-178.9c-1.5,0-2.7,1.2-2.7,2.7s1.2,2.7,2.7,2.7h178.9
		c0.6,0,1.1-0.2,1.6-0.5c1.6,6.2,3.8,12.4,6.6,18.6h-264.6C1963.7,2196.7,1948.7,2181.7,1948.7,2163.3z"/>
	<path class="st0" d="M1954,1862.9v18c0,16.2-13.1,29.3-29.3,29.3h-119.9c0.2-1.7,0.4-3.3,0.6-5c0,0-3.9,1.3-10.4,5h-71.2
		c0.3-5.1,0.6-10.2,0.9-15.4h102.7c1.5,0,2.7-1.2,2.7-2.7s-1.2-2.7-2.7-2.7H1725c0.3-6.1,0.4-12.3,0.6-18.6h132.7
		c1.5,0,2.7-1.2,2.7-2.7c0-1.5-1.2-2.7-2.7-2.7h-132.6c0.1-10.4,0.1-21-0.1-31.8h199.2C1940.9,1833.6,1954,1846.8,1954,1862.9z"/>
	<path d="M1861,1868.1c0,1.5-1.2,2.7-2.7,2.7h-132.7c0-1.8,0.1-3.6,0.1-5.4h132.6C1859.8,1865.4,1861,1866.6,1861,1868.1z"/>
	<path d="M1830.1,1892.1c0,1.5-1.2,2.7-2.7,2.7h-102.7c0.1-1.8,0.2-3.6,0.3-5.4h102.4C1828.9,1889.4,1830.1,1890.6,1830.1,1892.1z"
		/>
	<path d="M1726,1980h-9.6c0.3-1.8,0.5-3.6,0.8-5.4h12.4C1728.4,1976.3,1727.2,1978.1,1726,1980z"/>
	<path d="M1716.7,1995.5h-2.6c0.3-1.8,0.6-3.6,0.9-5.4h4.9C1718.8,1991.8,1717.7,1993.6,1716.7,1995.5z"/>
	<path d="M1893.8,1990c1.5,0,2.7,1.2,2.7,2.7c0,1.5-1.2,2.7-2.7,2.7h-109.6c0.6-1.8,1.2-3.6,1.8-5.4H1893.8z"/>
	<path d="M1866.4,2025.1c0,1.5-1.2,2.7-2.7,2.7h-91.8c0.7-1.8,1.5-3.6,2.2-5.4h89.6C1865.2,2022.4,1866.4,2023.6,1866.4,2025.1z"/>
	<path d="M1598.4,2137.6h-5.5c-0.5,3.5-0.8,7.1-0.8,10.7v9.5c0,38.3,31.1,69.4,69.4,69.4H2255c8.4,0,15.3-6.9,15.3-15.3
		c0-8.4-6.9-15.3-15.3-15.3h-2.3c-14.3-30.4-14.3-59,0-87.3h2.3c8.4,0,15.3-6.9,15.3-15.3c0-8.4-6.9-15.3-15.3-15.3h-25
		c14-7.1,23.6-21.6,23.6-38.3v-63.3c0-19.4-12.9-35.9-30.7-41.2c27.1-6.5,47.3-31,47.3-60v-8.4c0-34-27.7-61.7-61.7-61.7h-484.1
		c0.1,1.8,0.2,3.6,0.3,5.4h483.8c31.1,0,56.3,25.3,56.3,56.3v8.4c0,31.1-25.3,56.3-56.3,56.3h-407.3c-0.5,2.4-1,4.9-1.5,7.3h410.9
		c20.7,0,37.5,16.8,37.5,37.5v63.3c0,20.7-16.8,37.5-37.5,37.5h-462.4c-1.1,2.1-2.2,4.2-3.3,6.2h510c5.4,0,9.8,4.4,9.8,9.8
		s-4.4,9.8-9.8,9.8h-272.9c-21.4,0-38.9,17.4-38.9,38.9v20.3c0,21.4,17.4,38.9,38.9,38.9H2255c5.4,0,9.8,4.4,9.8,9.8
		c0,5.4-4.4,9.8-9.8,9.8h-593.5c-35.3,0-64-28.7-64-64v-9.5C1597.5,2144.7,1597.8,2141.1,1598.4,2137.6z M2246.7,2196.7h-264.6
		c-18.5,0-33.5-15-33.5-33.5v-20.3c0-18.5,15-33.5,33.5-33.5h264.5c-5.7,12-9,24.2-9.8,36.6H2091c-1.5,0-2.7,1.2-2.7,2.7
		c0,1.5,1.2,2.7,2.7,2.7h145.6c-0.1,7.2,0.7,14.4,2.3,21.7c-0.1,0-0.3,0-0.4,0h-178.9c-1.5,0-2.7,1.2-2.7,2.7s1.2,2.7,2.7,2.7h178.9
		c0.6,0,1.1-0.2,1.6-0.5C2241.7,2184.3,2243.9,2190.5,2246.7,2196.7z"/>
	<path d="M1757.7,1939.8h-36.2c0.2-2.4,0.5-4.9,0.7-7.3h43C1762.7,1934.7,1760.2,1937.2,1757.7,1939.8z"/>
	<path d="M1786.2,1915.6h-62.7c0.1-1.8,0.3-3.6,0.4-5.4h71.2C1792.5,1911.7,1789.5,1913.4,1786.2,1915.6z"/>
	<path d="M1746,1952.7c-1.5,1.7-2.9,3.6-4.4,5.4h-22.2c0.2-1.8,0.4-3.6,0.6-5.4H1746z"/>
	<path d="M1924.7,1828.2c19.1,0,34.7,15.6,34.7,34.7v18c0,19.2-15.6,34.7-34.7,34.7h-120.7c0.3-1.8,0.5-3.6,0.8-5.4h119.9
		c16.2,0,29.3-13.1,29.3-29.3v-18c0-16.2-13.1-29.3-29.3-29.3h-199.2c0-1.8-0.1-3.6-0.1-5.4H1924.7z"/>
	<path d="M2111.2,2034.1v-50.3c0-14.2-11.5-25.7-25.7-25.7h-290c0.5-1.8,0.9-3.6,1.4-5.4h288.7c17.2,0,31.1,14,31.1,31.1v50.3
		c0,17.2-14,31.1-31.1,31.1h-330.6c0.9-1.8,1.8-3.6,2.7-5.4h328C2099.7,2059.8,2111.2,2048.3,2111.2,2034.1z"/>
	<path class="st1" d="M1805.5,1905.2c-0.2,1.7-0.4,3.3-0.6,5h-9.8C1801.6,1906.6,1805.5,1905.2,1805.5,1905.2z"/>
	<g>
		<g>
			<path d="M87.2,1596.3c-1.4-0.7-2.4-1.7-3.1-3.1c-4.9-10.2-30-65.7-37.6-155.7c-9.9-117.7,13.6-239.8,70-363.1
				c0.9-1.9,2.5-3.2,4.5-3.7c2-0.5,4,0,5.6,1.2c26.3,20.6,163.1,123.4,272,120.7c2.1,0,4.1,0.9,5.4,2.5c1.3,1.6,1.7,3.7,1.1,5.7
				c-7.7,28.2-38.4,178.5,116.5,364c1.2,1.5,1.8,3.4,1.5,5.2c-0.3,1.9-1.4,3.5-2.9,4.5c-14.4,9.2-67.4,40.6-144.2,56.8
				c-31.4,6.6-62.7,9.9-93.7,9.9C215.9,1641.5,150.6,1626.4,87.2,1596.3z M398.8,1198.1c-1.4,0-2.9,0.1-4.3,0.1
				c-109.9,0-244.9-101.3-271.2-121.9c-0.4-0.3-0.7-0.2-0.9-0.2c-0.2,0-0.6,0.2-0.8,0.7c-56,122.3-79.4,243.6-69.6,360.3
				c7.5,89,32.2,143.7,37,153.8c0.1,0.2,0.3,0.4,0.5,0.5c91.9,43.6,187.9,55.3,285.2,34.9c76-16,128.2-47,142.4-56.1
				c0.4-0.2,0.5-0.6,0.5-0.8c0-0.2,0-0.6-0.3-0.9c-156.6-187.6-125.4-340.2-117.6-368.9c0.1-0.4,0-0.8-0.2-1
				C399.6,1198.4,399.3,1198.1,398.8,1198.1C398.8,1198.1,398.8,1198.1,398.8,1198.1z"/>
		</g>
		<path d="M357.9,1246.1c1.3,0,2.4-0.9,2.7-2.2c0.3-1.5-0.6-2.9-2.1-3.2c-1.2-0.2-118.8-25.5-204.5-89.1c-1.2-0.9-2.9-0.6-3.8,0.6
			c-0.9,1.2-0.6,2.9,0.6,3.8c86.7,64.3,205.4,89.8,206.6,90C357.5,1246.1,357.7,1246.1,357.9,1246.1z"/>
		<path d="M273.3,1276.7c1.2,0,2.4-0.9,2.6-2.1c0.3-1.5-0.6-2.9-2-3.2c-56-12.7-105.3-33.5-146.3-61.7c-1.2-0.8-2.9-0.5-3.8,0.7
			s-0.5,2.9,0.7,3.8c41.6,28.6,91.5,49.6,148.2,62.5C272.9,1276.7,273.1,1276.7,273.3,1276.7z"/>
		<path d="M358.9,1288.4c1.5,0,2.7-1.2,2.7-2.7c0-1.5-1.2-2.7-2.7-2.7c-0.2,0-18.2-0.3-45.6-4.3c-1.5-0.2-2.9,0.8-3.1,2.3
			c-0.2,1.5,0.8,2.9,2.3,3.1C340.4,1288.1,358.7,1288.4,358.9,1288.4C358.9,1288.4,358.9,1288.4,358.9,1288.4z"/>
		<path d="M332.9,1335.5c18.1,0,28.6-1.2,29-1.2c1.5-0.2,2.5-1.5,2.4-3c-0.2-1.5-1.5-2.5-3-2.4c-1.1,0.1-115.9,13-244.4-48.8
			c-1.4-0.6-3-0.1-3.6,1.3c-0.7,1.3-0.1,3,1.3,3.6C205.8,1328.9,290.3,1335.5,332.9,1335.5z"/>
		<path d="M297.9,1384.7c46.5,0,75.5-6.3,76.1-6.4c1.5-0.3,2.4-1.8,2.1-3.2c-0.3-1.5-1.8-2.4-3.2-2.1c-1.2,0.3-121.2,26.2-265-29
			c-1.4-0.5-3,0.2-3.5,1.6c-0.5,1.4,0.2,3,1.6,3.5C180.5,1377.7,248.8,1384.7,297.9,1384.7z"/>
		<path d="M191.3,1441.3c1.3,0,2.5-1,2.7-2.3c0.2-1.5-0.8-2.9-2.3-3.1c-28.9-4.1-56.5-11.2-81.9-21.2c-1.4-0.5-3,0.1-3.5,1.5
			c-0.5,1.4,0.1,3,1.5,3.5c25.8,10.1,53.8,17.4,83.1,21.5C191.1,1441.3,191.2,1441.3,191.3,1441.3z"/>
		<path d="M252.1,1445.5c76.9,0,135.8-18.9,136.4-19.1c1.4-0.5,2.2-2,1.7-3.4c-0.5-1.4-2-2.2-3.4-1.7c-0.6,0.2-65.3,21-147.5,18.7
			c-1.6,0-2.7,1.1-2.8,2.6c0,1.5,1.1,2.7,2.6,2.8C243.5,1445.4,247.9,1445.5,252.1,1445.5z"/>
	</g>
	<g>
		<path d="M2010,446.3l96-147.5c8-12.3,24.2-16.2,36.8-8.7c38.5,22.7,119.9,79.8,233.6,207.8c9.8,11,9.1,27.7-1.5,37.9l-12.2,11.8
			c-1.3-1.3-2.6-2.5-3.9-3.8l12.3-11.9c8.5-8.2,9-21.6,1.2-30.4c-113.1-127.5-194.1-184.2-232.3-206.8c-10.1-6-23.1-2.9-29.5,7
			l-96,147.5c-3.5,5.4-4.5,12.1-2.6,18.2c1.9,6.2,6.3,11.3,12.3,13.9c33.4,14.7,64.7,33.4,92.5,53l-3,4.5
			c-27.6-19.4-58.5-38-91.7-52.6c-7.4-3.3-13-9.6-15.3-17.3C2004.4,461.3,2005.6,453,2010,446.3z"/>
		<path d="M2319.5,783.7c-7.4-0.2-14.3-3.3-19.3-8.7c-29.3-31.6-108-109.7-205.9-152.7c-7.4-3.3-13-9.6-15.3-17.3
			c-2.3-7.7-1.1-16,3.3-22.7l95.9-147.5c8-12.3,24.2-16.2,36.9-8.7c38.5,22.7,119.9,79.8,233.6,207.8c9.8,11,9.1,27.7-1.5,37.9
			L2339.4,776c-5.2,5-11.9,7.7-19.1,7.7C2320,783.7,2319.8,783.7,2319.5,783.7z M2444.6,637.5c-113.1-127.5-194.1-184.2-232.3-206.8
			c-10.1-6-23.1-2.9-29.5,7l-95.9,147.5c-3.5,5.4-4.5,12.1-2.6,18.2c1.9,6.2,6.3,11.3,12.3,13.9c98.8,43.4,178.2,122.1,207.7,154
			c4,4.3,9.5,6.8,15.5,7c6,0.1,11.6-2,15.9-6.2l107.8-104.2C2452,659.7,2452.5,646.3,2444.6,637.5z"/>
		<path d="M2422.6,660.7c1.3,0,2.5-1,2.7-2.3c0.2-1.5-0.8-2.9-2.3-3.1l-132.6-20c-23.4-3.5-42.6-19.6-50-41.9l-44.1-132.2
			c-0.5-1.4-2-2.2-3.4-1.7c-1.4,0.5-2.2,2-1.7,3.4l44.1,132.2c8.1,24.2,28.9,41.7,54.3,45.5l132.6,20
			C2422.3,660.7,2422.4,660.7,2422.6,660.7z"/>
	</g>
	<g>
		<g>
			<g>
				<path d="M605.7,2081.2L384,1751c-2.7-4-3.6-8.7-2.5-13.2c1-4.5,3.9-8.4,8-10.8l176.6-102.3c8.4-4.9,19.7-2.3,25.1,5.8
					l221.7,330.1c2.7,4,3.6,8.7,2.5,13.2c-1,4.5-3.9,8.4-8,10.8L630.8,2087c-2.9,1.7-6.1,2.5-9.3,2.5
					C615.4,2089.4,609.3,2086.5,605.7,2081.2z M568.8,1629.5l-176.6,102.3c-2.8,1.6-4.8,4.2-5.5,7.3c-0.7,3.1-0.1,6.3,1.7,9
					l221.7,330.1c3.9,5.8,11.9,7.6,17.9,4.2L804.7,1980c2.8-1.6,4.8-4.2,5.5-7.3c0.7-3.1,0.1-6.3-1.7-9l-221.7-330.1
					c-2.6-3.8-6.9-5.9-11.3-5.9C573.1,1627.7,570.8,1628.3,568.8,1629.5z"/>
			</g>
			<path d="M530.4,1648.6l4.7,7c5,7.5,2.8,17.2-5,21.7l-74.2,43c-7.8,4.5-18.2,2.1-23.2-5.4l-4.7-7L530.4,1648.6z"/>
		</g>
		<g>
			<g>
				<polygon points="431.5,1779.6 598.1,1683.1 588.3,1668.6 421.8,1765.1 				"/>
				<path d="M501.2,1888.3l-64.9-96.6c-0.4-0.6-0.6-1.4-0.4-2.1c0.2-0.7,0.6-1.4,1.3-1.7l166.6-96.5c1.2-0.7,2.8-0.3,3.6,0.8
					l64.9,96.6c0.4,0.6,0.6,1.4,0.4,2.1c-0.2,0.7-0.6,1.4-1.3,1.7l-166.6,96.5c-0.4,0.2-0.9,0.4-1.4,0.4
					C502.6,1889.5,501.8,1889.1,501.2,1888.3z M604.4,1697.3l-161.9,93.8l61.8,92.1l161.9-93.8L604.4,1697.3z"/>
			</g>
			<path d="M546.2,1955.2l-40.4-60.2c-0.4-0.6-0.6-1.4-0.4-2.1c0.2-0.7,0.6-1.4,1.3-1.7l166.6-96.5c1.2-0.7,2.8-0.3,3.6,0.8
				l40.4,60.2c0.4,0.6,0.6,1.4,0.4,2.1c-0.2,0.7-0.6,1.4-1.3,1.7L549.8,1956c-0.4,0.2-0.9,0.4-1.4,0.4
				C547.5,1956.4,546.7,1955.9,546.2,1955.2z M673.7,1800.6l-161.9,93.8l37.4,55.7l161.9-93.8L673.7,1800.6z"/>
			<path d="M592.5,2024.2l-40.4-60.2c-0.4-0.6-0.6-1.4-0.4-2.1c0.2-0.7,0.6-1.4,1.3-1.7l166.6-96.5c1.2-0.7,2.8-0.3,3.6,0.8
				l40.4,60.2c0.4,0.6,0.6,1.4,0.4,2.1c-0.2,0.7-0.6,1.4-1.3,1.7L596.1,2025c-0.4,0.2-0.9,0.4-1.4,0.4
				C593.9,2025.4,593,2024.9,592.5,2024.2z M720.1,1869.6l-161.9,93.8l37.4,55.7l161.9-93.8L720.1,1869.6z"/>
			<path d="M625.2,2072.8l-26.8-39.8c-0.4-0.6-0.6-1.4-0.4-2.1c0.2-0.7,0.6-1.4,1.3-1.7l166.6-96.5c1.2-0.7,2.8-0.3,3.6,0.8
				l26.8,39.8c0.4,0.6,0.6,1.4,0.4,2.1c-0.2,0.7-0.6,1.4-1.3,1.7l-166.6,96.5c-0.4,0.2-0.9,0.4-1.4,0.4
				C626.5,2074,625.7,2073.6,625.2,2072.8z M766.4,1938.6l-161.9,93.8l23.7,35.3l161.9-93.8L766.4,1938.6z"/>
		</g>
	</g>
	<path d="M1646.2,2139.4c0.1,0,0.1,0,0.2,0c1.5-0.1,2.6-1.4,2.6-2.9c-7.2-131.5,52.1-412,52.7-414.8c0.3-1.5-0.6-2.9-2.1-3.2
		c-1.5-0.3-2.9,0.6-3.2,2.1c-0.6,2.8-60,284.1-52.8,416.3C1643.5,2138.2,1644.7,2139.4,1646.2,2139.4z"/>
	<path class="st0" d="M1614.4,1945c-0.9-3-1.9-5.9-2.9-8.8c6.5-62.2,20.1-109.7,33.8-144c23.9-59.7,52.4-91.2,62.1-100.8
		c48.6,248.2-31.7,444.6-40.1,464.1h-48.9c-1.1-7.7-2.2-15.2-3.1-22.7C1641.5,2092.3,1641.2,2029.3,1614.4,1945z"/>
	<path class="st0" d="M1609.7,2131.4c-0.8,1.2-1.6,2.4-2.5,3.5h-35.8c-7.4-17.4-70.6-172.9-10.9-304.1
		c7.2,13.8,28.4,55.9,45.3,106.3C1600.4,1990.9,1600.3,2055.3,1609.7,2131.4z"/>
	<path class="st0" d="M1610.2,1950.3c18.5,59.6,29.2,127.7,4.1,173.6C1606.4,2057,1606,1999.3,1610.2,1950.3z"/>
	<path d="M1558,1823.6c0.4-0.9,1.4-1.5,2.4-1.5c1,0,2,0.5,2.5,1.4c0.3,0.5,24.4,44.4,44.5,100.7c-0.5,4.2-1,8.6-1.4,12.9
		c-16.9-50.4-38.1-92.5-45.3-106.3c-59.7,131.1,3.5,286.7,10.9,304.1h35.8c0.9-1.2,1.7-2.3,2.5-3.5c0.3,2.6,0.7,5.2,1,7.9
		c0,0,0,0,0,0c-0.5,0.7-1.3,1.1-2.2,1.1h-38.9c-1.1,0-2-0.6-2.5-1.6C1566.5,2137,1489.8,1965.3,1558,1823.6z"/>
	<path d="M1610.2,1950.3c0.4-4.8,0.8-9.5,1.3-14.1c1,2.9,1.9,5.9,2.9,8.8c26.8,84.3,27.1,147.4,1,187.7c-0.4-3-0.7-5.9-1.1-8.8
		C1639.4,2078,1628.7,2009.8,1610.2,1950.3z"/>
	<path d="M1614.3,2123.9c0.3,2.9,0.7,5.9,1.1,8.8c-1.5,2.3-3,4.5-4.6,6.6c-0.3-2.6-0.7-5.3-1-7.9
		C1611.4,2129,1612.9,2126.5,1614.3,2123.9z"/>
	<path d="M1610.2,1950.3c-1.4-4.4-2.8-8.8-4.2-13.1c0.4-4.4,0.9-8.7,1.4-12.9c1.4,3.9,2.8,7.9,4.1,11.9
		C1611,1940.8,1610.6,1945.5,1610.2,1950.3z"/>
	<path d="M1590.4,2146.1c1.5,0,2.7-1.1,2.7-2.6c3.5-90.1-26.8-286.3-27.1-288.2c-0.2-1.5-1.6-2.5-3.1-2.3c-1.5,0.2-2.5,1.6-2.3,3.1
		c0.3,2,30.5,197.6,27.1,287.2c-0.1,1.5,1.1,2.8,2.6,2.8C1590.4,2146.1,1590.4,2146.1,1590.4,2146.1z"/>
	<path class="st0" d="M1802.2,1909.6c-15.6,118.1-89.3,224.1-97.8,236h-27.2c8.7-22.7,25.9-72.5,37.9-141.1
		C1749.9,1939.1,1789.5,1915.7,1802.2,1909.6z"/>
	<path class="st0" d="M1706.2,2022.2c-12,60.5-27.3,104-34.9,123.4h-2.8C1677.9,2094.5,1691.4,2054.1,1706.2,2022.2z"/>
	<path d="M1715,2004.5c-12,68.6-29.2,118.4-37.9,141.1h-5.8c7.6-19.4,22.9-62.9,34.9-123.4C1709.1,2016,1712,2010.1,1715,2004.5z"/>
	<path d="M1707.4,1691.3c-9.7,9.6-38.2,41.1-62.1,100.8c-13.7,34.3-27.3,81.9-33.8,144c-1.3-4-2.7-8-4.1-11.9
		c7-57.5,20-101.9,33.1-134.6c29.7-74,65.4-104.5,66.9-105.8c0.7-0.6,1.7-0.8,2.6-0.5c0.9,0.3,1.6,1.1,1.8,2
		c23.5,116.2,18.7,221.5,5.9,303.1c-2.6,4.4-5.2,9-7.8,13.9C1724.2,1920.6,1731,1812.1,1707.4,1691.3z"/>
	<path d="M1618.5,2155.4h48.9c0.4-1,1.1-2.5,1.8-4.4h5.8c-2.1,5.2-3.3,8-3.4,8.2c-0.4,1-1.4,1.6-2.5,1.6h-53c-1.3,0-2.5-1-2.7-2.3
		c-1-6.5-1.9-12.9-2.7-19.2c1.6-2.1,3.2-4.3,4.6-6.6C1616.3,2140.2,1617.3,2147.7,1618.5,2155.4z"/>
	<path d="M1704.3,2145.6c8.5-11.9,82.3-117.9,97.8-236c-12.7,6.1-52.3,29.5-87.2,94.9c0.9-5.2,1.8-10.6,2.7-16
		c10.2-17.4,20.4-31,29.6-41.5c30.5-34.9,56.2-44,57.3-44.3c0.9-0.3,1.9-0.1,2.6,0.5c0.7,0.6,1.1,1.5,1,2.4
		c-15.1,128.1-99.4,243.2-100.2,244.4c-0.5,0.7-1.3,1.1-2.2,1.1H1675c0.6-1.6,1.3-3.4,2.1-5.4H1704.3z"/>
	<path d="M1671.3,2145.6h5.8c-0.8,2-1.5,3.8-2.1,5.4h-5.8C1669.8,2149.5,1670.5,2147.7,1671.3,2145.6z"/>
	<path d="M1706.2,2022.2c1.3-6.4,2.5-13,3.7-19.8c2.6-4.9,5.2-9.5,7.8-13.9c-0.9,5.5-1.7,10.8-2.7,16
		C1712,2010.1,1709.1,2016,1706.2,2022.2z"/>
	<path d="M1687.4,2145.2c1.3,0,2.5-0.9,2.7-2.3c15.3-92.6,81.6-185.9,82.3-186.8c0.9-1.2,0.6-2.9-0.6-3.8c-1.2-0.9-2.9-0.6-3.8,0.6
		c-0.7,0.9-67.7,95.2-83.3,189.1c-0.2,1.5,0.8,2.9,2.2,3.1C1687.1,2145.1,1687.2,2145.2,1687.4,2145.2z"/>
	<path d="M1765.8,2131.8h-254l-5.7,120.1c-1.4,29.5,22.1,54.1,51.6,54.1h145.1c34.9,0,63.2-28.3,63.1-63.2L1765.8,2131.8z"/>
	<path d="M1259.3,987.7c1.5,0,2.7-1.2,2.7-2.7V236.3c0-1.5-1.2-2.7-2.7-2.7s-2.7,1.2-2.7,2.7V985
		C1256.6,986.5,1257.8,987.7,1259.3,987.7z"/>
	<path d="M1192.8,987.7c1.5,0,2.7-1.2,2.7-2.7V236.3c0-1.5-1.2-2.7-2.7-2.7c-1.5,0-2.7,1.2-2.7,2.7V985
		C1190.1,986.5,1191.3,987.7,1192.8,987.7z"/>
	<path class="st0" d="M777.8,381.9c2.1-1,4.2-1.9,6.3-2.7v4.6L777.8,381.9z"/>
	<path class="st0" d="M899.1,372.4c-18-6.7-36.8-10.1-56-10.1c-18.4,0-36.5,3.2-53.5,9.2v-164h400.5v60.1
		c-26.3-10.1-54.8-15.6-84.6-15.6C1020,252,941.2,298.1,899.1,372.4z"/>
	<path class="st0" d="M853.9,572.9c0.2,0,0.4,0,0.5-0.1c0.9-0.2,1.7-0.8,2-1.7l36.6-95.7l94-27.3c1.2-0.3,2-1.4,2-2.6
		c0-1.2-0.8-2.3-2-2.6l-197.4-57.6v-8.3c16.7-6.1,34.7-9.4,53.5-9.4c19.3,0,38.2,3.6,56.2,10.6c1.3,0.5,2.7,0,3.4-1.2
		c40.9-73.8,118.6-119.6,202.8-119.6c29.8,0,58.4,5.7,84.6,16v548.7H789.6V507.8l62.3,64.3C852.4,572.6,853.1,572.9,853.9,572.9z"/>
	<path class="st0" d="M1516.8,661.3c0-91.7-74.6-166.3-166.3-166.3h-8.1c0.1-1.9,0.1-3.9,0.1-5.9c0-70.8-31.2-134.4-80.5-177.9
		V207.5h640V1526h-640V827.6h88.5C1442.2,827.6,1516.8,753,1516.8,661.3z"/>
	<path class="st0" d="M1337.1,489.2c0,2.6-0.1,5.2-0.2,7.8l0,0.7c0,0.7,0.2,1.5,0.8,2c0.5,0.5,1.2,0.8,2,0.8h10.9
		c88.7,0,160.9,72.2,160.9,160.9c0,88.7-72.2,160.9-160.9,160.9H1262V318.6C1308.2,360.9,1337.1,421.7,1337.1,489.2z"/>
	<path class="st0" d="M1190.1,827.6H789.6v644c1.9-1,4-1.9,6.1-2.6c4.4-1.5,9-2.2,13.8-2.2h7.9V1442v-2.5c0-1.5,1.2-2.7,2.7-2.7h2.5
		h149.7h32c1.5,0,2.7,1.2,2.7,2.7v86.5h183V827.6z M919.8,1390.9c-2.5,12.1-12.5,18.7-13,19c-0.5,0.3-1,0.4-1.5,0.4
		c-0.9,0-1.8-0.4-2.3-1.2c-0.8-1.3-0.5-2.9,0.8-3.7c0.1-0.1,8.6-5.7,10.6-15.6c1.3-6.6-0.5-13.8-5.6-21.2
		c-17.8-26.3-11.3-39.3-5.6-50.7l0.5-0.9c0.7-1.3,2.3-1.9,3.6-1.2c1.3,0.7,1.9,2.3,1.2,3.6l-0.5,0.9c-5.6,11.1-10.8,21.5,5.2,45.2
		C919.3,1374.2,921.5,1382.8,919.8,1390.9z"/>
	<path class="st0" d="M1256.6,313.7v508.5h-61.1V275.7C1217.9,285.2,1238.5,298.1,1256.6,313.7z"/>
	<path class="st0" d="M796.2,1513.5c0-0.2-0.1-0.4-0.1-0.6c-0.1-0.5-0.1-1-0.1-1.5c0,0,0-0.1,0-0.1c0-3.8,1.4-7.4,3.9-10.3
		c2.8-3.2,6.9-5,11.1-5h6.4v29.9h-9.3C802,1524.6,797.1,1519.6,796.2,1513.5z"/>
	<path class="st0" d="M1007,1531.4h185.7c1.5,0,2.7-1.2,2.7-2.7V827.6h61.1v701.1c0,1.5,1.2,2.7,2.7,2.7h645.5
		c1.5,0,2.7-1.2,2.7-2.7V204.8c0-1.5-1.2-2.7-2.7-2.7h-645.5c-1.5,0-2.7,1.2-2.7,2.7v101.8c-18.3-15.2-38.9-27.6-61.1-36.8v-65
		c0-1.5-1.2-2.7-2.7-2.7H786.9c-1.5,0-2.7,1.2-2.7,2.7v168.7c-4.7,1.9-9.3,3.9-13.8,6.2L719.7,365V184.7c0-27.5,22.4-50,50-50H1922
		c27.5,0,50,22.4,50,50v1364.1c0,27.5-22.4,50-50,50H987.8c12-13.9,19.3-32,19.3-51.8V1531.4z"/>
	<path class="st0" d="M784.2,1475c-6.5,4.8-11.5,11.5-14.3,19.4c0,0.1,0,0.1-0.1,0.2c-0.3,0.9-0.6,1.8-0.9,2.8
		c-0.1,0.2-0.1,0.4-0.1,0.5c-0.2,0.8-0.4,1.7-0.6,2.5c-0.1,0.3-0.1,0.7-0.2,1c-0.1,0.7-0.3,1.5-0.4,2.2c-0.1,0.5-0.1,1.1-0.2,1.6
		c-0.1,0.6-0.1,1.1-0.2,1.7c-0.1,1.1-0.1,2.3-0.1,3.4v0.3c0,24.9,19,45.2,42.4,45.2h8.4c1.8,16.4,8.6,31.2,18.8,43h-67.1
		c-27.5,0-50-22.4-50-50V827.6h64.4V1475z"/>
	<path class="st0" d="M714.3,656v166.2H580.6c-88.7,0-160.9-72.2-160.9-160.9s72.2-160.9,160.9-160.9h107.2c1.3,0,2.5-1,2.7-2.3
		c0.2-1.4,0.4-2.7,0.7-4.1l23.2,25.8V656z"/>
	<path class="st0" d="M719.7,525.3c0.3,0.1,0.6,0.2,0.9,0.2c0.3,0,0.5,0,0.8-0.1l62.8-18.3v315.1h-64.4V656V525.3z"/>
	<path d="M1262,318.6v503.6h-5.4V313.7C1258.4,315.3,1260.3,316.9,1262,318.6z"/>
	<path d="M1190.1,207.5H789.6v164c-1.8,0.6-3.6,1.3-5.4,2V204.8c0-1.5,1.2-2.7,2.7-2.7h405.9c1.5,0,2.7,1.2,2.7,2.7v65
		c-1.8-0.7-3.6-1.5-5.4-2.2V207.5z"/>
	<path d="M1195.5,275.7v546.5h-5.4V273.5C1191.9,274.2,1193.7,274.9,1195.5,275.7z"/>
	<path d="M817.4,1526v0.4h-5.6c-1.3,0-2.5-0.2-3.7-0.4H817.4z"/>
	<path d="M784.2,383.8v-4.6c1.8-0.7,3.6-1.4,5.4-2.1v8.3L784.2,383.8z"/>
	<path class="st0" d="M1545.7,1620.5h-120.3c2.6-5.3,4.1-7.8,4.1-7.8S1479.2,1616.6,1545.7,1620.5z"/>
	<path class="st0" d="M1131.8,2174.8c-1.4-4.7-2.9-9.2-4.4-13.5l-129.3-27.9c-14.2,45.1-41.9,140.2-36.1,182.8
		c1.9,13.9,4.2,25.8,7.1,35.4c1.8,6.3,6.7,11.1,13,13c6.2,1.8,12.6,0.5,17.5-3.8C1065.7,2303.6,1125.9,2186.5,1131.8,2174.8z
		 M975.6,2233.6l37.5,12.4c1.4,0.5,2.2,2,1.7,3.4c-0.4,1.1-1.4,1.9-2.6,1.9c-0.3,0-0.6,0-0.8-0.1l-37.5-12.4c-1.4-0.5-2.2-2-1.7-3.4
		C972.6,2233.9,974.2,2233.1,975.6,2233.6z M1039.5,2209.3c-0.4,1.1-1.4,1.9-2.6,1.9c-0.3,0-0.6,0-0.8-0.1l-47.2-15.5
		c-1.4-0.5-2.2-2-1.7-3.4c0.5-1.4,2-2.2,3.4-1.7l47.2,15.5C1039.2,2206.4,1040,2207.9,1039.5,2209.3z M1116,2163.4
		c-0.6,1.1-60.7,113.9-132.4,186c-0.5,0.5-1.2,0.8-1.9,0.8c-0.7,0-1.4-0.3-1.9-0.8c-1.1-1.1-1.1-2.8,0-3.8
		c71.2-71.5,130.9-183.6,131.5-184.7c0.7-1.3,2.3-1.8,3.7-1.1C1116.2,2160.5,1116.7,2162.1,1116,2163.4z"/>
	<path d="M962,2316.1c1.9,13.9,4.2,25.8,7.1,35.4c1.8,6.3,6.7,11.1,13,13c6.2,1.8,12.6,0.5,17.5-3.8
		c66.2-57.1,126.3-174.2,132.3-185.9c-1.4-4.7-2.9-9.2-4.4-13.5l6.2,1.3c1.3,3.8,2.5,7.7,3.7,11.7c0.2,0.7,0.1,1.3-0.2,2
		c-0.6,1.3-63.9,128-134,188.6c-4.4,3.8-10,5.9-15.7,5.9c-2.3,0-4.6-0.3-6.9-1c-8-2.4-14.3-8.6-16.6-16.6
		c-2.9-9.9-5.3-22.1-7.2-36.2c-5.9-44,21.7-139.1,36.1-184.6l5.4,1.2C983.9,2178.4,956.2,2273.5,962,2316.1z"/>
	<path d="M1116,2163.4c-0.6,1.1-60.7,113.9-132.4,186c-0.5,0.5-1.2,0.8-1.9,0.8c-0.7,0-1.4-0.3-1.9-0.8c-1.1-1.1-1.1-2.8,0-3.8
		c71.2-71.5,130.9-183.6,131.5-184.7c0.7-1.3,2.3-1.8,3.7-1.1C1116.2,2160.5,1116.7,2162.1,1116,2163.4z"/>
	<path d="M1014.8,2249.4c-0.4,1.1-1.4,1.9-2.6,1.9c-0.3,0-0.6,0-0.8-0.1l-37.5-12.4c-1.4-0.5-2.2-2-1.7-3.4c0.5-1.4,2-2.2,3.4-1.7
		l37.5,12.4C1014.5,2246.4,1015.3,2248,1014.8,2249.4z"/>
	<path d="M1036.9,2211.2c-0.3,0-0.6,0-0.8-0.1l-47.2-15.5c-1.4-0.5-2.2-2-1.7-3.4c0.5-1.4,2-2.2,3.4-1.7l47.2,15.5
		c1.4,0.5,2.2,2,1.7,3.4C1039.2,2210.4,1038.1,2211.2,1036.9,2211.2z"/>
	<path d="M1565.6,1204.3c4.3,7.4,31.1,51.9,78.8,100.8c8.8,9,18.6,18.5,29.4,28.2c-91.4,4.5-247.2,15.1-365.3,37.8
		c-66.6-138.4-167.3-235.7-168.3-236.7c-1.1-1-2.8-1-3.8,0.1c-1,1.1-1,2.8,0.1,3.8c1,1,100.4,97,166.6,233.8
		c-30.5,6-58.2,12.8-81.6,20.6c-34,10.4-56,21.4-65.9,33c-10.9,12.8-23.2,38.7-36.4,76.7c-0.5,1.4,0.3,3,1.7,3.5c0,0,0,0,0,0
		c-3.9,11.3-7.8,23.5-11.8,36.4c-74.6-124.2-228.6-394.8-192-456.3c47.9-80.4,100.3-80.1,240.9-48.5
		c72.2,16.2,197.8,63.2,303.8,105.9C1489.7,1185.5,1555.4,1202,1565.6,1204.3z"/>
	<path d="M1375,1811c-21.5,144.4-45.6,338.7-81.3,386.1l-160.1-34.6c-10.3-30-24.1-51.4-34.5-64.5c-3-3.8-7.3-6.1-12.1-6.5
		c-4.8-0.4-9.5,1.1-13.2,4.3l-24.4,21.5l-1.5-6.8c-1-4.7-4-8.8-8.2-11.3c-4.2-2.4-9.2-3-13.8-1.5l-23.2,7.5
		c-0.8,0.3-1.5,0.9-1.7,1.7c-0.5,1.5-3.8,10.9-8.3,25.2l-9.7-2.1c0,0,42.1-253,91.3-457.3h331
		C1395.5,1704.3,1384.2,1749.4,1375,1811z"/>
	<path d="M1429.5,1612.6c0,0-1.5,2.5-4.1,7.8h-338c7.2-27.9,14.5-54.2,21.8-78c23,38.3,38.5,62.7,38.5,62.7l592.3-154.4l-38.2-94.2
		c45.8,35.8,105.1,70.3,176.6,87.4c16.4,3.9,32,6.7,46.9,8.4c-6.6,48.6-21.6,136.6-46.2,160.3c-3.3,3.2-10.1,5.8-19.8,7.8h-313.5
		C1479.2,1616.6,1429.5,1612.6,1429.5,1612.6z"/>
	<path d="M1005.7,2110l21.9-7.1c3.2-1,6.6-0.6,9.5,1c2.9,1.7,4.9,4.5,5.6,7.7l2.4,11.3c0.2,0.9,0.9,1.7,1.8,2
		c0.9,0.3,1.9,0.1,2.6-0.5l27.9-24.5c2.5-2.2,5.8-3.3,9.1-3c3.3,0.3,6.3,1.9,8.3,4.5c9.7,12.3,22.7,32.2,32.6,59.8l-129.3-27.9
		C1001.8,2121.5,1004.7,2113.1,1005.7,2110z"/>
	<path d="M1002.7,2105.3l23.2-7.5c4.6-1.5,9.7-0.9,13.8,1.5c4.2,2.4,7.2,6.5,8.2,11.3l1.5,6.8l24.4-21.5c3.6-3.2,8.3-4.7,13.2-4.3
		c4.8,0.4,9.1,2.8,12.1,6.5c10.4,13.1,24.2,34.5,34.5,64.5l-6.2-1.3c-9.9-27.7-22.8-47.5-32.6-59.8c-2.1-2.6-5-4.2-8.3-4.5
		c-3.3-0.3-6.6,0.8-9.1,3l-27.9,24.5c-0.7,0.6-1.7,0.8-2.6,0.5c-0.9-0.3-1.6-1.1-1.8-2l-2.4-11.3c-0.7-3.2-2.7-6-5.6-7.7
		c-2.9-1.7-6.3-2-9.5-1l-21.9,7.1c-1,3.1-3.9,11.5-7.6,23.3l-5.4-1.2c4.5-14.3,7.8-23.7,8.3-25.2
		C1001.3,2106.1,1001.9,2105.5,1002.7,2105.3z"/>
	<path d="M1121.7,1506.1c1.1,0,2.2-0.7,2.6-1.8c13-37.4,24.9-62.7,35.4-75c15.6-18.3,65.3-35.5,146.3-51c1.9,4.1,3.9,8.3,5.7,12.5
		c0.5,1,1.4,1.6,2.5,1.6c0.4,0,0.7-0.1,1.1-0.2c1.4-0.6,2-2.2,1.4-3.6c-1.7-3.8-3.4-7.6-5.2-11.3c44.1-8.2,97.2-16,158.8-23.1
		c1.5-0.2,2.6-1.5,2.4-3c-0.2-1.5-1.5-2.5-3-2.4c-62.6,7.2-116.2,15-160.6,23.3c-0.2-0.4-0.4-0.7-0.5-1.1
		c118.1-22.7,273.8-33.2,365.3-37.8c8.7,7.7,18,15.5,27.9,23.3l38.2,94.2l-592.3,154.4c0,0-15.5-24.4-38.5-62.7
		c3.9-12.9,7.9-25.1,11.8-36.4C1121.2,1506.1,1121.4,1506.1,1121.7,1506.1z"/>
	<path d="M1221.5,1392.8c23.3-7.8,51.1-14.6,81.6-20.6c0.2,0.4,0.3,0.7,0.5,1.1C1271.1,1379.5,1243.7,1386,1221.5,1392.8z"/>
	<path d="M1316.7,1388.6c0.6,1.4,0,3-1.4,3.6c-0.4,0.2-0.7,0.2-1.1,0.2c-1,0-2-0.6-2.5-1.6c-1.9-4.2-3.8-8.4-5.7-12.5
		c1.8-0.3,3.7-0.7,5.5-1C1313.3,1381.1,1315,1384.8,1316.7,1388.6z"/>
	<path d="M1303.6,1373.2c-0.2-0.4-0.3-0.7-0.5-1.1c1.8-0.4,3.7-0.7,5.5-1.1c0.2,0.4,0.4,0.7,0.5,1.1
		C1307.2,1372.5,1305.4,1372.9,1303.6,1373.2z"/>
	<g>
		<path d="M1190.1,1197.8c1.8,2.2,3.6,4.4,5.4,6.7v197.3c-1.9,0.7-3.7,1.5-5.4,2.2V1197.8z"/>
		<path d="M1190.1,1189.3V827.6h5.4v368.3C1193.7,1193.6,1191.8,1191.4,1190.1,1189.3z"/>
		<path d="M1190.1,1526v-116.1c1.8-0.8,3.5-1.5,5.4-2.3v121.1c0,1.5-1.2,2.7-2.7,2.7H1007v-5.4H1190.1z"/>
	</g>
	<path d="M1388.2,902.3c-7.5-11.4-23-14.2-34-6.2c-10.2,7.4-12.8,21.5-6,32.2l108.4,169c-2.3-0.5-3.6-0.8-3.7-0.9c0,0,0,0-0.1,0
		l-106.9-166.7c-7.6-11.8-4.6-27.5,6.7-35.8c5.9-4.3,13.2-6,20.4-4.7c7.2,1.3,13.4,5.4,17.5,11.6c47.2,72,101,154.2,128.7,197.3
		c-0.9,0.2-1.9,0.4-2.8,0.6C1483.6,1047.9,1417,946.2,1388.2,902.3z"/>
	<path d="M1385.9,903.8c-3.2-4.9-8.1-8.2-13.9-9.2c-5.8-1-11.5,0.3-16.3,3.7c-9,6.6-11.4,19.1-5.3,28.5l109.8,171.2
		c-1.4-0.3-2.7-0.5-3.7-0.7l-108.4-169c-6.8-10.6-4.2-24.7,6-32.2c11-8.1,26.5-5.3,34,6.2c28.8,43.9,95.4,145.6,128.2,196.5
		c-1,0.2-1.9,0.4-2.9,0.5C1489.9,1062.7,1445.7,994.9,1385.9,903.8z"/>
	<path d="M2106.2,1342.2c-0.4-0.5-0.8-1-1.2-1.5c12.8-40.5,24.3-107.6,11.6-204.4c-20-153.1-65.4-241.6-115.7-275
		c0.3-0.5,0.5-1,0.5-1.5c0-0.9-0.5-1.7-1.2-2.2l-1.5-1c58.3,35.1,101.8,134.9,120.7,279.3c12.9,98.5,0.6,166.9-12.6,207.7
		C2106.7,1343.2,2106.5,1342.7,2106.2,1342.2z"/>
	<path d="M1830.4,874.4c-75.8,37.4-152.6,117.2-167.1,270.3c-0.9-0.4-1.7-0.9-2.6-1.4c13.9-143.2,81.9-216.9,137.7-253.7
		c12.8-8.5,25.9-15.6,39-21.5C1834.9,870,1832.6,872.1,1830.4,874.4z"/>
	<path d="M1801.4,894.1c-55,36.3-122.2,109.3-135.5,251.8c-0.9-0.4-1.7-0.9-2.6-1.3c14.5-153.1,91.3-232.8,167.1-270.3
		c-1.8,1.8-3.5,3.7-5.1,5.7C1817.3,884.2,1809.3,888.9,1801.4,894.1z"/>
	<path d="M2113.9,1136.7c-10.8-82.4-29.3-149.6-54.9-199.7c-17.5-34.2-38.1-59.3-60.3-73.8c0.5-0.4,1-0.8,1.5-1.1
		c0.3-0.2,0.5-0.4,0.6-0.7c50.3,33.4,95.7,121.9,115.7,275c12.7,96.8,1.1,163.9-11.6,204.4c-0.7-0.9-1.4-1.8-2.1-2.6
		C2115.3,1297.6,2126.3,1231.4,2113.9,1136.7z"/>
	<path d="M1924.7,1098.9c0.1-1.5,1.4-2.6,2.9-2.5c1.5,0.1,2.6,1.4,2.5,2.9l-9.7,137.4c-1.8-0.6-3.5-1.2-5.3-1.8L1924.7,1098.9z"/>
	<path d="M1610.8,1112.6c-14.1-13.3-50.9-24.2-84.8-13.5c-1.7,0.5-3.5,1-5.3,1.5c-0.5-0.8-1-1.6-1.5-2.4c2-0.5,4-1,6-1.6
		c33.5-10.6,71.5-0.9,87.5,14.1c12.7,11.9,29,22.7,48.1,32.7c-0.1,1-0.2,1.9-0.3,2.9C1640.8,1135.9,1623.9,1124.8,1610.8,1112.6z"/>
	<path d="M1452.1,1099.1c-0.2,4.1-0.1,8,0.4,11.8c-0.6,0.1-1.1,0.3-1.5,0.7c-1.1,1-1.1,2.8,0,3.8c0.2,0.2,1,1,2.7,2.3
		c1.8,7.9,4.9,15.2,9,21.8c-0.1,0.1-0.2,0.1-0.3,0.2c-1.1,1-1.2,2.7-0.3,3.8c0,0,0.1,0.1,0.1,0.1c-0.1,0-0.2-0.1-0.3-0.1
		c-8.3-12.5-13.3-27.3-12.4-44.6c0-0.8,0.5-1.6,1.1-2.1c0.6-0.5,1.5-0.6,2.2-0.4l2.1,3.3C1453.1,1099.3,1452.1,1099.1,1452.1,1099.1
		z"/>
	<path d="M1470.1,1149.8c32.5,38.2,97.2,52.1,97.2,52.1s37.4,66.6,110.3,131.2c-1.3,0.1-2.5,0.1-3.8,0.2
		c-10.8-9.7-20.7-19.2-29.4-28.2c-47.7-49-74.5-93.5-78.8-100.8c-10.2-2.3-75.9-18.8-103.8-60.7c0.1,0,0.2,0.1,0.3,0.1
		C1462.6,1144.3,1465.1,1146.8,1470.1,1149.8z"/>
	<path d="M1701.7,1356.6l-2-4.9c47.4,37.7,107.2,72.4,179.2,89.7c16.7,4,32.2,6.7,46.6,8.3c-0.1,0.9-0.2,1.8-0.4,2.7
		c-14.9-1.7-30.5-4.4-46.9-8.4C1806.8,1426.9,1747.5,1392.4,1701.7,1356.6z"/>
	<path d="M1677.6,1333.1c7,6.2,14.4,12.5,22.1,18.6l2,4.9c-9.9-7.8-19.3-15.6-27.9-23.3C1675.1,1333.3,1676.4,1333.2,1677.6,1333.1z
		"/>
	<path d="M1462.3,1101.2l-2-3.1c10.9,2.1,32.3,4.9,53.3,1.2c0.5,0.8,1.1,1.7,1.6,2.5C1494.8,1105.6,1474.1,1103.3,1462.3,1101.2z"/>
	<path d="M1518,1101.2c-0.5-0.8-1-1.6-1.6-2.4c0.9-0.2,1.9-0.4,2.8-0.6c0.5,0.8,1,1.6,1.5,2.4
		C1519.8,1100.8,1518.9,1101,1518,1101.2z"/>
	<path d="M1456.5,1097.3l2.1,3.2c-1.5-0.3-2.7-0.6-3.7-0.8l-2.1-3.3c0,0,0,0,0.1,0C1452.9,1096.5,1454.2,1096.8,1456.5,1097.3z"/>
	<path d="M1513.5,1099.3c1-0.2,1.9-0.4,2.9-0.5c0.5,0.8,1.1,1.6,1.6,2.4c-0.9,0.2-1.9,0.4-2.8,0.6
		C1514.6,1101,1514.1,1100.1,1513.5,1099.3z"/>
	<path d="M1462.3,1101.2c-1.3-0.2-2.6-0.5-3.7-0.7l-2.1-3.2c1,0.2,2.3,0.5,3.7,0.7L1462.3,1101.2z"/>
	<path d="M1920.2,1239.5l0.2-2.8c76.7,26.8,146.1,57.5,182.5,101.4c-0.3,1-0.6,2.1-1,3.1C2066.3,1297.2,1997,1266.4,1920.2,1239.5z"
		/>
	<path d="M1915,1234.9l-0.2,2.8c-87-30.1-182.8-55.4-249.2-88.8c0.1-1,0.2-1.9,0.3-2.9c46,23.3,106.5,42.6,169.4,62.7
		C1862,1217.2,1888.9,1225.8,1915,1234.9z"/>
	<path d="M1663.1,1147.5c-0.9-0.4-1.7-0.9-2.6-1.4c0.1-1,0.2-1.9,0.3-2.9c0.9,0.5,1.7,0.9,2.6,1.4
		C1663.2,1145.6,1663.1,1146.6,1663.1,1147.5z"/>
	<path d="M2084.4,1391.4c16.4-24.6,19.6-47.5,19.6-47.5c0.3-1,0.7-2.1,1-3.1c0.4,0.5,0.8,1,1.2,1.5c0.3,0.4,0.5,1,0.6,1.5
		c-10,31.1-20.6,46.3-20.8,46.6C2085.5,1390.9,2085,1391.2,2084.4,1391.4z"/>
	<path d="M2101.9,1341.2c0.3-1,0.6-2,1-3.1c0.7,0.9,1.4,1.8,2.1,2.6c-0.3,1.1-0.7,2.1-1,3.1v0
		C2103.3,1343,2102.6,1342.1,2101.9,1341.2z"/>
	<path d="M1665.7,1148.8c-0.9-0.4-1.8-0.9-2.6-1.3c0.1-1,0.2-1.9,0.3-2.9c0.9,0.4,1.7,0.9,2.6,1.3
		C1665.8,1146.9,1665.8,1147.9,1665.7,1148.8z"/>
	<path d="M1915,1234.9c1.8,0.6,3.5,1.2,5.3,1.8l-0.2,2.8c-1.8-0.6-3.5-1.2-5.3-1.8L1915,1234.9z"/>
	<path d="M1609,1114.5c-13-12.2-48.7-23.4-82.1-12.9c-1.5,0.5-3,0.9-4.5,1.3c-0.5-0.8-1-1.6-1.5-2.4c1.8-0.4,3.5-0.9,5.3-1.5
		c33.9-10.7,70.7,0.2,84.8,13.5c13,12.2,29.9,23.3,49.6,33.6c-0.1,1-0.2,2-0.3,3C1639.9,1138.6,1622.5,1127.2,1609,1114.5z"/>
	<path d="M1454.7,1102.5c0,3.3,0.2,6.6,0.7,9.7c-0.4-0.3-0.6-0.5-0.6-0.6c-0.6-0.6-1.5-0.9-2.3-0.8c-0.4-3.8-0.6-7.7-0.4-11.8
		c0,0,1,0.3,2.7,0.7l2.1,3.2C1456.1,1102.8,1455.4,1102.6,1454.7,1102.5z"/>
	<path d="M1466.6,1140.5c-0.3-0.3-0.4-0.4-0.4-0.4c-0.9-1-2.4-1.2-3.5-0.5c-4.1-6.6-7.2-13.9-9-21.8c0.9,0.7,2,1.4,3.4,2.3
		C1459.1,1127.5,1462.4,1134.3,1466.6,1140.5z"/>
	<path d="M1567.9,1199.3c0.8,0.2,1.4,0.6,1.8,1.3c0.6,1.1,38.9,68.1,112.2,132.3c-1.4,0.1-2.8,0.1-4.3,0.2
		c-72.9-64.6-110.3-131.2-110.3-131.2s-64.8-13.8-97.2-52.1c2,1.2,4.5,2.5,7.4,3.9C1510.4,1186.5,1567.1,1199.1,1567.9,1199.3z"/>
	<path d="M1879.6,1438.8c16.2,3.9,31.6,6.6,46.3,8.2c-0.1,0.9-0.2,1.8-0.4,2.7c-14.4-1.6-29.9-4.3-46.6-8.3
		c-72-17.2-131.8-51.9-179.2-89.7l-2.3-5.6C1745.3,1385,1806.2,1421.2,1879.6,1438.8z"/>
	<path d="M1681.9,1332.9c5,4.4,10.2,8.8,15.6,13.2l2.3,5.6c-7.7-6.1-15.1-12.4-22.1-18.6C1679.1,1333.1,1680.5,1333,1681.9,1332.9z"
		/>
	<path d="M1464.3,1104.3l-2-3.1c11.9,2.1,32.6,4.4,52.8,0.6c0.5,0.8,1.1,1.7,1.6,2.5C1496.9,1108.2,1476.8,1106.3,1464.3,1104.3z"/>
	<path d="M1457,1103l-2.1-3.2c1,0.2,2.3,0.5,3.7,0.8l2,3.2C1459.3,1103.4,1458,1103.2,1457,1103z"/>
	<path d="M1519.5,1103.6c-0.5-0.8-1-1.6-1.6-2.4c0.9-0.2,1.9-0.4,2.8-0.6c0.5,0.8,1,1.6,1.5,2.4
		C1521.4,1103.2,1520.4,1103.4,1519.5,1103.6z"/>
	<path d="M1516.7,1104.2c-0.5-0.8-1-1.6-1.6-2.5c1-0.2,1.9-0.4,2.8-0.6c0.5,0.8,1.1,1.6,1.6,2.4
		C1518.6,1103.8,1517.6,1104,1516.7,1104.2z"/>
	<path d="M1464.3,1104.3c-1.3-0.2-2.5-0.4-3.6-0.6l-2-3.2c1.1,0.2,2.3,0.4,3.7,0.7L1464.3,1104.3z"/>
	<path d="M1920,1242.3l0.2-2.8c76.8,26.9,146.2,57.7,181.7,101.7c-0.3,1-0.7,2.1-1,3.1C2066.2,1300.2,1997,1269.3,1920,1242.3z"/>
	<path d="M1914.7,1240.5c-26.5-9.2-53.9-17.9-81-26.6c-62.2-19.9-122.1-39-168.2-62.1c0.1-1,0.2-2,0.3-2.9
		c66.4,33.5,162.1,58.7,249.2,88.8L1914.7,1240.5z"/>
	<path d="M2082.4,1391.2l-0.9-0.5c0.5-0.8,1-1.5,1.5-2.3l0.7,0.4c0,0,10.3-14.5,20.3-44.9c0,0-3.2,22.9-19.6,47.5
		c-0.2,0.1-0.5,0.1-0.7,0.1C2083.3,1391.5,2082.8,1391.4,2082.4,1391.2z"/>
	<path d="M1660.2,1149.1c0.1-1,0.2-2,0.3-3c0.9,0.5,1.7,0.9,2.6,1.4c-0.1,1-0.2,2-0.2,3C1661.9,1150,1661.1,1149.6,1660.2,1149.1z"
		/>
	<path d="M1665.4,1151.8c-0.9-0.4-1.7-0.9-2.6-1.3c0.1-1,0.2-2,0.2-3c0.9,0.4,1.7,0.9,2.6,1.3
		C1665.6,1149.8,1665.5,1150.8,1665.4,1151.8z"/>
	<path d="M2083.1,1388.4c13.1-20.3,17.2-39.1,18.1-43.8c-0.1-0.1-0.2-0.2-0.2-0.3c0.3-1,0.7-2,1-3.1c0.7,0.9,1.4,1.8,2.1,2.7v0
		c-10,30.4-20.3,44.9-20.3,44.9L2083.1,1388.4z"/>
	<path d="M1920.2,1239.5l-0.2,2.8c-1.8-0.6-3.5-1.2-5.3-1.8l0.2-2.8C1916.6,1238.3,1918.4,1238.9,1920.2,1239.5z"/>
	<path d="M1472.5,1127.2c-7-2.4-12-5-15.5-7.2c-0.7-2.5-1.3-5.2-1.7-7.9c1.4,1.2,5.2,4,12,7.1L1472.5,1127.2z"/>
	<path d="M1537.5,1130.3c0.3,0.4,0.5,0.9,0.5,1.5c0.1,1.5-1.1,2.8-2.6,2.8c-3.6,0.1-7,0.2-10.3,0.2c-4,0-7.8-0.1-11.4-0.3l21.9-3.1
		C1536.4,1131.4,1537,1131,1537.5,1130.3z"/>
	<path d="M1480.5,1129.7l-4.6-7.1c9,3,21.3,5.6,37.6,6.5l-21.7,3.1C1487.7,1131.4,1484,1130.6,1480.5,1129.7z"/>
	<path d="M1531.4,1129.3c1.3,0,2.5-0.1,3.8-0.1c1,0,1.8,0.4,2.3,1.1c-0.4,0.6-1.1,1-1.8,1.1l-21.9,3.1c-4.4-0.2-8.5-0.6-12.3-1
		L1531.4,1129.3z"/>
	<path d="M1471.8,1121.1l4.8,7.4c-1.4-0.4-2.8-0.9-4.1-1.3l-5.1-7.9C1468.8,1119.9,1470.2,1120.5,1471.8,1121.1z"/>
	<path d="M1491.9,1132.2l21.7-3.1c5.5,0.3,11.4,0.4,17.8,0.2l-29.9,4.2C1498,1133.2,1494.9,1132.7,1491.9,1132.2z"/>
	<path d="M1476.6,1128.6l-4.8-7.4c1.3,0.5,2.7,1,4.2,1.5l4.6,7.1C1479.2,1129.3,1477.8,1128.9,1476.6,1128.6z"/>
	<path d="M1450.9,1115.4c-1-1.1-1-2.8,0-3.8c0.4-0.4,1-0.7,1.5-0.7c0.3,2.3,0.7,4.6,1.2,6.9
		C1452,1116.5,1451.1,1115.6,1450.9,1115.4z"/>
	<path d="M1454.8,1111.7c0,0,0.2,0.2,0.6,0.6c0.4,2.7,1,5.3,1.7,7.9c-1.4-0.9-2.5-1.6-3.4-2.3c-0.5-2.2-0.9-4.5-1.2-6.9
		C1453.3,1110.8,1454.2,1111,1454.8,1111.7z"/>
	<path d="M1535.2,1157.8c1.5,0,2.7,1.2,2.8,2.7c0,1.5-1.2,2.7-2.7,2.8c-1.4,0-2.7,0-4,0c-9.7,0-18.2-0.7-25.5-1.7
		c-10.9-4.5-22.2-9.1-33.7-13.8c-2-2.3-3.8-4.7-5.5-7.2C1469.5,1143.3,1487.6,1158.6,1535.2,1157.8z"/>
	<path d="M1477.6,1153.7c-1.9-1.9-3.8-3.9-5.5-6c11.5,4.7,22.8,9.3,33.7,13.8C1493.5,1159.7,1484.3,1156.7,1477.6,1153.7z"/>
	<path d="M1462.1,1143.7C1462.1,1143.7,1462.1,1143.6,1462.1,1143.7c-1.1-1.2-1-2.9,0.2-3.9c0.1-0.1,0.2-0.2,0.3-0.2
		c1.3,2.1,2.6,4.1,4.1,6C1465.2,1144.9,1463.7,1144.3,1462.1,1143.7z"/>
	<path d="M1470.1,1149.8c-5.1-3.1-7.5-5.6-8-6.1c1.5,0.6,3.1,1.2,4.6,1.8C1467.8,1147,1468.9,1148.4,1470.1,1149.8z"/>
	<path d="M1466.1,1140c0,0,0.2,0.2,0.4,0.4c1.7,2.5,3.5,4.9,5.5,7.2c-1.8-0.7-3.5-1.4-5.3-2.2c-1.5-1.9-2.8-3.9-4.1-6
		C1463.7,1138.8,1465.2,1139,1466.1,1140z"/>
	<path d="M1472,1147.7c1.7,2.1,3.6,4.1,5.5,6c-2.9-1.3-5.4-2.6-7.4-3.9c-1.2-1.4-2.3-2.8-3.4-4.3
		C1468.5,1146.3,1470.3,1147,1472,1147.7z"/>
	<path d="M1847.3,863.8c-3.3,1.4-6.6,2.8-10,4.3c2.1-1.7,4.3-3.3,6.6-4.8l-3.7-6.4c0.8-0.4,1.7-0.7,2.5-1.1
		C1844.2,858.4,1845.8,861.1,1847.3,863.8z"/>
	<path d="M1953.5,829.6c0,0-30.3-51.7-50.1-85.8c0.9-0.2,1.9-0.4,2.8-0.7c18.7,32,46.2,79,49.4,84.5l43.2,29
		c-5.6-3.4-11.3-6.1-17.2-8.3L1953.5,829.6z"/>
	<path d="M1847.4,913.7c-11.6,0-23.3-0.8-35-2.4c-0.8-0.1-1.5-0.6-1.9-1.2c-0.4-0.7-0.5-1.5-0.3-2.3c2.4-7.7,6-15,10.5-21.6
		c1.4-2.1,3-4.1,4.6-6.1c2.2-1.2,4.5-2.3,6.7-3.4c-3.1,3.1-6.2,6.8-9.1,11c-5.3,7.8-8.3,15.2-10.2,20.9c20.9,2.9,56.5,5.2,98.6-6
		c39.3-10.4,67.9-28.3,85-40.9c0.8,0.5,1.6,1,2.4,1.5c-26.1,19.5-55.2,33.6-86.7,42C1890.8,910.8,1869.1,913.7,1847.4,913.7z"/>
	<path d="M1847.6,864.2c-2.4,1.5-5.4,3.5-8.6,6.1c-2.8,1.3-5.7,2.6-8.5,4c2.2-2.2,4.5-4.3,6.9-6.3c3.3-1.5,6.7-3,10-4.3
		C1847.4,863.9,1847.5,864.1,1847.6,864.2z"/>
	<path d="M2001.4,859.9c0,0.6-0.2,1.1-0.5,1.5c-0.8-0.5-1.5-1-2.3-1.5c0,0,0,0,0,0l-17.1-11.5c5.9,2.2,11.6,4.9,17.2,8.3l1.5,1
		C2000.9,858.2,2001.3,859,2001.4,859.9z"/>
	<path d="M1832,876.6c-2.2,1.1-4.5,2.2-6.7,3.4c1.6-2,3.3-3.9,5.1-5.7c2.8-1.4,5.7-2.8,8.5-4C1836.7,872.1,1834.4,874.2,1832,876.6z
		"/>
	<path d="M2000.3,862.1c-0.5,0.4-1,0.8-1.5,1.1c-0.8-0.5-1.6-1-2.4-1.5c0.8-0.6,1.6-1.2,2.3-1.8c0.8,0.5,1.5,1,2.3,1.5
		C2000.7,861.7,2000.5,861.9,2000.3,862.1z"/>
	<path d="M1849.9,862.7c-0.8,0.3-1.7,0.7-2.5,1c-1.6-2.7-3.1-5.3-4.7-8c0.8-0.4,1.7-0.8,2.5-1.1L1849.9,862.7z"/>
	<path d="M1980.4,848c0.4,0.1,0.7,0.3,1,0.4l-28-18.8c0,0-30.3-51.7-50.1-85.8c-0.9,0.2-1.9,0.3-2.9,0.5
		c19.3,33,48.8,83.5,50.7,86.6c0.2,0.4,0.5,0.7,0.8,0.9l20.9,14.1C1975.6,846.5,1978.2,847.2,1980.4,848z M1953.5,829.6
		L1953.5,829.6L1953.5,829.6z"/>
	<path d="M1812.8,908.5c1.8-5.7,4.9-13.1,10.2-20.9c2.9-4.3,6-7.9,9.1-11c2.8-1.4,5.6-2.7,8.4-4c-5.9,4.8-11,10.3-15.2,16.5
		c-3.6,5.3-6.6,11.1-8.8,17.1c31.7,4,63.3,1.8,94.2-6.3c30.1-8,58.1-21.4,83.1-39.8c0.8,0.5,1.7,1,2.5,1.5
		c-17,12.6-45.6,30.5-85,40.9C1869.3,913.7,1833.7,911.4,1812.8,908.5z"/>
	<path d="M1972.9,845.9c2.8,0.6,5.3,1.3,7.6,2.1c0.4,0.1,0.7,0.3,1,0.4l17.1,11.5c0,0,0,0,0,0c-6.1-3.8-12.2-6.9-18.4-9.1
		L1972.9,845.9z"/>
	<path d="M1849.9,862.8c0.5,0.9,0.5,2,0,2.8c-3.6,1.5-7.3,3-10.9,4.7c3.2-2.6,6.2-4.6,8.6-6.1c-0.1-0.1-0.2-0.3-0.2-0.4
		C1848.2,863.4,1849,863.1,1849.9,862.8L1849.9,862.8z"/>
	<path d="M1849,866.5c-3,1.9-5.9,3.9-8.6,6.1c-2.8,1.3-5.6,2.6-8.4,4c2.4-2.4,4.7-4.5,6.9-6.3c3.7-1.7,7.3-3.2,10.9-4.7
		C1849.7,866,1849.4,866.3,1849,866.5z"/>
	<path d="M1993.8,860.2c0.1,0,0.1-0.1,0.2-0.1l-13.7-9.2c6.2,2.2,12.3,5.3,18.4,9.1c-0.8,0.6-1.5,1.2-2.3,1.8
		C1995.5,861.2,1994.6,860.7,1993.8,860.2z"/>
	<path d="M1771.1,813.3c0.7,0.5,1.5,0.6,2.3,0.4c11.8-3.4,23.2-7.4,34.3-12.5l32.5,55.7c-14,6-32.1,11-55.4,13.9
		c-3.5-10.3-12-30.6-17.6-50.5c-1.2-4.3-2.2-8.4-3.2-12.3L1771.1,813.3L1771.1,813.3z"/>
	<path d="M1888.8,713.5c0.5,0.9,7.7,13.3,17.3,29.7c3.8-1.1,7.1-3,9.5-6.6c8.6-12.7-6.7-28.5-17.7-64.8
		c-15.7-51.7-1.5-74.7-20.8-89.5c-15.2-11.6-38.1-8.1-50.9-3.1c-19.4,7.6-20.9,20.8-37,34.7c-35.3,30.4-70.9,4.5-101.1,29.3
		c-31,25.5-33.1,85.3-14.7,97.2c14.8,9.6,37.2-15.3,58.1-16.7c-1.9-6.9-4-13.7-6.7-20.3l-0.1-0.2c-0.3-0.8-0.2-1.8,0.5-2.6
		c5.6-6.3,11.8-11.3,18.7-15.7c6.8-4.4,14.1-8,21.8-10.5c7.7-2.5,15.7-4.3,23.7-4.7c4-0.5,8.1-0.2,12.1-0.1c1.8-0.1,4.5,0.4,6.9,0.8
		c2.5,0.5,4.8,1.1,7,1.7c-1.5,6.4-3.4,13.1-5.5,19.6c4.9,12.3,9.7,24.5,14.2,36.9c4,11.1,8,22.1,11.1,33.6l49.1-49.5
		c0.6-0.6,1.5-0.9,2.3-0.8C1887.6,712.2,1888.4,712.7,1888.8,713.5z M1862.5,719.8c-3.2,4-8.9,8.2-19.1,8.2c-2.5,0-5.2-0.3-8.3-0.8
		c-1.1-0.2-2-1.1-2.2-2.3c-0.2-1.2-3.9-29.1,6-39.6c2.9-3,6.5-4.4,10.8-4.1c6.4,0.5,12.1,5,15.2,12.1
		C1868.2,700.8,1868.7,711.9,1862.5,719.8z"/>
	<path d="M1876.2,753.4c-13.6,17.3,11.2,44.3,3.5,68.7c-3.2,9.9-13.4,22.4-34.5,32.5l-32.5-55.9c5.8-3,11.6-6.3,16.7-10.8
		c2.7-2.4,5.2-5.1,6.9-8.8c0.9-1.8,1.3-3.9,1.4-6c-0.1-1-0.1-2.2-0.4-3l-0.4-1.7l48.9-49.3c2.7,4.6,8.1,13.8,14.6,25.1
		C1891.9,745.6,1882.4,745.6,1876.2,753.4z"/>
	<path d="M1810.2,800c10.8,18.6,21.7,37.2,32.5,55.8c-0.8,0.4-1.7,0.7-2.5,1.1l-32.5-55.7C1808.6,800.8,1809.4,800.4,1810.2,800z"/>
	<path d="M1886.4,714.8l-50.2,50.7c-0.3-1-0.5-2-0.8-3l49.1-49.5c0.6-0.6,1.5-0.9,2.3-0.8c0.8,0.1,1.6,0.6,2,1.4
		c0.5,0.9,7.7,13.3,17.3,29.7c-0.9,0.3-1.8,0.5-2.8,0.7C1894,727.8,1886.9,715.7,1886.4,714.8z"/>
	<path d="M1885.8,719.2l-48.9,49.3l-0.2-0.8c-0.2-0.8-0.4-1.5-0.6-2.2l50.2-50.7c0.5,0.9,7.6,13,16.9,29c-0.9,0.2-1.9,0.3-2.9,0.5
		C1893.9,733,1888.5,723.8,1885.8,719.2z"/>
	<path d="M1812.6,798.8l32.5,55.9c-0.8,0.4-1.6,0.8-2.5,1.1c-10.8-18.6-21.7-37.2-32.5-55.8c0.5-0.2,1-0.5,1.5-0.7
		C1812,799.1,1812.3,798.9,1812.6,798.8z"/>
	<path d="M1734.2,723.7c8.8,34.5,9.5,73.2,9.6,82.3l-0.5,0.1l0.5,0.4c0,1,0,1.5,0,1.5l1.4-0.4l0.5,0.4c0-0.2,0-0.3,0-0.5l16.6-4.2
		l0.8,0.6c0.3,1.3,0.6,2.7,1,4.1l-2.4-1.8l1.3-0.3l-2.3-0.5l1,0.7l-17.4,3.6c-0.1,0-0.3,0-0.4,0.1c-1.1,0-1.9-0.8-1.9-1.9
		c-0.1-8.8-0.5-17.8-1.2-26.6c-0.7-8.9-1.7-17.7-2.9-26.5c-1.3-8.8-2.9-17.5-5-26.1c-0.4-1.6-0.8-3.2-1.3-4.9
		C1732.4,723.7,1733.3,723.7,1734.2,723.7z"/>
	<path d="M1745.6,808l-0.5-0.4l0.5-0.1C1745.6,807.7,1745.6,807.8,1745.6,808z"/>
	<path d="M1743.3,806.1l0.5-0.1c0,0.2,0,0.3,0,0.5L1743.3,806.1z"/>
	<polygon points="1762.9,806 1761.6,806.2 1760.7,805.5 	"/>
	<path d="M1809.7,691c0.1,0.3,0.2,0.6,0.4,0.9c-0.1,0.3-0.2,0.6-0.3,1L1809.7,691z"/>
	<path d="M1772.7,811.1c0,0,17.3-4.7,33.7-12.2l1.4,2.3c-11.1,5.1-22.6,9.1-34.3,12.5c-0.8,0.2-1.6,0.1-2.3-0.4l0,0l-7.1-5.2
		c-0.3-1.4-0.7-2.8-1-4.1L1772.7,811.1z"/>
	<path d="M1724.8,703.3c-0.3-0.8-0.2-1.8,0.5-2.6c5.6-6.3,11.8-11.3,18.7-15.7c6.8-4.4,14.1-8,21.8-10.5c7.7-2.5,15.7-4.3,23.7-4.7
		c4-0.5,8.1-0.2,12.1-0.1c1.8-0.1,4.5,0.4,6.9,0.8c2.5,0.5,4.8,1.1,7,1.7c-1.5,6.4-3.4,13.1-5.5,19.6c-0.1-0.3-0.2-0.6-0.4-0.9
		l0.1,1.9c0.1-0.3,0.2-0.6,0.3-1c4.9,12.3,9.7,24.5,14.2,36.9c4,11.1,8,22.1,11.1,33.6l-2.2,2.2c-6.7-24.9-26.1-72.6-26.1-72.6
		l6-18.3c-54.5-9.3-85.8,28.7-85.8,28.7c2.7,6.7,4.9,13.9,6.8,21.3c-0.9,0-1.8,0-2.7,0c-1.9-6.9-4-13.7-6.7-20.3L1724.8,703.3z"/>
	<path d="M1837.7,773.3c-0.1,2.1-0.5,4.2-1.4,6c-1.7,3.6-4.3,6.4-6.9,8.8c-5.2,4.5-10.9,7.8-16.7,10.8l-1.4-2.3
		c13.7-6.9,25.4-15.7,23.5-25.2c0-0.1-0.1-0.3-0.1-0.5l2.3-2.3l0.4,1.7C1837.6,771,1837.6,772.3,1837.7,773.3z"/>
	<path d="M1833.2,764.6l2.2-2.2c0.3,1,0.5,2,0.8,3l-2.2,2.2C1833.8,766.7,1833.5,765.6,1833.2,764.6z"/>
	<path d="M1810.2,800c-0.8,0.4-1.6,0.8-2.5,1.2l-1.4-2.3c0.8-0.4,1.6-0.8,2.5-1.2C1809.3,798.4,1809.7,799.2,1810.2,800z"/>
	<path d="M1811.3,796.5l1.4,2.3c-0.3,0.2-0.6,0.3-0.9,0.5c-0.5,0.3-1,0.5-1.5,0.7c-0.5-0.8-0.9-1.6-1.4-2.3
		C1809.7,797.3,1810.5,796.9,1811.3,796.5z"/>
	<path d="M1837,768.5l-2.3,2.3c-0.2-1-0.4-2-0.7-3.1l2.2-2.2c0.2,0.7,0.4,1.5,0.6,2.2L1837,768.5z"/>
	<path d="M1743.8,808c0,0,0-0.5,0-1.5l1.4,1.1L1743.8,808z"/>
	<path d="M1737.7,727.5c1.9,8.8,3.4,17.7,4.6,26.7c1.1,8.9,2,17.9,2.5,26.9c0.5,8.1,0.8,16.3,0.8,24.4l-1.9,0.6
		c-0.1-9-0.8-47.8-9.6-82.3c0.9,0,1.8,0.1,2.6,0.2C1737.1,725.1,1737.4,726.3,1737.7,727.5z"/>
	<path d="M1745.6,807.5l-0.5,0.1l-1.4-1.1c0-0.2,0-0.3,0-0.5l1.9-0.6C1745.6,806.1,1745.6,806.8,1745.6,807.5z"/>
	<path d="M1761.6,800.7c0.2-0.1,0.5-0.1,0.7-0.1c0.2,1.1,0.5,2.2,0.7,3.3l-0.8-0.6l-16.6,4.2c0-0.7,0-1.4,0-2.1L1761.6,800.7z"/>
	<path d="M1819.2,730.7c-4.6-12.6-9.5-25.2-14.5-37.7c-0.2-0.6-0.3-1.2-0.1-1.9c1.8-5.5,3.9-10.5,6.3-16c-1.7,0.1-3.3,0.3-4.7,0.3
		c-1.5,0.1-2.7-0.3-4.8-0.3c-3.8-0.1-7.7-0.3-11.5,0.1c-7.6,0.4-15.2,2.1-22.4,4.4c-7.3,2.4-14.2,5.7-20.6,9.9
		c-6,3.8-11.7,8.4-16.4,13.5c-0.2-0.5-0.4-1.1-0.6-1.6l-0.4,2.7c0.3-0.4,0.7-0.7,1-1.1c2.5,6.9,4.6,13.9,6.3,20.9
		c-0.9-0.1-1.8-0.2-2.6-0.2c-1.9-7.4-4.1-14.6-6.8-21.3c0,0,31.3-38,85.8-28.7l-6,18.3c0,0,19.4,47.6,26.1,72.6l-2.3,2.3
		C1827.8,754.7,1823.5,742.7,1819.2,730.7z"/>
	<path d="M1763.7,801l0.2,0.1l9.3,6.9c-0.4,0.1-0.8,0.2-1.2,0.4l2.3,0.4l-1.1-0.8c10.8-3.2,21.6-7,31.8-11.6l1.4,2.4
		c-16.4,7.5-33.7,12.2-33.7,12.2l-9.6-7.1c-0.3-1.1-0.5-2.2-0.7-3.3C1762.8,800.6,1763.3,800.7,1763.7,801z"/>
	<path d="M1772,808.4c0.4-0.1,0.8-0.2,1.2-0.4l1.1,0.8L1772,808.4z"/>
	<path d="M1729.9,701.4c0.2,0.5,0.4,1.1,0.6,1.6c-0.3,0.4-0.7,0.7-1,1.1L1729.9,701.4z"/>
	<path d="M1811.3,796.5l-0.7-1.3l2.9-2.9c4.4-2.4,8.7-5.1,12.3-8.3c2.4-2.1,4.4-4.4,5.6-6.9c0.6-1.2,0.8-2.5,0.9-3.8c0,0,0,0,0,0
		l2.4-2.5c0,0.2,0.1,0.3,0.1,0.5C1836.6,780.7,1825,789.6,1811.3,796.5z"/>
	<path d="M1807.5,795.3c0.5,0.8,0.9,1.6,1.4,2.4c-0.8,0.4-1.6,0.8-2.5,1.2l-1.4-2.4C1805.8,796.1,1806.6,795.7,1807.5,795.3z"/>
	<path d="M1831.7,769.9l-0.2-1.1c-0.2-0.7-0.4-1.4-0.5-2l2.3-2.3c0.3,1.1,0.5,2.1,0.8,3.1L1831.7,769.9z"/>
	<path d="M1813.4,792.3l-2.9,2.9l0.7,1.3c-0.8,0.4-1.6,0.8-2.4,1.2c-0.5-0.8-0.9-1.6-1.4-2.4c0.6-0.3,1.3-0.6,1.9-0.9
		C1810.7,793.7,1812.1,793,1813.4,792.3z"/>
	<path d="M1832,771.3l-0.3-1.3l2.3-2.3c0.3,1.1,0.5,2.2,0.7,3.1l-2.4,2.5C1832.2,772.6,1832.2,772.1,1832,771.3z"/>
	<path d="M2084.4,1391.4c0.6-0.2,1.1-0.5,1.5-1c0.2-0.3,10.8-15.5,20.8-46.6c0,0.2,0,0.4,0,0.5c-0.3,2.1-7.6,51.6-54.6,83.7
		c-20.7,14.2-45.7,22.6-74.7,25.3v-2.8C2035.4,1444.9,2067.2,1417.2,2084.4,1391.4z"/>
	<path d="M1972,1450.9v2.8c-5.1,0.3-10.3,0.5-15.6,0.5c-10,0-20.4-0.6-31.2-1.8c0.1-0.9,0.2-1.8,0.4-2.7
		C1942.6,1451.6,1958,1451.8,1972,1450.9z"/>
	<path d="M1977.4,1450.4v-2.7c27.8-2.7,51.7-10.7,71.5-24.2c14.4-9.8,24.9-21.5,32.6-32.9l0.9,0.5c0.4,0.2,0.9,0.3,1.3,0.3
		c0.2,0,0.5,0,0.7-0.1C2067.2,1417.2,2035.4,1444.9,1977.4,1450.4z"/>
	<path d="M1925.5,1449.7c0.1-0.9,0.2-1.8,0.4-2.7c16.3,1.8,31.7,2.2,46.1,1.2v2.7C1958,1451.8,1942.6,1451.6,1925.5,1449.7z"/>
	<path d="M1922,1598.8c27.5,0,50-22.4,50-50v-95.2c1.8-0.1,3.6-0.3,5.4-0.4v95.6c0,30.5-24.8,55.4-55.4,55.4H982.7
		c1.8-1.7,3.5-3.5,5.1-5.4H1922z"/>
	<path d="M1972,1450.9c1.8-0.1,3.6-0.3,5.4-0.5v2.8c-1.8,0.2-3.6,0.3-5.4,0.4V1450.9z"/>
	<path d="M1972,1450.9v-2.7c1.8-0.1,3.6-0.3,5.4-0.4v2.7C1975.6,1450.6,1973.8,1450.8,1972,1450.9z"/>
	<path d="M1972,874.5c1.8-1.1,3.6-2.2,5.4-3.3v6.3c-1.8,1.1-3.6,2.1-5.4,3.2V874.5z"/>
	<path d="M769.7,129.3H1922c30.5,0,55.4,24.8,55.4,55.4v664.2l-4.5-3l-0.9-0.6V184.7c0-27.5-22.4-50-50-50H769.7
		c-27.5,0-50,22.4-50,50V365l-5.4-1.6V184.7C714.3,154.2,739.1,129.3,769.7,129.3z"/>
	<path d="M1862.5,719.8c6.2-7.9,5.7-19,2.4-26.5c-3.1-7.1-8.8-11.7-15.2-12.1c-4.3-0.3-8,1.1-10.8,4.1c-9.8,10.5-6.1,38.4-6,39.6
		c0.2,1.2,1,2.1,2.2,2.3c3,0.6,5.8,0.8,8.3,0.8C1853.6,728,1859.3,723.8,1862.5,719.8z M1835.6,724.5L1835.6,724.5L1835.6,724.5
		L1835.6,724.5c0,0-5.8-42,13.9-40.6C1869.2,685.3,1874.4,731.7,1835.6,724.5z"/>
	<path d="M1849.5,683.9c-19.7-1.4-13.9,40.6-13.9,40.6h0h0h0C1874.4,731.7,1869.2,685.3,1849.5,683.9z M1858.2,716.4
		c-4,5.1-11,7.1-20.2,5.7c-0.9-8.5-1.4-26.6,4.8-33.2c1.5-1.6,3.4-2.4,5.7-2.4c0.2,0,0.5,0,0.7,0c4.4,0.3,8.3,3.6,10.6,8.9
		C1862.6,701.5,1863.1,710.3,1858.2,716.4z"/>
	<path d="M632.2,1617.8v57.7h1460.6v-57.7h-1129c1.7-0.9,3.3-1.7,4.9-2.7h1124.2c1.5,0,2.7,1.2,2.7,2.7v57.7c0,1.5-1.2,2.7-2.7,2.7
		H632.2c-1.5,0-2.7-1.2-2.7-2.7v-57.7c0-1.5,1.2-2.7,2.7-2.7H856c1.6,1,3.2,1.9,4.8,2.7H632.2z"/>
	<path d="M634.9,1620.5v52.3h1455.2v-52.3H957.9c2-0.8,3.9-1.7,5.8-2.7h1129v57.7H632.2v-57.7h228.7c1.9,1,3.9,1.9,5.9,2.7H634.9z"
		/>
	<path d="M769.8,1494.6c-0.3,0.9-0.6,1.8-0.9,2.8C769.2,1496.4,769.5,1495.5,769.8,1494.6z"/>
	<path d="M796.2,1513C796.2,1512.9,796.2,1512.9,796.2,1513c0,0.1,0.1,0.3,0.1,0.5C796.2,1513.3,796.2,1513.1,796.2,1513z"/>
	<path d="M1001.6,1439.5h-26.6c0-1.5-1.2-2.7-2.7-2.7h32C1002.8,1436.8,1001.6,1438,1001.6,1439.5z"/>
	<path d="M817.4,1442v-2.5c0-1.5,1.2-2.7,2.7-2.7h2.5C819.7,1436.8,817.4,1439.2,817.4,1442z"/>
	<path d="M767.4,1505.2c-0.1,0.6-0.1,1.1-0.2,1.7C767.2,1506.3,767.3,1505.8,767.4,1505.2z"/>
	<path d="M777.9,1485.2C777.8,1485.1,777.8,1485.1,777.9,1485.2c-1.4-0.9-3-0.5-3.8,0.7c-1.7,2.6-3.1,5.5-4.2,8.4
		c2.8-7.8,7.8-14.5,14.3-19.4v3.5C781.8,1480.5,779.7,1482.7,777.9,1485.2z"/>
	<path d="M794,1472.4C794,1472.5,794,1472.5,794,1472.4c-1.5,0.7-3,1.5-4.4,2.3v-3.1c1.9-1,4-1.9,6.1-2.6
		C794.2,1469.5,793.5,1471,794,1472.4z"/>
	<path d="M768.7,1497.9c-0.2,0.8-0.4,1.7-0.6,2.5C768.3,1499.5,768.5,1498.7,768.7,1497.9z"/>
	<path d="M767.9,1501.4c-0.1,0.7-0.3,1.5-0.4,2.2C767.7,1502.8,767.8,1502.1,767.9,1501.4z"/>
	<path d="M796.1,1511.3C796.1,1511.4,796.1,1511.4,796.1,1511.3C796.1,1511.4,796.1,1511.4,796.1,1511.3z"/>
	<path d="M789.6,1474.7c-1.9,1.1-3.7,2.4-5.4,3.8v-3.5c1.7-1.3,3.5-2.4,5.4-3.4V1474.7z"/>
	<path d="M790.6,1511.3c0-4.5,1.5-8.7,3.9-12.1C792,1502.7,790.6,1507,790.6,1511.3C790.6,1511.3,790.6,1511.3,790.6,1511.3z"/>
	<path d="M790.7,1511.7c0,0.6,0,1.2,0.1,1.8C790.7,1512.9,790.7,1512.3,790.7,1511.7z"/>
	<path d="M811,1490.6c-4.3,0-8.5,1.4-11.9,3.9C802.5,1492.1,806.6,1490.6,811,1490.6z"/>
	<path d="M795.9,1497.5c-0.5,0.5-0.9,1.1-1.3,1.7C795,1498.6,795.4,1498,795.9,1497.5z"/>
	<path d="M799.1,1494.6c-0.6,0.4-1.1,0.9-1.6,1.3C798,1495.4,798.5,1495,799.1,1494.6z"/>
	<path d="M796.5,1474.3c0.3,0,0.6,0,0.9-0.1c-2.8,0.9-5.4,2.2-7.8,3.7v-3.1c1.4-0.8,2.9-1.6,4.4-2.2
		C794.4,1473.6,795.4,1474.3,796.5,1474.3z"/>
	<path d="M797.4,1496c-0.5,0.5-1,0.9-1.4,1.5C796.4,1496.9,796.9,1496.4,797.4,1496z"/>
	<path d="M817.6,1490.6h2.5c1.5,0,2.7,1.2,2.7,2.7v2.5C822.8,1493,820.5,1490.6,817.6,1490.6z"/>
	<path d="M790.9,1514.6c0,0.3,0.1,0.6,0.1,0.9C791,1515.2,791,1514.9,790.9,1514.6z"/>
	<path d="M773.4,1501.5c-0.1,0.4-0.1,0.8-0.2,1.1C773.3,1502.3,773.3,1501.9,773.4,1501.5z"/>
	<path d="M776,1493.6c-0.1,0.1-0.1,0.3-0.2,0.4C775.9,1493.9,776,1493.7,776,1493.6z"/>
	<path d="M772.9,1504.4c-0.1,0.5-0.1,1.1-0.2,1.6C772.8,1505.4,772.8,1504.9,772.9,1504.4z"/>
	<path d="M822.8,1467v2.5c0,1.5-1.2,2.7-2.7,2.7h-2.5C820.5,1472.2,822.8,1469.9,822.8,1467z"/>
	<path d="M775,1496.1c-0.1,0.2-0.1,0.4-0.2,0.6C774.8,1496.5,774.9,1496.3,775,1496.1z"/>
	<path d="M774.1,1498.8c-0.1,0.3-0.1,0.6-0.2,0.8C774,1499.3,774,1499.1,774.1,1498.8z"/>
	<path d="M975.1,1439.5h26.6v2.7h-29.3C973.8,1442.3,975.1,1441,975.1,1439.5z"/>
	<path d="M791.1,1515.5c0.9,4.1,3,7.7,5.9,10.5h-0.2C794,1523.2,791.9,1519.6,791.1,1515.5z"/>
	<path d="M777.2,1491.1c0,0.1-0.1,0.2-0.1,0.2C777.2,1491.3,777.2,1491.2,777.2,1491.1z"/>
	<path d="M772.6,1507.3c-0.1,1-0.1,2-0.1,3C772.5,1509.3,772.5,1508.3,772.6,1507.3z"/>
	<path d="M811.8,1531.9H811c-1.4,0-2.9-0.2-4.2-0.4h0.6C808.8,1531.7,810.3,1531.9,811.8,1531.9z"/>
	<path d="M784.2,1478.5v3.6c-2.1,2-4,4.3-5.6,6.8c0,0,0,0,0-0.1c0.8-1.2,0.5-2.8-0.7-3.7C779.7,1482.7,781.8,1480.5,784.2,1478.5z"
		/>
	<path d="M821.6,1531.4c-0.4,0.3-0.9,0.4-1.5,0.4h-2.5c0.7,0,1.5-0.2,2.1-0.4H821.6z"/>
	<path d="M784.2,1482.1v-3.6c1.7-1.4,3.5-2.7,5.4-3.8v3.1C787.6,1479.1,785.8,1480.5,784.2,1482.1z"/>
	<path d="M797,1526c2.8,2.7,6.4,4.6,10.5,5.4h-0.6c-3.9-0.8-7.3-2.7-10-5.4H797z"/>
	<path d="M822.8,1526.7v2.5c0,0.9-0.5,1.8-1.2,2.3h-1.9C821.5,1530.6,822.8,1528.8,822.8,1526.7z"/>
	<path d="M800,1501.1c-2.5,2.8-3.9,6.5-3.9,10.3c0,0,0,0,0-0.1c0-8.4,6.7-15.2,15-15.2C806.9,1496.1,802.8,1497.9,800,1501.1z"/>
	<path d="M769.9,1494.4c0,0.1,0,0.1-0.1,0.2C769.8,1494.5,769.8,1494.4,769.9,1494.4z"/>
	<path d="M644.5,1011.5c0.3,0,0.5,0.1,0.8,0.1L644.5,1011.5z"/>
	<path d="M796.1,1511.4c0,0.5,0,1,0.1,1.5C796.1,1512.4,796.1,1511.9,796.1,1511.4z"/>
	<path d="M767.5,1503.6c-0.1,0.5-0.1,1.1-0.2,1.6C767.4,1504.7,767.5,1504.1,767.5,1503.6z"/>
	<path d="M796.2,1513.5c0.9,6.1,5.8,11.1,11.9,12.5h-0.6C801.6,1524.6,797.1,1519.6,796.2,1513.5z"/>
	<path d="M768.9,1497.3c-0.1,0.2-0.1,0.4-0.1,0.5C768.8,1497.7,768.8,1497.5,768.9,1497.3z"/>
	<path d="M767.2,1506.9c-0.1,1.1-0.1,2.3-0.1,3.4C767.1,1509.1,767.1,1508,767.2,1506.9z"/>
	<path d="M768.1,1500.4c-0.1,0.3-0.1,0.7-0.2,1C768,1501,768,1500.7,768.1,1500.4z"/>
	<path d="M811.8,1526.5H811c-1.2,0-2.4-0.2-3.5-0.4h0.6C809.3,1526.3,810.5,1526.5,811.8,1526.5z"/>
	<path d="M790.8,1513.5C790.8,1513.5,790.8,1513.5,790.8,1513.5c0,0.3,0.1,0.6,0.2,1C790.9,1514.2,790.8,1513.9,790.8,1513.5z"/>
	<path d="M794.6,1499.1C794.6,1499.2,794.6,1499.2,794.6,1499.1C794.6,1499.2,794.6,1499.2,794.6,1499.1z"/>
	<path d="M774.8,1496.7c-0.2,0.7-0.5,1.4-0.7,2.1C774.3,1498.1,774.5,1497.4,774.8,1496.7z"/>
	<path d="M799.1,1494.6C799.1,1494.6,799.1,1494.6,799.1,1494.6C799.1,1494.6,799.1,1494.6,799.1,1494.6z"/>
	<path d="M790.6,1511.3c0,0.1,0,0.2,0,0.3C790.7,1511.6,790.6,1511.4,790.6,1511.3z"/>
	<path d="M778.6,1488.9c-0.5,0.7-0.9,1.5-1.3,2.2C777.7,1490.4,778.1,1489.6,778.6,1488.9z"/>
	<path d="M775.9,1494c-0.3,0.7-0.6,1.4-0.9,2.1C775.2,1495.4,775.5,1494.7,775.9,1494z"/>
	<path d="M797.5,1495.9C797.5,1495.9,797.4,1495.9,797.5,1495.9C797.4,1495.9,797.5,1495.9,797.5,1495.9z"/>
	<path d="M772.7,1505.9c0,0.4-0.1,0.9-0.1,1.3C772.6,1506.8,772.7,1506.4,772.7,1505.9z"/>
	<path d="M791.1,1515.5C791.1,1515.5,791.1,1515.5,791.1,1515.5C791.1,1515.5,791.1,1515.5,791.1,1515.5z"/>
	<path d="M777.1,1491.4c-0.4,0.7-0.7,1.5-1.1,2.2C776.4,1492.8,776.7,1492.1,777.1,1491.4z"/>
	<path d="M795.9,1497.4C795.9,1497.4,796,1497.4,795.9,1497.4C795.9,1497.4,795.9,1497.5,795.9,1497.4
		C795.9,1497.5,795.9,1497.5,795.9,1497.4z"/>
	<path d="M773.2,1502.6c-0.1,0.6-0.2,1.1-0.3,1.7C773,1503.8,773.1,1503.2,773.2,1502.6z"/>
	<path d="M773.9,1499.6c-0.2,0.6-0.3,1.3-0.5,1.9C773.6,1500.9,773.7,1500.2,773.9,1499.6z"/>
	<path d="M1001.6,1439.5c0-1.5,1.2-2.7,2.7-2.7c1.5,0,2.7,1.2,2.7,2.7v86.5h-2.7v-86.5H1001.6z"/>
	<path d="M809.5,1555.7c-23.4,0-42.4-20.3-42.4-45.2v-0.3c0-1.1,0-2.3,0.1-3.4c0-0.6,0.1-1.1,0.2-1.7c0.1-0.5,0.1-1.1,0.2-1.6
		c0.1-0.7,0.2-1.5,0.4-2.2c0.1-0.3,0.1-0.7,0.2-1c0.2-0.9,0.4-1.7,0.6-2.5c0-0.2,0.1-0.4,0.1-0.5c0.3-0.9,0.6-1.9,0.9-2.8
		c0-0.1,0-0.1,0.1-0.2c1.1-3,2.5-5.8,4.2-8.4c0.8-1.3,2.5-1.6,3.7-0.8c0,0,0.1,0.1,0.1,0.1c-5.1,6.9-8.1,15.6-8.1,25.1v0.3
		c0,22.8,16.9,42.4,39.7,42.4h10.9c1.4,17.6,8.7,33.5,19.9,45.7h-3.5c-10.2-11.8-17-26.7-18.8-43H809.5z"/>
	<path d="M1004.3,1531.4h2.7v15.5c0,19.8-7.3,37.9-19.3,51.8h-3.6c12.5-13.7,20.1-31.9,20.1-51.8V1531.4z"/>
	<path d="M861.3,1615H856c-5.1-3.1-9.8-6.7-14.1-10.9h3.8C850.4,1608.4,855.6,1612.1,861.3,1615z"/>
	<path d="M975.1,1439.5H820.1v30h-10.6c-4.6,0-9,0.7-13,2.1c-0.9,0.3-1.7,0.6-2.5,1c0,0,0-0.1-0.1-0.1c-0.5-1.4,0.3-3,1.7-3.4
		c4.4-1.5,9-2.2,13.8-2.2h7.9V1442c0-2.9,2.3-5.2,5.2-5.2h149.7C973.8,1436.8,975.1,1438,975.1,1439.5z"/>
	<path d="M978.8,1604.2h3.9c-4.3,4.1-9,7.8-14,10.9h-5.5C968.8,1612.1,974,1608.4,978.8,1604.2z"/>
	<path d="M817.4,1496.1H811c-8.3,0-15,6.8-15,15.2c0,0,0,0,0,0.1c0,0,0,0.1,0,0.1c0,0.5,0,1,0.1,1.5c0,0,0,0,0,0.1
		c0,0.2,0.1,0.4,0.1,0.5c0.9,6.1,5.4,11.1,11.3,12.5h-6.4c-4.6-3.2-7.7-8.7-7.7-14.7c0-9.8,7.9-17.9,17.7-17.9h9.1v32.6h-2.7V1496.1
		z"/>
	<path d="M984.2,1598.8h3.6c-1.6,1.9-3.3,3.7-5.1,5.4h-3.9C980.7,1602.5,982.5,1600.7,984.2,1598.8z"/>
	<path d="M836.8,1598.8h3.5c1.7,1.9,3.6,3.7,5.5,5.4h-3.8C840.1,1602.5,838.4,1600.7,836.8,1598.8z"/>
	<path d="M811,1529.2c-3.7,0-7.1-1.2-10-3.2h6.4c1.1,0.3,2.3,0.4,3.5,0.4h0.8h5.6v-0.4h2.7v3.2H811z"/>
	<rect x="1004.3" y="1526" width="2.7" height="5.4"/>
	<path d="M927.5,1623.8c7.8,0,15.4-1.2,22.5-3.4h7.9c-9.4,3.9-19.7,6.1-30.4,6.1H897c-10.7,0-20.9-2.2-30.2-6.1h7.8
		c7.1,2.2,14.6,3.4,22.5,3.4H927.5z"/>
	<path d="M867,1617.8h-6.2c-1.6-0.8-3.3-1.8-4.8-2.7h5.3C863.2,1616,865.1,1616.9,867,1617.8z"/>
	<path d="M957.4,1617.8c1.9-0.8,3.8-1.7,5.7-2.7h5.5c-1.6,1-3.2,1.9-4.9,2.7H957.4z"/>
	<path d="M950,1620.5c2.6-0.8,5-1.7,7.5-2.7h6.3c-1.9,1-3.8,1.9-5.8,2.7H950z"/>
	<path d="M866.7,1620.5c-2-0.8-3.9-1.7-5.9-2.7h6.2c2.4,1,4.9,1.9,7.4,2.7H866.7z"/>
	<path d="M819.7,1531.4c-0.6,0.3-1.3,0.4-2.1,0.4h-5.8c-1.5,0-2.9-0.2-4.4-0.4H819.7z"/>
	<path d="M974.6,1604.2h4.2c-4.7,4.2-10,7.9-15.6,10.9h-6.3C963.3,1612.3,969.2,1608.6,974.6,1604.2z"/>
	<path d="M1001.6,1546.9v-15.5h2.7v15.5c0,20-7.6,38.2-20.1,51.8h-3.8C993.5,1585.4,1001.6,1567.1,1001.6,1546.9z"/>
	<path d="M809.5,1469.5h10.6v-30h154.9c0,1.5-1.2,2.7-2.7,2.7H822.8v24.8c0,2.9-2.3,5.2-5.2,5.2h-8.1c-4.2,0-8.3,0.7-12.1,1.9
		c-0.3,0.1-0.6,0.1-0.9,0.1c-1.1,0-2.1-0.7-2.5-1.8c0.8-0.3,1.7-0.7,2.5-1C800.5,1470.2,804.9,1469.5,809.5,1469.5z"/>
	<path d="M809.5,1553c-22.8,0-39.7-19.6-39.7-42.4v-0.3c0-9.5,3-18.2,8.1-25.1c1.2,0.8,1.5,2.4,0.7,3.7c0,0,0,0,0,0.1
		c-0.5,0.7-0.9,1.5-1.3,2.2c0,0.1-0.1,0.2-0.1,0.2c-0.4,0.7-0.7,1.5-1.1,2.2c-0.1,0.1-0.1,0.3-0.2,0.4c-0.3,0.7-0.6,1.4-0.9,2.1
		c-0.1,0.2-0.1,0.4-0.2,0.6c-0.2,0.7-0.5,1.4-0.7,2.1c-0.1,0.3-0.1,0.6-0.2,0.8c-0.2,0.6-0.3,1.3-0.5,1.9c-0.1,0.4-0.1,0.8-0.2,1.1
		c-0.1,0.6-0.2,1.1-0.3,1.7c-0.1,0.5-0.1,1.1-0.2,1.6c0,0.4-0.1,0.9-0.1,1.3c-0.1,1-0.1,2-0.1,3v0.3c0,22.3,16.3,39.7,37,39.7h10.9
		c1.4,0,2.6,1.1,2.7,2.5c1.4,17.9,9.2,33.9,21,45.9h-3.9c-11.2-12.3-18.5-28.2-19.9-45.7H809.5z"/>
	<polygon points="1001.6,1439.5 1004.3,1439.5 1004.3,1526 1001.6,1526 1001.6,1442.3 	"/>
	<path d="M791.1,1515.5C791.1,1515.5,791.1,1515.5,791.1,1515.5c-0.1-0.3-0.1-0.6-0.2-0.9c-0.1-0.4-0.1-0.7-0.2-1.1
		c-0.1-0.6-0.1-1.2-0.1-1.8c0-0.1,0-0.2,0-0.3c0-4.4,1.4-8.6,3.9-12.2c0,0,0,0,0,0c0.4-0.6,0.9-1.1,1.3-1.7c0,0,0-0.1,0.1-0.1
		c0.5-0.5,0.9-1,1.4-1.5c0,0,0,0,0.1-0.1c0.5-0.5,1.1-0.9,1.6-1.3c0,0,0,0,0,0c3.5-2.5,7.6-3.9,11.9-3.9h6.6c2.9,0,5.2,2.3,5.2,5.2
		v30.2h-2.7v-32.6H811c-9.8,0-17.7,8.1-17.7,17.9c0,6.1,3.1,11.5,7.7,14.7H797C794,1523.2,791.9,1519.6,791.1,1515.5z"/>
	<path d="M867.8,1615h-6.5c-5.7-3-10.9-6.6-15.6-10.9h4.3C855.4,1608.6,861.4,1612.3,867.8,1615z"/>
	<path d="M850,1604.2h-4.3c-1.9-1.7-3.7-3.5-5.5-5.4h3.9C846,1600.7,848,1602.5,850,1604.2z"/>
	<path d="M980.4,1598.8h3.8c-1.7,1.9-3.6,3.7-5.5,5.4h-4.2C976.6,1602.5,978.6,1600.7,980.4,1598.8z"/>
	<path d="M811,1529.2h9.1v-3.2h2.7v0.7c0,2.1-1.3,3.9-3.1,4.7h-12.3c-4-0.8-7.6-2.7-10.5-5.4h4.1
		C803.9,1528,807.3,1529.2,811,1529.2z"/>
	<rect x="1001.6" y="1526" width="2.7" height="5.4"/>
	<path d="M927.5,1621.1c3.2,0,6.4-0.2,9.6-0.6H950c-7.1,2.2-14.7,3.4-22.5,3.4H897c-7.8,0-15.4-1.2-22.5-3.4h12.9
		c3.1,0.4,6.3,0.6,9.5,0.6H927.5z"/>
	<path d="M875.1,1617.8h-8c-2-0.8-3.9-1.7-5.7-2.7h6.5C870.2,1616.1,872.6,1617,875.1,1617.8z"/>
	<path d="M956.8,1615h6.3c-1.9,1-3.7,1.9-5.7,2.7h-7.9C952,1617,954.5,1616.1,956.8,1615z"/>
	<path d="M887.4,1620.5h-12.9c-2.5-0.8-5-1.7-7.4-2.7h8C879.1,1619,883.2,1619.9,887.4,1620.5z"/>
	<path d="M937.1,1620.5c4.3-0.6,8.5-1.5,12.5-2.7h7.9c-2.4,1-4.9,1.9-7.5,2.7H937.1z"/>
	<path d="M912.2,1559.3c16.7,0,30.6-12,33.7-27.9h2.8c-3,17.3-18.2,30.6-36.4,30.6s-33.4-13.2-36.4-30.6h2.8
		C881.6,1547.3,895.5,1559.3,912.2,1559.3z"/>
	<path d="M946.5,1525c0-18.9-15.3-34.3-34.3-34.3c-18.9,0-34.3,15.3-34.3,34.3c0,0.3,0,0.7,0,1h-2.7c0-0.3,0-0.7,0-1
		c0-20.4,16.6-37,37-37s37,16.6,37,37c0,0.3,0,0.7,0,1h-2.7C946.5,1525.7,946.5,1525.3,946.5,1525z"/>
	<path d="M946.5,1526h2.7c0,1.8-0.2,3.7-0.5,5.4h-2.8C946.2,1529.7,946.4,1527.9,946.5,1526z"/>
	<path d="M878,1526c0.1,1.8,0.2,3.7,0.6,5.4h-2.8c-0.3-1.8-0.5-3.6-0.5-5.4H878z"/>
	<path d="M912.2,1490.7c18.9,0,34.3,15.3,34.3,34.3c0,0.3,0,0.7,0,1h-2.7c0-0.3,0-0.7,0-1c0-17.4-14.2-31.6-31.5-31.6
		s-31.5,14.2-31.5,31.6c0,0.3,0,0.7,0,1H878c0-0.3,0-0.7,0-1C878,1506.1,893.3,1490.7,912.2,1490.7z"/>
	<path d="M912.2,1556.6c15.2,0,27.9-10.8,30.9-25.1h2.8c-3,15.9-16.9,27.9-33.7,27.9c-16.7,0-30.6-12-33.7-27.9h2.8
		C884.3,1545.8,897,1556.6,912.2,1556.6z"/>
	<path d="M943.7,1526h2.7c-0.1,1.8-0.2,3.7-0.6,5.4h-2.8C943.5,1529.7,943.7,1527.9,943.7,1526z"/>
	<path d="M881.3,1531.4h-2.8c-0.3-1.8-0.5-3.6-0.6-5.4h2.7C880.8,1527.9,881,1529.7,881.3,1531.4z"/>
	<path d="M906.9,1409.9c-0.5,0.3-1,0.4-1.5,0.4c-0.9,0-1.8-0.4-2.3-1.2c-0.8-1.3-0.5-2.9,0.8-3.7c0.1-0.1,8.6-5.7,10.6-15.6
		c1.3-6.6-0.5-13.8-5.6-21.2c-17.8-26.3-11.3-39.3-5.6-50.7l0.5-0.9c0.7-1.3,2.3-1.9,3.6-1.2c1.3,0.7,1.9,2.3,1.2,3.6l-0.5,0.9
		c-5.6,11.1-10.8,21.5,5.2,45.2c5.9,8.7,8.1,17.3,6.4,25.4C917.4,1403,907.3,1409.6,906.9,1409.9z"/>
	<path d="M777.8,381.9l-7.5-2.2c4.5-2.3,9.1-4.4,13.8-6.2v5.7C782,380.1,779.9,381,777.8,381.9z"/>
	<path d="M1511.4,661.3c0-88.7-72.2-160.9-160.9-160.9h-10.9c-0.7,0-1.4-0.3-2-0.8c-0.5-0.5-0.8-1.2-0.8-2l0-0.7
		c0.1-2.6,0.2-5.2,0.2-7.8c0-67.4-29-128.2-75.1-170.6v-7.3c49.3,43.5,80.5,107.1,80.5,177.9c0,2-0.1,3.9-0.1,5.9h8.1
		c91.7,0,166.3,74.6,166.3,166.3c0,91.7-74.6,166.3-166.3,166.3H1262v-5.4h88.5C1439.2,822.2,1511.4,750,1511.4,661.3z"/>
	<path d="M902.7,377.1c-0.7,1.2-2.1,1.7-3.4,1.2c-18-7-36.9-10.6-56.2-10.6c-18.8,0-36.8,3.3-53.5,9.4v-5.6c17-6,35.1-9.2,53.5-9.2
		c19.2,0,38,3.4,56,10.1c42.1-74.3,121-120.4,206.4-120.4c29.8,0,58.3,5.5,84.6,15.6v5.8c-26.2-10.3-54.8-16-84.6-16
		C1021.2,257.5,943.5,303.3,902.7,377.1z"/>
	<rect x="1256.6" y="822.2" width="5.4" height="5.4"/>
	<path d="M1262,318.6c-1.8-1.6-3.6-3.3-5.4-4.8v-7.1c1.8,1.5,3.6,3.1,5.4,4.7V318.6z"/>
	<path d="M1190.1,273.5v-5.8c1.8,0.7,3.6,1.4,5.4,2.2v5.9C1193.7,274.9,1191.9,274.2,1190.1,273.5z"/>
	<polygon class="st0" points="661.4,892.1 620.3,915.6 590.7,881.3 631.9,857.8 	"/>
	<polygon class="st0" points="714.3,827.6 714.3,833.2 709.4,827.6 	"/>
	<path class="st0" d="M605.7,827.6l15.3,17.7l-41.1,23.5l-29.6-34.2l13.7-7.8c5.5,0.5,11,0.8,16.7,0.8H605.7z"/>
	<polygon class="st0" points="565.7,876.9 524.6,900.5 495,866.2 536.1,842.7 	"/>
	<path class="st0" d="M722.3,863.5c0.7-0.4,1.2-1.1,1.3-1.9c0.1-0.8-0.1-1.6-0.6-2.2l-3.2-3.8v-7.8l8.5,9.8c0.5,0.6,1.3,0.9,2.1,0.9
		c0.5,0,0.9-0.1,1.3-0.4l45.9-26.3c0.7-0.4,1.2-1.1,1.3-1.9c0.1-0.8-0.1-1.6-0.6-2.2l-0.2-0.2h6.1v96.3l-64.4,36.9V865L722.3,863.5z
		"/>
	<polygon class="st0" points="606.2,923.7 565,947.2 535.5,912.9 576.6,889.4 	"/>
	<polygon class="st0" points="770.9,827.6 772,828.9 730.8,852.4 719.7,839.5 719.7,827.6 	"/>
	<polygon class="st0" points="719.7,807.6 742.4,794.6 766.2,822.2 719.7,822.2 	"/>
	<path class="st0" d="M773.4,822.2L745,789.4c-0.8-1-2.3-1.2-3.4-0.6l-21.9,12.5v-6.2l17.3-9.9c0.7-0.4,1.2-1.1,1.3-1.9
		c0.1-0.8-0.1-1.6-0.6-2.2l-18-20.9v-23l64.4,74.7v10.3H773.4z"/>
	<path class="st0" d="M704.6,742.6c-0.8-1-2.3-1.2-3.4-0.6l-45.9,26.3c-0.7,0.4-1.2,1.1-1.3,1.9c-0.1,0.8,0.1,1.6,0.6,2.2l33.2,38.4
		c0.5,0.6,1.3,0.9,2.1,0.9c0.5,0,0.9-0.1,1.3-0.4l23.2-13.3v6.2l-18.6,10.6c-0.7,0.4-1.2,1.1-1.3,1.9c-0.1,0.8,0.1,1.6,0.6,2.2
		l2.6,3h-6.8l-1.1-1.2c-0.8-1-2.3-1.2-3.4-0.6l-3.2,1.8h-10.9l9.4-5.4c0.7-0.4,1.2-1.1,1.3-1.9c0.1-0.8-0.1-1.6-0.6-2.2l-33.2-38.4
		c-0.8-1-2.3-1.2-3.4-0.6L600,799.9c-0.7,0.4-1.2,1.1-1.3,1.9c-0.1,0.8,0.1,1.6,0.6,2.2l15.7,18.1h-6.8L594,805.8
		c-0.8-1-2.3-1.2-3.4-0.6l-27.9,15.9c-28.1-3.1-54-13.4-75.8-29.1c8.6-7.1,11.8-19,7.9-29.5l26.2-15c3,9.2-0.8,19.7-9.5,24.6
		c-1.3,0.7-1.8,2.4-1,3.7c0.5,0.9,1.4,1.4,2.4,1.4c0.5,0,0.9-0.1,1.3-0.4c11.4-6.5,16.1-20.5,11.4-32.5l26.2-15
		c3.2,9.4-0.5,20-9.3,25c-1.3,0.7-1.8,2.4-1,3.7c0.5,0.9,1.4,1.4,2.4,1.4c0.5,0,0.9-0.1,1.3-0.4c11.4-6.5,16.1-20.5,11.4-32.5
		l26.2-15c3.2,9.4-0.5,20-9.3,25c-1.3,0.7-1.8,2.4-1,3.7c0.5,0.9,1.4,1.4,2.4,1.4c0.5,0,0.9-0.1,1.3-0.4
		c11.4-6.5,16.1-20.5,11.4-32.5l26.2-15c3.2,9.4-0.5,20-9.3,25c-1.3,0.7-1.8,2.4-1,3.7c0.5,0.9,1.4,1.4,2.4,1.4
		c0.5,0,0.9-0.1,1.3-0.4c11.4-6.5,16.1-20.5,11.4-32.5l26.2-15c3.2,9.4-0.5,20-9.3,25c-1.3,0.7-1.8,2.4-1,3.7
		c0.5,0.9,1.4,1.4,2.4,1.4c0.5,0,0.9-0.1,1.3-0.4c11.4-6.5,16.1-20.5,11.4-32.5l8.4-4.8c1.1-0.7,2.6-0.4,3.5,0.6l53,61.4v23
		L704.6,742.6z"/>
	<polygon class="st0" points="646.7,779.5 676.2,813.7 661.4,822.2 622.1,822.2 605.5,803 	"/>
	<polygon class="st0" points="714.3,841.5 714.3,849.4 695.5,827.6 702.3,827.6 	"/>
	<path class="st0" d="M797.7,827.6l48.9,56.7c0.5,0.6,0.8,1.5,0.6,2.3c-0.1,0.5-0.4,1.4-1.4,1.9l-56.4,32.2v-93.2H797.7z"/>
	<polygon class="st0" points="789.6,818.2 793.1,822.2 789.6,822.2 	"/>
	<path class="st0" d="M601,822.2h-20.4c-2.8,0-5.5-0.1-8.3-0.2l19.1-10.9L601,822.2z"/>
	<path class="st0" d="M490.1,765.3c2.8,8.6-0.3,18.1-7.6,23.4c-4.6-3.6-9.1-7.4-13.3-11.5L490.1,765.3z"/>
	<polygon class="st0" points="660.8,771.4 701.9,747.9 714.3,762.2 714.3,792 690.3,805.6 	"/>
	<polygon class="st0" points="731.5,782.1 719.7,788.9 719.7,768.5 	"/>
	<path class="st0" d="M479.4,793.2c-4.5-3.4-8.8-7.1-12.8-11c2.7,11.1-2.1,23.2-12.4,29.1c-0.4,0.2-0.9,0.4-1.3,0.4
		c-0.9,0-1.9-0.5-2.4-1.4c-0.7-1.3-0.3-3,1-3.7c8.7-5,12.5-15.4,9.5-24.6l-42.6,24.3c-1.6,0.9-2.5,2.5-2.5,4.4
		c0.1,0.1,0.1,0.2,0.2,0.3l50.8,58.9c1,1.1,0.9,2.8-0.3,3.8c-1.1,1-2.8,0.9-3.8-0.3l-36.2-42c28.6,50.7,110.7,196.3,113.3,200.9
		c3,5.3,5.7,6.8,5.7,6.8c0,0,0,0,0,0c1.3,0.5,2.7,0.5,3.9-0.2l37.6-21.5L475.1,887.7c-1-1.1-0.9-2.8,0.3-3.8c1.1-1,2.8-0.9,3.8,0.3
		L592.1,1015c0.9,0,1.8,0.5,2.3,1.4c0.3,0.5,0.4,1.1,0.3,1.7l6.8,7.8c0.9,1,2.3,1.3,3.5,0.6l109.4-62.6v-95.8l-38,21.7
		c-0.4,0.2-0.9,0.4-1.3,0.4c-0.8,0-1.5-0.3-2.1-0.9l-33.2-38.4c-0.5-0.6-0.8-1.4-0.6-2.2c0.1-0.8,0.6-1.5,1.3-1.9l33.3-19h-10.9
		l-27,15.4c-0.4,0.2-0.9,0.4-1.3,0.4c-0.8,0-1.5-0.3-2.1-0.9l-12.8-14.9h-6.8l14.4,16.6c0.5,0.6,0.8,1.4,0.6,2.2
		c-0.1,0.8-0.6,1.5-1.3,1.9l-45.9,26.3c-0.4,0.2-0.9,0.4-1.3,0.4c-0.8,0-1.5-0.3-2.1-0.9L544,835.7c-0.5-0.6-0.8-1.4-0.6-2.2
		c0.1-0.8,0.6-1.5,1.3-1.9l10.3-5.9c-27.1-4.2-52.1-15-73.2-30.7c-0.9-0.1-1.7-0.5-2.2-1.3C479.5,793.5,479.4,793.3,479.4,793.2z
		 M617.6,920.8l-33.2-38.4c-0.5-0.6-0.8-1.4-0.6-2.2c0.1-0.8,0.6-1.5,1.3-1.9l45.9-26.3c1.1-0.6,2.6-0.4,3.4,0.6l33.2,38.4
		c0.5,0.6,0.8,1.4,0.6,2.2c-0.1,0.8-0.6,1.5-1.3,1.9L621,921.4c-0.4,0.2-0.9,0.4-1.3,0.4C618.9,921.8,618.2,921.4,617.6,920.8z
		 M528.6,911.8c0.1-0.8,0.6-1.5,1.3-1.9l45.9-26.3c1.1-0.6,2.6-0.4,3.4,0.6l33.2,38.4c0.5,0.6,0.8,1.4,0.6,2.2
		c-0.1,0.8-0.6,1.5-1.3,1.9L565.8,953c-0.4,0.2-0.9,0.4-1.3,0.4c-0.8,0-1.5-0.3-2.1-0.9L529.2,914
		C528.7,913.4,528.4,912.6,528.6,911.8z M488.1,865c0.1-0.8,0.6-1.5,1.3-1.9l45.9-26.3c1.1-0.6,2.6-0.4,3.4,0.6l33.2,38.4
		c0.5,0.6,0.8,1.4,0.6,2.2c-0.1,0.8-0.6,1.5-1.3,1.9l-45.9,26.3c-0.4,0.2-0.9,0.4-1.3,0.4c-0.8,0-1.5-0.3-2.1-0.9l-33.2-38.4
		C488.2,866.7,488,865.8,488.1,865z"/>
	<polygon class="st0" points="704.8,822.2 701.3,818.1 714.3,810.7 714.3,822.2 	"/>
	<polygon class="st0" points="635.1,837.3 626.8,827.6 651.9,827.6 	"/>
	<polygon class="st0" points="714.3,861.8 675.6,884 646,849.7 684.7,827.6 688.4,827.6 714.3,857.7 	"/>
	<path d="M479.6,793.6c-0.1-0.1-0.1-0.3-0.2-0.4c0.8,0.6,1.6,1.2,2.4,1.8C480.9,794.9,480,794.5,479.6,793.6z"/>
	<polygon points="1190.1,822.2 1190.1,827.6 804.9,827.6 800.2,822.2 	"/>
	<polygon points="687.1,826.2 688.4,827.6 684.7,827.6 	"/>
	<path d="M449.4,763.4c-22-28.2-35.1-63.7-35.1-102.1c0-91.7,74.6-166.3,166.3-166.3h104.9c0.3-2,0.7-4,1.2-6l4.5,5
		c-0.2,1.4-0.5,2.7-0.7,4.1c-0.2,1.3-1.3,2.3-2.7,2.3H580.6c-88.7,0-160.9,72.2-160.9,160.9c0,43.3,17.2,82.7,45.2,111.6L463,774
		C459.8,769,455,765.3,449.4,763.4z"/>
	<path d="M719.7,1548.8c0,27.5,22.4,50,50,50h67.1c1.6,1.9,3.4,3.7,5.1,5.4h-72.2c-30.5,0-55.4-24.8-55.4-55.4V970.1l5.4-3.1V1548.8
		z"/>
	<path d="M714.3,656V519.8l4.3,4.8c0.3,0.4,0.7,0.6,1.2,0.7V656v72.9l-5.4-6.3V656z"/>
	<polygon points="784.2,507.1 787.9,506 789.6,507.8 789.6,809.9 784.2,803.6 	"/>
	<path d="M789.6,1471.6c-1.9,1-3.7,2.1-5.4,3.4V930.2l5.4-3.1V1471.6z"/>
	<g>
		<path d="M410.5,812.2c0.2,1.6,0.7,3.2,1.6,4.8c1.2,2.1,119.8,212.6,123,218c4,7,7.8,8.9,8.2,9.1c1.3,0.5,2.6,0.8,3.9,0.8
			c1.7,0,3.3-0.4,4.8-1.3l38.5-22l6.7,7.8c1.6,1.9,3.9,2.8,6.2,2.8c1.4,0,2.8-0.3,4-1.1l106.7-61l5.4-3.1l64.4-36.9l5.4-3.1
			l59.1-33.8c2.1-1.2,3.6-3.3,4-5.7c0.4-2.4-0.3-4.9-1.9-6.8l-45.9-53.2l-4.7-5.4l-10.6-12.3l-5.4-6.3l-64.4-74.7l-5.4-6.3
			l-48.9-56.7c-2.6-3-6.9-3.7-10.3-1.8l-8.2,4.7c-3.5-5.4-8.8-9.3-15.1-11.1c-6.8-1.9-13.8-1-19.9,2.5c-0.5,0.3-0.9,0.5-1.4,0.8
			c-1.3,0.8-1.6,2.5-0.8,3.8c0.8,1.3,2.5,1.6,3.8,0.8c0.4-0.2,0.7-0.5,1.1-0.7c4.8-2.8,10.4-3.5,15.8-2c4.9,1.3,9,4.3,11.8,8.5
			l-26.2,15c-3.5-5.4-8.8-9.3-15.1-11.1c-6.8-1.9-13.8-1-19.9,2.5c-0.5,0.3-0.9,0.5-1.4,0.8c-1.3,0.8-1.6,2.5-0.8,3.8
			c0.8,1.3,2.5,1.6,3.8,0.8c0.4-0.2,0.7-0.5,1.1-0.7c4.8-2.8,10.4-3.5,15.8-2c4.9,1.3,9,4.3,11.8,8.5l-26.2,15
			c-3.5-5.4-8.8-9.3-15.1-11.1c-6.8-1.8-13.8-1-19.9,2.5c-0.5,0.3-0.9,0.5-1.4,0.8c-1.3,0.8-1.6,2.5-0.8,3.8
			c0.8,1.3,2.5,1.6,3.8,0.8c0.4-0.2,0.7-0.5,1.1-0.7c4.8-2.8,10.4-3.5,15.8-2c4.9,1.3,9,4.3,11.8,8.5l-26.2,15
			c-3.5-5.4-8.8-9.3-15.1-11.1c-6.8-1.8-13.8-1-19.9,2.5c-0.5,0.3-0.9,0.5-1.4,0.8c-1.3,0.8-1.6,2.5-0.8,3.8
			c0.8,1.3,2.5,1.6,3.8,0.8c0.4-0.2,0.7-0.5,1.1-0.7c4.8-2.8,10.4-3.5,15.8-2c4.9,1.3,9,4.3,11.8,8.5l-26.2,15
			c-3.5-5.4-8.8-9.3-15.1-11.1c-6.8-1.8-13.8-1-19.9,2.5c-0.5,0.3-0.9,0.5-1.4,0.8c-1.3,0.8-1.6,2.5-0.8,3.8
			c0.8,1.3,2.5,1.6,3.8,0.8c0.4-0.2,0.7-0.5,1.1-0.7c4.8-2.8,10.4-3.5,15.8-2c4.9,1.3,9,4.3,11.8,8.5l-26.2,15
			c-3.5-5.4-8.8-9.3-15.1-11.1c-6.8-1.8-13.8-1-19.9,2.5c-0.5,0.3-0.9,0.5-1.4,0.8c-1.3,0.8-1.6,2.5-0.8,3.8
			c0.8,1.3,2.5,1.6,3.8,0.8c0.4-0.2,0.7-0.5,1.1-0.7c4.8-2.8,10.4-3.5,15.8-2c4.9,1.3,9,4.3,11.8,8.5L464.9,773L463,774
			c-3.2-5-8-8.7-13.6-10.6c-0.5-0.2-1-0.3-1.5-0.5c-6.7-1.9-13.8-1-19.9,2.5c-8,4.5-12.9,12.8-13.2,22c-0.1,1.5,1.1,2.8,2.6,2.8
			c1.6,0.1,2.8-1.1,2.8-2.6c0.3-7.3,4.2-13.8,10.5-17.5c4.8-2.8,10.4-3.5,15.8-2c4.9,1.3,9,4.3,11.8,8.5L414.1,802
			c-2.1,1.2-3.6,3.3-4,5.7C409.8,809.3,410,810.8,410.5,812.2z M415.8,810.7c0-1.8,0.9-3.4,2.5-4.4l42.6-24.3
			c3,9.3-0.8,19.7-9.5,24.6c-1.3,0.7-1.8,2.4-1,3.7c0.5,0.9,1.4,1.4,2.4,1.4c0.5,0,0.9-0.1,1.3-0.4c10.4-5.9,15.1-18,12.4-29.1
			c-0.2-1-0.5-2-0.9-3l3.5-2l20.9-12c2.8,8.6-0.3,18.1-7.6,23.4c-0.6,0.4-1.2,0.8-1.9,1.2c-1.2,0.7-1.6,2-1.2,3.3
			c0.8,0.6,1.6,1.2,2.4,1.8c0.1,0,0.1,0,0.2,0c0.5,0,0.9-0.1,1.3-0.4c1.3-0.8,2.5-1.6,3.7-2.6c8.6-7.1,11.8-19,7.9-29.5l26.2-15
			c3,9.2-0.8,19.7-9.5,24.6c-1.3,0.7-1.8,2.4-1,3.7c0.5,0.9,1.4,1.4,2.4,1.4c0.5,0,0.9-0.1,1.3-0.4c11.4-6.5,16.1-20.5,11.4-32.5
			l26.2-15c3.2,9.4-0.5,20-9.3,25c-1.3,0.7-1.8,2.4-1,3.7c0.5,0.9,1.4,1.4,2.4,1.4c0.5,0,0.9-0.1,1.3-0.4
			c11.4-6.5,16.1-20.5,11.4-32.5l26.2-15c3.2,9.4-0.5,20-9.3,25c-1.3,0.7-1.8,2.4-1,3.7c0.5,0.9,1.4,1.4,2.4,1.4
			c0.5,0,0.9-0.1,1.3-0.4c11.4-6.5,16.1-20.5,11.4-32.5l26.2-15c3.2,9.4-0.5,20-9.3,25c-1.3,0.7-1.8,2.4-1,3.7
			c0.5,0.9,1.4,1.4,2.4,1.4c0.5,0,0.9-0.1,1.3-0.4c11.4-6.5,16.1-20.5,11.4-32.5l26.2-15c3.2,9.4-0.5,20-9.3,25
			c-1.3,0.7-1.8,2.4-1,3.7c0.5,0.9,1.4,1.4,2.4,1.4c0.5,0,0.9-0.1,1.3-0.4c11.4-6.5,16.1-20.5,11.4-32.5l8.4-4.8
			c1.1-0.7,2.6-0.4,3.5,0.6l53,61.4l5.4,6.3l64.4,74.7l5.4,6.3l3.5,4l4.7,5.4l48.9,56.7c0.5,0.6,0.8,1.5,0.6,2.3
			c-0.1,0.5-0.4,1.4-1.4,1.9l-56.4,32.2l-5.4,3.1l-64.4,36.9l-5.4,3.1l-109.4,62.6c-1.1,0.7-2.6,0.4-3.5-0.6l-6.8-7.8
			c-0.9-1-1.7-2-2.6-3L479.2,884.1c-1-1.1-2.7-1.3-3.8-0.3c-1.1,1-1.3,2.7-0.3,3.8L587,1017.4l-37.6,21.5c-1.2,0.7-2.6,0.8-3.9,0.2
			c0,0,0,0,0,0c0,0-2.6-1.5-5.7-6.8c-2.6-4.5-84.7-150.2-113.3-200.9l36.2,42c1,1.1,2.7,1.3,3.8,0.3c1.1-1,1.3-2.7,0.3-3.8L416,811
			C416,810.9,415.9,810.8,415.8,810.7z"/>
		<path d="M738.4,783.3c0.1-0.8-0.1-1.6-0.6-2.2l-18-20.9l-5.4-6.3l-9.7-11.3c-0.8-1-2.3-1.2-3.4-0.6l-45.9,26.3
			c-0.7,0.4-1.2,1.1-1.3,1.9c-0.1,0.8,0.1,1.6,0.6,2.2l33.2,38.4c0.5,0.6,1.3,0.9,2.1,0.9c0.5,0,0.9-0.1,1.3-0.4l23.2-13.3l5.4-3.1
			l17.3-9.9C737.7,784.8,738.2,784.1,738.4,783.3z M731.5,782.1l-11.8,6.7l-5.4,3.1l-23.9,13.7l-29.6-34.2l41.1-23.5l12.4,14.3
			l5.4,6.3L731.5,782.1z"/>
		<path d="M682.5,812.7l-33.2-38.4c-0.8-1-2.3-1.2-3.4-0.6L600,799.9c-0.7,0.4-1.2,1.1-1.3,1.9c-0.1,0.8,0.1,1.6,0.6,2.2l15.7,18.1
			l4.7,5.4l12.8,14.9c0.5,0.6,1.3,0.9,2.1,0.9c0.5,0,0.9-0.1,1.3-0.4l27-15.4l9.5-5.4l9.4-5.4c0.7-0.4,1.2-1.1,1.3-1.9
			C683.2,814.1,683,813.3,682.5,812.7z M676.2,813.7l-14.8,8.5l-9.5,5.4l-16.8,9.6l-8.3-9.6l-4.7-5.4L605.5,803l41.1-23.5
			L676.2,813.7z"/>
		<path d="M639.7,850.8l33.2,38.4c0.5,0.6,1.3,0.9,2.1,0.9c0.5,0,0.9-0.1,1.3-0.4l38-21.7l5.4-3.1l2.5-1.5c0.7-0.4,1.2-1.1,1.3-1.9
			c0.1-0.8-0.1-1.6-0.6-2.2l-3.2-3.8l-5.4-6.3l-18.8-21.7l-4.7-5.4l-1.1-1.2c-0.8-1-2.3-1.2-3.4-0.6l-3.2,1.8l-9.5,5.4l-33.3,19
			c-0.7,0.4-1.2,1.1-1.3,1.9C639,849.4,639.2,850.2,639.7,850.8z M646,849.7l38.7-22.1l2.5-1.4l1.2,1.4l25.9,30l2.4,2.8l-2.4,1.4
			L675.6,884L646,849.7z"/>
		<path d="M584.5,882.4l33.2,38.4c0.5,0.6,1.3,0.9,2.1,0.9c0.5,0,0.9-0.1,1.3-0.4l45.9-26.3c0.7-0.4,1.2-1.1,1.3-1.9
			c0.1-0.8-0.1-1.6-0.6-2.2l-33.2-38.4c-0.8-1-2.3-1.2-3.4-0.6l-45.9,26.3c-0.7,0.4-1.2,1.1-1.3,1.9
			C583.7,881,583.9,881.8,584.5,882.4z M590.7,881.3l41.1-23.5l29.6,34.2l-41.1,23.5L590.7,881.3z"/>
		<path d="M488.1,865c-0.1,0.8,0.1,1.6,0.6,2.2l33.2,38.4c0.5,0.6,1.3,0.9,2.1,0.9c0.5,0,0.9-0.1,1.3-0.4l45.9-26.3
			c0.7-0.4,1.2-1.1,1.3-1.9c0.1-0.8-0.1-1.6-0.6-2.2l-33.2-38.4c-0.8-1-2.3-1.2-3.4-0.6l-45.9,26.3
			C488.7,863.5,488.3,864.2,488.1,865z M495,866.2l41.1-23.5l29.6,34.2l-41.1,23.5L495,866.2z"/>
		<path d="M528.6,911.8c-0.1,0.8,0.1,1.6,0.6,2.2l33.2,38.4c0.5,0.6,1.3,0.9,2.1,0.9c0.5,0,0.9-0.1,1.3-0.4l45.9-26.3
			c0.7-0.4,1.2-1.1,1.3-1.9c0.1-0.8-0.1-1.6-0.6-2.2l-33.2-38.4c-0.8-1-2.3-1.2-3.4-0.6l-45.9,26.3
			C529.2,910.3,528.7,911,528.6,911.8z M535.5,912.9l41.1-23.5l29.6,34.2L565,947.2L535.5,912.9z"/>
		<path d="M608.2,822.2L594,805.8c-0.8-1-2.3-1.2-3.4-0.6l-27.9,15.9l-7.8,4.4l-10.3,5.9c-0.7,0.4-1.2,1.1-1.3,1.9
			c-0.1,0.8,0.1,1.6,0.6,2.2l33.2,38.4c0.5,0.6,1.3,0.9,2.1,0.9c0.5,0,0.9-0.1,1.3-0.4l45.9-26.3c0.7-0.4,1.2-1.1,1.3-1.9
			c0.1-0.8-0.1-1.6-0.6-2.2l-14.4-16.6L608.2,822.2z M601,822.2l4.7,5.4l15.3,17.7l-41.1,23.5l-29.6-34.2l13.7-7.8l8.4-4.8
			l19.1-10.9L601,822.2z"/>
		<path d="M719.7,847.8l8.5,9.8c0.5,0.6,1.3,0.9,2.1,0.9c0.5,0,0.9-0.1,1.3-0.4l45.9-26.3c0.7-0.4,1.2-1.1,1.3-1.9
			c0.1-0.8-0.1-1.6-0.6-2.2l-0.2-0.2l-4.7-5.4L745,789.4c-0.8-1-2.3-1.2-3.4-0.6l-21.9,12.5l-5.4,3.1l-18.6,10.6
			c-0.7,0.4-1.2,1.1-1.3,1.9c-0.1,0.8,0.1,1.6,0.6,2.2l2.6,3l4.7,5.4l12,13.9L719.7,847.8z M719.7,839.5l-5.4-6.3l-4.8-5.6l-4.7-5.4
			l-3.5-4.1l13-7.5l5.4-3.1l22.7-13l23.8,27.6l4.7,5.4l1.1,1.2l-41.1,23.5L719.7,839.5z"/>
	</g>
	<rect x="1190.1" y="822.2" width="5.4" height="5.4"/>
	<path d="M789.6,377.1c-1.8,0.7-3.6,1.4-5.4,2.1v-5.7c1.8-0.7,3.6-1.4,5.4-2V377.1z"/>
	<g>
		<path class="st0" d="M847.8,541.2c0.2,1.4,1.3,2.4,2.7,2.4c0.1,0,0.2,0,0.3,0c1.5-0.2,2.6-1.5,2.4-3l-6-51.8l39.2-11.4l-33.6,87.9
			l-59-60.9l48.1-14L847.8,541.2z"/>
		<polygon class="st0" points="837.2,486 829.1,488.4 789.6,499.9 789.6,459.5 		"/>
		<path class="st0" d="M598.4,347c-1.3-0.6-2.9,0-3.5,1.3c-0.6,1.3-0.1,2.9,1.1,3.6l118.2,65.8v9.8c-12.2,16.5-21.1,35.3-26.2,55.2
			L540.4,318.4l173.8,50.7v26.8L598.4,347z"/>
		<path class="st0" d="M724.2,423.1l60,33.4v45l-62.7,18.2l-1.7-1.9v-27.5v-61.5C721.2,426.8,722.6,425,724.2,423.1z"/>
		<path class="st0" d="M738.6,401.1c-1.3,1.1-2.5,2.2-3.8,3.4l-15.1-6.4v-27.5l43.9,12.8C754.8,388.5,746.4,394.4,738.6,401.1z"/>
		<path class="st0" d="M714.3,490.2v21.5l-21.8-24.3c4.2-18.6,11.7-35.8,21.8-51V490.2z"/>
		<path class="st0" d="M784.2,425.3l-44.1-18.6c9.3-8.3,19.5-15.4,30.6-21.2l13.5,3.9V425.3z"/>
		<path class="st0" d="M784.2,450.3l-56.4-31.4c2.5-2.8,5.2-5.6,7.9-8.2l48.5,20.4V450.3z"/>
		<path class="st0" d="M719.7,414.4V404l10.8,4.6c-2.5,2.5-5,5.1-7.4,7.8L719.7,414.4z"/>
		<polygon class="st0" points="976.5,445.5 891.1,470.4 789.6,427.6 789.6,391 		"/>
		<polygon class="st0" points="642.3,371.3 714.3,401.7 714.3,411.4 		"/>
		<polygon class="st0" points="882.8,472.8 844.6,483.9 789.6,453.3 789.6,433.4 		"/>
		<path d="M829.1,488.4l-39.5,11.5v7.9l62.3,64.3c0.5,0.5,1.2,0.8,1.9,0.8c0.2,0,0.4,0,0.5-0.1c0.9-0.2,1.7-0.8,2-1.7l36.6-95.7
			l94-27.3c1.2-0.3,2-1.4,2-2.6c0-1.2-0.8-2.3-2-2.6l-197.4-57.6v5.7l186.9,54.5l-85.4,24.8l-101.5-42.8v5.9l93.2,39.3l-38.3,11.1
			l-55-30.6v6.2l47.7,26.5L829.1,488.4z M793.8,504.3l48.1-14l5.9,50.9c0.2,1.4,1.3,2.4,2.7,2.4c0.1,0,0.2,0,0.3,0
			c1.5-0.2,2.6-1.5,2.4-3l-6-51.8l39.2-11.4l-33.6,87.9L793.8,504.3z"/>
		<path d="M784.2,431.2l-48.5-20.4c1.4-1.4,2.9-2.7,4.4-4l44.1,18.6V431.2z"/>
		<path d="M784.2,389.4l-13.5-3.9c2.4-1.2,4.8-2.4,7.2-3.6l6.3,1.8V389.4z"/>
		<path d="M784.2,450.3v6.2l-60-33.4c1.2-1.4,2.4-2.8,3.6-4.2L784.2,450.3z"/>
		<path d="M721.5,519.7l62.7-18.2v5.6l-62.8,18.3c-0.3,0.1-0.5,0.1-0.8,0.1c-0.3,0-0.6-0.1-0.9-0.2v-7.6L721.5,519.7z"/>
		<path d="M763.6,383.4l-43.9-12.8V365l50.7,14.8C768.1,380.9,765.8,382.2,763.6,383.4z"/>
		<path d="M540.4,318.4l147.7,164.2c-0.5,2.1-1,4.3-1.5,6.4L530,314.9c-0.8-0.9-0.9-2.2-0.3-3.3c0.6-1,1.9-1.5,3.1-1.2l181.5,52.9
			v5.7L540.4,318.4z"/>
		<path d="M719.7,420.4v-6l3.5,1.9C722,417.7,720.8,419.1,719.7,420.4z"/>
		<path d="M730.6,408.6l-10.8-4.6v-5.9l15.1,6.4C733.4,405.8,732,407.2,730.6,408.6z"/>
		<path d="M714.3,511.7v8.1l-23.2-25.8c0.4-2.2,0.9-4.4,1.4-6.6L714.3,511.7z"/>
		<path d="M642.3,371.3l72,40.1v6.2l-118.2-65.8c-1.3-0.7-1.8-2.3-1.1-3.6c0.6-1.3,2.2-1.9,3.5-1.3l115.8,48.8v5.9L642.3,371.3z"/>
		<path d="M719.7,414.4v6c0,0-0.1,0.1-0.1,0.1l-5.3-3v-6.2L719.7,414.4z"/>
		<polygon points="719.7,370.6 714.3,369.1 714.3,363.4 719.7,365 		"/>
		<polygon points="714.3,401.7 714.3,395.8 719.7,398.1 719.7,404 		"/>
		<path d="M719.7,525.3c-0.4-0.1-0.8-0.4-1.2-0.7l-4.3-4.8v-8.1l5.4,6V525.3z"/>
		<polygon points="789.6,499.9 789.6,507.8 787.9,506 784.2,507.1 784.2,501.5 		"/>
		<polygon points="789.6,453.3 789.6,459.5 784.2,456.5 784.2,450.3 		"/>
		<polygon points="784.2,425.3 789.6,427.6 789.6,433.4 784.2,431.2 		"/>
		<polygon points="784.2,383.8 789.6,385.4 789.6,391 784.2,389.4 		"/>
		<path d="M692.5,487.5c-0.5,2.2-0.9,4.4-1.4,6.6l-4.5-5c0.5-2.2,1-4.3,1.5-6.4L692.5,487.5z"/>
		<path d="M735.7,410.7l-5.1-2.2c1.4-1.4,2.8-2.7,4.3-4.1l5.2,2.2C738.6,408,737.1,409.4,735.7,410.7z"/>
		<path d="M727.8,418.9c-1.2,1.4-2.4,2.8-3.6,4.2l-4.5-2.5v-0.2c1.1-1.4,2.3-2.7,3.5-4.1L727.8,418.9z"/>
		<path d="M770.6,385.5l-7-2.1c2.2-1.3,4.5-2.5,6.8-3.7l7.5,2.2C775.4,383.1,773,384.2,770.6,385.5z"/>
		<path d="M719.6,420.6c0,0,0.1-0.1,0.1-0.1v0.2L719.6,420.6z"/>
	</g>
	<g>
		<path d="M1397.5,2318c18.2,0,36.6-0.5,54.7-1.5c1.5-0.1,2.6-1.4,2.6-2.9c-0.1-1.5-1.4-2.6-2.9-2.6c-18,1-36.3,1.5-54.4,1.5
			c-93.5,0-186.1-13.1-275-39c-1.4-0.4-2.9,0.4-3.4,1.8c-0.4,1.4,0.4,2.9,1.8,3.4C1210.4,2304.8,1303.5,2318,1397.5,2318z"/>
		<path d="M833.1,2140.4c0.9,0,1.7-0.4,2.2-1.2c0.9-1.2,0.6-2.9-0.7-3.8c-26.7-18.7-52.7-38.9-77.4-60.1c-1.1-1-2.8-0.8-3.8,0.3
			s-0.8,2.8,0.3,3.8c24.8,21.3,51,41.7,77.8,60.5C832.1,2140.2,832.6,2140.4,833.1,2140.4z"/>
		<path d="M1711.6,399.1c1.1,0,2.2-0.7,2.6-1.8c0.5-1.4-0.3-3-1.7-3.4c-101.2-34-207.2-51.3-314.9-51.3c-17.7,0-35.7,0.5-53.3,1.4
			c-1.5,0.1-2.6,1.4-2.6,2.9c0.1,1.5,1.4,2.6,2.9,2.6c17.5-0.9,35.4-1.4,53-1.4c107.2,0,212.6,17.2,313.2,51
			C1711,399.1,1711.3,399.1,1711.6,399.1z"/>
		<path d="M1793.2,430.7c1,0,2-0.6,2.5-1.6c0.6-1.4,0-3-1.4-3.6c-11.4-5-23.1-9.9-34.7-14.4c-1.4-0.6-3,0.1-3.5,1.5
			c-0.5,1.4,0.1,3,1.5,3.5c11.5,4.5,23.1,9.4,34.5,14.4C1792.5,430.6,1792.8,430.7,1793.2,430.7z"/>
		<path d="M2351.2,1085.9c0.2,0,0.5,0,0.7-0.1c1.5-0.4,2.3-1.9,1.9-3.3c-19.7-76.3-48.7-150.2-86.1-219.8c-0.7-1.3-2.4-1.8-3.7-1.1
			c-1.3,0.7-1.8,2.4-1.1,3.7c37.2,69.1,66,142.7,85.6,218.5C2348.9,1085,2350,1085.9,2351.2,1085.9z"/>
		<path d="M2279,1773c1,0,2-0.5,2.4-1.5c68.9-137.7,103.8-286.2,103.8-441.2c0-70.8-7.5-141.4-22.4-209.9c-0.3-1.5-1.8-2.4-3.2-2.1
			c-1.5,0.3-2.4,1.8-2.1,3.2c14.8,68.2,22.2,138.4,22.2,208.8c0,154.2-34.7,301.9-103.2,438.8c-0.7,1.3-0.1,3,1.2,3.6
			C2278.2,1772.9,2278.6,1773,2279,1773z"/>
		<path d="M2183,902.8c0.5,0,1-0.1,1.4-0.4c1.3-0.8,1.7-2.4,0.9-3.7c-33.8-56.1-73.9-108.7-119.2-156.1c-1-1.1-2.8-1.1-3.8-0.1
			c-1.1,1-1.1,2.8-0.1,3.8c45.1,47.2,84.9,99.4,118.5,155.2C2181.2,902.3,2182.1,902.8,2183,902.8z"/>
		<path d="M2230.8,1723.8c1,0,2-0.6,2.5-1.6c52.2-115.3,78.7-238.5,78.7-366.1c0-143.3-33.1-280.2-98.3-406.7
			c-0.7-1.3-2.3-1.9-3.7-1.2c-1.3,0.7-1.9,2.3-1.2,3.7c64.8,125.7,97.7,261.7,97.7,404.2c0,126.8-26.3,249.3-78.2,363.9
			c-0.6,1.4,0,3,1.4,3.6C2230,1723.7,2230.4,1723.8,2230.8,1723.8z"/>
		<g>
			<path d="M887.5,2147.8c0.7,0,1.4-0.3,1.9-0.8c1.1-1,1.1-2.8,0.1-3.8l-10-10.4c-1-1.1-2.8-1.1-3.8-0.1c-1.1,1-1.1,2.8-0.1,3.8
				l10,10.4C886.1,2147.5,886.8,2147.8,887.5,2147.8z"/>
			<path d="M922.5,2184.2c0.7,0,1.4-0.3,1.9-0.8c1.1-1,1.1-2.8,0.1-3.8l-10-10.4c-1-1.1-2.8-1.1-3.8-0.1c-1.1,1-1.1,2.8-0.1,3.8
				l10,10.4C921,2184,921.7,2184.2,922.5,2184.2z"/>
			<path d="M912.7,2148.3c0.7,0,1.4-0.3,1.9-0.8l10.1-10c1.1-1.1,1.1-2.8,0-3.8c-1.1-1.1-2.8-1.1-3.8,0l-10.1,10
				c-1.1,1.1-1.1,2.8,0,3.8C911.3,2148.1,912,2148.3,912.7,2148.3z"/>
			<path d="M877.2,2183.2c0.7,0,1.4-0.3,1.9-0.8l10.1-10c1.1-1.1,1.1-2.8,0-3.8c-1.1-1.1-2.8-1.1-3.8,0l-10.1,10
				c-1.1,1.1-1.1,2.8,0,3.8C875.8,2183,876.5,2183.2,877.2,2183.2z"/>
		</g>
		<g>
			<path d="M466.8,1144.7c0.7,0,1.4-0.3,1.9-0.8c1.1-1,1.1-2.8,0.1-3.8l-10-10.4c-1-1.1-2.8-1.1-3.8-0.1c-1.1,1-1.1,2.8-0.1,3.8
				l10,10.4C465.4,1144.4,466.1,1144.7,466.8,1144.7z"/>
			<path d="M501.8,1181.2c0.7,0,1.4-0.3,1.9-0.8c1.1-1,1.1-2.8,0.1-3.8l-10-10.4c-1-1.1-2.8-1.1-3.8-0.1c-1.1,1-1.1,2.8-0.1,3.8
				l10,10.4C500.3,1180.9,501,1181.2,501.8,1181.2z"/>
			<path d="M492,1145.3c0.7,0,1.4-0.3,1.9-0.8l10.1-10c1.1-1.1,1.1-2.8,0-3.8c-1.1-1.1-2.8-1.1-3.8,0l-10.1,10
				c-1.1,1.1-1.1,2.8,0,3.8C490.6,1145,491.3,1145.3,492,1145.3z"/>
			<path d="M456.5,1180.2c0.7,0,1.4-0.3,1.9-0.8l10.1-10c1.1-1.1,1.1-2.8,0-3.8c-1.1-1.1-2.8-1.1-3.8,0l-10.1,10
				c-1.1,1.1-1.1,2.8,0,3.8C455.1,1179.9,455.8,1180.2,456.5,1180.2z"/>
		</g>
	</g>
	<path d="M1559.2,1027.7c-1.1-1-1.2-2.7-0.2-3.8c6.7-7.6,11.5-16.8,14.2-27.5c0.4-1.4,1.8-2.3,3.3-2c1.5,0.4,2.3,1.8,2,3.3
		c-2.9,11.5-8.1,21.5-15.4,29.7c-0.5,0.6-1.3,0.9-2,0.9C1560.3,1028.4,1559.7,1028.1,1559.2,1027.7z M1575.7,964.9
		c-0.6-9.8-2.4-20.4-5.3-31.6c-0.4-1.5,0.5-2.9,1.9-3.3c1.5-0.4,2.9,0.5,3.3,1.9c3,11.4,4.8,22.4,5.4,32.6c0.1,1.5-1,2.8-2.5,2.9
		c-0.1,0-0.1,0-0.2,0C1577,967.4,1575.8,966.3,1575.7,964.9z M1560.3,902.8c-3.9-9.7-8.5-19.6-13.6-29.3c-0.7-1.3-0.2-3,1.1-3.7
		c1.3-0.7,3-0.2,3.7,1.1c5.2,9.9,9.8,19.9,13.8,29.8c0.6,1.4-0.1,3-1.5,3.5c-0.3,0.1-0.7,0.2-1,0.2
		C1561.7,904.5,1560.7,903.8,1560.3,902.8z M1530.2,845.8c-4.9-7.3-9.8-13.9-14.5-19.5c-1.7-2-3.4-4-5.2-6c-1-1.1-0.9-2.8,0.2-3.8
		c1.1-1,2.8-0.9,3.8,0.2c1.8,2,3.6,4,5.3,6.1c4.8,5.7,9.8,12.4,14.8,19.9c0.8,1.2,0.5,2.9-0.7,3.8c-0.5,0.3-1,0.5-1.5,0.5
		C1531.6,847,1530.7,846.5,1530.2,845.8z M1487.5,797.9c-8.1-6.9-16.8-13.3-25.9-19.1c-1.3-0.8-1.6-2.5-0.8-3.7
		c0.8-1.3,2.5-1.6,3.7-0.8c9.3,5.9,18.2,12.5,26.5,19.5c1.1,1,1.3,2.7,0.3,3.8c-0.5,0.6-1.3,1-2.1,1
		C1488.6,798.6,1488,798.4,1487.5,797.9z M1433.5,763.2c-9.4-4.5-19.4-8.6-29.8-12.3c-1.4-0.5-2.2-2-1.7-3.5
		c0.5-1.4,2.1-2.2,3.5-1.7c10.5,3.7,20.7,7.9,30.3,12.5c1.4,0.6,1.9,2.3,1.3,3.6c-0.5,1-1.4,1.5-2.4,1.5
		C1434.2,763.5,1433.8,763.4,1433.5,763.2z M1372.8,741.6c-10-2.6-20.7-4.8-31.6-6.8c-1.5-0.3-2.5-1.7-2.2-3.1
		c0.3-1.5,1.7-2.5,3.1-2.2c11.1,2,21.8,4.3,32,6.8c1.5,0.4,2.3,1.8,2,3.3c-0.3,1.2-1.4,2-2.6,2
		C1373.2,741.7,1373,741.7,1372.8,741.6z M1309.1,730.2c-10.2-1.2-21.1-2.2-32.3-3c-1.5-0.1-2.6-1.4-2.5-2.9
		c0.1-1.5,1.4-2.6,2.9-2.5c11.3,0.8,22.3,1.8,32.5,3c1.5,0.2,2.6,1.5,2.4,3c-0.2,1.4-1.3,2.4-2.7,2.4
		C1309.3,730.2,1309.2,730.2,1309.1,730.2z M1079,723.9c0-1.5,1.2-2.7,2.7-2.7c12.2-0.1,23.7-0.4,32.5-0.7c1.5,0,2.7,1.1,2.8,2.6
		c0,1.5-1.1,2.7-2.6,2.8c-8.8,0.3-20.4,0.6-32.6,0.7c0,0,0,0,0,0C1080.3,726.6,1079,725.4,1079,723.9z M1049.1,726.3
		c-11.7-0.3-22.4-1-32.7-1.9c-1.5-0.1-2.6-1.4-2.5-2.9c0.1-1.5,1.4-2.6,2.9-2.5c10.2,0.9,20.8,1.5,32.4,1.8c1.5,0,2.7,1.3,2.6,2.8
		C1051.8,725.1,1050.6,726.3,1049.1,726.3C1049.2,726.3,1049.1,726.3,1049.1,726.3z M1244.4,725.6c-10-0.4-20.7-0.6-32.5-0.8
		c-1.5,0-2.7-1.3-2.7-2.7c0-1.5,1.2-2.7,2.7-2.7c0,0,0,0,0,0c11.9,0.2,22.5,0.4,32.6,0.8c1.5,0.1,2.7,1.3,2.6,2.8
		C1247.1,724.4,1245.9,725.6,1244.4,725.6C1244.5,725.6,1244.4,725.6,1244.4,725.6z M1144.1,722.2c0-1.5,1.1-2.7,2.6-2.8
		c8.5-0.2,15.2-0.3,21.1-0.3c0,0,0.5,0,0.5,0l11,0c1.5,0,2.7,1.2,2.7,2.7c0,1.5-1.2,2.7-2.7,2.7c0,0,0,0,0,0l-11,0l0-2.7l-0.5,2.7
		c-5.8,0-12.5,0.1-20.9,0.3c0,0,0,0-0.1,0C1145.4,724.9,1144.1,723.7,1144.1,722.2z M983.9,720.2c-11.5-2-22.2-4.6-32-7.6
		c-1.4-0.4-2.2-2-1.8-3.4c0.4-1.4,2-2.2,3.4-1.8c9.6,3,20.1,5.4,31.3,7.4c1.5,0.3,2.5,1.7,2.2,3.1c-0.2,1.3-1.4,2.2-2.7,2.2
		C984.2,720.3,984.1,720.2,983.9,720.2z M921.3,700.2c-10.3-5.5-19.4-11.9-27.1-19.2c-1.1-1-1.1-2.7-0.1-3.8c1-1.1,2.7-1.1,3.8-0.1
		c7.3,6.9,16,13.1,25.9,18.3c1.3,0.7,1.8,2.3,1.1,3.7c-0.5,0.9-1.4,1.4-2.4,1.4C922.2,700.5,921.7,700.4,921.3,700.2z M874.2,654.6
		c-5-9.5-8.6-20-10.8-31.4c-0.3-1.5,0.7-2.9,2.2-3.2c1.5-0.3,2.9,0.7,3.2,2.2c2.1,10.8,5.5,20.9,10.3,29.8c0.7,1.3,0.2,3-1.1,3.7
		c-0.4,0.2-0.8,0.3-1.3,0.3C875.6,656,874.7,655.5,874.2,654.6z"/>
</g>
</svg>
