<?xml version="1.0" encoding="utf-8"?>
<!-- Generator: Adobe Illustrator 26.3.1, SVG Export Plug-In . SVG Version: 6.00 Build 0)  -->
<svg version="1.1" id="Слой_1" xmlns="http://www.w3.org/2000/svg" xmlns:xlink="http://www.w3.org/1999/xlink" x="0px" y="0px"
	 viewBox="0 0 890 820" style="enable-background:new 0 0 890 820;" xml:space="preserve">
<style type="text/css">
	.st0{fill:#403D50;}
	.st1{fill:#ACC2A4;}
	.st2{fill:#E8E4DD;}
	.st3{fill:#3B4D43;}
	.st4{opacity:0.6;fill:#E0DEF0;enable-background:new    ;}
	.st5{fill:#8A9D78;}
	.st6{fill:#596A5E;}
	.st7{fill:#F8BB98;}
	.st8{fill:#49574B;}
	.st9{fill:#54511D;}
	.st10{fill:#708474;}
	.st11{fill:#617364;}
	.st12{fill:#DEC85B;}
	.st13{fill:#201F42;}
	.st14{fill:#FFFFFF;}
	.st15{fill:#D38673;}
	.st16{fill:#B18A45;}
	.st17{opacity:0.4;fill:#EB5D57;enable-background:new    ;}
	.st18{fill:#020203;}
	.st19{fill:#83A67C;}
	.st20{opacity:0.1294;}
	.st21{fill:#ADD3F2;}
	.st22{fill:#453A1A;}
	.st23{fill:#333F34;}
	.st24{fill:#2F2916;}
	.st25{fill:none;}
</style>
<g>
	<path class="st0" d="M120.7,266.7c0.3-0.5,5.5,2.3,7.6,0.3c0.6-0.6,0.7-1.4,0.8-2c0.4-3.4,0.9-7.3,1.3-11.8c3,1,6.4,2.6,7.5,5.7
		c1.2,3.6-1.2,7.4,0.2,8.4c1.3,0.9,3.5-2,5.3-1.2c1.7,0.7,0.9,4.3,1.7,12c0.5,4.6,0.9,7.1,0.2,7.3c-1.1,0.4-2.3-4.9-7.4-8.1
		c-0.7-0.4-5.6-3.4-10.4-1.8c-2.6,0.9-4,2.7-4.3,2.5c-0.1-0.1,0.7-1.5,4.5-6.5C122,268.2,120.6,267,120.7,266.7z"/>
	<g>
		<path class="st1" d="M454,572.1h-54.3c-4,0-7.3-3.3-7.3-7.3v-13.3c0-4,3.3-7.3,7.3-7.3H454c4,0,7.3,3.3,7.3,7.3v13.3
			C461.3,568.8,458,572.1,454,572.1z"/>
		<path class="st1" d="M533.6,572.1h-54.3c-4,0-7.3-3.3-7.3-7.3v-13.3c0-4,3.3-7.3,7.3-7.3h54.3c4,0,7.3,3.3,7.3,7.3v13.3
			C540.9,568.8,537.6,572.1,533.6,572.1z"/>
		<path class="st1" d="M569.6,608.3h-54.3c-4,0-7.3-3.3-7.3-7.3v-13.3c0-4,3.3-7.3,7.3-7.3h54.3c4,0,7.3,3.3,7.3,7.3V601
			C576.9,605,573.7,608.3,569.6,608.3z"/>
		<path class="st1" d="M489.9,607.8h-54.3c-4,0-7.3-3.3-7.3-7.3v-13.3c0-4,3.3-7.3,7.3-7.3h54.3c4,0,7.3,3.3,7.3,7.3v13.3
			C497.2,604.5,494,607.8,489.9,607.8z"/>
		<path class="st1" d="M454.2,643.5h-54.3c-4,0-7.3-3.3-7.3-7.3v-13.3c0-4,3.3-7.3,7.3-7.3h54.3c4,0,7.3,3.3,7.3,7.3v13.3
			C461.5,640.2,458.3,643.5,454.2,643.5z"/>
	</g>
	<rect x="164.1" y="28.8" class="st2" width="505.9" height="367.6"/>
	<path class="st3" d="M670.8,397.1H163.4V28h507.4V397.1z M164.9,395.6h504.5V29.5H164.9V395.6z"/>
	<rect x="164.8" y="28.8" class="st4" width="504.6" height="16.5"/>
	<rect x="142.1" y="11" class="st2" width="550" height="19.9"/>
	<path class="st3" d="M692.9,31.6H141.4V10.3h551.5V31.6z M142.8,30.2h548.6V11.8H142.8V30.2z"/>
	<path class="st5" d="M10.3,403.6c0,0-12.5-22.9,86.5-17.8l55,178.2l-93.1-1.5L10.3,403.6z"/>
	<polygon class="st5" points="43.5,809 29.3,809 63.1,566.5 81.6,566.5 	"/>
	<polygon class="st5" points="208.8,809 223,809 189.2,566.5 170.6,566.5 	"/>
	<rect x="66.2" y="556.2" class="st6" width="141.6" height="14.7"/>
	<path class="st6" d="M66.2,556.2L24.1,400c-1.1-4.1-5.5-6.3-9.4-4.8l0,0c-3.3,1.3-5.2,4.9-4.3,8.3l38.3,153.3
		c2,8.1,9.2,13.8,17.6,14l0,0v-14.6H66.2z"/>
	<g>
		<g>
			<polygon class="st5" points="858.9,809 872.2,809 840.6,566.5 823.3,566.5 			"/>
			<polygon class="st5" points="704.4,809 691.2,809 722.7,566.5 740.1,566.5 			"/>
		</g>
	</g>
	<rect x="683.1" y="556.1" class="st6" width="197.1" height="14.7"/>
	<path class="st5" d="M880.2,556.1H683c20.3-38.4,30.2-90.2,34.9-147.8c1.1-13.2,12.1-23.4,25.4-23.4h76.6
		c13.3,0,24.4,10.2,25.4,23.5C849.8,467.8,859.9,519.4,880.2,556.1z"/>
	<polygon class="st7" points="309.1,733 280.9,743.6 285.2,762.3 315.8,752 	"/>
	<path class="st8" d="M186.3,466.5l70.6,23.3c11.7,3.9,21.5,11.9,27.5,22.7l0,0c3,5.5,5,11.4,5.8,17.6l27.4,210.6l-42.5,7.3
		l-57.9-214.2L138.6,498l13.9-38.9L186.3,466.5z"/>
	<path class="st9" d="M167,797.1c-10.7-4.3-18.9-33.1-18.9-33.1l-31.2-8.7c-2.5,8.4-5,16.8-7.5,25.1c1.6,1.5,4,3.5,7.5,4.5
		c3.2,1,4,0.1,6.3,0.9c4.5,1.5,5.4,5.9,9.9,12.2c1.7,2.4,4.3,5.6,8.3,9.1c10.8,0.6,21.5,1.2,32.3,1.8
		C173.6,809,177.7,801.5,167,797.1z"/>
	<polygon class="st7" points="153.5,744.7 124.3,737.1 116.8,755.4 148,764.1 	"/>
	<path class="st10" d="M228.5,558.4l-68.1,192.9l-8.1-2.4l-29.2-8.7l-3.8-1.1L156,557.7c-41.6,10.3-64.6-0.9-72.8-19.6
		c-2.3-5.3-3.4-11.3-3.6-17.7C78.8,494.7,92,464.3,92,464.3l39.4,2.9l72.4,32.9c7.2,3.3,13.3,8.2,17.9,14.3c4.6,6.1,7.8,13.3,9,21
		C231.8,543.1,231.1,551,228.5,558.4z"/>
	<path class="st11" d="M156,557.7c-41.6,10.3-64.6-0.9-72.8-19.6c-2.3-5.3-3.4-11.3-3.6-17.7C101.1,558.4,156,557.7,156,557.7z"/>
	<path class="st12" d="M129.4,307.3L85.1,409.6l11.7,18.7c0,0-11.9,27-18.7,45.8c0,0,78.4,22.1,145.8,5.3l-11.2-57.7l-4.8-88.4
		l-28.1-25.5L129.4,307.3z"/>
	<polygon class="st13" points="197,438.4 190.6,439.2 177.6,389 182.7,387.5 	"/>
	<path class="st12" d="M268,414.7c-11.3-1.7-21.6-5.4-21.6-5.4l-16.9-67.1c-3.2-12.7-12.7-22.9-25.2-27l-21.6-6.1
		c-1.1-0.3-2.1-0.7-3-1.2l19.9,133.8c0,0,34,3.4,58.5,4C257.6,434.1,262,420.6,268,414.7z"/>
	<path class="st7" d="M304.6,412.4c-11.9-1.5-20.8,2.7-20.8,2.7c-4.9,0.7-10.5,0.4-15.8-0.4c-4.5,6.7-12.8,20.3-12.2,32
		c5.1,0.1,18.2-0.3,21.5-0.6c18.5-1.3,35.6-20.4,35.6-20.4s13.6,13.4,14.7,7.2C328.6,426.7,316.5,413.9,304.6,412.4z"/>
	<rect x="164.8" y="437.8" class="st14" width="80.1" height="6.7"/>
	<path class="st7" d="M138.6,444.1c0,0,34.3,4.8,41.3-1.7c0,0,8.3,0.2,10.3-4.6c0,0,3.1-2,4.6-6.1c0,0,2.9-4.8,2-7.9l-11.6-5.9
		c0,0,0-0.4-0.2-1c-0.5-2.6-2.7-4.5-5.4-4.6l-20-0.3c-1.8,0-3.6,0.3-5.3,0.9l-20.5,7.7L138.6,444.1z"/>
	<path class="st12" d="M112.9,361.2L92.4,407l64.5,5.1c-19.1,9.2-18.3,31.9-18.3,31.9l-58.5,1.5c-7.6,0.2-14.8-2.8-20-8.3
		c-4.7-5-7.3-11.6-7.3-18.3c0-2.8,0.4-5.6,1.3-8.3l24-72.5c3.9-11.7,13.4-20.6,25.3-23.7l23.4-6.1c0.9-0.4,1.7-0.8,2.5-1.2
		L112.9,361.2z"/>
	<g>
		<path class="st15" d="M194.6,432.1c-2.8-1.2-5.5-2.6-8.1-4c-2.6-1.5-5.2-3-7.7-4.8l0.3-0.5c2.8,1.1,5.5,2.5,8.1,4s5.2,3,7.7,4.8
			L194.6,432.1z"/>
		<path class="st15" d="M190,438.1c-2.6-0.7-5.2-1.6-7.7-2.6s-5-2.1-7.4-3.4l0.2-0.5c2.6,0.7,5.2,1.6,7.7,2.6s5,2.1,7.4,3.4
			L190,438.1z"/>
		<path class="st15" d="M179.7,442.7c-1.4-0.3-2.6-0.8-3.9-1.4c-1.2-0.6-2.4-1.3-3.5-2.2l0.3-0.5c1.4,0.3,2.6,0.8,3.9,1.4
			c1.2,0.6,2.4,1.3,3.5,2.2L179.7,442.7z"/>
	</g>
	<path class="st16" d="M90,445.7c-0.4,0-0.7-0.3-0.7-0.7c0-0.4,0.3-0.7,0.7-0.7l47.9-0.8c-0.1-18.4,11.4-27.5,16.4-30.6V412
		l-0.1,0.7L97.6,407l14.4-53.6c0.1-0.4,0.5-0.6,0.9-0.5s0.6,0.5,0.5,0.9l-14,52l55,5.5c0.7,0.1,1.2,0.5,1.4,1.2s-0.1,1.3-0.7,1.7
		c-4.9,3-16.1,11.9-15.7,30v0.7L90,445.7L90,445.7z"/>
	<path class="st16" d="M216.7,437.9c-0.4,0-0.7-0.3-0.7-0.7l-7.3-86.2c0-0.4,0.3-0.8,0.7-0.8s0.8,0.3,0.8,0.7l7.3,86.2
		C217.5,437.5,217.2,437.8,216.7,437.9C216.8,437.9,216.7,437.9,216.7,437.9z"/>
	<path class="st16" d="M258.2,448.5c-0.3,0-0.7-0.2-0.7-0.6c-2.9-15.6,9.4-32.9,10-33.6c0.2-0.3,0.7-0.4,1-0.2
		c0.3,0.2,0.4,0.7,0.2,1c-0.1,0.2-12.5,17.5-9.7,32.5c0.1,0.4-0.2,0.8-0.6,0.9C258.2,448.5,258.2,448.5,258.2,448.5z"/>
	<circle class="st16" cx="166.8" cy="345.1" r="4"/>
	<path class="st7" d="M179.8,307.9c-1.8,10.7-9,24.7-20.2,19.2c-8.2-4-21.9-14.7-30.2-19.9c22.7-11.9,11.5-43,11.2-43.9l27.8,10.3
		c0,0,0,0.2,0,0.5c0.1,2.2,0.4,11.4,2,19.7c0.2,1,0.4,2.1,0.7,3.1C172.3,301.7,175.5,305.7,179.8,307.9z"/>
	<path class="st15" d="M170.5,293.8c-16.3-3.8-20.3-20.7-20.3-21.1l18.3,1.4C168.5,276.3,168.9,285.5,170.5,293.8z"/>
	<path class="st7" d="M182.4,246.1c0,0,2.9,33.2-12.3,35.9c-15,2.7-31.7-17.8-31.7-17.8l2.6-30.6l17.1-11.2
		C170.1,227.3,178,234.2,182.4,246.1z"/>
	<path class="st0" d="M139.2,257.6c8.1-2.8,11-9.7,13-19.3c3.1-14.7,24.2-2.9,30.3,7.7c0,0,3.3-29.7-27.1-29.2
		c0,0-35.4,1.3-24.8,38.7L139.2,257.6z"/>
	<ellipse transform="matrix(0.828 -0.5607 0.5607 0.828 -122.0946 121.6043)" class="st7" cx="137.2" cy="259.8" rx="8" ry="10.5"/>
	<g>
		<path class="st13" d="M176.6,253.2c0,1.1,0.9,2,2,2s2-0.9,2-2s-0.9-2-2-2S176.6,252.1,176.6,253.2z"/>
		<path class="st13" d="M161.3,253.6c0,1.1,0.9,2,2,2s2-0.9,2-2s-0.9-2-2-2C162.1,251.6,161.3,252.5,161.3,253.6z"/>
		<path class="st15" d="M171.8,265.7c-0.4,0-0.7-0.3-0.7-0.7c0-0.4,0.3-0.8,0.7-0.8c0.6,0,2.3-0.3,3.2-1c0.3-0.2,0.5-0.5,0.5-0.9
			c0-1.2-1.5-3.1-3.5-4.4c-0.3-0.2-0.4-0.7-0.2-1s0.7-0.4,1-0.2c2,1.4,4.1,3.6,4.2,5.6c0,0.9-0.3,1.6-1.1,2.1
			C174.4,265.5,172,265.7,171.8,265.7C171.9,265.7,171.8,265.7,171.8,265.7z"/>
		<path class="st13" d="M182.1,248.9c-0.6-0.2-1.2-0.3-1.8-0.4c-0.6-0.1-1.1-0.1-1.7,0c-0.5,0.1-1.1,0.2-1.7,0.3
			c-0.6,0.2-1.2,0.4-1.9,0.5l0,0c-0.2,0.1-0.5-0.1-0.6-0.3c0-0.1,0-0.2,0.1-0.3c0.4-0.7,1-1.2,1.6-1.6c0.7-0.4,1.5-0.7,2.3-0.7
			c0.8-0.1,1.7,0.1,2.4,0.4c0.7,0.3,1.4,0.8,1.8,1.5c0.1,0.2,0.1,0.5-0.1,0.6C182.4,248.9,182.3,248.9,182.1,248.9L182.1,248.9z"/>
		<path class="st13" d="M158.2,248.8c0.6-0.7,1.3-1.2,2.1-1.7c0.8-0.4,1.7-0.6,2.7-0.6c0.9,0,1.9,0.2,2.7,0.7s1.4,1.2,1.8,2
			c0.1,0.2,0,0.5-0.2,0.6c-0.1,0.1-0.3,0.1-0.4,0h-0.1c-0.8-0.3-1.4-0.6-2-0.8s-1.3-0.3-1.9-0.3c-1.3,0-2.7,0.3-4.2,0.8h-0.1
			c-0.2,0.1-0.5-0.1-0.5-0.3C158.1,249.1,158.1,248.9,158.2,248.8z"/>
		<ellipse class="st17" cx="157.3" cy="261.9" rx="4.7" ry="4.7"/>
		<path class="st13" d="M169.4,271.4c-2.9,0-4.5-1.5-4.6-1.5c-0.3-0.3-0.3-0.7,0-1s0.7-0.3,1,0c0.1,0.1,2.2,1.9,6.1,0.8
			c0.4-0.1,0.8,0.1,0.9,0.5c0.1,0.4-0.1,0.8-0.5,0.9C171.2,271.3,170.2,271.4,169.4,271.4z"/>
	</g>
	<path class="st13" d="M141.9,262.6c-0.3,0-0.6-0.2-0.7-0.4c-0.1-0.3-3.1-6.9-7.9-4.9c-0.4,0.2-0.8,0-1-0.4s0-0.8,0.4-1
		c4.9-2.1,8.6,2.8,9.8,5.6c0.2,0.4,0,0.8-0.4,1C142.1,262.6,142,262.6,141.9,262.6z"/>
	<path class="st16" d="M164.5,329.1c-1.7,0-3.5-0.4-5.2-1.3c-5.2-2.6-12.4-7.6-19.4-12.5c-4-2.8-7.8-5.5-10.9-7.4
		c-0.3-0.2-0.4-0.7-0.2-1s0.7-0.4,1-0.2c3.1,2,6.9,4.6,11,7.5c6.9,4.8,14.1,9.8,19.2,12.4c3,1.5,5.9,1.5,8.6,0.2
		c5.6-2.9,9.4-11.6,10.6-18.9c0.1-0.4,0.4-0.7,0.8-0.6c0.4,0.1,0.7,0.4,0.6,0.8c-1.3,7.7-5.3,16.8-11.3,19.9
		C167.7,328.7,166.1,329.1,164.5,329.1z"/>
	<path class="st7" d="M705.9,489.9c-0.9,8.7-1.8,17.6-2.9,26.5c-8.9,74.4-25.1,158.2-44,245.5c-27.5,12.4-42.2,7-42.2,7
		c19.8-99,27.9-272.1,27.9-272.1L705.9,489.9z"/>
	<path class="st9" d="M616.8,769c0,0-41.1,23.8-40.3,39.6h54.6l12.1-9.2l2.9,9.5h16.1c0,0,3.7-14.7-3.3-46.9
		C631.5,774.4,616.8,769,616.8,769z"/>
	<path class="st15" d="M705.9,489.9c-0.9,8.7-1.8,17.6-2.9,26.5c-31.7-2.2-58.3-19.6-58.3-19.6L705.9,489.9z"/>
	<path class="st7" d="M805,762l-23.2,17.6l-16-10.6c0,0-24-196.3-41.6-263.5c-1.4-5.3-2.7-9.8-4-13.3l56.5,8.8
		c1.4,6.4,2.7,12.7,4,19.1C796.5,600.1,802.3,681,805,762z"/>
	<path class="st9" d="M765.8,769c0,0-38.2,23.8-37.5,39.6h50.9l11.3-9.2l2.7,9.5h15c0,0,3.4-14.7-3.1-46.9
		C779.4,774.4,765.8,769,765.8,769z"/>
	<path class="st15" d="M780.6,520.1c-27.8-0.4-56-14.3-56-14.3l-0.4-0.2c-1.4-5.3-2.7-9.8-4-13.3l56.5,8.8
		C778.1,507.3,779.4,513.7,780.6,520.1z"/>
	<path class="st15" d="M637.1,611.3c6.2,1,12.5,2,18.7,2.9c0.9,0.1,1.3-1.3,0.4-1.4c-6.2-1-12.5-2-18.7-2.9
		C636.6,609.7,636.2,611.2,637.1,611.3L637.1,611.3z"/>
	<path class="st15" d="M747.3,621.3c5.7,0.1,11.5,0.2,17.2,0.4c0.9,0,0.9-1.4,0-1.5c-5.7-0.1-11.5-0.2-17.2-0.4
		C746.4,619.8,746.4,621.3,747.3,621.3L747.3,621.3z"/>
	<g>
		<rect x="412.8" y="200.4" class="st2" width="169.1" height="132.6"/>
		<path class="st18" d="M581.9,333.7H412.8c-0.4,0-0.7-0.3-0.7-0.7V200.4c0-0.4,0.3-0.7,0.7-0.7h169.1c0.4,0,0.7,0.3,0.7,0.7V333
			C582.6,333.4,582.3,333.7,581.9,333.7z M413.5,332.4h167.8V201.1H413.5V332.4z"/>
	</g>
	<g>
		<rect x="412.8" y="200.4" class="st2" width="169.1" height="18.2"/>
		<path class="st18" d="M581.9,219.3H412.8c-0.4,0-0.7-0.3-0.7-0.7v-18.2c0-0.4,0.3-0.7,0.7-0.7h169.1c0.4,0,0.7,0.3,0.7,0.7v18.2
			C582.6,219,582.3,219.3,581.9,219.3z M413.5,217.9h167.8v-16.8H413.5V217.9z"/>
	</g>
	<rect x="581.9" y="200.4" class="st19" width="27.2" height="18.2"/>
	<path class="st18" d="M609.1,219.3h-27.2c-0.4,0-0.7-0.3-0.7-0.7v-18.2c0-0.4,0.3-0.7,0.7-0.7h27.2c0.4,0,0.7,0.3,0.7,0.7v18.2
		C609.7,219,609.4,219.3,609.1,219.3z M582.6,217.9h25.8v-16.8h-25.8V217.9z"/>
	<g>
		<path class="st14" d="M589,208.5c0-2.3,1.9-4.2,4.2-4.2s4.2,1.9,4.2,4.2s-1.9,4.2-4.2,4.2S589,210.8,589,208.5z"/>
		<path class="st18" d="M593.3,213.4c-2.7,0-4.9-2.2-4.9-4.9s2.2-4.9,4.9-4.9s4.9,2.2,4.9,4.9C598.1,211.2,596,213.4,593.3,213.4z
			 M593.3,205c-2,0-3.5,1.6-3.5,3.5c0,2,1.6,3.5,3.5,3.5s3.5-1.6,3.5-3.5S595.2,205,593.3,205z"/>
	</g>
	<g>
		<path class="st18" d="M546.4,242.1H487c-0.4,0-0.7-0.3-0.7-0.7s0.3-0.7,0.7-0.7h59.4c0.4,0,0.7,0.3,0.7,0.7
			C547,241.8,546.7,242.1,546.4,242.1z"/>
	</g>
	<g>
		<path class="st18" d="M516.7,257.2H487c-0.4,0-0.7-0.3-0.7-0.7c0-0.4,0.3-0.7,0.7-0.7h29.7c0.4,0,0.7,0.3,0.7,0.7
			C517.3,256.9,517,257.2,516.7,257.2z"/>
	</g>
	<g>
		<path class="st18" d="M468.6,310.8h-29.7c-0.4,0-0.7-0.3-0.7-0.7c0-0.4,0.3-0.7,0.7-0.7h29.7c0.4,0,0.7,0.3,0.7,0.7
			C469.2,310.5,468.9,310.8,468.6,310.8z"/>
	</g>
	<g>
		<path class="st18" d="M530.9,295.1h-92.6c-0.4,0-0.7-0.3-0.7-0.7s0.3-0.7,0.7-0.7h92.6c0.4,0,0.7,0.3,0.7,0.7
			S531.2,295.1,530.9,295.1z"/>
	</g>
	<g>
		<path class="st18" d="M602.7,214.9c-0.1,0-0.3,0-0.4-0.1l-5.6-3.7c-0.3-0.2-0.4-0.6-0.2-0.9c0.2-0.3,0.6-0.4,0.9-0.2l5.6,3.7
			c0.3,0.2,0.4,0.6,0.2,0.9C603.1,214.8,602.9,214.9,602.7,214.9z"/>
	</g>
	<g class="st20">
		<path class="st18" d="M582.3,221.5c-0.1-0.2-0.2-0.4-0.3-0.6c0.1-0.1,0.2-0.3,0.3-0.5c0.3-1-0.5-2.1-1.6-2
			c-3.3,0.4-4.3,0.7-7.5,0.9c-2.2,0.1-4.4,0-6.6-0.1c-9.2-0.2-18.4-1.1-27.6-0.3c-1.5,0.1-3,0.2-4.5,0.3c-0.5,0.1-1,0-1.5,0.2
			c-0.1,0-0.1,0-0.2,0.1c-1,0-2,0-3,0c-8.7,0-17.4,0.4-26.2,0.2c-9.3-0.3-18.6-0.9-28-0.4c-1,0-2,0-3-0.1c-0.5-0.1-1-0.3-1.6-0.2
			c-2.6,0.3-2.9,4.1-0.3,4.8c2.7,0.6,5.4,0.4,8.1,0.3c3-0.1,6,0,9,0c5.9,0.1,11.8,0.5,17.8,0.6c5.5,0.1,10.9-0.1,16.4-0.3
			c8.1-0.3,16.3,0.3,24.4,0.2c8.9,0,17.8-0.6,26.7-0.6C576.4,223.8,582.9,225.5,582.3,221.5z"/>
	</g>
	<g>
		<rect x="225.3" y="102.1" class="st2" width="243.9" height="174.9"/>
		<path class="st18" d="M469.2,277.7H225.3c-0.4,0-0.7-0.3-0.7-0.7V102.1c0-0.4,0.3-0.7,0.7-0.7h243.9c0.4,0,0.7,0.3,0.7,0.7V277
			C469.9,277.4,469.6,277.7,469.2,277.7z M226,276.3h242.6V102.8H226V276.3z"/>
	</g>
	<rect x="225.3" y="93.3" class="st19" width="243.9" height="15.1"/>
	<path class="st18" d="M469.2,109.1H225.3c-0.4,0-0.7-0.3-0.7-0.7V93.3c0-0.4,0.3-0.7,0.7-0.7h243.9c0.4,0,0.7,0.3,0.7,0.7v15.1
		C469.9,108.8,469.6,109.1,469.2,109.1z M226,107.8h242.6V94H226V107.8z"/>
	<g>
		<path class="st14" d="M415.9,100.9c0-1.8,1.4-3.2,3.2-3.2s3.2,1.4,3.2,3.2c0,1.8-1.4,3.2-3.2,3.2S415.9,102.6,415.9,100.9z"/>
		<path class="st18" d="M419.1,104.8c-2.1,0-3.9-1.7-3.9-3.9s1.7-3.9,3.9-3.9c2.1,0,3.9,1.7,3.9,3.9S421.2,104.8,419.1,104.8z
			 M419.1,98.3c-1.4,0-2.6,1.1-2.6,2.6s1.1,2.6,2.6,2.6c1.4,0,2.6-1.1,2.6-2.6S420.5,98.3,419.1,98.3z"/>
	</g>
	<g>
		<path class="st14" d="M435,100.9c0-1.8,1.4-3.2,3.2-3.2c1.8,0,3.2,1.4,3.2,3.2c0,1.8-1.4,3.2-3.2,3.2
			C436.5,104.1,435,102.6,435,100.9z"/>
		<path class="st18" d="M438.2,104.8c-2.1,0-3.9-1.7-3.9-3.9s1.7-3.9,3.9-3.9c2.1,0,3.9,1.7,3.9,3.9S440.4,104.8,438.2,104.8z
			 M438.2,98.3c-1.4,0-2.6,1.1-2.6,2.6s1.1,2.6,2.6,2.6c1.4,0,2.6-1.1,2.6-2.6S439.6,98.3,438.2,98.3z"/>
	</g>
	<g>
		<path class="st14" d="M453.7,100.9c0-1.8,1.4-3.2,3.2-3.2c1.8,0,3.2,1.4,3.2,3.2c0,1.8-1.4,3.2-3.2,3.2S453.7,102.6,453.7,100.9z"
			/>
		<path class="st18" d="M456.9,104.8c-2.1,0-3.9-1.7-3.9-3.9s1.7-3.9,3.9-3.9c2.1,0,3.9,1.7,3.9,3.9S459.1,104.8,456.9,104.8z
			 M456.9,98.3c-1.4,0-2.6,1.1-2.6,2.6s1.1,2.6,2.6,2.6c1.4,0,2.6-1.1,2.6-2.6S458.3,98.3,456.9,98.3z"/>
	</g>
	<g class="st20">
		<path class="st18" d="M468.4,109.1c-0.3-0.2-1.3-0.3-1-0.2c-0.6-0.1-1.2,0-1.8-0.1c-2.5-0.1-5-0.2-7.5-0.2
			c-7.5-0.3-15,0.6-22.5,0.5c-3.8,0-7.6,0.2-11.5,0c-3,0-5.9-0.3-8.9-0.4c-8.5,0.1-17.1-0.6-25.6-0.4c-7.4,0.1-14.8,0-22.2-0.1
			c-5.9-0.1-11.8,0-17.8,0c-4.9-0.2-9.9,0.3-14.8,0.3c-10.8,0.2-21.6,0.2-32.4-0.1c-3.9-0.1-7.9-0.2-11.8,0.1
			c-3.3,0.2-6.6,0.1-9.9,0.1c-3.7,0-7.3,0-11-0.1c-4.3-0.2-8.6-0.3-12.9-0.1c-3.5,0-7,0.3-10.5,0.4c-3.2,0-6.5,0.1-9.7,0
			c-2.4-0.2-4.8-0.2-7.2-0.1c-1.3,0.1-2.7-0.3-3.7,0.6c-1.3,1.3-0.4,3.7,1.5,3.7c2.8,0.1,5.7,0,8.5,0.2c4.2,0.1,8.3,0.2,12.5,0
			c5.1-0.3,10.2-0.5,15.3-0.5c4,0.1,7.9,0.2,11.9,0.2c4.3,0.1,8.7,0.1,13,0.1c2.8-0.1,5.6-0.3,8.5-0.2c7.9,0.1,15.7,0.4,23.6,0.3
			c7.9,0,15.9,0.1,23.8-0.3c7.1,0,14.2,0,21.3,0.1c10.5,0.2,21,0,31.5,0c6.4,0.2,12.8,0.3,19.2,0.3c4.8,0.2,9.6,0.5,14.4,0.4
			c3.8-0.1,7.6-0.1,11.4-0.2c2.3-0.1,4.6-0.4,6.9-0.5c6-0.2,12-0.1,17.9,0c0.7,0,1.4,0,1.9-0.5C469.6,111.2,469.4,109.7,468.4,109.1
			z"/>
	</g>
	<g class="st20">
		<path class="st18" d="M470.3,278.6c-0.7-1.8-1.9-1.4-3.6-1.6c-2.6-0.2-5.3-0.2-8-0.1c-5.1,0.1-10.1-0.1-15.2,0.2
			c-4.8,0.1-9.5,0-14.3,0c-3.7-0.1-7.5-0.1-11.2-0.1c-1.1,0-2.2,0-3.4,0c-0.5,0-1-0.1-1.5,0.2c-2.1,0.8-1.5,4,0.8,4
			c3.1,0,6.3,0.1,9.4,0.3c4.5,0.1,9,0.1,13.5,0c3.4,0,6.8-0.4,10.2-0.5c5.9-0.1,11.8,0.1,17.7,0.2c1,0,2-0.1,3-0.1
			c0.4,0,0.8,0,1.2-0.2C470.1,280.6,470.6,279.5,470.3,278.6z"/>
	</g>
	<g>
		<g>
			<path class="st18" d="M420.5,129.7h-29.7c-0.4,0-0.7-0.3-0.7-0.7s0.3-0.7,0.7-0.7h29.7c0.4,0,0.7,0.3,0.7,0.7
				S420.9,129.7,420.5,129.7z"/>
		</g>
		<g>
			<path class="st18" d="M420.5,143.9h-41.8c-0.4,0-0.7-0.3-0.7-0.7s0.3-0.7,0.7-0.7h41.8c0.4,0,0.7,0.3,0.7,0.7
				C421.2,143.6,420.9,143.9,420.5,143.9z"/>
		</g>
	</g>
	<g>
		<g>
			<path class="st2" d="M243.7,85l-1.8-6.2l3.9-5.6l-9.6-6.8c-1.2,2.1-2.5,4.1-3.7,6.2c-0.1,0.1-0.1,0.2-0.2,0.3
				c-0.1,0.1-0.3,0.1-0.5,0.1c-2.1,0-4.3-0.1-6.4-0.1c-1.1-2-2.1-4-3.2-5.8c-0.1-0.1-0.2-0.3-0.4-0.3s-0.3,0.1-0.5,0.1
				c-2.5,1.6-5.1,3.1-7.6,4.7c-0.1,0-0.1,0.1-0.2,0.1c-0.1,0.2,0,0.4,0.1,0.6c1,1.7,2.1,3.3,3.4,4.8c-1.1,2.2-2.4,4.2-3.7,6.1
				c-0.3,0.5-0.7,0.9-1.2,1.1c-0.4,0.1-0.9,0-1.4-0.1c-1.8-0.5-3.6-1.1-5.3-1.8c-1.5,3.6-1.8,7.7-0.8,11.5c0.1,0.3,6.8-0.7,6.8-0.7
				l3.9,7l-3.2,5.3l7.3,5.4l3.8-5.6l6.7,0.1l2.6,5.9l9.9-3.5l-2.4-6.1l3.6-5.9l6.7-0.6l0.2-8.4L243.7,85z M232.2,88.2
				c0.1,0.3-0.2,0.9-0.3,1.1s-0.2,0.5-0.3,0.7c-0.2,0.4-0.6,0.8-0.9,1.1c-0.7,0.7-1.5,1.2-2.4,1.5c-0.4,0.1-0.8,0.2-1.1,0.3
				c-0.3,0.1-0.7,0.1-1,0.1c-0.2,0-0.4-0.1-0.6-0.1c0.6,0-0.1,0-0.3-0.1c-1-0.3-2-1.1-2.5-2.1c-0.3-0.6-0.6-1.2-0.6-1.9
				c0-0.6,0.1-1.2,0.4-1.7c0.3-0.8,0.7-1.6,1.2-2.3c0.5-0.8,1.2-1.6,2-2c0.9-0.4,1.8-0.5,2.6-0.2c0.3-0.2,0.7-0.2,1.1-0.1
				c0.6,0.2,1.1,0.5,1.6,1.1c0.4,0.5,0.7,1,0.9,1.7c0.1,0.2,0.1,0.4,0.2,0.6c0,0.1,0,0.2,0.1,0.4c0,0.2,0,0.4,0.1,0.6v-0.1
				c0-0.2,0-0.2,0,0s0.1,0.4,0.1,0.6c0,0.1,0,0.2,0,0.3C232.3,87.7,232.3,87.9,232.2,88.2z"/>
		</g>
		<g>
			<path class="st18" d="M214.5,92.5C214.5,92.5,214.5,92.4,214.5,92.5c-0.2,0-0.2-0.2-0.2-0.3c1.9-6.6,4.1-13.2,6.7-19.6
				c0-0.1,0.2-0.2,0.3-0.1c0.1,0,0.2,0.2,0.1,0.3c-2.5,6.4-4.7,13-6.6,19.6C214.7,92.4,214.6,92.5,214.5,92.5z"/>
		</g>
		<g>
			<path class="st18" d="M217.4,93.5L217.4,93.5c-0.2,0-0.2-0.2-0.2-0.3c1.8-6.3,4.1-12.4,6.9-18.2c0.1-0.1,0.2-0.2,0.3-0.1
				s0.2,0.2,0.1,0.3c-2.8,5.8-5.1,11.9-6.8,18.1C217.6,93.5,217.5,93.5,217.4,93.5z"/>
		</g>
		<g>
			<path class="st18" d="M216.3,105.5L216.3,105.5c-0.2-0.1-0.3-0.2-0.2-0.3l4.8-11.9c0-0.1,0.2-0.2,0.3-0.1c0.1,0,0.2,0.2,0.1,0.3
				l-4.8,11.9C216.5,105.5,216.4,105.5,216.3,105.5z"/>
		</g>
		<g>
			<path class="st18" d="M222.7,103C222.6,103,222.6,103,222.7,103c-0.2-0.1-0.3-0.2-0.2-0.3l2.7-6.8c0-0.1,0.2-0.2,0.3-0.1
				c0.1,0,0.2,0.2,0.1,0.3l-2.7,6.8C222.8,102.9,222.8,103,222.7,103z"/>
		</g>
		<g>
			<path class="st18" d="M227.7,80.5C227.7,80.5,227.6,80.5,227.7,80.5c-0.2,0-0.2-0.2-0.2-0.3l1.3-4.2c0-0.1,0.2-0.2,0.3-0.1
				c0.1,0,0.2,0.2,0.1,0.3l-1.3,4.2C227.9,80.4,227.8,80.5,227.7,80.5z"/>
		</g>
		<g>
			<path class="st18" d="M232.8,81.6C232.7,81.6,232.7,81.6,232.8,81.6c-0.2-0.1-0.3-0.2-0.2-0.3c1.3-3.6,2.8-7.1,4.5-10.6
				c0.1-0.1,0.2-0.2,0.3-0.1s0.2,0.2,0.1,0.3c-1.7,3.4-3.2,7-4.5,10.5C232.9,81.5,232.8,81.6,232.8,81.6z"/>
		</g>
		<g>
			<path class="st18" d="M227.7,103C227.7,103,227.6,103,227.7,103c-0.2-0.1-0.3-0.2-0.2-0.3l12.2-26.5c0.1-0.1,0.2-0.2,0.3-0.1
				s0.2,0.2,0.1,0.3l-12.2,26.5C227.8,103,227.8,103,227.7,103z"/>
		</g>
		<g>
			<path class="st18" d="M232.6,104.1C232.5,104.1,232.5,104.1,232.6,104.1c-0.2-0.1-0.3-0.2-0.2-0.3l8.2-18
				c0.1-0.1,0.2-0.2,0.3-0.1s0.2,0.2,0.1,0.3l-8.2,18C232.7,104.1,232.7,104.1,232.6,104.1z"/>
		</g>
		<g>
			<path class="st18" d="M241.3,95.1h-0.1c-0.1-0.1-0.1-0.2-0.1-0.3l3.6-6.7c0.1-0.1,0.2-0.1,0.3-0.1c0.1,0.1,0.1,0.2,0.1,0.3
				l-3.6,6.7C241.5,95,241.4,95.1,241.3,95.1z"/>
		</g>
		<g>
			<path class="st18" d="M235.3,107.8C235.2,107.8,235.2,107.7,235.3,107.8c-0.2-0.1-0.3-0.2-0.2-0.3l1.6-3.3
				c0.1-0.1,0.2-0.2,0.3-0.1s0.2,0.2,0.1,0.3l-1.6,3.3C235.4,107.7,235.3,107.8,235.3,107.8z"/>
		</g>
		<g>
			<path class="st18" d="M207.6,90.9L207.6,90.9c-0.2-0.1-0.3-0.2-0.2-0.3l2.2-4.7c0.1-0.1,0.2-0.2,0.3-0.1s0.2,0.2,0.1,0.3
				l-2.2,4.7C207.8,90.8,207.7,90.9,207.6,90.9z"/>
		</g>
		<g>
			<path class="st18" d="M217,73.3h-0.1c-0.1-0.1-0.1-0.2-0.1-0.3l1.6-3c0.1-0.1,0.2-0.1,0.3-0.1c0.1,0.1,0.1,0.2,0.1,0.3l-1.6,3
				C217.1,73.3,217,73.3,217,73.3z"/>
		</g>
		<g class="st20">
			<path class="st18" d="M234.2,89.4c-0.1-1-1.7-1.1-1.9-0.1c-0.3,1-0.2,0.8-1.2,1.8c-1,0.8-0.6,0.6-2.2,1.2
				c-1.5,0.4-0.9,0.4-2.1,0.3c-0.2,0-0.3-0.1-0.5-0.1c-0.6-0.2-0.4-0.1-1.6-0.8c-0.5-0.2-0.9-0.7-1.4-0.7c-1.7-0.3-2.5,2.1-1,3
				c2.6,1.8,5.2,2.6,8.2,1.1c1.5-0.9,2.6-2.3,3.2-4C233.9,90.6,234.2,90,234.2,89.4z"/>
		</g>
		<g class="st20">
			<path class="st18" d="M238.7,106.2c-1,0.4-1.3,0.6-3.2,0.9c-0.9,0.3-1.9,0.1-2.7,0.7c-1.6,1.1-0.3,3.7,1.5,3.2
				c2.2-0.5,4.7-0.6,6.4-2.2C242.1,107.3,240.4,105.4,238.7,106.2z"/>
		</g>
		<g class="st20">
			<path class="st18" d="M251,91.8L251,91.8L251,91.8c0-0.4-0.1-0.7-0.3-1.1c-0.8-1.4-3-1.2-3.5,0.3c0,0.1-0.1,0.1-0.1,0.2
				c-0.1,0.3-0.2,0.6-0.4,0.9c-0.1,0.2-0.2,0.5-0.3,0.7c-0.2,0.3-0.3,0.7-0.3,1.1c0,2.4,3.4,2.9,4.1,0.6c0.3-0.8,0.6-1.5,0.7-2.4
				C251,92.1,251,91.9,251,91.8z"/>
		</g>
		<g>
			<path class="st18" d="M232.3,111.8c-0.3,0-0.5-0.2-0.6-0.4c-0.7-1.9-1.5-3.7-2.6-5.5c-2.1,0.3-4.2,0.1-6.2-0.1
				c-0.6,1.1-1.2,2.2-1.8,3.3c-0.3,0.7-0.7,1.3-1.1,2c-0.2,0.3-0.5,0.4-0.8,0.3c-3.2-1.3-6-3.3-8.1-5.9c-0.2-0.2-0.2-0.6,0-0.8
				c1.1-1.5,2.2-3.1,3.4-5.1c-1.3-1.7-2.4-3.7-3.5-6.2c-0.5,0.1-1,0.2-1.5,0.3c-1.6,0.3-3.2,0.7-4.9,0.9c-0.3,0-0.7-0.2-0.7-0.5
				c-1-3.7-0.7-7.8,0.8-12.3c0.1-0.3,0.5-0.5,0.8-0.4l0,0c2.2,0.6,4.4,1.1,6.8,1.7c1-2,2.1-4,3.4-6c-1.1-1.5-2.3-3.2-3.4-5.1
				c-0.1-0.3-0.1-0.6,0.1-0.8c2.4-2.2,5.4-4.1,8.9-5.6c0.3-0.1,0.7,0,0.9,0.3c1.1,2,2.1,4,2.9,6.1c2.3-0.4,4.6-0.4,6.8-0.2
				c1-2,2.1-4,3.4-6.1c0.2-0.3,0.6-0.4,0.9-0.2c2.6,1.4,5,3,7.3,4.9c0.6,0.5,1.2,1.1,1.8,1.6c0.3,0.3,0.6,0.6,0.8,1
				c0,0.2,0,0.4-0.1,0.5c-0.5,0.8-1,1.5-1.6,2.3c-0.7,1.1-1.5,2.2-2.3,3.4c0.7,1.7,1.4,3.4,2,5.2c1.9,0.2,4.3,0.6,6.9,1.6
				c0.2,0.1,0.4,0.3,0.4,0.6c0.2,3.4-0.2,6.5-1.4,9.4c-0.1,0.3-0.4,0.4-0.7,0.4h-0.7c-1.7-0.1-3.4-0.1-5.3,0
				c-0.7,1.7-1.8,3.5-3.4,5.4c1,1.8,2,3.6,2.9,5.8c0.1,0.3,0,0.7-0.3,0.8C239.4,110.3,235.9,111.5,232.3,111.8
				C232.4,111.8,232.4,111.8,232.3,111.8z M229.5,104.6c0.2,0,0.4,0.1,0.6,0.3c1.2,1.9,2,3.8,2.7,5.6c3-0.4,6-1.4,8.9-2.9
				c-0.9-2-1.9-3.8-2.8-5.5c-0.1-0.2-0.1-0.5,0.1-0.8c1.8-2.1,2.9-4,3.6-5.8c0.1-0.2,0.3-0.4,0.6-0.4c2.1-0.2,4-0.1,5.9,0h0.3
				c0.9-2.5,1.3-5.2,1.1-8c-2.5-1-4.8-1.3-6.6-1.4c-0.3,0-0.5-0.2-0.6-0.4c-0.7-2-1.5-3.9-2.2-5.8c-0.1-0.2-0.1-0.4,0.1-0.6
				c0.9-1.3,1.7-2.5,2.5-3.7c0.5-0.7,0.9-1.3,1.3-1.9c-0.1-0.1-0.2-0.1-0.2-0.2c-0.6-0.5-1.2-1-1.8-1.5c-2-1.7-4.2-3.2-6.5-4.4
				c-1.2,2-2.3,4-3.2,5.9c-0.1,0.2-0.4,0.4-0.7,0.4c-2.5-0.3-5-0.2-7.5,0.3c-0.3,0.1-0.6-0.1-0.7-0.4c-0.8-2-1.7-4-2.8-5.9
				c-3,1.4-5.5,3-7.6,4.8c1.1,1.9,2.2,3.5,3.3,4.9c0.2,0.2,0.2,0.5,0,0.8c-1.4,2.3-2.8,4.4-3.8,6.7c-0.1,0.3-0.5,0.5-0.8,0.4
				c-2.3-0.6-4.6-1.1-6.8-1.7c-1.2,3.8-1.4,7.2-0.7,10.3c1.5-0.2,2.9-0.5,4.2-0.8c0.7-0.1,1.3-0.3,2-0.4c0.3-0.1,0.6,0.1,0.7,0.4
				c1.1,2.8,2.4,5,3.8,6.7c0.2,0.2,0.2,0.5,0,0.8c-1.2,2-2.3,3.6-3.4,5.1c1.8,2.1,4,3.8,6.6,4.9c0.3-0.5,0.5-1,0.8-1.5
				c0.7-1.3,1.3-2.5,2-3.7c0.1-0.2,0.4-0.4,0.7-0.3C224.8,104.7,227.1,104.9,229.5,104.6C229.4,104.6,229.4,104.6,229.5,104.6z"/>
		</g>
		<g>
			<path class="st18" d="M226.4,93c-0.9,0-1.8-0.2-2.6-0.6c-0.7-0.3-1.2-0.7-1.6-1.2c-0.5-0.7-0.6-1.5-0.6-2.1
				c-0.2-2.2,0.4-4.2,1.5-5.6c1.4-1.7,3.6-2.5,5.5-1.9c0.1,0,0.2,0.1,0.3,0.2c0,0,0,0,0.1,0c2,0.7,3.4,2.7,3.6,4.8
				c0.1,2.1-1,4.2-2.8,5.3C228.7,92.7,227.6,93,226.4,93z M227.2,82.8c-1.1,0-2.3,0.6-3.1,1.6c-0.9,1.2-1.3,2.8-1.2,4.7
				c0,0.5,0.1,1,0.4,1.4c0.2,0.3,0.5,0.5,1,0.7c1.5,0.7,3.3,0.6,4.7-0.3s2.3-2.5,2.2-4.1s-1.2-3.2-2.7-3.6c-0.1,0-0.1,0-0.2-0.1
				c-0.1,0-0.4-0.1-0.5-0.3C227.6,82.8,227.4,82.8,227.2,82.8z M228.4,82.3l0.1,0.7l0,0L228.4,82.3z"/>
		</g>
	</g>
	<g>
		<g>
			<path class="st18" d="M246.3,247.6c-0.2,0-0.3-0.1-0.4-0.2c-0.3-0.2-0.3-0.7-0.1-0.9l23.7-28.6c0.2-0.3,0.6-0.3,0.9-0.1
				l15.3,11.4l33.9-55.2c0.1-0.2,0.3-0.3,0.4-0.3c0.2,0,0.4,0,0.5,0.1l17.2,12.5l18.8-32.8c0.1-0.2,0.3-0.3,0.5-0.3s0.4,0.1,0.6,0.2
				l24.7,26.8l7.2-5.8c0.1-0.1,0.3-0.2,0.5-0.1c0.2,0,0.3,0.1,0.5,0.3l25.4,35.8l36.1-40.1c0.2-0.3,0.7-0.3,0.9-0.1
				c0.3,0.2,0.3,0.7,0,0.9l-36.7,40.8c-0.1,0.2-0.3,0.2-0.5,0.2s-0.4-0.1-0.5-0.3l-25.4-35.9l-7.2,5.7c-0.3,0.2-0.7,0.2-0.9-0.1
				L357.3,155l-18.7,32.7c-0.1,0.2-0.3,0.3-0.4,0.3c-0.2,0-0.4,0-0.5-0.1l-17.2-12.5l-33.9,55.2c-0.1,0.2-0.3,0.3-0.4,0.3
				c-0.2,0-0.4,0-0.5-0.1l-15.4-11.5L247,247.4C246.7,247.5,246.5,247.6,246.3,247.6z"/>
		</g>
		<g>
			<path class="st18" d="M270.2,262.5c-0.4,0-0.7-0.3-0.7-0.7v-5.3c0-0.4,0.3-0.7,0.7-0.7l0,0c0.4,0,0.7,0.3,0.7,0.7v5.3
				C270.9,262.2,270.6,262.5,270.2,262.5L270.2,262.5z M270.2,251.8c-0.4,0-0.7-0.3-0.7-0.7v-5.3c0-0.4,0.3-0.7,0.7-0.7l0,0
				c0.4,0,0.7,0.3,0.7,0.7v5.3C270.9,251.5,270.6,251.8,270.2,251.8L270.2,251.8z M270.1,241.2c-0.4,0-0.7-0.3-0.7-0.7v-5.3
				c0-0.4,0.3-0.7,0.7-0.7l0,0c0.4,0,0.7,0.3,0.7,0.7v5.3C270.8,240.9,270.5,241.2,270.1,241.2C270.2,241.2,270.2,241.2,270.1,241.2
				z M270.1,230.5c-0.4,0-0.7-0.3-0.7-0.7v-5.3c0-0.4,0.3-0.7,0.7-0.7l0,0c0.4,0,0.7,0.3,0.7,0.7v5.3
				C270.8,230.2,270.5,230.5,270.1,230.5L270.1,230.5z M270.1,219.8c-0.4,0-0.7-0.3-0.7-0.7v-0.5c0-0.4,0.3-0.7,0.7-0.7l0,0
				c0.4,0,0.7,0.3,0.7,0.7v0.5C270.7,219.5,270.4,219.8,270.1,219.8L270.1,219.8z"/>
		</g>
		<g>
			<path class="st18" d="M320.3,261.6c-0.4,0-0.7-0.3-0.7-0.7v-5.3c0-0.4,0.3-0.7,0.7-0.7l0,0c0.4,0,0.7,0.3,0.7,0.7v5.3
				C320.9,261.3,320.6,261.6,320.3,261.6L320.3,261.6z M320.3,250.9c-0.4,0-0.7-0.3-0.7-0.7v-5.3c0-0.4,0.3-0.7,0.7-0.7l0,0
				c0.4,0,0.7,0.3,0.7,0.7v5.3C320.9,250.6,320.6,250.9,320.3,250.9L320.3,250.9z M320.2,240.2c-0.4,0-0.7-0.3-0.7-0.7v-5.3
				c0-0.4,0.3-0.7,0.7-0.7l0,0c0.4,0,0.7,0.3,0.7,0.7v5.3C320.9,239.9,320.6,240.2,320.2,240.2L320.2,240.2z M320.2,229.6
				c-0.4,0-0.7-0.3-0.7-0.7v-5.3c0-0.4,0.3-0.7,0.7-0.7l0,0c0.4,0,0.7,0.3,0.7,0.7v5.3C320.9,229.3,320.6,229.6,320.2,229.6
				L320.2,229.6z M320.2,218.9c-0.4,0-0.7-0.3-0.7-0.7v-5.3c0-0.4,0.3-0.7,0.7-0.7l0,0c0.4,0,0.7,0.3,0.7,0.7v5.3
				C320.9,218.6,320.6,218.9,320.2,218.9L320.2,218.9z M320.2,208.2c-0.4,0-0.7-0.3-0.7-0.7v-5.3c0-0.4,0.3-0.7,0.7-0.7l0,0
				c0.4,0,0.7,0.3,0.7,0.7v5.3C320.8,207.9,320.5,208.2,320.2,208.2L320.2,208.2z M320.2,197.5c-0.4,0-0.7-0.3-0.7-0.7v-5.3
				c0-0.4,0.3-0.7,0.7-0.7l0,0c0.4,0,0.7,0.3,0.7,0.7v5.3C320.8,197.2,320.5,197.5,320.2,197.5L320.2,197.5z M320.1,186.8
				c-0.4,0-0.7-0.3-0.7-0.7v-5.3c0-0.4,0.3-0.7,0.7-0.7l0,0c0.4,0,0.7,0.3,0.7,0.7v5.3C320.8,186.5,320.5,186.8,320.1,186.8
				L320.1,186.8z M320.1,176.1c-0.4,0-0.7-0.3-0.7-0.7v-1.1c0-0.4,0.3-0.7,0.7-0.7l0,0c0.4,0,0.7,0.3,0.7,0.7v1.1
				C320.8,175.8,320.5,176.1,320.1,176.1L320.1,176.1z"/>
		</g>
		<g>
			<path class="st18" d="M358.1,261.6c-0.4,0-0.7-0.3-0.7-0.7v-5.3c0-0.4,0.3-0.7,0.7-0.7l0,0c0.4,0,0.7,0.3,0.7,0.7v5.3
				C358.8,261.3,358.5,261.6,358.1,261.6L358.1,261.6z M358.1,250.9c-0.4,0-0.7-0.3-0.7-0.7v-5.3c0-0.4,0.3-0.7,0.7-0.7l0,0
				c0.4,0,0.7,0.3,0.7,0.7v5.3C358.8,250.6,358.5,250.9,358.1,250.9L358.1,250.9z M358.1,240.2c-0.4,0-0.7-0.3-0.7-0.7v-5.3
				c0-0.4,0.3-0.7,0.7-0.7l0,0c0.4,0,0.7,0.3,0.7,0.7v5.3C358.7,239.9,358.4,240.2,358.1,240.2L358.1,240.2z M358.1,229.6
				c-0.4,0-0.7-0.3-0.7-0.7v-5.3c0-0.4,0.3-0.7,0.7-0.7l0,0c0.4,0,0.7,0.3,0.7,0.7v5.3C358.7,229.3,358.4,229.6,358.1,229.6
				L358.1,229.6z M358,218.9c-0.4,0-0.7-0.3-0.7-0.7v-5.3c0-0.4,0.3-0.7,0.7-0.7l0,0c0.4,0,0.7,0.3,0.7,0.7v5.3
				C358.7,218.6,358.4,218.9,358,218.9L358,218.9z M358,208.2c-0.4,0-0.7-0.3-0.7-0.7v-5.3c0-0.4,0.3-0.7,0.7-0.7l0,0
				c0.4,0,0.7,0.3,0.7,0.7v5.3C358.7,207.9,358.4,208.2,358,208.2L358,208.2z M358,197.5c-0.4,0-0.7-0.3-0.7-0.7v-5.3
				c0-0.4,0.3-0.7,0.7-0.7l0,0c0.4,0,0.7,0.3,0.7,0.7v5.3C358.7,197.2,358.4,197.5,358,197.5L358,197.5z M358,186.8
				c-0.4,0-0.7-0.3-0.7-0.7v-5.3c0-0.4,0.3-0.7,0.7-0.7l0,0c0.4,0,0.7,0.3,0.7,0.7v5.3C358.7,186.5,358.4,186.8,358,186.8L358,186.8
				z M358,176.1c-0.4,0-0.7-0.3-0.7-0.7v-5.3c0-0.4,0.3-0.7,0.7-0.7l0,0c0.4,0,0.7,0.3,0.7,0.7v5.3
				C358.6,175.8,358.3,176.1,358,176.1L358,176.1z M358,165.5c-0.4,0-0.7-0.3-0.7-0.7v-5.3c0-0.4,0.3-0.7,0.7-0.7l0,0
				c0.4,0,0.7,0.3,0.7,0.7v5.3C358.6,165.2,358.3,165.5,358,165.5L358,165.5z"/>
		</g>
		<g>
			<path class="st18" d="M390.2,261.6c-0.4,0-0.7-0.3-0.7-0.7v-5.3c0-0.4,0.3-0.7,0.7-0.7l0,0c0.4,0,0.7,0.3,0.7,0.7v5.3
				C390.8,261.3,390.5,261.6,390.2,261.6L390.2,261.6z M390.1,250.9c-0.4,0-0.7-0.3-0.7-0.7v-5.3c0-0.4,0.3-0.7,0.7-0.7
				c0.4,0,0.7,0.3,0.7,0.7v5.3C390.8,250.6,390.5,250.9,390.1,250.9L390.1,250.9z M390.1,240.2c-0.4,0-0.7-0.3-0.7-0.7v-5.3
				c0-0.4,0.3-0.7,0.7-0.7l0,0c0.4,0,0.7,0.3,0.7,0.7v5.3C390.8,239.9,390.5,240.2,390.1,240.2L390.1,240.2z M390.1,229.6
				c-0.4,0-0.7-0.3-0.7-0.7v-5.3c0-0.4,0.3-0.7,0.7-0.7l0,0c0.4,0,0.7,0.3,0.7,0.7v5.3C390.8,229.3,390.5,229.6,390.1,229.6
				L390.1,229.6z M390.1,218.9c-0.4,0-0.7-0.3-0.7-0.7v-5.3c0-0.4,0.3-0.7,0.7-0.7l0,0c0.4,0,0.7,0.3,0.7,0.7v5.3
				C390.7,218.6,390.4,218.9,390.1,218.9L390.1,218.9z M390.1,208.2c-0.4,0-0.7-0.3-0.7-0.7v-5.3c0-0.4,0.3-0.7,0.7-0.7l0,0
				c0.4,0,0.7,0.3,0.7,0.7v5.3C390.7,207.9,390.4,208.2,390.1,208.2L390.1,208.2z M390,197.5c-0.4,0-0.7-0.3-0.7-0.7v-5.3
				c0-0.4,0.3-0.7,0.7-0.7l0,0c0.4,0,0.7,0.3,0.7,0.7v5.3C390.7,197.2,390.4,197.5,390,197.5L390,197.5z M390,186.8
				c-0.4,0-0.7-0.3-0.7-0.7v-5.3c0-0.4,0.3-0.7,0.7-0.7l0,0c0.4,0,0.7,0.3,0.7,0.7v5.3C390.7,186.5,390.4,186.8,390,186.8L390,186.8
				z M390,176.1c-0.4,0-0.7-0.3-0.7-0.7v-0.5c0-0.4,0.3-0.7,0.7-0.7l0,0c0.4,0,0.7,0.3,0.7,0.7v0.5
				C390.7,175.8,390.4,176.1,390,176.1L390,176.1z"/>
		</g>
		<g>
			<path class="st18" d="M452.5,262.5c-0.4,0-0.7-0.3-0.7-0.7v-5.3c0-0.4,0.3-0.7,0.7-0.7l0,0c0.4,0,0.7,0.3,0.7,0.7v5.3
				C453.2,262.2,452.9,262.5,452.5,262.5L452.5,262.5z M452.5,251.8c-0.4,0-0.7-0.3-0.7-0.7v-5.3c0-0.4,0.3-0.7,0.7-0.7l0,0
				c0.4,0,0.7,0.3,0.7,0.7v5.3C453.2,251.5,452.9,251.8,452.5,251.8L452.5,251.8z M452.5,241.2c-0.4,0-0.7-0.3-0.7-0.7v-5.3
				c0-0.4,0.3-0.7,0.7-0.7l0,0c0.4,0,0.7,0.3,0.7,0.7v5.3C453.2,240.9,452.9,241.2,452.5,241.2L452.5,241.2z M452.5,230.5
				c-0.4,0-0.7-0.3-0.7-0.7v-5.3c0-0.4,0.3-0.7,0.7-0.7l0,0c0.4,0,0.7,0.3,0.7,0.7v5.3C453.1,230.2,452.8,230.5,452.5,230.5
				L452.5,230.5z M452.5,219.8c-0.4,0-0.7-0.3-0.7-0.7v-5.3c0-0.4,0.3-0.7,0.7-0.7l0,0c0.4,0,0.7,0.3,0.7,0.7v5.3
				C453.1,219.5,452.8,219.8,452.5,219.8L452.5,219.8z M452.4,209.1c-0.4,0-0.7-0.3-0.7-0.7v-5.3c0-0.4,0.3-0.7,0.7-0.7l0,0
				c0.4,0,0.7,0.3,0.7,0.7v5.3C453.1,208.8,452.8,209.1,452.4,209.1L452.4,209.1z M452.4,198.4c-0.4,0-0.7-0.3-0.7-0.7v-5.3
				c0-0.4,0.3-0.7,0.7-0.7l0,0c0.4,0,0.7,0.3,0.7,0.7v5.3C453.1,198.1,452.8,198.4,452.4,198.4L452.4,198.4z M452.4,187.8
				c-0.4,0-0.7-0.3-0.7-0.7v-5.3c0-0.4,0.3-0.7,0.7-0.7l0,0c0.4,0,0.7,0.3,0.7,0.7v5.3C453.1,187.5,452.8,187.7,452.4,187.8
				L452.4,187.8z M452.4,177.1c-0.4,0-0.7-0.3-0.7-0.7v-5.3c0-0.4,0.3-0.7,0.7-0.7l0,0c0.4,0,0.7,0.3,0.7,0.7v5.3
				C453.1,176.8,452.8,177.1,452.4,177.1L452.4,177.1z"/>
		</g>
		<g>
			<path class="st18" d="M460.4,262.5h-219c-0.4,0-0.7-0.3-0.7-0.7s0.3-0.7,0.7-0.7h219c0.4,0,0.7,0.3,0.7,0.7
				S460.8,262.5,460.4,262.5z"/>
		</g>
		<g>
			<path class="st18" d="M364.6,259.7c-0.1,0-0.1,0-0.1-0.1l-3.6-3.2c-0.1-0.1-0.1-0.2,0-0.3c0.1-0.1,0.2-0.1,0.3,0l3.6,3.2
				c0.1,0.1,0.1,0.2,0,0.3C364.7,259.7,364.7,259.7,364.6,259.7z"/>
		</g>
		<g>
			<path class="st18" d="M370.3,259.8h-0.1c-3.5-2.4-6.8-5-10-7.7c-0.1-0.1-0.1-0.2,0-0.3s0.2-0.1,0.3,0c3.2,2.7,6.5,5.3,10,7.7
				c0.1,0.1,0.1,0.2,0.1,0.3C370.5,259.7,370.4,259.8,370.3,259.8z"/>
		</g>
		<g>
			<path class="st18" d="M374.9,259.7h-0.1c-4.8-3.8-9.6-7.8-14.4-11.7c-0.1-0.1-0.1-0.2,0-0.3s0.2-0.1,0.3,0
				c4.7,3.9,9.6,7.9,14.4,11.7c0.1,0.1,0.1,0.2,0,0.3C375,259.7,374.9,259.7,374.9,259.7z"/>
		</g>
		<g>
			<path class="st18" d="M379.4,259.8h-0.1c-6.5-5.1-12.8-10.5-19-16c-0.1-0.1-0.1-0.2,0-0.3s0.2-0.1,0.3,0c6.1,5.5,12.5,10.9,19,16
				c0.1,0.1,0.1,0.2,0,0.3C379.5,259.8,379.5,259.8,379.4,259.8z"/>
		</g>
		<g>
			<path class="st18" d="M383.5,259.8c-0.1,0-0.1,0-0.2-0.1c-7.3-6.8-15-13.5-22.7-19.8c-0.1-0.1-0.1-0.2,0-0.3s0.2-0.1,0.3,0
				c7.8,6.3,15.4,13,22.8,19.8c0.1,0.1,0.1,0.2,0,0.3C383.6,259.8,383.6,259.8,383.5,259.8z"/>
		</g>
		<g>
			<path class="st18" d="M388.5,259.4c-0.1,0-0.1,0-0.1-0.1l-28-24.9c-0.1-0.1-0.1-0.2,0-0.3s0.2-0.1,0.3,0l28,24.9
				c0.1,0.1,0.1,0.2,0,0.3C388.6,259.3,388.6,259.4,388.5,259.4z"/>
		</g>
		<g>
			<path class="st18" d="M387.5,253.5c0,0-0.1,0-0.1-0.1c-9.3-7.6-18.5-15.7-27.1-24c-0.1-0.1-0.1-0.2,0-0.3s0.2-0.1,0.3,0
				c8.7,8.3,17.8,16.4,27.1,24c0.1,0.1,0.1,0.2,0,0.3C387.6,253.5,387.5,253.5,387.5,253.5z"/>
		</g>
		<g>
			<path class="st18" d="M387,248.5c-0.1,0-0.1,0-0.1-0.1l-26.6-23.8c-0.1-0.1-0.1-0.2,0-0.3s0.2-0.1,0.3,0l26.6,23.8
				c0.1,0.1,0.1,0.2,0,0.3C387.1,248.4,387,248.5,387,248.5z"/>
		</g>
		<g>
			<path class="st18" d="M386.8,243h-0.1c-3.3-2.4-6.3-5.1-9.3-7.8c-5.6-5-11.4-10.2-17-15.6c-0.1-0.1-0.1-0.2,0-0.3s0.2-0.1,0.3,0
				c5.5,5.3,11.3,10.5,16.9,15.5c3,2.7,6,5.4,9.3,7.8c0.1,0.1,0.1,0.2,0,0.3C386.9,243,386.9,243,386.8,243z"/>
		</g>
		<g>
			<path class="st18" d="M386.8,238.6h-0.1c-9.1-7.2-17.9-15-26.3-23.1c-0.1-0.1-0.1-0.2,0-0.3s0.2-0.1,0.3,0
				c8.3,8.1,17.2,15.8,26.2,23.1c0.1,0.1,0.1,0.2,0,0.3C387,238.6,386.9,238.6,386.8,238.6z"/>
		</g>
		<g>
			<path class="st18" d="M386.8,234.3c-0.1,0-0.1,0-0.1-0.1c-8.9-7.7-17.8-15.7-26.4-23.7c-0.1-0.1-0.1-0.2,0-0.3s0.2-0.1,0.3,0
				c8.6,8,17.5,16,26.4,23.7c0.1,0.1,0.1,0.2,0,0.3C386.9,234.2,386.9,234.3,386.8,234.3z"/>
		</g>
		<g>
			<path class="st18" d="M386.7,229.6c0,0-0.1,0-0.1-0.1c-8.9-7.3-17.8-15-26.3-22.8c-0.1-0.1-0.1-0.2,0-0.3s0.2-0.1,0.3,0
				c8.5,7.8,17.4,15.4,26.3,22.7c0.1,0.1,0.1,0.2,0,0.3C386.8,229.6,386.8,229.6,386.7,229.6z"/>
		</g>
		<g>
			<path class="st18" d="M386.7,225c-0.1,0-0.1,0-0.1-0.1l-26.3-22.2c-0.1-0.1-0.1-0.2,0-0.3s0.2-0.1,0.3,0l26.3,22.2
				c0.1,0.1,0.1,0.2,0,0.3C386.9,225,386.8,225,386.7,225z"/>
		</g>
		<g>
			<path class="st18" d="M387,220.8c-0.1,0-0.1,0-0.1-0.1l-26.8-22.5c-0.1-0.1-0.1-0.2,0-0.3s0.2-0.1,0.3,0l26.8,22.5
				c0.1,0.1,0.1,0.2,0,0.3C387.2,220.8,387.1,220.8,387,220.8z"/>
		</g>
		<g>
			<path class="st18" d="M386.9,215.6h-0.1c-9-7.3-18-14.8-26.7-22.4c-0.1-0.1-0.1-0.2,0-0.3s0.2-0.1,0.3,0
				c8.7,7.6,17.7,15.1,26.7,22.4c0.1,0.1,0.1,0.2,0,0.3C387,215.6,386.9,215.6,386.9,215.6z"/>
		</g>
		<g>
			<path class="st18" d="M387.1,211.5H387c-9.2-7.1-18.3-14.7-27-22.4c-0.1-0.1-0.1-0.2,0-0.3s0.2-0.1,0.3,0
				c8.7,7.7,17.8,15.3,27,22.4c0.1,0.1,0.1,0.2,0,0.3C387.2,211.5,387.1,211.5,387.1,211.5z"/>
		</g>
		<g>
			<path class="st18" d="M387,207.1h-0.1c-9.4-6.7-18.4-14.1-26.8-22c-0.1-0.1-0.1-0.2,0-0.3s0.2-0.1,0.3,0
				c8.4,7.9,17.4,15.2,26.8,21.9c0.1,0.1,0.1,0.2,0.1,0.3C387.1,207,387.1,207.1,387,207.1z"/>
		</g>
		<g>
			<path class="st18" d="M386.7,202.8h-0.1c-9.2-6.7-18.1-14.1-26.4-21.9c-0.1-0.1-0.1-0.2,0-0.3s0.2-0.1,0.3,0
				c8.3,7.8,17.2,15.2,26.4,21.9c0.1,0.1,0.1,0.2,0,0.3C386.8,202.8,386.7,202.8,386.7,202.8z"/>
		</g>
		<g>
			<path class="st18" d="M386.9,198.3h-0.1c-9-7-18-14.3-26.6-21.7c-0.1-0.1-0.1-0.2,0-0.3s0.2-0.1,0.3,0
				c8.6,7.4,17.6,14.7,26.6,21.7c0.1,0.1,0.1,0.2,0,0.3C387,198.3,387,198.3,386.9,198.3z"/>
		</g>
		<g>
			<path class="st18" d="M386.6,193.1h-0.1c-4.2-3.2-8.3-6.4-12.7-9.9c-4.5-3.5-9.2-7.2-14-10.9c-0.1-0.1-0.1-0.2,0-0.3
				s0.2-0.1,0.3,0c4.8,3.7,9.5,7.4,14,10.9c4.4,3.4,8.5,6.6,12.7,9.8c0.1,0.1,0.1,0.2,0,0.3C386.7,193.1,386.6,193.1,386.6,193.1z"
				/>
		</g>
		<g>
			<path class="st18" d="M386.3,188.8h-0.1c-7.2-5.7-16.8-13.2-26.5-20.5c-0.1-0.1-0.1-0.2,0-0.3s0.2-0.1,0.3,0
				c9.8,7.2,19.3,14.7,26.5,20.5c0.1,0.1,0.1,0.2,0,0.3C386.5,188.8,386.4,188.8,386.3,188.8z"/>
		</g>
		<g>
			<path class="st18" d="M374.6,175.5h-0.1c-5-3.9-9.4-7.3-13.4-10.5c-0.1-0.1-0.1-0.2,0-0.3s0.2-0.1,0.3,0c4,3.2,8.4,6.6,13.4,10.5
				c0.1,0.1,0.1,0.2,0,0.3C374.8,175.4,374.7,175.5,374.6,175.5z"/>
		</g>
		<g>
			<path class="st18" d="M386.7,184.5h-0.1c-0.8-0.6-1.7-1.2-2.5-1.8c-0.1-0.1-0.1-0.2,0-0.3s0.2-0.1,0.3,0c0.8,0.6,1.6,1.2,2.5,1.8
				c0.1,0.1,0.1,0.2,0,0.3C386.8,184.5,386.8,184.5,386.7,184.5z"/>
		</g>
	</g>
	<g>
		<g>
			<rect x="249" y="134.5" class="st2" width="91.2" height="62.8"/>
			<path class="st18" d="M340.2,197.9H249c-0.4,0-0.7-0.3-0.7-0.7v-62.8c0-0.4,0.3-0.7,0.7-0.7h91.2c0.4,0,0.7,0.3,0.7,0.7v62.8
				C340.9,197.6,340.6,197.9,340.2,197.9z M249.6,196.6h89.9v-61.4h-89.9V196.6z"/>
		</g>
		<g>
			<path class="st18" d="M320.1,154.3H269c-0.4,0-0.7-0.3-0.7-0.7s0.3-0.7,0.7-0.7h51.1c0.4,0,0.7,0.3,0.7,0.7
				C320.8,154,320.5,154.3,320.1,154.3z"/>
		</g>
		<g>
			<path class="st18" d="M321.3,180.8h-51.1c-0.4,0-0.7-0.3-0.7-0.7s0.3-0.7,0.7-0.7h51.1c0.4,0,0.7,0.3,0.7,0.7
				C321.9,180.5,321.6,180.8,321.3,180.8z"/>
		</g>
		<g>
			<path class="st18" d="M298.8,167.4h-38.5c-0.4,0-0.7-0.3-0.7-0.7s0.3-0.7,0.7-0.7h38.5c0.4,0,0.7,0.3,0.7,0.7
				C299.5,167.1,299.2,167.4,298.8,167.4z"/>
		</g>
		<g>
			<path class="st21" d="M309,153.3c0-1.8,1.4-3.2,3.2-3.2c1.8,0,3.2,1.4,3.2,3.2s-1.4,3.2-3.2,3.2C310.5,156.5,309,155.1,309,153.3
				z"/>
			<path class="st18" d="M312.3,157.2c-2.1,0-3.9-1.7-3.9-3.9c0-2.1,1.7-3.9,3.9-3.9c2.1,0,3.9,1.7,3.9,3.9
				C316.2,155.4,314.4,157.2,312.3,157.2z M312.3,150.7c-1.4,0-2.6,1.1-2.6,2.6c0,1.4,1.1,2.6,2.6,2.6c1.4,0,2.6-1.1,2.6-2.6
				C314.8,151.9,313.7,150.7,312.3,150.7z"/>
		</g>
		<g>
			<path class="st14" d="M276.1,167.6c0-1.8,1.4-3.2,3.2-3.2c1.8,0,3.2,1.4,3.2,3.2s-1.4,3.2-3.2,3.2
				C277.6,170.9,276.1,169.4,276.1,167.6z"/>
			<path class="st18" d="M279.3,171.5c-2.1,0-3.9-1.7-3.9-3.9c0-2.1,1.7-3.9,3.9-3.9s3.9,1.7,3.9,3.9
				C283.2,169.8,281.5,171.5,279.3,171.5z M279.3,165.1c-1.4,0-2.6,1.1-2.6,2.6c0,1.4,1.1,2.6,2.6,2.6s2.6-1.1,2.6-2.6
				C281.9,166.2,280.7,165.1,279.3,165.1z"/>
		</g>
		<g>
			<path class="st21" d="M309,180.2c0-1.8,1.4-3.2,3.2-3.2c1.8,0,3.2,1.4,3.2,3.2s-1.4,3.2-3.2,3.2C310.5,183.4,309,181.9,309,180.2
				z"/>
			<path class="st18" d="M312.3,184.1c-2.1,0-3.9-1.7-3.9-3.9c0-2.1,1.7-3.9,3.9-3.9c2.1,0,3.9,1.7,3.9,3.9
				C316.2,182.3,314.4,184.1,312.3,184.1z M312.3,177.6c-1.4,0-2.6,1.1-2.6,2.6c0,1.4,1.1,2.6,2.6,2.6c1.4,0,2.6-1.1,2.6-2.6
				C314.8,178.8,313.7,177.6,312.3,177.6z"/>
		</g>
		<g class="st20">
			<path class="st18" d="M339.4,197.7c-0.2,0-0.5,0-0.7,0c-1.8,0-3.7-0.1-5.5-0.1c-4.2-0.2-8.4-0.1-12.7-0.3
				c-4.9,0-9.8,0.2-14.7,0.2c-2.8,0.1-5.5-0.1-8.3-0.1c-3.9,0-7.7,0.2-11.6,0.1c-10.2-0.8-20.4-0.8-30.5-0.6c-2,0.1-4.1-0.6-6.1,0
				c-2,0.8-1.4,3.8,0.8,3.8c1.6-0.2,3.2,0.2,4.8,0.2c4.3,0,8.6,0,12.9-0.1c6-0.1,11.9,0.4,17.9,0.8c4,0.1,8-0.1,11.9-0.1
				c2.9,0,5.8,0.2,8.8,0.1c4.4,0,8.7-0.1,13.1-0.2c3.9,0,7.8,0,11.7,0c2.2,0,4.4,0,6.7-0.1c0.6,0,1.3,0,1.9-0.2
				c0.6-0.1,1.2-0.5,1.4-1.1C341.6,199.1,340.6,197.7,339.4,197.7z"/>
		</g>
	</g>
	<g>
		<path class="st2" d="M500.4,156.7c-2-3.1-2.8-7.1-1.8-10.7c0.8-3.1,2.9-5.7,5.3-8c-2.9-4.2-6.1-8.3-9.5-12.1
			c-0.3-0.3-0.6-0.7-1-0.9c-0.6-0.4-1.3-0.7-2.1-1.2c-3.1,3.4-7.8,5.3-12.5,5.2c-6.1-0.7-11.6-5.2-13.7-10.9
			c-5.9,0.9-11.7,2.6-17.1,4.9c1.1,1.8,1.4,4,1.4,6.2c0,2.3-0.4,4.7-1.5,6.7c-1,2.1-2.7,3.9-4.9,4.8c-1.2,0.5-2.6,0.7-4,0.9
			c-2.3,0.2-4.7,0.2-7,0c0,0-4.5,16.3-4,16.3c1.5,0.4,2.9,0.7,4.3,1.2c1.6,0.5,3.2,1,4.6,1.9s2.6,2.2,3,3.8c0.3,1.1,0.2,2.2,0,3.2
			c-0.7,3.9-2.7,7.5-5.7,10.1c0,0,11,10.8,11.2,10.7c1.3-1.8,3.3-2.9,5.3-3.9c0.8-0.4,1.7-0.9,2.6-1.1c3.3-1,7,0,9.5,2.3
			s3.8,5.7,4,9.1c3.9-0.2,7.8-0.5,11.7-0.9c1.7-0.2,3.5-0.4,5.1-1.6c-0.1-3.4,0.6-6.9,2.2-9.9c0.7-1.5,1.7-2.9,2.9-4
			c1.9-1.6,4.5-2.2,7-2.1c2.5,0.1,4.9,1,7.3,1.9c2.6-4.8,5.2-9.6,6-15.1C505.6,162.2,502.4,159.9,500.4,156.7z"/>
	</g>
	<g>
		<g>
			<path class="st19" d="M481.2,141.7c-3.6-2.3-8.2-3.2-11.7-2.8c-6,0.6-10.5,3.7-13.6,8.7s-3.7,11.7-1.2,17.2
				c2.5,5.4,7.9,9.5,14,10.2c5,0.6,10.3-1.1,14.1-4.4c3.8-3.3,5.4-8.1,5.9-13C488.9,155.1,487.9,146,481.2,141.7z M474.4,167.8
				c-4.8,1.6-10.6-0.2-13.6-4.2c-0.9-1.2-1.6-2.6-1.8-4c-0.2-1.5-0.1-3,0.3-4.4c0.9-3.5,2.9-6.8,6-8.8s7.2-2.5,10.5-0.8
				c4,2.1,6.6,6.4,6.7,10.8C482.7,161.3,479.2,166.2,474.4,167.8z"/>
		</g>
	</g>
	<g class="st20">
		<path class="st18" d="M489.9,155.7c-0.2-0.6-0.4-1.2-0.6-1.8c-0.4-1.1-0.9-2.2-1.2-3.3c-0.1,0-0.1,0-0.2,0
			c-1.2,0.5-0.6,1.4-0.5,2.5s0.4,2.2,0.5,3.2c0.1,1.1,0.2,2.2,0.1,3.3c0,0,0,0,0,0.1c-0.2,0.6-0.4,1.2-0.6,1.8
			c-0.7,2.5-1,3.3-2.5,5.3c-0.1,0.1-0.2,0.3-0.3,0.4c-0.1,0.2-0.5,0.8-0.7,0.9l-0.1,0.1c-0.1,0.1-0.1,0.2-0.2,0.2
			c-0.2,0.3-1.1,1.2-1.1,1.2c-1.3,1-1.1,0.9-2.5,1.9c-1,0.7-2.1,1.2-3.2,1.7c-1.4,0.6-3,1.3-5.1,1.4c-1.6,0-3.3,0-4.9-0.2
			c-2.5-0.5-3.1-0.9-5.2-2.1c-0.7-0.4-1.3-1.1-2.1-1l0,0c0.6,0.6,1.2,1.2,1.8,1.8c0.8,0.8,1.5,1.5,2.3,2.3c2.5,1,5.2,1.5,7.9,1.4
			c1.5-0.1,3-0.1,4.5-0.5c2.6-0.7,5-2,7.1-3.6c1.5-1.4,3.2-2.6,4.5-4.2c1.8-2.9,2.6-6.3,2.7-8.9C490.1,159,490,157.4,489.9,155.7z"
			/>
	</g>
	<g class="st20">
		<path class="st18" d="M509.8,163.8c-0.2-0.8-1.3-0.9-1.7-0.2c-1.7,3-3.4,5.9-5.3,8.8c-0.8,1.2-1.7,2.2-2.3,3.5
			c-0.2,0.3-0.4,0.6-0.4,1c-0.2,1.1,1.1,2,2.1,1.4c0.4-0.2,0.5-0.5,0.7-0.9c0.2-0.2,0.3-0.3,0.4-0.5c1.8-2.5,2.6-5.5,4.1-8.2
			c0.7-1.4,1.5-2.8,2.2-4.2C509.8,164.3,509.8,164,509.8,163.8z"/>
	</g>
	<g class="st20">
		<path class="st18" d="M481.7,189.9c-0.7-0.2-1.3,0.2-2,0.3c-4.4,1.2-7.4,1.3-12.5,1.1c-2.3,0.1-2.3,3.4,0,3.4
			c3.9,0.1,7.8,0.2,11.6-0.8c0.9-0.2,1.8-0.4,2.7-0.6c0.5-0.1,1.1-0.4,1.3-0.9C483.4,191.5,482.8,190.2,481.7,189.9z"/>
	</g>
	<g>
		<path class="st18" d="M466.6,195.6c-0.4,0-0.6-0.3-0.7-0.6c-0.2-3.3-1.7-6.4-4.1-8.7c-1-0.9-2.6-2.1-4.5-2.3
			c-1.7-0.2-3.3,0.4-4.9,1c-2.5,0.9-4.9,2.1-6.5,4.4c-0.1,0.2-0.3,0.3-0.4,0.3c-0.2,0-0.4,0-0.5-0.1c-4.8-3.6-8.5-7.1-11.4-10.9
			c-0.2-0.3-0.2-0.7,0.1-0.9c2.9-2.4,4.9-5.8,5.6-9.4c0.3-1.4,0.2-2.5-0.1-3.5c-0.5-1.7-2-3.1-4.6-4.3c-2.3-1.1-4.8-1.8-7.4-2.2
			c-0.2,0-0.3-0.1-0.4-0.3c-0.1-0.1-0.1-0.3-0.1-0.5c0.9-5.5,2.5-11.1,4.7-16.6c0.1-0.3,0.5-0.5,0.8-0.4c3,1.1,10.5,1.1,13.5-2.4
			c5-5.9,2.7-12.7,1.8-14.6c-0.1-0.3,0-0.7,0.3-0.9c2.9-1.4,7.7-2.7,12.7-4.2c1.6-0.4,3.2-0.9,4.8-1.4c0.2-0.1,0.5,0,0.7,0.2
			s0.2,0.4,0.2,0.7c-0.3,1,2.5,6.3,6.8,8.5c10,5,16.3-1.3,18-3.3c0.1-0.1,0.3-0.2,0.5-0.2s0.4,0.1,0.5,0.2c4.9,4.9,9,9.7,12.6,14.7
			c0.1,0.1,0.1,0.3,0.1,0.5s-0.1,0.3-0.3,0.4c-4.2,3-6.4,8.6-5.3,13.6s5.4,9.2,10.7,10.5c0.2,0,0.3,0.2,0.4,0.3
			c0.1,0.2,0.1,0.3,0.1,0.5c-1.7,5.6-4.1,11.1-7,15.8c-0.2,0.3-0.5,0.4-0.8,0.3c-3.8-1.6-7.5-3-10.9-1.8c-2.5,0.8-4.6,3-5.7,6
			c-0.9,2.3-1.1,4.7-1.4,7.4c-0.1,0.6-0.1,1.1-0.2,1.7c0,0.3-0.2,0.5-0.5,0.6C477.8,194.8,472.2,195.5,466.6,195.6L466.6,195.6z
			 M456.7,182.7c0.2,0,0.5,0,0.7,0c1.8,0.2,3.6,1.1,5.3,2.6c2.5,2.3,4.1,5.5,4.5,8.9c5.1-0.2,10.3-0.8,15.7-1.9
			c0-0.4,0.1-0.8,0.1-1.2c0.3-2.7,0.6-5.3,1.5-7.7c1.3-3.4,3.7-5.9,6.5-6.8c3.7-1.2,7.6,0.1,11.3,1.6c2.6-4.4,4.8-9.3,6.4-14.4
			c-5.5-1.7-9.8-6.1-11-11.4c-1.2-5.3,1-11.2,5.3-14.5c-3.4-4.6-7.2-9.1-11.6-13.5c-2.1,2.3-9,8.2-19.1,3.1c-3.9-2-7-6.4-7.5-8.9
			c-1.3,0.4-2.6,0.8-3.9,1.1c-4.7,1.3-9.1,2.6-12,3.9c1,2.7,2.8,9.4-2.3,15.4c-3.3,3.9-10.7,4-14.4,3c-2,5-3.4,10.1-4.3,15.1
			c2.5,0.4,4.9,1.2,7.1,2.3c2.9,1.4,4.6,3,5.3,5.1c0.4,1.2,0.4,2.5,0.1,4.1c-0.7,3.7-2.7,7.3-5.6,9.8c2.7,3.3,6,6.5,10.2,9.7
			c1.8-2.3,4.3-3.4,6.7-4.4C453.4,183.3,455,182.7,456.7,182.7z"/>
	</g>
	<g>
		<path class="st18" d="M470.2,169.1c-4,0-8-1.9-10.5-5.1c-1-1.4-1.7-2.9-1.9-4.3c-0.2-1.4-0.1-2.9,0.3-4.7c1-3.9,3.3-7.3,6.3-9.2
			c3.4-2.2,7.8-2.6,11.1-0.9c4.1,2.1,6.9,6.5,7.1,11.3c0.2,5.3-3.4,10.5-8.5,12.2C472.8,168.9,471.5,169.1,470.2,169.1z
			 M470.8,145.2c-2,0-4,0.6-5.8,1.7c-2.7,1.8-4.8,4.8-5.7,8.4c-0.4,1.6-0.5,2.9-0.3,4.1c0.2,1.3,0.8,2.5,1.7,3.7
			c2.8,3.8,8.4,5.5,12.9,4s7.8-6.2,7.6-10.9c-0.2-4.3-2.7-8.3-6.4-10.2l0,0C473.6,145.5,472.2,145.2,470.8,145.2z"/>
	</g>
	<g>
		<path class="st18" d="M470.2,175.8c-0.7,0-1.4,0-2.1-0.1c-6.2-0.7-11.9-4.9-14.5-10.6c-2.6-5.6-2.1-12.4,1.2-17.8
			c3.3-5.4,8.1-8.4,14.1-9.1l0,0c3.9-0.4,8.7,0.7,12.1,2.9c7.2,4.7,7.9,14.4,7.7,16.5c-0.6,6.1-2.6,10.5-6.1,13.5
			C479.2,174.1,474.7,175.8,470.2,175.8z M470.6,139.5c-0.5,0-1,0-1.5,0.1c-5.7,0.6-10,3.4-13.1,8.4s-3.5,11.3-1.1,16.5
			c2.4,5.3,7.7,9.1,13.4,9.8c4.8,0.6,9.8-1,13.6-4.2c3.2-2.8,5.1-6.9,5.6-12.6c0.3-2.7-0.9-11.2-7.1-15.2
			C477.6,140.5,473.9,139.5,470.6,139.5z M469,138.9L469,138.9L469,138.9z"/>
	</g>
	<g class="st20">
		<path class="st18" d="M466.8,195.3c-0.2-1-0.6-4.1-1.1-5.5c-1.3-4.5-5.9-8.4-10.6-6.3c-2.1,0.8-3.9,2-5.3,3.2
			c-0.3-0.1-0.6-0.1-0.9,0c-1.1,0.4-2.1,0.8-3.2,1.1h-0.1h-0.1c-0.7-0.4-1.4-0.8-2.1-1.3c-0.2-0.2-0.4-0.4-0.7-0.6
			c-0.4-0.4-0.8-0.7-1.3-0.9c-0.4-0.3-0.9-0.8-1.9-1.7c-1.1-1.1-2.2-2.1-3.3-3.2c-0.6-0.6-1.3-1.4-2.2-1.5c-0.8-0.2-1.6,0.4-1.9,1.2
			c-0.2,0.8,0.2,1.6,0.9,2l0,0c0.5,0.4,0.9,0.9,1.3,1.4c1.8,1.9,3.4,4.1,5.6,5.5c1.1,1,2.2,2.1,3.5,3c1,0.7,2.2,1.3,3.4,1.3
			c1.7,0,2.9-1.3,4.1-2.4c3-2.6,6.5-4.4,7.8-3.6c1.4,0.7,1.6,1.1,2.2,1.8c1.1,1.8,0.8,2.8,1.4,5.7c0.1,0.6,0.2,1.1,0.4,1.7
			c0.2,0.6,0.4,1.2,0.9,1.7c0.4,0.4,1,0.6,1.6,0.7c0.4,0.1,0.9,0.1,1.4,0.1s1,0.1,1.5-0.1c0.6-0.2,1-0.9,1-1.5
			C469,195.6,467.9,195.3,466.8,195.3z"/>
	</g>
	<g class="st20">
		<path class="st18" d="M437.8,161.8c-2.4-1.9-5.2-2.8-8.1-3.6c0,0-0.1,0-0.1-0.1l0,0c0-0.1-0.1-0.2-0.2-0.3
			c-1.1-1.8-3.8-0.2-2.8,1.6c0.8,1.8,2.9,2,4.6,2.6c2.7,0.9,5.3,1.9,6.7,2.9c0.7,0.7,2,0.2,2-0.8
			C439.8,163.1,438.5,162.5,437.8,161.8z"/>
	</g>
	<rect x="543.8" y="314.9" class="st19" width="16.5" height="31.2"/>
	<path class="st18" d="M560.3,346.7h-16.5c-0.4,0-0.7-0.3-0.7-0.7v-31.2c0-0.4,0.3-0.7,0.7-0.7h16.5c0.4,0,0.7,0.3,0.7,0.7V346
		C561,346.4,560.7,346.7,560.3,346.7z M544.5,345.4h15.1v-29.8h-15.1V345.4z"/>
	<g>
		<rect x="569.9" y="278.2" class="st2" width="16.5" height="67.9"/>
		<path class="st18" d="M586.4,346.7h-16.5c-0.4,0-0.7-0.3-0.7-0.7v-67.9c0-0.4,0.3-0.7,0.7-0.7h16.5c0.4,0,0.7,0.3,0.7,0.7V346
			C587,346.4,586.7,346.7,586.4,346.7z M570.6,345.4h15.1v-66.5h-15.1V345.4z"/>
	</g>
	<g>
		<rect x="621.8" y="269.5" class="st2" width="16.5" height="76.6"/>
		<path class="st18" d="M638.2,346.7h-16.5c-0.4,0-0.7-0.3-0.7-0.7v-76.6c0-0.4,0.3-0.7,0.7-0.7h16.5c0.4,0,0.7,0.3,0.7,0.7V346
			C638.9,346.4,638.6,346.7,638.2,346.7z M622.4,345.4h15.1v-75.2h-15.1V345.4z"/>
	</g>
	<g>
		<g>
			<rect x="595.5" y="304.7" class="st2" width="16.5" height="41.4"/>
			<path class="st18" d="M612,346.7h-16.5c-0.4,0-0.7-0.3-0.7-0.7v-41.4c0-0.4,0.3-0.7,0.7-0.7H612c0.4,0,0.7,0.3,0.7,0.7V346
				C612.6,346.4,612.3,346.7,612,346.7z M596.2,345.4h15.1v-40.1h-15.1V345.4z"/>
		</g>
		<g>
			<path class="st18" d="M599.9,344.7L599.9,344.7l-2.5-1.7c-0.1-0.1-0.1-0.2-0.1-0.3c0.1-0.1,0.2-0.1,0.3-0.1l2.4,1.7
				c0.1,0.1,0.1,0.2,0.1,0.3C600,344.7,599.9,344.7,599.9,344.7z"/>
		</g>
		<g>
			<path class="st18" d="M604.6,344.8L604.6,344.8c-2.6-1.6-5.2-3.2-7.6-4.9c-0.1-0.1-0.1-0.2-0.1-0.3c0.1-0.1,0.2-0.1,0.3-0.1
				c2.4,1.7,4.9,3.4,7.5,4.9c0.1,0.1,0.1,0.2,0.1,0.3C604.7,344.7,604.6,344.8,604.6,344.8z"/>
		</g>
		<g>
			<path class="st18" d="M608.1,344.4L608.1,344.4c-3.8-2.5-7.4-5.2-10.8-8c-0.1-0.1-0.1-0.2,0-0.3c0.1-0.1,0.2-0.1,0.3,0
				c3.5,2.8,7.1,5.4,10.7,8c0.1,0.1,0.1,0.2,0.1,0.3C608.3,344.3,608.2,344.4,608.1,344.4z"/>
		</g>
		<g>
			<path class="st18" d="M610.4,342.7L610.4,342.7l-13.4-9.9c-0.1-0.1-0.1-0.2,0-0.3c0.1-0.1,0.2-0.1,0.3,0l13.3,9.9
				c0.1,0.1,0.1,0.2,0,0.3C610.6,342.7,610.5,342.7,610.4,342.7z"/>
		</g>
		<g>
			<path class="st18" d="M610.3,339.2L610.3,339.2c-4.5-3.2-8.8-6.5-13-10c-0.1-0.1-0.1-0.2,0-0.3c0.1-0.1,0.2-0.1,0.3,0
				c4.1,3.5,8.5,6.8,12.9,10c0.1,0.1,0.1,0.2,0.1,0.3C610.4,339.2,610.4,339.2,610.3,339.2z"/>
		</g>
		<g>
			<path class="st18" d="M610.3,335.5L610.3,335.5c-4.4-3.3-8.8-6.7-13-10.1c-0.1-0.1-0.1-0.2,0-0.3c0.1-0.1,0.2-0.1,0.3,0
				c4.2,3.4,8.6,6.8,12.9,10.1c0.1,0.1,0.1,0.2,0,0.3C610.4,335.5,610.4,335.5,610.3,335.5z"/>
		</g>
		<g>
			<path class="st18" d="M609.9,331L609.9,331c-4.3-3.2-8.5-6.6-12.5-10c-0.1-0.1-0.1-0.2,0-0.3c0.1-0.1,0.2-0.1,0.3,0
				c4,3.4,8.2,6.7,12.4,9.9c0.1,0.1,0.1,0.2,0,0.3C610,330.9,609.9,331,609.9,331z"/>
		</g>
		<g>
			<path class="st18" d="M610.1,327L610.1,327c-4.4-3.3-8.6-6.7-12.7-10.1c-0.1-0.1-0.1-0.2,0-0.3c0.1-0.1,0.2-0.1,0.3,0
				c4.1,3.5,8.3,6.9,12.6,10.1c0.1,0.1,0.1,0.2,0,0.3C610.2,327,610.1,327,610.1,327z"/>
		</g>
		<g>
			<path class="st18" d="M610,323L610,323c-4.3-3.3-8.6-6.7-12.7-10.2c-0.1-0.1-0.1-0.2,0-0.3c0.1-0.1,0.2-0.1,0.3,0
				c4.1,3.5,8.3,6.9,12.6,10.2c0.1,0.1,0.1,0.2,0,0.3C610.1,323,610.1,323,610,323z"/>
		</g>
		<g>
			<path class="st18" d="M610.1,319.2L610.1,319.2c-4.4-3.3-8.7-6.8-12.8-10.4c-0.1-0.1-0.1-0.2,0-0.3c0.1-0.1,0.2-0.1,0.3,0
				c4.1,3.6,8.4,7.1,12.7,10.4c0.1,0.1,0.1,0.2,0,0.3C610.2,319.2,610.1,319.2,610.1,319.2z"/>
		</g>
		<g>
			<path class="st18" d="M610.2,315.7L610.2,315.7l-11-8.9c-0.1-0.1-0.1-0.2,0-0.3c0.1-0.1,0.2-0.1,0.3,0l10.9,8.9
				c0.1,0.1,0.1,0.2,0,0.3C610.3,315.6,610.3,315.7,610.2,315.7z"/>
		</g>
		<g>
			<path class="st18" d="M610.3,312.1L610.3,312.1c-2.2-1.5-4.1-3.2-5.9-5c-0.1-0.1-0.1-0.2,0-0.3c0.1-0.1,0.2-0.1,0.3,0
				c1.8,1.8,3.7,3.5,5.8,4.9c0.1,0.1,0.1,0.2,0,0.3C610.4,312.1,610.3,312.1,610.3,312.1z"/>
		</g>
		<g>
			<path class="st18" d="M610.2,308.2c-0.1,0-0.1,0-0.1-0.1l-1.5-1.3c-0.1-0.1-0.1-0.2,0-0.3c0.1-0.1,0.2-0.1,0.3,0l1.5,1.3
				c0.1,0.1,0.1,0.2,0,0.3C610.4,308.2,610.3,308.2,610.2,308.2z"/>
		</g>
	</g>
	<path class="st22" d="M558.5,223.4c0,0,4.6-23.1,40.5-31.9l-17.7,32.6L558.5,223.4z"/>
	<path class="st7" d="M584.4,170.2c-0.6,4.4-2.1,9.2-4.5,9.2s-3.2-3.9-3-9.4c0.3-8.9,1.8-10.5,4.2-10.5
		C583.5,159.6,585.5,161.5,584.4,170.2z"/>
	<path class="st0" d="M558.6,148.8l5,5.7l50.5,20.4c1.8,0.7,3.8-0.1,4.5-1.9c0.7-1.8-0.1-3.8-1.9-4.5L566.2,148L558.6,148.8z"/>
	<path class="st7" d="M598.9,191.4l-7.3,16.9l-20.8,11.6c-2.1-5.5-3.7-10.8-4.8-15.8c-3-13.5-2.7-23.7-2.7-23.7l20.7-8.3l0.5-10.8
		c1.1-14.8,7.1-8.9,8.6,1.6C596,182.6,598.9,191.4,598.9,191.4z"/>
	<path class="st15" d="M598.9,191.4l-7.3,16.9l-20.8,11.6c-2.1-5.5-3.7-10.8-4.8-15.8L598.9,191.4z"/>
	<path class="st7" d="M577.9,172.2c-0.6,4.4-2.4,9.2-5.1,9.2c-2.8,0-3.7-3.9-3.4-9.4c0.4-8.9,2-10.5,4.8-10.5
		C576.9,161.6,579.2,163.5,577.9,172.2z"/>
	<path class="st7" d="M571.3,176.4c-0.7,4.4-2.6,9.2-5.6,9.2s-4-3.9-3.8-9.4c0.4-8.9,2.2-10.5,5.3-10.5
		C570.2,165.8,572.7,167.7,571.3,176.4z"/>
	<g>
		<path class="st15" d="M577.9,181.8c-1-0.1-2.1-1.3-2.6-5.5c0-0.4,0.2-0.8,0.5-0.9c0.3-0.1,0.6,0.2,0.7,0.6c0.3,2.9,1,4.5,1.8,4.4
			c1.8-0.4,4.6-7.8,4.1-13.7c0-0.4,0.2-0.8,0.5-0.8c0.3-0.1,0.6,0.2,0.6,0.6c0.6,6.1-2.3,14.8-5.1,15.4
			C578.2,181.8,578.1,181.8,577.9,181.8z"/>
		<path class="st15" d="M571,183.9c-0.3,0-1.2-0.2-1.9-1.1c-1.3-1.6-1.4-4.7-0.5-9.2c0.1-0.4,0.4-0.7,0.8-0.6
			c0.4,0.1,0.6,0.5,0.5,0.9c-1.1,5.2-0.3,7.2,0.2,7.9c0.5,0.6,1,0.6,1,0.6c0.9,0,1.6-0.3,2.2-1c2.6-2.9,2.2-10.8,2.2-10.9
			c0-0.4,0.3-0.8,0.6-0.8c0.4,0,0.7,0.3,0.7,0.7s0.4,8.6-2.6,12C573.3,183.4,572.3,183.9,571,183.9
			C571.2,183.9,571.1,183.9,571,183.9z"/>
		<path class="st15" d="M563.4,184.8c-0.1,0-0.2,0-0.3,0c-0.6-0.1-1.2-0.5-1.6-1.1c-1.5-2.4-0.6-8-0.4-8.6c0.1-0.4,0.5-0.7,0.8-0.6
			c0.4,0.1,0.6,0.5,0.5,0.9c-0.3,1.5-0.8,5.9,0.2,7.5c0.2,0.3,0.4,0.4,0.7,0.5c2.1,0.3,3.6-1,4.8-4.5c0.1-0.4,0.5-0.6,0.9-0.4
			s0.5,0.6,0.4,0.9C568.9,180.8,567.3,185.2,563.4,184.8z"/>
	</g>
	<path class="st14" d="M786.9,257.5l-49.5-49.9l-36.3,0.7l-38.7,138.9l126,6.2C790,317.4,789.9,285,786.9,257.5z"/>
	<path class="st10" d="M662.4,347.3l-9.7,34.9c0,44-8.1,114.4-8.1,114.4c50.6,18.3,132,4.4,132,4.4c5.3-53.1,9.9-103,11.8-147.5
		L662.4,347.3z"/>
	<path class="st13" d="M720.7,235.2c-6.2,0-12.4-1.8-18.4-5.5c-0.4-0.3-0.9-0.5-1-0.6c-0.4,0-0.7-0.3-0.7-0.7s0.4-0.7,0.8-0.7
		c0.4,0,0.7,0.2,1.6,0.8c11.9,7.2,24.3,7,36.9-0.6c0.3-0.2,0.8-0.1,1,0.2s0.1,0.8-0.2,1C734,233.2,727.3,235.2,720.7,235.2z"/>
	<path class="st23" d="M718.3,506.5c-45.6,0-73.5-9.2-73.8-9.3c-0.4-0.1-0.6-0.5-0.5-0.9s0.5-0.6,0.9-0.5
		c0.5,0.2,52.8,17.4,131.7,4.4c0.4-0.1,0.8,0.2,0.8,0.6c0.1,0.4-0.2,0.8-0.6,0.8C755.1,505.2,735.4,506.5,718.3,506.5z"/>
	<path class="st9" d="M701.1,208.3l-20,0.2c-5.5,0-10.9,1.3-15.8,3.8l-50.7,25.1l-15.6-46l-40.5,31.9l24.3,50.3
		c4,8.3,12.2,13.9,21.5,14.5l0,0c4.6,0.3,9.2-0.6,13.4-2.7l38.4-19.5c0,0,2.6,84.7-16.1,134.2c0,0,38.9,11.7,66-0.4
		C705.9,399.7,724.2,260.4,701.1,208.3z"/>
	<path class="st9" d="M841,367.5c-5.1-49.9-21.8-100-29.8-122c-2.7-7.4-7.3-14-13.4-19l0,0c-5.3-4.4-11.6-7.5-18.3-9.1l-42-9.8
		c-5.8,57.6,0.9,124.8,9.2,193.2c0,0,63.1-2.9,83.2-15.4L841,367.5z"/>
	<path class="st22" d="M796,303.7c-0.4,0-0.7-0.3-0.7-0.6l-7.8-49.9c-0.1-0.4,0.2-0.8,0.6-0.8c0.4-0.1,0.8,0.2,0.8,0.6l7.8,49.9
		C796.8,303.3,796.5,303.7,796,303.7C796,303.7,796,303.7,796,303.7z"/>
	<polygon class="st14" points="820.9,384.2 761.8,364 787.6,289.7 846.7,309.9 	"/>
	<path class="st24" d="M821.4,385.1l-60.5-20.7l0.2-0.7l26-74.9l60.5,20.7l-0.2,0.7L821.4,385.1z M762.7,363.5l57.8,19.7l25.3-72.8
		L788,290.7L762.7,363.5z"/>
	<g>
		<g>
			<g>
				<line class="st25" x1="797.7" y1="315.1" x2="828.2" y2="325.2"/>
				<path class="st24" d="M828.2,325.9c-0.1,0-0.2,0-0.2,0l-30.6-10c-0.4-0.1-0.6-0.5-0.5-0.9s0.5-0.6,0.9-0.5l30.6,10
					c0.4,0.1,0.6,0.5,0.5,0.9C828.8,325.7,828.6,325.9,828.2,325.9z"/>
			</g>
			<g>
				<line class="st25" x1="799" y1="325.9" x2="819.1" y2="332.3"/>
				<path class="st24" d="M819.1,333c-0.1,0-0.1,0-0.2,0l-20-6.4c-0.4-0.1-0.6-0.5-0.5-0.9s0.5-0.6,0.9-0.5l20,6.4
					c0.4,0.1,0.6,0.5,0.5,0.9C819.7,332.8,819.4,333,819.1,333z"/>
			</g>
		</g>
	</g>
	
		<rect x="814.5" y="291" transform="matrix(0.3241 -0.946 0.946 0.3241 269.8819 978.478)" class="st24" width="10.4" height="18.8"/>
	<path class="st22" d="M638.8,275.1c-0.3,0-0.5-0.1-0.6-0.4c-0.2-0.4-0.1-0.8,0.3-1l33.7-18.7c0.4-0.2,0.8-0.1,1,0.3
		c0.2,0.4,0.1,0.8-0.3,1L639.1,275C639,275,638.9,275.1,638.8,275.1z"/>
	<g>
		<path class="st7" d="M843.2,383.8c0,0,8.8-22.7-22.5-39.8c0,0-7.6-2.9-2,8.6c0,0-12-13.7-9,2.2c0,0-9.5-9.5-4.6,8.6
			c0,0-9.5-5.1-3.7,16.4C807.2,401.2,830.7,409.8,843.2,383.8z"/>
		<g>
			<path class="st15" d="M829.7,366.7c-0.2,0-0.5-0.1-0.6-0.3c-3.8-5.8-10.9-13.3-10.9-13.4c-0.3-0.3-0.3-0.8,0-1
				c0.3-0.3,0.8-0.3,1,0c0.1,0.1,7.2,7.7,11.1,13.5c0.2,0.3,0.1,0.8-0.2,1C830,366.7,829.9,366.7,829.7,366.7z"/>
			<path class="st15" d="M818.7,369.7c-0.3,0-0.6-0.2-0.7-0.5c-2.8-7.4-8.6-13.6-8.7-13.7c-0.3-0.3-0.3-0.8,0-1c0.3-0.3,0.8-0.3,1,0
				s6,6.5,8.9,14.2c0.1,0.4,0,0.8-0.4,0.9C818.9,369.6,818.8,369.7,818.7,369.7z"/>
			<path class="st15" d="M809.4,374.3c-0.4,0-0.7-0.3-0.7-0.7c-0.2-3.7-4.2-9.8-4.3-9.9c-0.2-0.3-0.1-0.8,0.2-1s0.8-0.1,1,0.2
				c0.2,0.3,4.3,6.6,4.5,10.6C810.2,373.9,809.9,374.3,809.4,374.3L809.4,374.3z"/>
		</g>
	</g>
	<path class="st22" d="M752.7,307.6c-0.4,0-0.7-0.3-0.7-0.7c-0.5-4.2-1-8.6-1.6-13.2c-1.9-15.7-3.9-32-3.3-43.9v-0.2l6-18.3
		l-11.3-18.8c-0.2-0.3-0.1-0.8,0.3-1c0.3-0.2,0.8-0.1,1,0.2l11.7,19.4l-6.2,18.8c-0.6,11.8,1.4,27.9,3.3,43.5
		c0.6,4.6,1.1,9,1.6,13.2C753.5,307.2,753.2,307.5,752.7,307.6C752.8,307.6,752.7,307.6,752.7,307.6z"/>
	<path class="st22" d="M697,308.3c-0.1,0-0.1,0-0.2,0c-0.4-0.1-0.6-0.5-0.6-0.9c4.1-18.7,4.8-37.8,2-53.6l-11.6-18.6l11.4-23.1
		c0.2-0.4,0.6-0.5,1-0.3s0.5,0.6,0.3,1l-11.1,22.4l11.4,18.2c2.9,16.1,2.2,35.4-2,54.3C697.6,308.1,697.3,308.3,697,308.3z"/>
	<path class="st7" d="M737.4,207.6c-6.6,13.2-23.5,19.1-36.3,0.7c0.9-3.5,2-7.2,3.1-10.9c2-7.1,3.9-14.6,4.1-22.5
		c0-1.4,0-2.7-0.1-4.1l27.4,2.6L737.4,207.6z"/>
	<path class="st15" d="M729.5,177.9c0,0-6.3,14.1-25.3,19.5c2-7.1,3.9-14.6,4.1-22.5L729.5,177.9z"/>
	<path class="st7" d="M743.7,145l-9.3,30.8c0,0-15.7,14.5-31.1,7.1c-4.2-2-5.8-8-6.1-15c-0.1-1.9-0.1-4,0-6
		c0.5-12.1,3.5-24.7,3.5-24.7l23-11.5L743.7,145z"/>
	<path class="st0" d="M741.5,163.3c0,0-23.2-13.9-25.4-27.6c0,0-5,1.2-16.2,5.3c0,0,1.7-20.4,24.2-22.7c21-2.1,46.3,14.9,51.9,60.3
		l-39.1,20.9l-2-34.2L741.5,163.3z"/>
	<g>
		<path class="st7" d="M742.1,166.8c-2.4,5.6-7.7,8.6-11.9,6.9c-4.2-1.8-5.6-7.8-3.2-13.3c2.4-5.6,7.7-8.6,11.9-6.9
			C743.1,155.2,744.5,161.2,742.1,166.8z"/>
		<path class="st13" d="M731.4,165.1c-0.1,0-0.3,0-0.4-0.1c-0.3-0.2-0.5-0.7-0.2-1c0-0.1,3.7-5.9,9.4-4.3c0.4,0.1,0.6,0.5,0.5,0.9
			s-0.5,0.6-0.9,0.5c-4.6-1.3-7.7,3.6-7.7,3.6C731.9,164.9,731.6,165.1,731.4,165.1z"/>
	</g>
	<path class="st13" d="M703.2,156.2c0,1.1-0.9,2-2,2s-2-0.9-2-2s0.9-2,2-2S703.2,155.1,703.2,156.2z"/>
	<path class="st13" d="M717.3,156.5c0,1.1-0.9,2-2,2s-2-0.9-2-2s0.9-2,2-2C716.4,154.5,717.3,155.4,717.3,156.5z"/>
	<path class="st15" d="M707.7,168.8C707.6,168.8,707.6,168.8,707.7,168.8c-0.2,0-2.6-0.2-4-1.4c-0.7-0.6-1-1.4-1-2.3
		c0.1-2.2,2.2-4.8,4.1-6.3c0.3-0.2,0.8-0.2,1,0.1s0.2,0.8-0.1,1c-2,1.5-3.5,3.7-3.6,5.1c0,0.5,0.1,0.9,0.5,1.1
		c1.1,0.9,3.1,1.1,3.2,1.1c0.4,0,0.7,0.4,0.7,0.8C708.4,168.5,708,168.8,707.7,168.8z"/>
	<path class="st13" d="M707.1,174.9c-0.4,0-0.7-0.3-0.7-0.7s0.2-0.8,0.6-0.8c0,0,4.1-0.5,6.7-3.6c0.3-0.3,0.7-0.4,1-0.1
		c0.3,0.3,0.4,0.7,0.1,1C711.9,174.3,707.4,174.9,707.1,174.9C707.2,174.9,707.1,174.9,707.1,174.9z"/>
	<path class="st13" d="M697.9,150.8c0.5-0.7,1.1-1.2,1.8-1.5s1.6-0.5,2.4-0.4c0.8,0.1,1.6,0.3,2.3,0.7s1.2,1,1.6,1.6
		c0.1,0.2,0.1,0.5-0.2,0.6c-0.1,0.1-0.2,0.1-0.3,0.1l0,0c-0.7-0.2-1.3-0.4-1.9-0.5c-0.6-0.2-1.1-0.3-1.7-0.3c-0.6-0.1-1.1,0-1.7,0
		c-0.6,0.1-1.2,0.2-1.8,0.4h-0.1c-0.2,0.1-0.5-0.1-0.5-0.3C697.8,151,697.8,150.9,697.9,150.8z"/>
	<path class="st13" d="M720.4,152.3c-1.4-0.6-2.8-1.1-4.1-1.1c-0.6-0.1-1.3,0-1.9,0.1c-0.7,0.1-1.3,0.4-2.1,0.6h-0.1
		c-0.2,0.1-0.5-0.1-0.6-0.3c0-0.1,0-0.3,0-0.4c0.5-0.7,1.1-1.4,2-1.8c0.8-0.4,1.8-0.6,2.8-0.5c0.9,0.1,1.8,0.4,2.6,0.9
		s1.4,1,1.9,1.8c0.1,0.2,0.1,0.5-0.1,0.6C720.7,152.3,720.6,152.4,720.4,152.3L720.4,152.3z"/>
	<path class="st17" d="M724.1,163.7c0,1.7-1.4,3-3,3c-1.7,0-3-1.3-3-3s1.4-3,3-3C722.8,160.7,724.1,162,724.1,163.7z"/>
	<path class="st17" d="M700.2,164.9c0,1.6-1.3,3-3,3c-0.1-1.9-0.1-4,0-6C698.8,161.9,700.2,163.3,700.2,164.9z"/>
	<path class="st0" d="M716,131.2c0.1,2.7,0.3,5.4,0.7,8.1c0.4,2.6,1,5.3,2,7.7s2.4,4.8,4.5,6.2c2.1,1.6,4.8,2,7.4,1.8l0,0
		c0.2,0,0.3,0.1,0.3,0.3c0,0.1-0.1,0.3-0.2,0.3c-1.4,0.3-2.8,0.4-4.2,0.2s-2.8-0.7-4-1.5c-2.5-1.6-4-4.2-5.1-6.8
		c-1-2.6-1.6-5.4-1.9-8.1c-0.3-2.8-0.3-5.5,0-8.3c0-0.2,0.2-0.3,0.3-0.3C715.9,131,716,131.1,716,131.2L716,131.2z"/>
	<path class="st0" d="M734.4,118.9c6.5,1.3,12.5,4.3,18,7.9c5.5,3.7,10.3,8.3,14.6,13.3l3,3.9c1,1.3,1.8,2.7,2.8,4.1
		c1.9,2.7,3.4,5.7,4.9,8.6c0.8,1.4,1.4,3,2.1,4.5l2,4.5c1.1,3.1,2.1,6.2,3.1,9.3c0.1,0.1,0,0.3-0.2,0.4c-0.1,0-0.3,0-0.4-0.2l0,0
		c-1.2-3-2.3-6.1-3.5-9.1l-2.1-4.4c-0.7-1.5-1.3-3-2.2-4.4c-1.6-2.8-3.1-5.7-5-8.4c-0.9-1.3-1.7-2.7-2.7-4l-3-3.8
		c-4.2-5-8.9-9.5-14.2-13.2c-1.3-0.9-2.7-1.9-4.1-2.7c-0.7-0.4-1.4-0.8-2.1-1.2l-2.2-1.1c-2.9-1.4-5.9-2.7-9.1-3.4l0,0
		c-0.2,0-0.2-0.2-0.2-0.3C734.1,119,734.2,118.9,734.4,118.9z"/>
	<rect x="271.5" y="432" class="st14" width="55.7" height="12.5"/>
	<path class="st5" d="M410.3,371.1l-8.4,20.8l-19.6,48.2c-1.1,2.7-3.5,4.5-6.1,4.5h-78.4l29.2-71.9c3.1-7.6,9.8-12.5,17.2-12.5h60.1
		C409,360.3,412.3,366,410.3,371.1z"/>
	<path class="st6" d="M401.8,391.9l-19.6,48.2c-1.1,2.7-3.5,4.5-6.1,4.5h-51.3C363.4,431.7,387.3,410.5,401.8,391.9z"/>
	<rect x="563.4" y="432" class="st14" width="55.7" height="12.5"/>
	<path class="st5" d="M593,444.6h-78.4c-2.6,0-5-1.7-6.1-4.5l-18-44.1l-10.1-24.9c-2.1-5.1,1.2-10.9,6.1-10.9h60.1
		c7.4,0,14.1,4.9,17.1,12.5L593,444.6z"/>
	<path class="st6" d="M554.6,444.6h-40.1c-2.6,0-5-1.7-6.1-4.5L490.5,396C504.4,412.3,527.2,434.6,554.6,444.6z"/>
	<rect x="218.1" y="454.5" class="st14" width="16.8" height="354.5"/>
	<path class="st3" d="M235.6,809.7h-18.3V453.8h18.3V809.7z M218.8,808.2h15.3v-353h-15.3V808.2z"/>
	<rect x="600.4" y="454.5" class="st14" width="16.8" height="354.5"/>
	<path class="st3" d="M618,809.7h-18.3V453.8H618V809.7z M601.2,808.2h15.3v-353h-15.3V808.2z"/>
	<rect x="117.3" y="444.3" class="st14" width="600.6" height="13.9"/>
	<path class="st3" d="M718.7,459H116.6v-15.4h602.1L718.7,459L718.7,459z M118.1,457.5h599.2V445H118.1V457.5z"/>
	<path class="st9" d="M349.8,769.2c-11.4,2.2-34-17.3-34-17.3l-30.8,9.8c2.5,8.4,5,16.8,7.4,25.2c2.2,0.4,5.3,0.7,8.7-0.3
		c3.2-1,3.4-2.1,5.8-2.7c4.6-1.2,7.7,2,15,4.8c2.7,1.1,6.7,2.3,11.9,3c9.3-5.4,18.7-10.8,28-16.2C361.8,775.5,361.1,767,349.8,769.2
		z"/>
</g>
</svg>
