<?xml version="1.0" encoding="utf-8"?>
<!-- Generator: Adobe Illustrator 26.3.1, SVG Export Plug-In . SVG Version: 6.00 Build 0)  -->
<svg version="1.1" id="Слой_1" xmlns="http://www.w3.org/2000/svg" xmlns:xlink="http://www.w3.org/1999/xlink" x="0px" y="0px"
	 viewBox="0 0 50 50" style="enable-background:new 0 0 50 50;" xml:space="preserve">
<g>
	<path d="M22.6,34.2c0.2-0.4,0.8-1.5,2.5-1.5h4v-9.9c-0.1-0.5,0-1.2,0.5-1.8c0.4-0.5,1.1-1.1,2.5-1.1h2.4V6.9c0-0.9-0.7-1.7-1.7-1.7
		l-28.5,0c0-1.1,1.7-1.7,1.7-1.7h28.4c1.8,0,1.7,1.6,1.7,1.6v15H39V2.3c0-1.3-1.6-1.6-1.6-1.6H5.8c-4.7,0-4.7,4.4-4.7,4.4v40.1
		c0,0.9,0.7,1.7,1.7,1.7h28.7l-7.9-9.6C23.1,36.8,22.1,35.6,22.6,34.2z M9.4,11.4h17.3v3.3H9.4V11.4z"/>
	<path d="M48.8,35.2c-0.1-0.3-0.5-0.5-0.8-0.5h-5.4c0,0,0-6.7,0-10.8c0-0.9-0.7-1.6-1.6-1.6h-7.8c-0.9,0-1.6,0.7-1.6,1.6
		c0,4.1,0,10.8,0,10.8h-5.4c-0.4,0-0.7,0.2-0.8,0.5c-0.1,0.3-0.1,0.7,0.1,1L36,48.7c0.6,0.6,1.5,0.6,2.1,0l10.5-12.6
		C48.9,35.9,48.9,35.5,48.8,35.2z"/>
</g>
</svg>
