<?xml version="1.0" encoding="utf-8"?>
<!-- Generator: Adobe Illustrator 26.3.1, SVG Export Plug-In . SVG Version: 6.00 Build 0)  -->
<svg version="1.1" id="Слой_1" xmlns="http://www.w3.org/2000/svg" xmlns:xlink="http://www.w3.org/1999/xlink" x="0px" y="0px"
	 viewBox="0 0 50 50" style="enable-background:new 0 0 50 50;" xml:space="preserve">
<path d="M10.1,4.4c0-2.3,1.9-4.2,4.2-4.2c2.3,0,4.2,1.9,4.2,4.2s-1.9,4.2-4.2,4.2C11.9,8.6,10.1,6.7,10.1,4.4z M19.6,19.8v4h11v25.8
	h4.7V23.8h11.1v-4H19.6z M25.1,26.3H13.8l1.1-7.6h10.4v0c0,0,0,0,0,0c1.4,0,2.6-1.2,2.6-2.6c0-1.4-1.2-2.6-2.6-2.6c0,0,0,0,0,0h-9.7
	l0.5-3.6c0-0.3-0.3-0.6-0.6-0.6h-4.6c-0.3,0-0.6,0.3-0.6,0.6L3.3,31.4c0,0.3,0.3,0.6,0.6,0.6h16l0,14.7c0,1.6,1.3,2.9,2.9,2.9
	c1.6,0,2.9-1.3,2.9-2.9l0-19.8C25.7,26.6,25.4,26.3,25.1,26.3z M4.7,35.6h5.8v13.6H13V35.6h5.8v-2.1H4.7V35.6z M42.5,14.5H29.6v3.9
	h12.9V14.5z M32.2,13.7h12.9V9.9H32.2V13.7z M32,9.1h12.9V5.3H32V9.1z M43,0.8H30.1v3.9H43V0.8z"/>
</svg>
